M48
; DRILL file {tscircuit} date 2026-10-08T20:06:28.873Z
; FORMAT={-:-/ absolute / metric / decimal}
; #@! TF.CreationDate,2026-10-08T20:06:28.873Z
; #@! TF.GenerationSoftware,tscircuit
; #@! TF.FileFunction,Plated,1,2,PTH
FMAT,2
METRIC
; #@! TA.AperFunction,Plated,PTH,ComponentDrill
T10C0.799998
; #@! TA.AperFunction,Plated,PTH,ComponentDrill
T11C0.900000
; #@! TA.AperFunction,Plated,PTH,ComponentDrill
T12C0.250000
%
G90
G05
T10
X-15.1241Y0.1749
G85X-14.724Y0.175
X-11.0943Y0.1749
G85X-10.394Y0.175
X-11.0943Y8.8251
G85X-10.394Y8.825
X-15.1241Y8.8251
G85X-14.724Y8.825
X15.1241Y8.8251
G85X14.724Y8.825
X11.0943Y8.8251
G85X10.394Y8.825
X11.0943Y0.1749
G85X10.394Y0.175
X15.1241Y0.1749
G85X14.724Y0.175
T11
X-3.0000Y-15.5000
X-1.0000Y-15.5000
X1.0000Y-15.5000
X3.0000Y-15.5000
T12
X5.1827Y-8.5000
X5.1827Y-10.7150
X-3.2189Y2.8949
X5.1827Y-16.6600
X4.8488Y12.2606
X6.7937Y6.6105
X-3.0757Y0.3633
X5.1827Y-1.6000
X-1.7996Y-4.2765
X2.0692Y-5.3500
X8.1473Y3.2501
X6.4722Y9.8395
X11.0368Y5.2501
X8.9829Y8.4947
X11.0391Y6.2501
X7.7181Y13.1451
X4.7409Y13.1625
X8.8872Y-11.4785
X8.8872Y-0.1076
X-1.6606Y10.2000
X-0.4233Y-11.3519
X0.4128Y-14.2950
X2.8028Y-10.4936
X1.3559Y-0.6041
X4.4812Y-8.5161
X1.6668Y3.2647
X4.7214Y5.8841
X-4.8049Y-7.5258
X-3.1338Y-13.9924
X6.0233Y-11.5889
X9.5418Y-9.8822
X9.4269Y-0.9750
X-7.7506Y13.1377
X-3.0924Y-11.4425
X7.1019Y-11.9566
X-0.9278Y2.7995
X1.3575Y7.7518
X8.0984Y-16.6609
X6.1790Y-14.2464
X-0.8277Y14.8461
X-0.8277Y5.4594
X-8.4062Y-13.5016
X-8.4062Y0.6636
X-8.4062Y4.4000
X-3.3999Y8.2000
X5.0191Y1.4997
X-0.0000Y-8.0000
X1.5000Y1.3000
X2.0500Y0.6999
X1.5000Y0.1000
X3.3000Y-1.4000
X4.3000Y-1.4000
X6.1992Y-1.4500
X7.9500Y0.3001
X8.1000Y1.5000
X3.5000Y4.5500
X4.5995Y4.5500
X5.5000Y4.7500
X6.8000Y4.4000
X3.9500Y-7.4996
X0.4000Y-4.5500
X-0.4000Y-4.5500
X3.6500Y-6.5000
X-3.5000Y-6.5000
M30