G04 Explicit reviewed solder-paste apertures mm*
%FSLAX46Y46*%
%MOMM*%
%LPD*%
%ADD10C,0.001*%
D10*
G01*
%LPD*%
G36*
X-8027496Y-8106496D02*
X-8027496Y-9093500D01*
X-8972504Y-9093500D01*
X-8972504Y-8106496D01*
X-8027496Y-8106496D01*
G37*
%LPD*%
G36*
X-13330001Y-6845050D02*
X-13330001Y-9295046D01*
X-14169999Y-9295046D01*
X-14169999Y-6845050D01*
X-13330001Y-6845050D01*
G37*
%LPD*%
G36*
X-8027496Y-6106500D02*
X-8027496Y-7093504D01*
X-8972504Y-7093504D01*
X-8972504Y-6106500D01*
X-8027496Y-6106500D01*
G37*
%LPD*%
G36*
X-5620025Y-6714999D02*
X-6180023Y-6714999D01*
X-6180023Y-6085001D01*
X-5620025Y-6085001D01*
X-5620025Y-6714999D01*
G37*
%LPD*%
G36*
X-8549520Y-4935200D02*
X-9652022Y-4935200D01*
X-9652022Y-4464794D01*
X-8549520Y-4464794D01*
X-8549520Y-4935200D01*
G37*
%LPD*%
G36*
X-7465500Y-3838675D02*
X-7495246Y-3829323D01*
X-7524512Y-3818584D01*
X-7553244Y-3806476D01*
X-7581390Y-3793052D01*
X-7608860Y-3778312D01*
X-7635619Y-3762292D01*
X-7661595Y-3745046D01*
X-7686736Y-3726608D01*
X-7710971Y-3707014D01*
X-7734280Y-3686283D01*
X-7756576Y-3664502D01*
X-7777841Y-3641691D01*
X-7798004Y-3617919D01*
X-7817028Y-3593222D01*
X-7834879Y-3567655D01*
X-7851504Y-3541287D01*
X-7866883Y-3514155D01*
X-7880983Y-3486347D01*
X-7893749Y-3430838D01*
X-9081880Y-3430838D01*
X-9081880Y-2968842D01*
X-7893749Y-2968842D01*
X-7880983Y-2913298D01*
X-7866883Y-2885490D01*
X-7851504Y-2858357D01*
X-7834879Y-2831990D01*
X-7817028Y-2806422D01*
X-7798004Y-2781726D01*
X-7777841Y-2757954D01*
X-7756576Y-2735142D01*
X-7734280Y-2713361D01*
X-7710971Y-2692630D01*
X-7686736Y-2673036D01*
X-7661595Y-2654598D01*
X-7635619Y-2637352D01*
X-7608860Y-2621332D01*
X-7581390Y-2606592D01*
X-7553244Y-2593169D01*
X-7524512Y-2581060D01*
X-7495246Y-2570321D01*
X-7465500Y-2560969D01*
X-7435363Y-2553021D01*
X-7404870Y-2546478D01*
X-7374111Y-2541393D01*
X-7343138Y-2537748D01*
X-7312041Y-2535561D01*
X-7280872Y-2534815D01*
X-5982932Y-2534815D01*
X-5951764Y-2535561D01*
X-5920667Y-2537748D01*
X-5889694Y-2541393D01*
X-5858935Y-2546478D01*
X-5828442Y-2553021D01*
X-5798305Y-2560969D01*
X-5768559Y-2570321D01*
X-5739293Y-2581060D01*
X-5710561Y-2593169D01*
X-5682415Y-2606593D01*
X-5654945Y-2621332D01*
X-5628186Y-2637352D01*
X-5602209Y-2654599D01*
X-5577068Y-2673036D01*
X-5552834Y-2692630D01*
X-5529525Y-2713361D01*
X-5507228Y-2735142D01*
X-5485964Y-2757954D01*
X-5465801Y-2781726D01*
X-5446776Y-2806422D01*
X-5428925Y-2831990D01*
X-5412301Y-2858357D01*
X-5396921Y-2885490D01*
X-5382822Y-2913298D01*
X-5370056Y-2941746D01*
X-5358623Y-2970745D01*
X-5348577Y-3000259D01*
X-5339919Y-3030219D01*
X-5332682Y-3060551D01*
X-5326868Y-3091169D01*
X-5322494Y-3122052D01*
X-5319578Y-3153096D01*
X-5318120Y-3184229D01*
X-5318120Y-3215415D01*
X-5319578Y-3246548D01*
X-5322494Y-3277592D01*
X-5326868Y-3308476D01*
X-5332682Y-3339093D01*
X-5339919Y-3369426D01*
X-5348577Y-3399385D01*
X-5358623Y-3428900D01*
X-5370056Y-3457899D01*
X-5382822Y-3486347D01*
X-5396921Y-3514155D01*
X-5412301Y-3541287D01*
X-5428925Y-3567655D01*
X-5446776Y-3593222D01*
X-5465801Y-3617919D01*
X-5485964Y-3641691D01*
X-5507228Y-3664502D01*
X-5529525Y-3686283D01*
X-5552834Y-3707014D01*
X-5577068Y-3726608D01*
X-5602209Y-3745046D01*
X-5628186Y-3762293D01*
X-5654945Y-3778312D01*
X-5682415Y-3793052D01*
X-5710561Y-3806476D01*
X-5739293Y-3818584D01*
X-5768559Y-3829323D01*
X-5798305Y-3838675D01*
X-5828442Y-3846623D01*
X-5858935Y-3853166D01*
X-5889694Y-3858251D01*
X-5920667Y-3861896D01*
X-5951764Y-3864083D01*
X-5982932Y-3864830D01*
X-7280872Y-3864830D01*
X-7312041Y-3864083D01*
X-7343138Y-3861896D01*
X-7374111Y-3858251D01*
X-7404870Y-3853166D01*
X-7435363Y-3846623D01*
X-7465500Y-3838675D01*
G37*
%LPD*%
G36*
X-13330001Y-1504954D02*
X-13330001Y-3954950D01*
X-14169999Y-3954950D01*
X-14169999Y-1504954D01*
X-13330001Y-1504954D01*
G37*
%LPD*%
G36*
X-8549520Y-1464800D02*
X-8549520Y-1935206D01*
X-9652022Y-1935206D01*
X-9652022Y-1464800D01*
X-8549520Y-1464800D01*
G37*
%LPD*%
G36*
X-6706496Y27497D02*
X-7693500Y27497D01*
X-7693500Y972504D01*
X-6706496Y972504D01*
X-6706496Y27497D01*
G37*
%LPD*%
G36*
X-9520836Y1510002D02*
X-9520836Y1300003D01*
X-9520836Y1299985D01*
X-9520836Y1089985D01*
X-10430816Y1089985D01*
X-10430816Y1299985D01*
X-10430816Y1300003D01*
X-10430816Y1510002D01*
X-9520836Y1510002D01*
G37*
%LPD*%
G36*
X-9520836Y1889831D02*
X-10430816Y1889831D01*
X-10430816Y2099831D01*
X-10430816Y2099849D01*
X-10430816Y2309848D01*
X-9520836Y2309848D01*
X-9520836Y2099849D01*
X-9520836Y2099831D01*
X-9520836Y1889831D01*
G37*
%LPD*%
G36*
X-9520929Y2854940D02*
X-9520929Y2644940D01*
X-10430927Y2644940D01*
X-10430927Y2854940D01*
X-9520929Y2854940D01*
G37*
%LPD*%
G36*
X-9520929Y3355320D02*
X-9520929Y3145320D01*
X-10430927Y3145320D01*
X-10430927Y3355320D01*
X-9520929Y3355320D01*
G37*
%LPD*%
G36*
X-9520929Y3644938D02*
X-10430927Y3644938D01*
X-10430927Y3854938D01*
X-9520929Y3854938D01*
X-9520929Y3644938D01*
G37*
%LPD*%
G36*
X-9520929Y4145064D02*
X-10430927Y4145064D01*
X-10430927Y4355064D01*
X-9520929Y4355064D01*
X-9520929Y4145064D01*
G37*
%LPD*%
G36*
X-6280023Y4732504D02*
X-6280023Y4067496D01*
X-7120021Y4067496D01*
X-7120021Y4732504D01*
X-6280023Y4732504D01*
G37*
%LPD*%
G36*
X-9520929Y4854936D02*
X-9520929Y4644936D01*
X-10430927Y4644936D01*
X-10430927Y4854936D01*
X-9520929Y4854936D01*
G37*
%LPD*%
G36*
X-9520929Y5355062D02*
X-9520929Y5145062D01*
X-10430927Y5145062D01*
X-10430927Y5355062D01*
X-9520929Y5355062D01*
G37*
%LPD*%
G36*
X-9520929Y5644934D02*
X-10430927Y5644934D01*
X-10430927Y5854934D01*
X-9520929Y5854934D01*
X-9520929Y5644934D01*
G37*
%LPD*%
G36*
X-5875122Y5990004D02*
X-6925120Y5990004D01*
X-6925120Y6410004D01*
X-5875122Y6410004D01*
X-5875122Y5990004D01*
G37*
%LPD*%
G36*
X-9520929Y6355060D02*
X-9520929Y6145060D01*
X-10430927Y6145060D01*
X-10430927Y6355060D01*
X-9520929Y6355060D01*
G37*
%LPD*%
G36*
X-9520992Y6689966D02*
X-10430973Y6689966D01*
X-10430973Y6899930D01*
X-10430990Y6899930D01*
X-10430990Y7109948D01*
X-9521010Y7109948D01*
X-9521010Y6899984D01*
X-9520992Y6899984D01*
X-9520992Y6689966D01*
G37*
%LPD*%
G36*
X-5875122Y7410002D02*
X-5875122Y6990002D01*
X-6925120Y6990002D01*
X-6925120Y7410002D01*
X-5875122Y7410002D01*
G37*
%LPD*%
G36*
X-10430883Y7489965D02*
X-10430883Y7699947D01*
X-10430989Y7699947D01*
X-10430989Y7909946D01*
X-9520973Y7909946D01*
X-9520973Y7699964D01*
X-9520867Y7699964D01*
X-9520867Y7489965D01*
X-10430883Y7489965D01*
G37*
%LPD*%
G36*
X-5875122Y7990000D02*
X-6925120Y7990000D01*
X-6925120Y8410000D01*
X-5875122Y8410000D01*
X-5875122Y7990000D01*
G37*
%LPD*%
G36*
X-5875122Y9409998D02*
X-5875122Y8989998D01*
X-6925120Y8989998D01*
X-6925120Y9409998D01*
X-5875122Y9409998D01*
G37*
%LPD*%
G36*
X-5875122Y10409996D02*
X-5875122Y9989996D01*
X-6925120Y9989996D01*
X-6925120Y10409996D01*
X-5875122Y10409996D01*
G37*
%LPD*%
G36*
X-5920025Y12014999D02*
X-5920025Y11385001D01*
X-6480023Y11385001D01*
X-6480023Y12014999D01*
X-5920025Y12014999D01*
G37*
%LPD*%
G36*
X-7464370Y11397598D02*
X-8028902Y11397598D01*
X-8028902Y12002402D01*
X-7464370Y12002402D01*
X-7464370Y11397598D01*
G37*
%LPD*%
G36*
X-8971098Y11397598D02*
X-9535630Y11397598D01*
X-9535630Y12002402D01*
X-8971098Y12002402D01*
X-8971098Y11397598D01*
G37*
%LPD*%
G36*
X-6471098Y13802402D02*
X-6471098Y13197598D01*
X-7035630Y13197598D01*
X-7035630Y13802402D01*
X-6471098Y13802402D01*
G37*
%LPD*%
G36*
X-8194985Y16019999D02*
X-8194985Y15180001D01*
X-9104983Y15180001D01*
X-9104983Y16019999D01*
X-8194985Y16019999D01*
G37*
%LPD*%
G36*
X-4895017Y16019999D02*
X-4895017Y15180001D01*
X-5805015Y15180001D01*
X-5805015Y16019999D01*
X-4895017Y16019999D01*
G37*
%LPD*%
G36*
X-1019977Y-12614999D02*
X-1579975Y-12614999D01*
X-1579975Y-11985001D01*
X-1019977Y-11985001D01*
X-1019977Y-12614999D01*
G37*
%LPD*%
G36*
X-2420025Y-12614999D02*
X-2980023Y-12614999D01*
X-2980023Y-11985001D01*
X-2420025Y-11985001D01*
X-2420025Y-12614999D01*
G37*
%LPD*%
G36*
X-3785001Y-11820025D02*
X-3785001Y-12380023D01*
X-4414999Y-12380023D01*
X-4414999Y-11820025D01*
X-3785001Y-11820025D01*
G37*
%LPD*%
G36*
X-3785001Y-10419977D02*
X-3785001Y-10979975D01*
X-4414999Y-10979975D01*
X-4414999Y-10419977D01*
X-3785001Y-10419977D01*
G37*
%LPD*%
G36*
X-3635001Y-8970025D02*
X-3635001Y-9530023D01*
X-4264999Y-9530023D01*
X-4264999Y-8970025D01*
X-3635001Y-8970025D01*
G37*
%LPD*%
G36*
X-100027Y-9339325D02*
X-1339379Y-9339325D01*
X-1339379Y-8099973D01*
X-100027Y-8099973D01*
X-100027Y-9339325D01*
G37*
%LPD*%
G36*
X-3635001Y-8129975D02*
X-4264999Y-8129975D01*
X-4264999Y-7569977D01*
X-3635001Y-7569977D01*
X-3635001Y-8129975D01*
G37*
%LPD*%
G36*
X-100027Y-6660621D02*
X-100027Y-7899973D01*
X-1339379Y-7899973D01*
X-1339379Y-6660621D01*
X-100027Y-6660621D01*
G37*
%LPD*%
G36*
X-4219977Y-6085001D02*
X-4219977Y-6714999D01*
X-4779975Y-6714999D01*
X-4779975Y-6085001D01*
X-4219977Y-6085001D01*
G37*
%LPD*%
G36*
X-703615Y-2418046D02*
X-703615Y-3381954D01*
X-1496389Y-3381954D01*
X-1496389Y-2418046D01*
X-703615Y-2418046D01*
G37*
%LPD*%
G36*
X-2703611Y-3381954D02*
X-3496385Y-3381954D01*
X-3496385Y-2418046D01*
X-2703611Y-2418046D01*
X-2703611Y-3381954D01*
G37*
%LPD*%
G36*
X535630Y-302402D02*
X-28902Y-302402D01*
X-28902Y302402D01*
X535630Y302402D01*
X535630Y-302402D01*
G37*
%LPD*%
G36*
X-971098Y302402D02*
X-971098Y-302402D01*
X-1535630Y-302402D01*
X-1535630Y302402D01*
X-971098Y302402D01*
G37*
%LPD*%
G36*
X-4706500Y972504D02*
X-4706500Y27497D01*
X-5693504Y27497D01*
X-5693504Y972504D01*
X-4706500Y972504D01*
G37*
%LPD*%
G36*
X-1164370Y1702402D02*
X-1164370Y1097598D01*
X-1728902Y1097598D01*
X-1728902Y1702402D01*
X-1164370Y1702402D01*
G37*
%LPD*%
G36*
X-2671098Y1097598D02*
X-3235630Y1097598D01*
X-3235630Y1702402D01*
X-2671098Y1702402D01*
X-2671098Y1097598D01*
G37*
%LPD*%
G36*
X428902Y3797598D02*
X-135630Y3797598D01*
X-135630Y4402402D01*
X428902Y4402402D01*
X428902Y3797598D01*
G37*
%LPD*%
G36*
X-2879979Y4732504D02*
X-2879979Y4067496D01*
X-3719977Y4067496D01*
X-3719977Y4732504D01*
X-2879979Y4732504D01*
G37*
%LPD*%
G36*
X124866Y6410004D02*
X124866Y5990004D01*
X-925132Y5990004D01*
X-925132Y6410004D01*
X124866Y6410004D01*
G37*
%LPD*%
G36*
X125120Y7410002D02*
X125120Y6990002D01*
X-924878Y6990002D01*
X-924878Y7410002D01*
X125120Y7410002D01*
G37*
%LPD*%
G36*
X-2486548Y6821918D02*
X-3299873Y6821918D01*
X-3299873Y8100000D01*
X-2486548Y8100000D01*
X-2486548Y6821918D01*
G37*
%LPD*%
G36*
X-3499873Y6821918D02*
X-4313198Y6821918D01*
X-4313198Y8100000D01*
X-3499873Y8100000D01*
X-3499873Y6821918D01*
G37*
%LPD*%
G36*
X125120Y8410000D02*
X125120Y7990000D01*
X-924878Y7990000D01*
X-924878Y8410000D01*
X125120Y8410000D01*
G37*
%LPD*%
G36*
X-2486548Y9578082D02*
X-2486548Y8300000D01*
X-3299873Y8300000D01*
X-3299873Y9578082D01*
X-2486548Y9578082D01*
G37*
%LPD*%
G36*
X-3499873Y9578082D02*
X-3499873Y8300000D01*
X-4313198Y8300000D01*
X-4313198Y9578082D01*
X-3499873Y9578082D01*
G37*
%LPD*%
G36*
X125120Y8989998D02*
X-924878Y8989998D01*
X-924878Y9409998D01*
X125120Y9409998D01*
X125120Y8989998D01*
G37*
%LPD*%
G36*
X124866Y9989996D02*
X-925132Y9989996D01*
X-925132Y10409996D01*
X124866Y10409996D01*
X124866Y9989996D01*
G37*
%LPD*%
G36*
X-4519977Y12014999D02*
X-4519977Y11385001D01*
X-5079975Y11385001D01*
X-5079975Y12014999D01*
X-4519977Y12014999D01*
G37*
%LPD*%
G36*
X-971098Y12102402D02*
X-971098Y11497598D01*
X-1535630Y11497598D01*
X-1535630Y12102402D01*
X-971098Y12102402D01*
G37*
%LPD*%
G36*
X535630Y12102402D02*
X535630Y11497598D01*
X-28902Y11497598D01*
X-28902Y12102402D01*
X535630Y12102402D01*
G37*
%LPD*%
G36*
X-4964370Y13197598D02*
X-5528902Y13197598D01*
X-5528902Y13802402D01*
X-4964370Y13802402D01*
X-4964370Y13197598D01*
G37*
%LPD*%
G36*
X-971098Y13697598D02*
X-1535630Y13697598D01*
X-1535630Y14302402D01*
X-971098Y14302402D01*
X-971098Y13697598D01*
G37*
%LPD*%
G36*
X535630Y14302402D02*
X535630Y13697598D01*
X-28902Y13697598D01*
X-28902Y14302402D01*
X535630Y14302402D01*
G37*
%LPD*%
G36*
X4179975Y-9185001D02*
X4179975Y-9814999D01*
X3619977Y-9814999D01*
X3619977Y-9185001D01*
X4179975Y-9185001D01*
G37*
%LPD*%
G36*
X1339325Y-8099973D02*
X1339325Y-9339325D01*
X99973Y-9339325D01*
X99973Y-8099973D01*
X1339325Y-8099973D01*
G37*
%LPD*%
G36*
X1339325Y-7899973D02*
X99973Y-7899973D01*
X99973Y-6660621D01*
X1339325Y-6660621D01*
X1339325Y-7899973D01*
G37*
%LPD*%
G36*
X4179975Y-5664999D02*
X3619977Y-5664999D01*
X3619977Y-5035001D01*
X4179975Y-5035001D01*
X4179975Y-5664999D01*
G37*
%LPD*%
G36*
X1496389Y-2418046D02*
X1496389Y-3381954D01*
X703615Y-3381954D01*
X703615Y-2418046D01*
X1496389Y-2418046D01*
G37*
%LPD*%
G36*
X3496385Y-2418046D02*
X3496385Y-3381954D01*
X2703611Y-3381954D01*
X2703611Y-2418046D01*
X3496385Y-2418046D01*
G37*
%LPD*%
G36*
X4289200Y-184997D02*
X4289200Y-814995D01*
X4109200Y-814995D01*
X4109200Y-184997D01*
X4289200Y-184997D01*
G37*
%LPD*%
G36*
X3889404Y-814995D02*
X3709404Y-814995D01*
X3709404Y-184997D01*
X3889404Y-184997D01*
X3889404Y-814995D01*
G37*
%LPD*%
G36*
X3314303Y210104D02*
X2684305Y210104D01*
X2684305Y390104D01*
X3314303Y390104D01*
X3314303Y210104D01*
G37*
%LPD*%
G36*
X3314303Y789900D02*
X3314303Y609900D01*
X2684305Y609900D01*
X2684305Y789900D01*
X3314303Y789900D01*
G37*
%LPD*%
G36*
X4919112Y1399746D02*
X4919112Y315313D01*
X3834679Y315313D01*
X3834679Y1399746D01*
X4919112Y1399746D01*
G37*
%LPD*%
G36*
X3314303Y1189950D02*
X3314303Y1009950D01*
X2684305Y1009950D01*
X2684305Y1189950D01*
X3314303Y1189950D01*
G37*
%LPD*%
G36*
X3314303Y1411016D02*
X2684305Y1411016D01*
X2684305Y1591016D01*
X3314303Y1591016D01*
X3314303Y1411016D01*
G37*
%LPD*%
G36*
X3314303Y1809796D02*
X2684305Y1809796D01*
X2684305Y1989796D01*
X3314303Y1989796D01*
X3314303Y1809796D01*
G37*
%LPD*%
G36*
X4919112Y2684179D02*
X4919112Y1599746D01*
X3834679Y1599746D01*
X3834679Y2684179D01*
X4919112Y2684179D01*
G37*
%LPD*%
G36*
X579975Y2614999D02*
X579975Y1985001D01*
X19977Y1985001D01*
X19977Y2614999D01*
X579975Y2614999D01*
G37*
%LPD*%
G36*
X1980023Y2614999D02*
X1980023Y1985001D01*
X1420025Y1985001D01*
X1420025Y2614999D01*
X1980023Y2614999D01*
G37*
%LPD*%
G36*
X3314303Y2210100D02*
X2684305Y2210100D01*
X2684305Y2390100D01*
X3314303Y2390100D01*
X3314303Y2210100D01*
G37*
%LPD*%
G36*
X3314303Y2609896D02*
X2684305Y2609896D01*
X2684305Y2789896D01*
X3314303Y2789896D01*
X3314303Y2609896D01*
G37*
%LPD*%
G36*
X4289200Y3814995D02*
X4289200Y3184997D01*
X4109200Y3184997D01*
X4109200Y3814995D01*
X4289200Y3814995D01*
G37*
%LPD*%
G36*
X3889404Y3814995D02*
X3889404Y3184997D01*
X3709404Y3184997D01*
X3709404Y3814995D01*
X3889404Y3814995D01*
G37*
%LPD*%
G36*
X1935630Y4402402D02*
X1935630Y3797598D01*
X1371098Y3797598D01*
X1371098Y4402402D01*
X1935630Y4402402D01*
G37*
%LPD*%
G36*
X1979925Y5710014D02*
X1419927Y5710014D01*
X1419927Y5990014D01*
X1979925Y5990014D01*
X1979925Y5710014D01*
G37*
%LPD*%
G36*
X4180073Y5710014D02*
X3620075Y5710014D01*
X3620075Y5990014D01*
X4180073Y5990014D01*
X4180073Y5710014D01*
G37*
%LPD*%
G36*
X1979925Y6640000D02*
X1979925Y6360000D01*
X1419927Y6360000D01*
X1419927Y6640000D01*
X1979925Y6640000D01*
G37*
%LPD*%
G36*
X4180073Y7289986D02*
X4180073Y7009986D01*
X3620075Y7009986D01*
X3620075Y7289986D01*
X4180073Y7289986D01*
G37*
%LPD*%
G36*
X1979925Y7289986D02*
X1979925Y7009986D01*
X1419927Y7009986D01*
X1419927Y7289986D01*
X1979925Y7289986D01*
G37*
%LPD*%
G36*
X3780023Y8385001D02*
X3220025Y8385001D01*
X3220025Y9014999D01*
X3780023Y9014999D01*
X3780023Y8385001D01*
G37*
%LPD*%
G36*
X2379975Y8385001D02*
X1819977Y8385001D01*
X1819977Y9014999D01*
X2379975Y9014999D01*
X2379975Y8385001D01*
G37*
%LPD*%
G36*
X2230796Y10689001D02*
X2230796Y10310999D01*
X1834836Y10310999D01*
X1834836Y10689001D01*
X2230796Y10689001D01*
G37*
%LPD*%
G36*
X1365164Y10689001D02*
X1365164Y10310999D01*
X969204Y10310999D01*
X969204Y10689001D01*
X1365164Y10689001D01*
G37*
%LPD*%
G36*
X3535630Y14302402D02*
X3535630Y13697598D01*
X2971098Y13697598D01*
X2971098Y14302402D01*
X3535630Y14302402D01*
G37*
%LPD*%
G36*
X2028902Y13697598D02*
X1464370Y13697598D01*
X1464370Y14302402D01*
X2028902Y14302402D01*
X2028902Y13697598D01*
G37*
%LPD*%
G36*
X5719977Y-12832504D02*
X4879979Y-12832504D01*
X4879979Y-12167496D01*
X5719977Y-12167496D01*
X5719977Y-12832504D01*
G37*
%LPD*%
G36*
X5580023Y-9185001D02*
X5580023Y-9814999D01*
X5020025Y-9814999D01*
X5020025Y-9185001D01*
X5580023Y-9185001D01*
G37*
%LPD*%
G36*
X7128902Y-8697598D02*
X7128902Y-9302402D01*
X6564370Y-9302402D01*
X6564370Y-8697598D01*
X7128902Y-8697598D01*
G37*
%LPD*%
G36*
X6980023Y-7185001D02*
X6980023Y-7814999D01*
X6420025Y-7814999D01*
X6420025Y-7185001D01*
X6980023Y-7185001D01*
G37*
%LPD*%
G36*
X5579975Y-7814999D02*
X5019977Y-7814999D01*
X5019977Y-7185001D01*
X5579975Y-7185001D01*
X5579975Y-7814999D01*
G37*
%LPD*%
G36*
X5580023Y-5664999D02*
X5020025Y-5664999D01*
X5020025Y-5035001D01*
X5580023Y-5035001D01*
X5580023Y-5664999D01*
G37*
%LPD*%
G36*
X7128902Y-4697598D02*
X7128902Y-5302402D01*
X6564370Y-5302402D01*
X6564370Y-4697598D01*
X7128902Y-4697598D01*
G37*
%LPD*%
G36*
X5079975Y-2485001D02*
X5079975Y-3114999D01*
X4519977Y-3114999D01*
X4519977Y-2485001D01*
X5079975Y-2485001D01*
G37*
%LPD*%
G36*
X6480023Y-2485001D02*
X6480023Y-3114999D01*
X5920025Y-3114999D01*
X5920025Y-2485001D01*
X6480023Y-2485001D01*
G37*
%LPD*%
G36*
X6289196Y-814995D02*
X6109196Y-814995D01*
X6109196Y-184997D01*
X6289196Y-184997D01*
X6289196Y-814995D01*
G37*
%LPD*%
G36*
X5889400Y-814995D02*
X5709400Y-814995D01*
X5709400Y-184997D01*
X5889400Y-184997D01*
X5889400Y-814995D01*
G37*
%LPD*%
G36*
X4689250Y-184997D02*
X4689250Y-814995D01*
X4509250Y-814995D01*
X4509250Y-184997D01*
X4689250Y-184997D01*
G37*
%LPD*%
G36*
X5489096Y-184997D02*
X5489096Y-814995D01*
X5309096Y-814995D01*
X5309096Y-184997D01*
X5489096Y-184997D01*
G37*
%LPD*%
G36*
X5089300Y-184235D02*
X5089300Y-814233D01*
X4909300Y-814233D01*
X4909300Y-184235D01*
X5089300Y-184235D01*
G37*
%LPD*%
G36*
X7314295Y210104D02*
X6684297Y210104D01*
X6684297Y390104D01*
X7314295Y390104D01*
X7314295Y210104D01*
G37*
%LPD*%
G36*
X7314295Y609900D02*
X6684297Y609900D01*
X6684297Y789900D01*
X7314295Y789900D01*
X7314295Y609900D01*
G37*
%LPD*%
G36*
X6203545Y1399746D02*
X6203545Y315313D01*
X5119112Y315313D01*
X5119112Y1399746D01*
X6203545Y1399746D01*
G37*
%LPD*%
G36*
X7314295Y1190204D02*
X7314295Y1010204D01*
X6684297Y1010204D01*
X6684297Y1190204D01*
X7314295Y1190204D01*
G37*
%LPD*%
G36*
X7314295Y1590000D02*
X7314295Y1410000D01*
X6684297Y1410000D01*
X6684297Y1590000D01*
X7314295Y1590000D01*
G37*
%LPD*%
G36*
X7314295Y1809796D02*
X6684297Y1809796D01*
X6684297Y1989796D01*
X7314295Y1989796D01*
X7314295Y1809796D01*
G37*
%LPD*%
G36*
X6203545Y1599746D02*
X5119112Y1599746D01*
X5119112Y2684179D01*
X6203545Y2684179D01*
X6203545Y1599746D01*
G37*
%LPD*%
G36*
X5089300Y3814741D02*
X5089300Y3184743D01*
X4909300Y3184743D01*
X4909300Y3814741D01*
X5089300Y3814741D01*
G37*
%LPD*%
G36*
X5889400Y3814995D02*
X5889400Y3184997D01*
X5709400Y3184997D01*
X5709400Y3814995D01*
X5889400Y3814995D01*
G37*
%LPD*%
G36*
X6289196Y3814995D02*
X6289196Y3184997D01*
X6109196Y3184997D01*
X6109196Y3814995D01*
X6289196Y3814995D01*
G37*
%LPD*%
G36*
X4689504Y3184997D02*
X4509504Y3184997D01*
X4509504Y3814995D01*
X4689504Y3814995D01*
X4689504Y3184997D01*
G37*
%LPD*%
G36*
X5489096Y3184997D02*
X5309096Y3184997D01*
X5309096Y3814995D01*
X5489096Y3814995D01*
X5489096Y3184997D01*
G37*
%LPD*%
G36*
X6226106Y5736241D02*
X6226106Y5363839D01*
X5475702Y5363839D01*
X5475702Y5736241D01*
X6226106Y5736241D01*
G37*
%LPD*%
G36*
X6226106Y6686201D02*
X6226106Y6313799D01*
X5475702Y6313799D01*
X5475702Y6686201D01*
X6226106Y6686201D01*
G37*
%LPD*%
G36*
X6226106Y7636161D02*
X6226106Y7263759D01*
X5475702Y7263759D01*
X5475702Y7636161D01*
X6226106Y7636161D01*
G37*
%LPD*%
G36*
X6328902Y8697598D02*
X5764370Y8697598D01*
X5764370Y9302402D01*
X6328902Y9302402D01*
X6328902Y8697598D01*
G37*
%LPD*%
G36*
X7139425Y11190000D02*
X6390425Y11190000D01*
X6390425Y11610000D01*
X7139425Y11610000D01*
X7139425Y11190000D01*
G37*
%LPD*%
G36*
X6535630Y14302402D02*
X6535630Y13697598D01*
X5971098Y13697598D01*
X5971098Y14302402D01*
X6535630Y14302402D01*
G37*
%LPD*%
G36*
X5028902Y14302402D02*
X5028902Y13697598D01*
X4464370Y13697598D01*
X4464370Y14302402D01*
X5028902Y14302402D01*
G37*
%LPD*%
G36*
X9120021Y-12167496D02*
X9120021Y-12832504D01*
X8280023Y-12832504D01*
X8280023Y-12167496D01*
X9120021Y-12167496D01*
G37*
%LPD*%
G36*
X7528902Y-10802402D02*
X6964370Y-10802402D01*
X6964370Y-10197598D01*
X7528902Y-10197598D01*
X7528902Y-10802402D01*
G37*
%LPD*%
G36*
X9035630Y-10802402D02*
X8471098Y-10802402D01*
X8471098Y-10197598D01*
X9035630Y-10197598D01*
X9035630Y-10802402D01*
G37*
%LPD*%
G36*
X8635630Y-8697598D02*
X8635630Y-9302402D01*
X8071098Y-9302402D01*
X8071098Y-8697598D01*
X8635630Y-8697598D01*
G37*
%LPD*%
G36*
X8635630Y-4697598D02*
X8635630Y-5302402D01*
X8071098Y-5302402D01*
X8071098Y-4697598D01*
X8635630Y-4697598D01*
G37*
%LPD*%
G36*
X11472504Y-4006496D02*
X11472504Y-4993500D01*
X10527496Y-4993500D01*
X10527496Y-4006496D01*
X11472504Y-4006496D01*
G37*
%LPD*%
G36*
X11472504Y-2993504D02*
X10527496Y-2993504D01*
X10527496Y-2006500D01*
X11472504Y-2006500D01*
X11472504Y-2993504D01*
G37*
%LPD*%
G36*
X10430883Y1510035D02*
X10430883Y1300053D01*
X10430989Y1300053D01*
X10430989Y1090054D01*
X9520973Y1090054D01*
X9520973Y1300036D01*
X9520867Y1300036D01*
X9520867Y1510035D01*
X10430883Y1510035D01*
G37*
%LPD*%
G36*
X9520992Y2310034D02*
X10430973Y2310034D01*
X10430973Y2100070D01*
X10430990Y2100070D01*
X10430990Y1890052D01*
X9521010Y1890052D01*
X9521010Y2100016D01*
X9520992Y2100016D01*
X9520992Y2310034D01*
G37*
%LPD*%
G36*
X7314295Y2390100D02*
X7314295Y2210100D01*
X6684297Y2210100D01*
X6684297Y2390100D01*
X7314295Y2390100D01*
G37*
%LPD*%
G36*
X7314295Y2789896D02*
X7314295Y2609896D01*
X6684297Y2609896D01*
X6684297Y2789896D01*
X7314295Y2789896D01*
G37*
%LPD*%
G36*
X10430927Y2644940D02*
X9520929Y2644940D01*
X9520929Y2854940D01*
X10430927Y2854940D01*
X10430927Y2644940D01*
G37*
%LPD*%
G36*
X10430927Y3145066D02*
X9520929Y3145066D01*
X9520929Y3355066D01*
X10430927Y3355066D01*
X10430927Y3145066D01*
G37*
%LPD*%
G36*
X10430927Y3854938D02*
X10430927Y3644938D01*
X9520929Y3644938D01*
X9520929Y3854938D01*
X10430927Y3854938D01*
G37*
%LPD*%
G36*
X10430927Y4355064D02*
X10430927Y4145064D01*
X9520929Y4145064D01*
X9520929Y4355064D01*
X10430927Y4355064D01*
G37*
%LPD*%
G36*
X10430927Y4854936D02*
X10430927Y4644936D01*
X9520929Y4644936D01*
X9520929Y4854936D01*
X10430927Y4854936D01*
G37*
%LPD*%
G36*
X10430927Y5145062D02*
X9520929Y5145062D01*
X9520929Y5355062D01*
X10430927Y5355062D01*
X10430927Y5145062D01*
G37*
%LPD*%
G36*
X8524298Y5363839D02*
X7773894Y5363839D01*
X7773894Y5736241D01*
X8524298Y5736241D01*
X8524298Y5363839D01*
G37*
%LPD*%
G36*
X10430927Y5854680D02*
X10430927Y5644680D01*
X9520929Y5644680D01*
X9520929Y5854680D01*
X10430927Y5854680D01*
G37*
%LPD*%
G36*
X10430927Y6355060D02*
X10430927Y6145060D01*
X9520929Y6145060D01*
X9520929Y6355060D01*
X10430927Y6355060D01*
G37*
%LPD*%
G36*
X8524298Y6686201D02*
X8524298Y6313799D01*
X7773894Y6313799D01*
X7773894Y6686201D01*
X8524298Y6686201D01*
G37*
%LPD*%
G36*
X10430816Y7110169D02*
X10430816Y6900169D01*
X10430816Y6900151D01*
X10430816Y6690152D01*
X9520836Y6690152D01*
X9520836Y6900151D01*
X9520836Y6900169D01*
X9520836Y7110169D01*
X10430816Y7110169D01*
G37*
%LPD*%
G36*
X8524298Y7263759D02*
X7773894Y7263759D01*
X7773894Y7636161D01*
X8524298Y7636161D01*
X8524298Y7263759D01*
G37*
%LPD*%
G36*
X10430816Y7489998D02*
X9520836Y7489998D01*
X9520836Y7699997D01*
X9520836Y7700015D01*
X9520836Y7910015D01*
X10430816Y7910015D01*
X10430816Y7700015D01*
X10430816Y7699997D01*
X10430816Y7489998D01*
G37*
%LPD*%
G36*
X7835630Y8697598D02*
X7271098Y8697598D01*
X7271098Y9302402D01*
X7835630Y9302402D01*
X7835630Y8697598D01*
G37*
%LPD*%
G36*
X9609575Y10240040D02*
X8860575Y10240040D01*
X8860575Y10660040D01*
X9609575Y10660040D01*
X9609575Y10240040D01*
G37*
%LPD*%
G36*
X9609575Y12559960D02*
X9609575Y12139960D01*
X8860575Y12139960D01*
X8860575Y12559960D01*
X9609575Y12559960D01*
G37*
%LPD*%
G36*
X9535630Y13697598D02*
X8971098Y13697598D01*
X8971098Y14302402D01*
X9535630Y14302402D01*
X9535630Y13697598D01*
G37*
%LPD*%
G36*
X8028902Y13697598D02*
X7464370Y13697598D01*
X7464370Y14302402D01*
X8028902Y14302402D01*
X8028902Y13697598D01*
G37*
M02*
