%TF.GenerationSoftware,tscircuit,circuit-json-to-gerber,0.0.111*%
%TF.CreationDate,2026-10-09T12:09:50.768Z*%
%TF.SameCoordinates,Original*%
%TF.FileFunction,Copper,L2,Bot*%
%TF.FilePolarity,Positive*%
%FSLAX46Y46*%
%MOMM*%
G04 Gerber Fmt 4.6, Leading zero omitted, Abs format (unit mm)*
G04 Created by tscircuit (builder) date 2026-10-09T12:09:50.768Z*
G01*
%LPD*%
G75*
G04 APERTURE MACROS START*
%AMHORZPILL*
0 Horizontal pill (stadium) shape macro*
0 Parameters:*
0 $1 = Total width*
0 $2 = Total height*
0 $3 = Circle diameter (equal to height)*
0 $4 = Circle center offset
0 21 = Center Line(Exposure, Width, Height, Center X, Center Y, Rotation)*
0 1 = Circle(Exposure, Diameter, Center X, Center Y, Rotation)*
21,1,$1-$3,$2,0.0,0.0,0.0*
1,1,$3,0.0-$4,0.0*
1,1,$3,$4,0.0*%
%AMVERTPILL*
0 Vertical pill (stadium) shape macro*
0 Parameters:*
0 $1 = Total width*
0 $2 = Total height*
0 $3 = Circle diameter (equal to width)*
0 $4 = Circle center offset
0 21 = Center Line(Exposure, Width, Height, Center X, Center Y, Rotation)*
21,1,$1,$2-$3,0.0,0.0,0.0*
1,1,$3,0.0,0.0-$4*
1,1,$3,0.0,$4*%
%AMROUNDRECT*
0 Rectangle with rounded corners*
0 $1 Corner radius*
0 $2 $3 $4 $5 $6 $7 $8 $9 X,Y Position of each corner*
0 Polygon box body*
4,1,4,$2,$3,$4,$5,$6,$7,$8,$9,$2,$3,0*
0 Circles for rounded corners*
1,1,$1+$1,$2,$3*
1,1,$1+$1,$4,$5*
1,1,$1+$1,$6,$7*
1,1,$1+$1,$8,$9*
0 Rectangles between the rounded corners*
20,1,$1+$1,$2,$3,$4,$5,0*
20,1,$1+$1,$4,$5,$6,$7,0*
20,1,$1+$1,$6,$7,$8,$9,0*
20,1,$1+$1,$8,$9,$2,$3,0*%
G04 APERTURE MACROS END*
G04 aperture START LIST*
%ADD10C,0.160000*%
%ADD11C,0.300000*%
%ADD12C,0.348000*%
%ADD13C,0.450000*%
%ADD14C,0.277000*%
%ADD15C,0.100000*%
%ADD16C,0.500000*%
%ADD17C,3.200000*%
%ADD18C,1.600000*%
%ADD19C,0.120000*%
%ADD20C,0.599999*%
%ADD21VERTPILL,1.199998X1.799996X1.199998X0.299999*%
%ADD22VERTPILL,1.199998X1.999996X1.199998X0.399999*%
%ADD23C,0.063000*%
%ADD24C,0.054000*%
%ADD25C,0.001000*%
%TD*%
G04 aperture END LIST*
D25*
G36*
X002836967Y-01674563D02*
G01*
X002832024Y-01680017D01*
G01*
X002827640Y-01685928D01*
G01*
X002823856Y-01692241D01*
G01*
X002820709Y-01698895D01*
G01*
X002818229Y-01705825D01*
G01*
X002816441Y-01712964D01*
G01*
X002815361Y-01720245D01*
G01*
X002815000Y-01727596D01*
G01*
X002815000Y-02514954D01*
G01*
X002815361Y-02522305D01*
G01*
X002816441Y-02529586D01*
G01*
X002818229Y-02536726D01*
G01*
X002820709Y-02543655D01*
G01*
X002823856Y-02550309D01*
G01*
X002827640Y-02556622D01*
G01*
X002832024Y-02562534D01*
G01*
X002836967Y-02567987D01*
G01*
X004698690Y-04429710D01*
G01*
X004708166Y-04439663D01*
G01*
X004717143Y-04450070D01*
G01*
X004725598Y-04460904D01*
G01*
X004733511Y-04472140D01*
G01*
X004740864Y-04483751D01*
G01*
X004747638Y-04495709D01*
G01*
X004753817Y-04507985D01*
G01*
X004759386Y-04520549D01*
G01*
X004764332Y-04533371D01*
G01*
X004768643Y-04546420D01*
G01*
X004772309Y-04559666D01*
G01*
X004775320Y-04573075D01*
G01*
X004777669Y-04586615D01*
G01*
X004779352Y-04600255D01*
G01*
X004780363Y-04613961D01*
G01*
X004780700Y-04627700D01*
G01*
X004780700Y-08178611D01*
G01*
X004781108Y-08186420D01*
G01*
X004782326Y-08194144D01*
G01*
X004784342Y-08201700D01*
G01*
X004787134Y-08209004D01*
G01*
X004790672Y-08215978D01*
G01*
X004794916Y-08222546D01*
G01*
X004799821Y-08228636D01*
G01*
X004801762Y-08230589D01*
G01*
X004802902Y-08231572D01*
G01*
X004818898Y-08246802D01*
G01*
X004834128Y-08262798D01*
G01*
X004848555Y-08279523D01*
G01*
X004862143Y-08296935D01*
G01*
X004874861Y-08314993D01*
G01*
X004886678Y-08333654D01*
G01*
X004892726Y-08344330D01*
G01*
X004897565Y-08352871D01*
G01*
X004907495Y-08372600D01*
G01*
X004916446Y-08392792D01*
G01*
X004924395Y-08413400D01*
G01*
X004931323Y-08434372D01*
G01*
X004937214Y-08455659D01*
G01*
X004942053Y-08477209D01*
G01*
X004945829Y-08498971D01*
G01*
X004948533Y-08520892D01*
G01*
X004950158Y-08542920D01*
G01*
X004950700Y-08565000D01*
G01*
X004950158Y-08587080D01*
G01*
X004948533Y-08609108D01*
G01*
X004945829Y-08631029D01*
G01*
X004942053Y-08652791D01*
G01*
X004937214Y-08674341D01*
G01*
X004931323Y-08695628D01*
G01*
X004928244Y-08704949D01*
G01*
X004924395Y-08716600D01*
G01*
X004916446Y-08737208D01*
G01*
X004907495Y-08757400D01*
G01*
X004897565Y-08777129D01*
G01*
X004886678Y-08796346D01*
G01*
X004874861Y-08815007D01*
G01*
X004862143Y-08833065D01*
G01*
X004848555Y-08850477D01*
G01*
X004834128Y-08867202D01*
G01*
X004818898Y-08883198D01*
G01*
X004802902Y-08898428D01*
G01*
X004786177Y-08912855D01*
G01*
X004768765Y-08926443D01*
G01*
X004750707Y-08939161D01*
G01*
X004732046Y-08950978D01*
G01*
X004712829Y-08961865D01*
G01*
X004693100Y-08971795D01*
G01*
X004672908Y-08980746D01*
G01*
X004652300Y-08988695D01*
G01*
X004631328Y-08995623D01*
G01*
X004610041Y-09001514D01*
G01*
X004588491Y-09006353D01*
G01*
X004566729Y-09010129D01*
G01*
X004544808Y-09012833D01*
G01*
X004522780Y-09014458D01*
G01*
X004500700Y-09015000D01*
G01*
X004478620Y-09014458D01*
G01*
X004456592Y-09012833D01*
G01*
X004434671Y-09010129D01*
G01*
X004412909Y-09006353D01*
G01*
X004391359Y-09001514D01*
G01*
X004370072Y-08995623D01*
G01*
X004349100Y-08988695D01*
G01*
X004328492Y-08980746D01*
G01*
X004308300Y-08971795D01*
G01*
X004288571Y-08961865D01*
G01*
X004269354Y-08950978D01*
G01*
X004250693Y-08939161D01*
G01*
X004232635Y-08926443D01*
G01*
X004215223Y-08912855D01*
G01*
X004198498Y-08898428D01*
G01*
X004182502Y-08883198D01*
G01*
X004167272Y-08867202D01*
G01*
X004159257Y-08857910D01*
G01*
X004152845Y-08850477D01*
G01*
X004139257Y-08833065D01*
G01*
X004126539Y-08815007D01*
G01*
X004114722Y-08796346D01*
G01*
X004103835Y-08777129D01*
G01*
X004093905Y-08757400D01*
G01*
X004084954Y-08737208D01*
G01*
X004081421Y-08728049D01*
G01*
X004077005Y-08716600D01*
G01*
X004070077Y-08695628D01*
G01*
X004064186Y-08674341D01*
G01*
X004059347Y-08652791D01*
G01*
X004057668Y-08643119D01*
G01*
X004055571Y-08631029D01*
G01*
X004052867Y-08609108D01*
G01*
X004051242Y-08587080D01*
G01*
X004050700Y-08565000D01*
G01*
X004051242Y-08542920D01*
G01*
X004052867Y-08520892D01*
G01*
X004055571Y-08498971D01*
G01*
X004059347Y-08477209D01*
G01*
X004061497Y-08467631D01*
G01*
X004064186Y-08455659D01*
G01*
X004070077Y-08434372D01*
G01*
X004077005Y-08413400D01*
G01*
X004084954Y-08392792D01*
G01*
X004093905Y-08372600D01*
G01*
X004103835Y-08352871D01*
G01*
X004108674Y-08344330D01*
G01*
X004114722Y-08333654D01*
G01*
X004126539Y-08314993D01*
G01*
X004139257Y-08296935D01*
G01*
X004152845Y-08279523D01*
G01*
X004167272Y-08262798D01*
G01*
X004182502Y-08246802D01*
G01*
X004198498Y-08231572D01*
G01*
X004199638Y-08230589D01*
G01*
X004201579Y-08228636D01*
G01*
X004206484Y-08222546D01*
G01*
X004210728Y-08215978D01*
G01*
X004214266Y-08209004D01*
G01*
X004217058Y-08201700D01*
G01*
X004219074Y-08194144D01*
G01*
X004220292Y-08186420D01*
G01*
X004220700Y-08178611D01*
G01*
X004220700Y-07986527D01*
G01*
X004220339Y-07979175D01*
G01*
X004219259Y-07971895D01*
G01*
X004217471Y-07964755D01*
G01*
X004214991Y-07957825D01*
G01*
X004211844Y-07951172D01*
G01*
X004208060Y-07944859D01*
G01*
X004203676Y-07938947D01*
G01*
X004198733Y-07933494D01*
G01*
X004193279Y-07928551D01*
G01*
X004187368Y-07924166D01*
G01*
X004181055Y-07920382D01*
G01*
X004174401Y-07917236D01*
G01*
X004167471Y-07914756D01*
G01*
X004160332Y-07912968D01*
G01*
X004153051Y-07911888D01*
G01*
X004145700Y-07911527D01*
G01*
X004138349Y-07911888D01*
G01*
X004131068Y-07912968D01*
G01*
X004123929Y-07914756D01*
G01*
X004121015Y-07915799D01*
G01*
X004101600Y-07923288D01*
G01*
X004080628Y-07930216D01*
G01*
X004059341Y-07936107D01*
G01*
X004037791Y-07940946D01*
G01*
X004016029Y-07944722D01*
G01*
X003994108Y-07947426D01*
G01*
X003972080Y-07949051D01*
G01*
X003950000Y-07949593D01*
G01*
X003927920Y-07949051D01*
G01*
X003905892Y-07947426D01*
G01*
X003883971Y-07944722D01*
G01*
X003862209Y-07940946D01*
G01*
X003840659Y-07936107D01*
G01*
X003819372Y-07930216D01*
G01*
X003817807Y-07929699D01*
G01*
X003814632Y-07928904D01*
G01*
X003807351Y-07927824D01*
G01*
X003800000Y-07927463D01*
G01*
X003792649Y-07927824D01*
G01*
X003785368Y-07928904D01*
G01*
X003778229Y-07930692D01*
G01*
X003771299Y-07933172D01*
G01*
X003764645Y-07936319D01*
G01*
X003758332Y-07940103D01*
G01*
X003752421Y-07944487D01*
G01*
X003746967Y-07949430D01*
G01*
X003742024Y-07954883D01*
G01*
X003737640Y-07960795D01*
G01*
X003733856Y-07967108D01*
G01*
X003730709Y-07973762D01*
G01*
X003728229Y-07980691D01*
G01*
X003726441Y-07987831D01*
G01*
X003725361Y-07995112D01*
G01*
X003725000Y-08002463D01*
G01*
X003725000Y-09911046D01*
G01*
X003725379Y-09918572D01*
G01*
X003726510Y-09926022D01*
G01*
X003728384Y-09933320D01*
G01*
X003730980Y-09940394D01*
G01*
X003734274Y-09947172D01*
G01*
X003738230Y-09953584D01*
G01*
X003742810Y-09959568D01*
G01*
X003747968Y-09965062D01*
G01*
X003753651Y-09970010D01*
G01*
X003759801Y-09974363D01*
G01*
X003766357Y-09978077D01*
G01*
X003773253Y-09981115D01*
G01*
X003780419Y-09983445D01*
G01*
X003787783Y-09985044D01*
G01*
X003795270Y-09985897D01*
G01*
X003802804Y-09985994D01*
G01*
X003810311Y-09985334D01*
G01*
X003817713Y-09983925D01*
G01*
X003824936Y-09981779D01*
G01*
X003831908Y-09978920D01*
G01*
X003835929Y-09976777D01*
G01*
X003849771Y-09968935D01*
G01*
X003869500Y-09959005D01*
G01*
X003889692Y-09950054D01*
G01*
X003910300Y-09942105D01*
G01*
X003931272Y-09935177D01*
G01*
X003952559Y-09929286D01*
G01*
X003974109Y-09924447D01*
G01*
X003983781Y-09922768D01*
G01*
X003995871Y-09920671D01*
G01*
X004017792Y-09917967D01*
G01*
X004039820Y-09916342D01*
G01*
X004061900Y-09915800D01*
G01*
X004083980Y-09916342D01*
G01*
X004106008Y-09917967D01*
G01*
X004127929Y-09920671D01*
G01*
X004149691Y-09924447D01*
G01*
X004171241Y-09929286D01*
G01*
X004192528Y-09935177D01*
G01*
X004201849Y-09938256D01*
G01*
X004213500Y-09942105D01*
G01*
X004234108Y-09950054D01*
G01*
X004254300Y-09959005D01*
G01*
X004274029Y-09968935D01*
G01*
X004293246Y-09979822D01*
G01*
X004311907Y-09991639D01*
G01*
X004329965Y-10004357D01*
G01*
X004347377Y-10017945D01*
G01*
X004364102Y-10032372D01*
G01*
X004380098Y-10047602D01*
G01*
X004395328Y-10063598D01*
G01*
X004409755Y-10080323D01*
G01*
X004423343Y-10097735D01*
G01*
X004436061Y-10115793D01*
G01*
X004447878Y-10134454D01*
G01*
X004453926Y-10145130D01*
G01*
X004458765Y-10153671D01*
G01*
X004468695Y-10173400D01*
G01*
X004477646Y-10193592D01*
G01*
X004485595Y-10214200D01*
G01*
X004492523Y-10235172D01*
G01*
X004498414Y-10256459D01*
G01*
X004501103Y-10268431D01*
G01*
X004503253Y-10278009D01*
G01*
X004507029Y-10299771D01*
G01*
X004509733Y-10321692D01*
G01*
X004511358Y-10343720D01*
G01*
X004511900Y-10365800D01*
G01*
X004511358Y-10387880D01*
G01*
X004509733Y-10409908D01*
G01*
X004507029Y-10431829D01*
G01*
X004503253Y-10453591D01*
G01*
X004501103Y-10463169D01*
G01*
X004498414Y-10475141D01*
G01*
X004492523Y-10496428D01*
G01*
X004485595Y-10517400D01*
G01*
X004481179Y-10528849D01*
G01*
X004477646Y-10538008D01*
G01*
X004468695Y-10558200D01*
G01*
X004458765Y-10577929D01*
G01*
X004453926Y-10586470D01*
G01*
X004447878Y-10597146D01*
G01*
X004436061Y-10615807D01*
G01*
X004423343Y-10633865D01*
G01*
X004409755Y-10651277D01*
G01*
X004395328Y-10668002D01*
G01*
X004380098Y-10683998D01*
G01*
X004364102Y-10699228D01*
G01*
X004347377Y-10713655D01*
G01*
X004329965Y-10727243D01*
G01*
X004311907Y-10739961D01*
G01*
X004310473Y-10740869D01*
G01*
X004307821Y-10742836D01*
G01*
X004302367Y-10747779D01*
G01*
X004297424Y-10753232D01*
G01*
X004293040Y-10759144D01*
G01*
X004289256Y-10765457D01*
G01*
X004286109Y-10772111D01*
G01*
X004283629Y-10779041D01*
G01*
X004281841Y-10786180D01*
G01*
X004280761Y-10793461D01*
G01*
X004280400Y-10800812D01*
G01*
X004280400Y-12994035D01*
G01*
X004280824Y-13001996D01*
G01*
X004282090Y-13009868D01*
G01*
X004284185Y-13017561D01*
G01*
X004287085Y-13024988D01*
G01*
X004290757Y-13032065D01*
G01*
X004292175Y-13034206D01*
G01*
X004304561Y-13051793D01*
G01*
X004316378Y-13070454D01*
G01*
X004327265Y-13089671D01*
G01*
X004329741Y-13094591D01*
G01*
X004332413Y-13099049D01*
G01*
X004336798Y-13104960D01*
G01*
X004341740Y-13110414D01*
G01*
X004347194Y-13115357D01*
G01*
X004353106Y-13119741D01*
G01*
X004359419Y-13123525D01*
G01*
X004366072Y-13126672D01*
G01*
X004373002Y-13129151D01*
G01*
X004380142Y-13130940D01*
G01*
X004387422Y-13132020D01*
G01*
X004394773Y-13132381D01*
G01*
X004402125Y-13132020D01*
G01*
X004409405Y-13130940D01*
G01*
X004416545Y-13129151D01*
G01*
X004423475Y-13126672D01*
G01*
X004430128Y-13123525D01*
G01*
X004436441Y-13119741D01*
G01*
X004442353Y-13115357D01*
G01*
X004447806Y-13110414D01*
G01*
X005735857Y-11822363D01*
G01*
X005740800Y-11816909D01*
G01*
X005745184Y-11810998D01*
G01*
X005748968Y-11804685D01*
G01*
X005752115Y-11798031D01*
G01*
X005754595Y-11791101D01*
G01*
X005756383Y-11783962D01*
G01*
X005757463Y-11776681D01*
G01*
X005757824Y-11769330D01*
G01*
X005757463Y-11761979D01*
G01*
X005756544Y-11755784D01*
G01*
X005754071Y-11741529D01*
G01*
X005751367Y-11719608D01*
G01*
X005749742Y-11697580D01*
G01*
X005749708Y-11696189D01*
G01*
X005749519Y-11694273D01*
G01*
X005748084Y-11687055D01*
G01*
X005745947Y-11680011D01*
G01*
X005743130Y-11673211D01*
G01*
X005739661Y-11666720D01*
G01*
X005735572Y-11660601D01*
G01*
X005730903Y-11654911D01*
G01*
X005725698Y-11649707D01*
G01*
X005720009Y-11645037D01*
G01*
X005713889Y-11640948D01*
G01*
X005707398Y-11637479D01*
G01*
X005700598Y-11634662D01*
G01*
X005693555Y-11632526D01*
G01*
X005686336Y-11631090D01*
G01*
X005679011Y-11630368D01*
G01*
X005671745Y-11630368D01*
G01*
X005659680Y-11631258D01*
G01*
X005637600Y-11631800D01*
G01*
X005615520Y-11631258D01*
G01*
X005593492Y-11629633D01*
G01*
X005571571Y-11626929D01*
G01*
X005549809Y-11623153D01*
G01*
X005528259Y-11618314D01*
G01*
X005506972Y-11612423D01*
G01*
X005486000Y-11605495D01*
G01*
X005465392Y-11597546D01*
G01*
X005445200Y-11588595D01*
G01*
X005425471Y-11578665D01*
G01*
X005406254Y-11567778D01*
G01*
X005387593Y-11555961D01*
G01*
X005369535Y-11543243D01*
G01*
X005352123Y-11529655D01*
G01*
X005335398Y-11515228D01*
G01*
X005319402Y-11499998D01*
G01*
X005304172Y-11484002D01*
G01*
X005289745Y-11467277D01*
G01*
X005276157Y-11449865D01*
G01*
X005263439Y-11431807D01*
G01*
X005251622Y-11413146D01*
G01*
X005240735Y-11393929D01*
G01*
X005230805Y-11374200D01*
G01*
X005225832Y-11362982D01*
G01*
X005221854Y-11354008D01*
G01*
X005213905Y-11333400D01*
G01*
X005206977Y-11312428D01*
G01*
X005201086Y-11291141D01*
G01*
X005196247Y-11269591D01*
G01*
X005192471Y-11247829D01*
G01*
X005189767Y-11225908D01*
G01*
X005188142Y-11203880D01*
G01*
X005187600Y-11181800D01*
G01*
X005188142Y-11159720D01*
G01*
X005189767Y-11137692D01*
G01*
X005192471Y-11115771D01*
G01*
X005196247Y-11094009D01*
G01*
X005198397Y-11084431D01*
G01*
X005201086Y-11072459D01*
G01*
X005206977Y-11051172D01*
G01*
X005213905Y-11030200D01*
G01*
X005221854Y-11009592D01*
G01*
X005225832Y-11000618D01*
G01*
X005230805Y-10989400D01*
G01*
X005240735Y-10969671D01*
G01*
X005251622Y-10950454D01*
G01*
X005263439Y-10931793D01*
G01*
X005276157Y-10913735D01*
G01*
X005289745Y-10896323D01*
G01*
X005296157Y-10888890D01*
G01*
X005304172Y-10879598D01*
G01*
X005319402Y-10863602D01*
G01*
X005335398Y-10848372D01*
G01*
X005344690Y-10840357D01*
G01*
X005352123Y-10833945D01*
G01*
X005369535Y-10820357D01*
G01*
X005387593Y-10807639D01*
G01*
X005406254Y-10795822D01*
G01*
X005416220Y-10790177D01*
G01*
X005421708Y-10786527D01*
G01*
X005427169Y-10782106D01*
G01*
X005432192Y-10777194D01*
G01*
X005436734Y-10771833D01*
G01*
X005440753Y-10766071D01*
G01*
X005444216Y-10759957D01*
G01*
X005447092Y-10753547D01*
G01*
X005449356Y-10746896D01*
G01*
X005450987Y-10740062D01*
G01*
X005451971Y-10733105D01*
G01*
X005452300Y-10726087D01*
G01*
X005452300Y-02419020D01*
G01*
X005451939Y-02411669D01*
G01*
X005450859Y-02404388D01*
G01*
X005449071Y-02397248D01*
G01*
X005446591Y-02390319D01*
G01*
X005443444Y-02383665D01*
G01*
X005439660Y-02377352D01*
G01*
X005435276Y-02371440D01*
G01*
X005430333Y-02365987D01*
G01*
X005424879Y-02361044D01*
G01*
X005418968Y-02356660D01*
G01*
X005413687Y-02353494D01*
G01*
X005407071Y-02350165D01*
G01*
X005387854Y-02339278D01*
G01*
X005369193Y-02327461D01*
G01*
X005351135Y-02314743D01*
G01*
X005333723Y-02301155D01*
G01*
X005326290Y-02294743D01*
G01*
X005316998Y-02286728D01*
G01*
X005301002Y-02271498D01*
G01*
X005285772Y-02255502D01*
G01*
X005277757Y-02246210D01*
G01*
X005271345Y-02238777D01*
G01*
X005257757Y-02221365D01*
G01*
X005245039Y-02203307D01*
G01*
X005233222Y-02184646D01*
G01*
X005222335Y-02165429D01*
G01*
X005212405Y-02145700D01*
G01*
X005203454Y-02125508D01*
G01*
X005195505Y-02104900D01*
G01*
X005191656Y-02093249D01*
G01*
X005188577Y-02083928D01*
G01*
X005182686Y-02062641D01*
G01*
X005177847Y-02041091D01*
G01*
X005174071Y-02019329D01*
G01*
X005171367Y-01997408D01*
G01*
X005169742Y-01975380D01*
G01*
X005169200Y-01953300D01*
G01*
X005169742Y-01931220D01*
G01*
X005171367Y-01909192D01*
G01*
X005174071Y-01887271D01*
G01*
X005177847Y-01865509D01*
G01*
X005178358Y-01863232D01*
G01*
X005178890Y-01859646D01*
G01*
X005179252Y-01852294D01*
G01*
X005178890Y-01844943D01*
G01*
X005177810Y-01837662D01*
G01*
X005176022Y-01830523D01*
G01*
X005173543Y-01823593D01*
G01*
X005170396Y-01816939D01*
G01*
X005166612Y-01810626D01*
G01*
X005162227Y-01804715D01*
G01*
X005157285Y-01799261D01*
G01*
X005151831Y-01794318D01*
G01*
X005145919Y-01789934D01*
G01*
X005139606Y-01786150D01*
G01*
X005132953Y-01783003D01*
G01*
X005126023Y-01780524D01*
G01*
X005118883Y-01778735D01*
G01*
X005111603Y-01777655D01*
G01*
X005104252Y-01777294D01*
G01*
X005096900Y-01777655D01*
G01*
X005089620Y-01778735D01*
G01*
X005082480Y-01780524D01*
G01*
X005075550Y-01783003D01*
G01*
X005068897Y-01786150D01*
G01*
X005062584Y-01789934D01*
G01*
X005056672Y-01794318D01*
G01*
X005051219Y-01799261D01*
G01*
X004770290Y-02080190D01*
G01*
X004760337Y-02089666D01*
G01*
X004749930Y-02098643D01*
G01*
X004739096Y-02107098D01*
G01*
X004727860Y-02115011D01*
G01*
X004716249Y-02122364D01*
G01*
X004704291Y-02129138D01*
G01*
X004692015Y-02135317D01*
G01*
X004679451Y-02140886D01*
G01*
X004666629Y-02145832D01*
G01*
X004653580Y-02150143D01*
G01*
X004640334Y-02153809D01*
G01*
X004626925Y-02156820D01*
G01*
X004613385Y-02159169D01*
G01*
X004599745Y-02160852D01*
G01*
X004586039Y-02161863D01*
G01*
X004572300Y-02162200D01*
G01*
X004052400Y-02162200D01*
G01*
X004038661Y-02161863D01*
G01*
X004024955Y-02160852D01*
G01*
X004011315Y-02159169D01*
G01*
X003997775Y-02156820D01*
G01*
X003984366Y-02153809D01*
G01*
X003971120Y-02150143D01*
G01*
X003958071Y-02145832D01*
G01*
X003945249Y-02140886D01*
G01*
X003932685Y-02135317D01*
G01*
X003920409Y-02129138D01*
G01*
X003908451Y-02122364D01*
G01*
X003896840Y-02115011D01*
G01*
X003885604Y-02107098D01*
G01*
X003874770Y-02098643D01*
G01*
X003864363Y-02089666D01*
G01*
X003854410Y-02080190D01*
G01*
X003589660Y-01815440D01*
G01*
X003584316Y-01810587D01*
G01*
X003578530Y-01806271D01*
G01*
X003572356Y-01802530D01*
G01*
X003565851Y-01799401D01*
G01*
X003559075Y-01796911D01*
G01*
X003552091Y-01795085D01*
G01*
X003544964Y-01793938D01*
G01*
X003537760Y-01793482D01*
G01*
X003530545Y-01793720D01*
G01*
X003523387Y-01794651D01*
G01*
X003516351Y-01796266D01*
G01*
X003509503Y-01798550D01*
G01*
X003503342Y-01801287D01*
G01*
X003492400Y-01806795D01*
G01*
X003472208Y-01815746D01*
G01*
X003451600Y-01823695D01*
G01*
X003430628Y-01830623D01*
G01*
X003409341Y-01836514D01*
G01*
X003397369Y-01839203D01*
G01*
X003387791Y-01841353D01*
G01*
X003366029Y-01845129D01*
G01*
X003344108Y-01847833D01*
G01*
X003322080Y-01849458D01*
G01*
X003300000Y-01850000D01*
G01*
X003277920Y-01849458D01*
G01*
X003255892Y-01847833D01*
G01*
X003233971Y-01845129D01*
G01*
X003212209Y-01841353D01*
G01*
X003190659Y-01836514D01*
G01*
X003169372Y-01830623D01*
G01*
X003148400Y-01823695D01*
G01*
X003127792Y-01815746D01*
G01*
X003107600Y-01806795D01*
G01*
X003087871Y-01796865D01*
G01*
X003068654Y-01785978D01*
G01*
X003049993Y-01774161D01*
G01*
X003031935Y-01761443D01*
G01*
X003014523Y-01747855D01*
G01*
X002997798Y-01733428D01*
G01*
X002981802Y-01718198D01*
G01*
X002966572Y-01702202D01*
G01*
X002952145Y-01685477D01*
G01*
X002947316Y-01679289D01*
G01*
X002943033Y-01674563D01*
G01*
X002937579Y-01669620D01*
G01*
X002931668Y-01665236D01*
G01*
X002925355Y-01661452D01*
G01*
X002918701Y-01658305D01*
G01*
X002911771Y-01655826D01*
G01*
X002904632Y-01654037D01*
G01*
X002897351Y-01652957D01*
G01*
X002890000Y-01652596D01*
G01*
X002882649Y-01652957D01*
G01*
X002875368Y-01654037D01*
G01*
X002868229Y-01655826D01*
G01*
X002861299Y-01658305D01*
G01*
X002854645Y-01661452D01*
G01*
X002848332Y-01665236D01*
G01*
X002842421Y-01669620D01*
G01*
X002836967Y-01674563D01*
G37*
D25*
G36*
X007080000Y-02394220D02*
G01*
X008532200Y-02394220D01*
G01*
X008532200Y000165529D01*
G01*
X008531851Y000172758D01*
G01*
X008530806Y000179920D01*
G01*
X008529077Y000186948D01*
G01*
X008526677Y000193776D01*
G01*
X008523631Y000200342D01*
G01*
X008519966Y000206583D01*
G01*
X008515717Y000212442D01*
G01*
X008510923Y000217863D01*
G01*
X008505628Y000222798D01*
G01*
X008499883Y000227199D01*
G01*
X008493739Y000231026D01*
G01*
X008487256Y000234243D01*
G01*
X008480493Y000236820D01*
G01*
X008473513Y000238734D01*
G01*
X008466381Y000239965D01*
G01*
X008459163Y000240503D01*
G01*
X008451927Y000240344D01*
G01*
X008444741Y000239487D01*
G01*
X008437670Y000237942D01*
G01*
X008430781Y000235722D01*
G01*
X008424138Y000232849D01*
G01*
X008417804Y000229349D01*
G01*
X008411836Y000225254D01*
G01*
X008406290Y000220603D01*
G01*
X008401218Y000215440D01*
G01*
X008396668Y000209811D01*
G01*
X008392682Y000203771D01*
G01*
X008389296Y000197374D01*
G01*
X008386543Y000190680D01*
G01*
X008385932Y000188661D01*
G01*
X008380623Y000169476D01*
G01*
X008373695Y000148504D01*
G01*
X008365746Y000127896D01*
G01*
X008356795Y000107704D01*
G01*
X008346865Y000087975D01*
G01*
X008335978Y000068758D01*
G01*
X008324161Y000050097D01*
G01*
X008311443Y000032039D01*
G01*
X008297855Y000014627D01*
G01*
X008283428Y-00002098D01*
G01*
X008268198Y-00018094D01*
G01*
X008252202Y-00033324D01*
G01*
X008242910Y-00041339D01*
G01*
X008235477Y-00047751D01*
G01*
X008218065Y-00061339D01*
G01*
X008200007Y-00074057D01*
G01*
X008181346Y-00085874D01*
G01*
X008170670Y-00091922D01*
G01*
X008162129Y-00096761D01*
G01*
X008142400Y-00106691D01*
G01*
X008122208Y-00115642D01*
G01*
X008101600Y-00123591D01*
G01*
X008089949Y-00127440D01*
G01*
X008080628Y-00130519D01*
G01*
X008059341Y-00136410D01*
G01*
X008037791Y-00141249D01*
G01*
X008028119Y-00142928D01*
G01*
X008016029Y-00145025D01*
G01*
X007994108Y-00147729D01*
G01*
X007972080Y-00149354D01*
G01*
X007950000Y-00149896D01*
G01*
X007927920Y-00149354D01*
G01*
X007905892Y-00147729D01*
G01*
X007883971Y-00145025D01*
G01*
X007862209Y-00141249D01*
G01*
X007840659Y-00136410D01*
G01*
X007819372Y-00130519D01*
G01*
X007798400Y-00123591D01*
G01*
X007777792Y-00115642D01*
G01*
X007768818Y-00111664D01*
G01*
X007757600Y-00106691D01*
G01*
X007737871Y-00096761D01*
G01*
X007718654Y-00085874D01*
G01*
X007699993Y-00074057D01*
G01*
X007681935Y-00061339D01*
G01*
X007664523Y-00047751D01*
G01*
X007647798Y-00033324D01*
G01*
X007631802Y-00018094D01*
G01*
X007616572Y-00002098D01*
G01*
X007602145Y000014627D01*
G01*
X007588557Y000032039D01*
G01*
X007575839Y000050097D01*
G01*
X007564022Y000068758D01*
G01*
X007557974Y000079434D01*
G01*
X007553135Y000087975D01*
G01*
X007543205Y000107704D01*
G01*
X007534254Y000127896D01*
G01*
X007526305Y000148504D01*
G01*
X007522456Y000160155D01*
G01*
X007519377Y000169476D01*
G01*
X007513486Y000190763D01*
G01*
X007508647Y000212313D01*
G01*
X007504871Y000234075D01*
G01*
X007502167Y000255996D01*
G01*
X007500542Y000278024D01*
G01*
X007500000Y000300104D01*
G01*
X007500542Y000322184D01*
G01*
X007502167Y000344212D01*
G01*
X007504871Y000366133D01*
G01*
X007508647Y000387895D01*
G01*
X007513486Y000409445D01*
G01*
X007519377Y000430732D01*
G01*
X007526305Y000451704D01*
G01*
X007530721Y000463153D01*
G01*
X007534254Y000472312D01*
G01*
X007543205Y000492504D01*
G01*
X007553135Y000512233D01*
G01*
X007564022Y000531450D01*
G01*
X007575839Y000550111D01*
G01*
X007588557Y000568169D01*
G01*
X007602145Y000585581D01*
G01*
X007616572Y000602306D01*
G01*
X007631802Y000618302D01*
G01*
X007647798Y000633532D01*
G01*
X007664523Y000647959D01*
G01*
X007681935Y000661547D01*
G01*
X007699847Y000674162D01*
G01*
X007701884Y000675673D01*
G01*
X007707338Y000680616D01*
G01*
X007712281Y000686070D01*
G01*
X007716665Y000691981D01*
G01*
X007720449Y000698295D01*
G01*
X007723596Y000704948D01*
G01*
X007726075Y000711878D01*
G01*
X007727864Y000719017D01*
G01*
X007728944Y000726298D01*
G01*
X007729305Y000733649D01*
G01*
X007728944Y000741001D01*
G01*
X007727864Y000748281D01*
G01*
X007726075Y000755421D01*
G01*
X007723596Y000762351D01*
G01*
X007720449Y000769004D01*
G01*
X007716665Y000775317D01*
G01*
X007712281Y000781229D01*
G01*
X007707338Y000786682D01*
G01*
X007208033Y001285987D01*
G01*
X007202579Y001290930D01*
G01*
X007196668Y001295314D01*
G01*
X007190355Y001299098D01*
G01*
X007183701Y001302245D01*
G01*
X007176771Y001304725D01*
G01*
X007169632Y001306513D01*
G01*
X007162351Y001307593D01*
G01*
X007155000Y001307954D01*
G01*
X007147649Y001307593D01*
G01*
X007140368Y001306513D01*
G01*
X007133229Y001304725D01*
G01*
X007126299Y001302245D01*
G01*
X007119645Y001299098D01*
G01*
X007113332Y001295314D01*
G01*
X007107421Y001290930D01*
G01*
X007101967Y001285987D01*
G01*
X007097024Y001280534D01*
G01*
X007092640Y001274622D01*
G01*
X007088856Y001268309D01*
G01*
X007085709Y001261655D01*
G01*
X007083229Y001254726D01*
G01*
X007081441Y001247586D01*
G01*
X007080361Y001240305D01*
G01*
X007080000Y001232954D01*
G01*
X007080000Y-02394220D01*
G37*
D25*
G36*
X017150000Y-02394220D02*
G01*
X011036400Y-02394220D01*
G01*
X011036400Y-10378135D01*
G01*
X011036711Y-10384962D01*
G01*
X011037643Y-10391733D01*
G01*
X011039187Y-10398391D01*
G01*
X011041331Y-10404881D01*
G01*
X011044057Y-10411149D01*
G01*
X011047342Y-10417142D01*
G01*
X011047591Y-10417512D01*
G01*
X011047843Y-10417835D01*
G01*
X011060561Y-10435893D01*
G01*
X011072378Y-10454554D01*
G01*
X011083265Y-10473771D01*
G01*
X011093195Y-10493500D01*
G01*
X011098168Y-10504718D01*
G01*
X011102146Y-10513692D01*
G01*
X011110095Y-10534300D01*
G01*
X011117023Y-10555272D01*
G01*
X011122914Y-10576559D01*
G01*
X011127753Y-10598109D01*
G01*
X011131529Y-10619871D01*
G01*
X011134159Y-10641194D01*
G01*
X011134608Y-10644193D01*
G01*
X011136464Y-10651496D01*
G01*
X011139044Y-10658576D01*
G01*
X011142322Y-10665361D01*
G01*
X011146263Y-10671783D01*
G01*
X011150830Y-10677777D01*
G01*
X011155974Y-10683283D01*
G01*
X011161645Y-10688244D01*
G01*
X011167786Y-10692612D01*
G01*
X011174333Y-10696341D01*
G01*
X011181222Y-10699395D01*
G01*
X011188382Y-10701742D01*
G01*
X011195742Y-10703359D01*
G01*
X011203227Y-10704229D01*
G01*
X011210761Y-10704343D01*
G01*
X011218269Y-10703701D01*
G01*
X011225675Y-10702309D01*
G01*
X011232903Y-10700180D01*
G01*
X011239882Y-10697337D01*
G01*
X011246540Y-10693809D01*
G01*
X011252810Y-10689630D01*
G01*
X011388846Y-10588738D01*
G01*
X011632949Y-10442428D01*
G01*
X011890218Y-10320749D01*
G01*
X012158174Y-10224873D01*
G01*
X012434238Y-10155723D01*
G01*
X012715750Y-10113964D01*
G01*
X013000000Y-10100000D01*
G01*
X013284250Y-10113964D01*
G01*
X013565762Y-10155723D01*
G01*
X013841826Y-10224873D01*
G01*
X014109782Y-10320749D01*
G01*
X014367051Y-10442428D01*
G01*
X014611154Y-10588738D01*
G01*
X014839741Y-10758270D01*
G01*
X015050610Y-10949390D01*
G01*
X015241730Y-11160259D01*
G01*
X015411262Y-11388846D01*
G01*
X015557572Y-11632949D01*
G01*
X015679251Y-11890218D01*
G01*
X015775127Y-12158174D01*
G01*
X015844277Y-12434238D01*
G01*
X015886036Y-12715750D01*
G01*
X015900000Y-13000000D01*
G01*
X015886036Y-13284250D01*
G01*
X015844277Y-13565762D01*
G01*
X015775127Y-13841826D01*
G01*
X015679251Y-14109782D01*
G01*
X015557572Y-14367051D01*
G01*
X015411262Y-14611154D01*
G01*
X015241730Y-14839741D01*
G01*
X015050610Y-15050610D01*
G01*
X014839741Y-15241730D01*
G01*
X014611154Y-15411262D01*
G01*
X014367051Y-15557572D01*
G01*
X014109782Y-15679251D01*
G01*
X013841826Y-15775127D01*
G01*
X013565762Y-15844277D01*
G01*
X013284250Y-15886036D01*
G01*
X013000000Y-15900000D01*
G01*
X012715750Y-15886036D01*
G01*
X012434238Y-15844277D01*
G01*
X012158174Y-15775127D01*
G01*
X011890218Y-15679251D01*
G01*
X011632949Y-15557572D01*
G01*
X011388846Y-15411262D01*
G01*
X011160259Y-15241730D01*
G01*
X010949390Y-15050610D01*
G01*
X010758270Y-14839741D01*
G01*
X010588738Y-14611154D01*
G01*
X010442428Y-14367051D01*
G01*
X010320749Y-14109782D01*
G01*
X010224873Y-13841826D01*
G01*
X010155723Y-13565762D01*
G01*
X010113964Y-13284250D01*
G01*
X010100000Y-13000000D01*
G01*
X010113964Y-12715750D01*
G01*
X010155723Y-12434238D01*
G01*
X010224873Y-12158174D01*
G01*
X010320749Y-11890218D01*
G01*
X010442428Y-11632949D01*
G01*
X010588738Y-11388846D01*
G01*
X010690009Y-11252298D01*
G01*
X010694188Y-11246028D01*
G01*
X010697717Y-11239370D01*
G01*
X010700560Y-11232391D01*
G01*
X010702688Y-11225163D01*
G01*
X010704081Y-11217757D01*
G01*
X010704723Y-11210250D01*
G01*
X010704608Y-11202715D01*
G01*
X010703738Y-11195230D01*
G01*
X010702122Y-11187871D01*
G01*
X010699775Y-11180710D01*
G01*
X010696721Y-11173821D01*
G01*
X010692992Y-11167274D01*
G01*
X010688624Y-11161133D01*
G01*
X010683662Y-11155462D01*
G01*
X010678157Y-11150318D01*
G01*
X010672162Y-11145752D01*
G01*
X010665740Y-11141810D01*
G01*
X010658955Y-11138532D01*
G01*
X010651875Y-11135953D01*
G01*
X010644572Y-11134096D01*
G01*
X010641448Y-11133629D01*
G01*
X010620371Y-11131029D01*
G01*
X010598609Y-11127253D01*
G01*
X010577059Y-11122414D01*
G01*
X010555772Y-11116523D01*
G01*
X010534800Y-11109595D01*
G01*
X010523351Y-11105179D01*
G01*
X010514192Y-11101646D01*
G01*
X010494000Y-11092695D01*
G01*
X010474271Y-11082765D01*
G01*
X010455054Y-11071878D01*
G01*
X010436393Y-11060061D01*
G01*
X010418335Y-11047343D01*
G01*
X010400923Y-11033755D01*
G01*
X010384198Y-11019328D01*
G01*
X010368202Y-11004098D01*
G01*
X010352972Y-10988102D01*
G01*
X010338545Y-10971377D01*
G01*
X010324957Y-10953965D01*
G01*
X010312239Y-10935907D01*
G01*
X010300422Y-10917246D01*
G01*
X010289535Y-10898029D01*
G01*
X010279605Y-10878300D01*
G01*
X010270654Y-10858108D01*
G01*
X010267121Y-10848949D01*
G01*
X010262705Y-10837500D01*
G01*
X010255777Y-10816528D01*
G01*
X010249886Y-10795241D01*
G01*
X010245047Y-10773691D01*
G01*
X010241271Y-10751929D01*
G01*
X010238567Y-10730008D01*
G01*
X010236942Y-10707980D01*
G01*
X010236400Y-10685900D01*
G01*
X010236942Y-10663820D01*
G01*
X010238567Y-10641792D01*
G01*
X010241271Y-10619871D01*
G01*
X010245047Y-10598109D01*
G01*
X010247197Y-10588531D01*
G01*
X010249886Y-10576559D01*
G01*
X010255777Y-10555272D01*
G01*
X010262705Y-10534300D01*
G01*
X010270654Y-10513692D01*
G01*
X010279605Y-10493500D01*
G01*
X010289535Y-10473771D01*
G01*
X010300422Y-10454554D01*
G01*
X010312239Y-10435893D01*
G01*
X010324957Y-10417835D01*
G01*
X010325209Y-10417512D01*
G01*
X010325458Y-10417142D01*
G01*
X010328743Y-10411149D01*
G01*
X010331469Y-10404881D01*
G01*
X010333613Y-10398391D01*
G01*
X010335157Y-10391733D01*
G01*
X010336089Y-10384962D01*
G01*
X010336400Y-10378135D01*
G01*
X010336400Y-02394220D01*
G01*
X009092200Y-02394220D01*
G01*
X009092200Y-13476111D01*
G01*
X009092608Y-13483920D01*
G01*
X009093826Y-13491644D01*
G01*
X009095842Y-13499200D01*
G01*
X009098634Y-13506504D01*
G01*
X009102172Y-13513478D01*
G01*
X009106416Y-13520046D01*
G01*
X009111321Y-13526136D01*
G01*
X009113262Y-13528089D01*
G01*
X009114402Y-13529072D01*
G01*
X009130398Y-13544302D01*
G01*
X009145628Y-13560298D01*
G01*
X009160055Y-13577023D01*
G01*
X009173643Y-13594435D01*
G01*
X009186361Y-13612493D01*
G01*
X009198178Y-13631154D01*
G01*
X009204226Y-13641830D01*
G01*
X009209065Y-13650371D01*
G01*
X009218995Y-13670100D01*
G01*
X009227946Y-13690292D01*
G01*
X009235895Y-13710900D01*
G01*
X009242823Y-13731872D01*
G01*
X009248714Y-13753159D01*
G01*
X009253553Y-13774709D01*
G01*
X009257329Y-13796471D01*
G01*
X009260033Y-13818392D01*
G01*
X009261658Y-13840420D01*
G01*
X009262200Y-13862500D01*
G01*
X009261658Y-13884580D01*
G01*
X009260033Y-13906608D01*
G01*
X009257329Y-13928529D01*
G01*
X009253553Y-13950291D01*
G01*
X009248714Y-13971841D01*
G01*
X009242823Y-13993128D01*
G01*
X009235895Y-14014100D01*
G01*
X009231479Y-14025549D01*
G01*
X009227946Y-14034708D01*
G01*
X009218995Y-14054900D01*
G01*
X009209065Y-14074629D01*
G01*
X009198178Y-14093846D01*
G01*
X009186361Y-14112507D01*
G01*
X009173643Y-14130565D01*
G01*
X009160055Y-14147977D01*
G01*
X009145628Y-14164702D01*
G01*
X009130398Y-14180698D01*
G01*
X009114402Y-14195928D01*
G01*
X009097677Y-14210355D01*
G01*
X009080265Y-14223943D01*
G01*
X009062207Y-14236661D01*
G01*
X009043546Y-14248478D01*
G01*
X009024329Y-14259365D01*
G01*
X009004600Y-14269295D01*
G01*
X008984408Y-14278246D01*
G01*
X008963800Y-14286195D01*
G01*
X008942828Y-14293123D01*
G01*
X008921541Y-14299014D01*
G01*
X008899991Y-14303853D01*
G01*
X008878229Y-14307629D01*
G01*
X008856308Y-14310333D01*
G01*
X008834280Y-14311958D01*
G01*
X008812200Y-14312500D01*
G01*
X008790120Y-14311958D01*
G01*
X008768092Y-14310333D01*
G01*
X008746171Y-14307629D01*
G01*
X008724409Y-14303853D01*
G01*
X008702859Y-14299014D01*
G01*
X008681572Y-14293123D01*
G01*
X008672251Y-14290044D01*
G01*
X008660600Y-14286195D01*
G01*
X008639992Y-14278246D01*
G01*
X008619800Y-14269295D01*
G01*
X008600071Y-14259365D01*
G01*
X008580854Y-14248478D01*
G01*
X008562193Y-14236661D01*
G01*
X008544135Y-14223943D01*
G01*
X008526723Y-14210355D01*
G01*
X008509998Y-14195928D01*
G01*
X008494002Y-14180698D01*
G01*
X008478772Y-14164702D01*
G01*
X008464345Y-14147977D01*
G01*
X008450757Y-14130565D01*
G01*
X008438039Y-14112507D01*
G01*
X008426222Y-14093846D01*
G01*
X008415335Y-14074629D01*
G01*
X008405405Y-14054900D01*
G01*
X008400432Y-14043682D01*
G01*
X008396454Y-14034708D01*
G01*
X008388505Y-14014100D01*
G01*
X008381577Y-13993128D01*
G01*
X008375686Y-13971841D01*
G01*
X008370847Y-13950291D01*
G01*
X008367071Y-13928529D01*
G01*
X008364367Y-13906608D01*
G01*
X008362742Y-13884580D01*
G01*
X008362200Y-13862500D01*
G01*
X008362742Y-13840420D01*
G01*
X008364367Y-13818392D01*
G01*
X008367071Y-13796471D01*
G01*
X008370847Y-13774709D01*
G01*
X008375686Y-13753159D01*
G01*
X008381577Y-13731872D01*
G01*
X008388505Y-13710900D01*
G01*
X008396454Y-13690292D01*
G01*
X008405405Y-13670100D01*
G01*
X008415335Y-13650371D01*
G01*
X008420174Y-13641830D01*
G01*
X008426222Y-13631154D01*
G01*
X008438039Y-13612493D01*
G01*
X008450757Y-13594435D01*
G01*
X008464345Y-13577023D01*
G01*
X008478772Y-13560298D01*
G01*
X008494002Y-13544302D01*
G01*
X008509998Y-13529072D01*
G01*
X008511138Y-13528089D01*
G01*
X008513079Y-13526136D01*
G01*
X008517984Y-13520046D01*
G01*
X008522228Y-13513478D01*
G01*
X008525766Y-13506504D01*
G01*
X008528558Y-13499200D01*
G01*
X008530574Y-13491644D01*
G01*
X008531792Y-13483920D01*
G01*
X008532200Y-13476111D01*
G01*
X008532200Y-02394220D01*
G01*
X007080000Y-02394220D01*
G01*
X007080000Y-15246520D01*
G01*
X008023172Y-16189692D01*
G01*
X008028310Y-16194374D01*
G01*
X008033859Y-16198561D01*
G01*
X008039772Y-16202216D01*
G01*
X008045999Y-16205307D01*
G01*
X008052484Y-16207809D01*
G01*
X008059174Y-16209700D01*
G01*
X008066010Y-16210963D01*
G01*
X008072933Y-16211587D01*
G01*
X008074409Y-16211583D01*
G01*
X008076320Y-16211442D01*
G01*
X008098400Y-16210900D01*
G01*
X008120480Y-16211442D01*
G01*
X008142508Y-16213067D01*
G01*
X008164429Y-16215771D01*
G01*
X008176519Y-16217868D01*
G01*
X008186191Y-16219547D01*
G01*
X008207741Y-16224386D01*
G01*
X008229028Y-16230277D01*
G01*
X008250000Y-16237205D01*
G01*
X008270608Y-16245154D01*
G01*
X008290800Y-16254105D01*
G01*
X008310529Y-16264035D01*
G01*
X008319070Y-16268874D01*
G01*
X008329746Y-16274922D01*
G01*
X008348407Y-16286739D01*
G01*
X008366465Y-16299457D01*
G01*
X008383877Y-16313045D01*
G01*
X008391310Y-16319457D01*
G01*
X008400602Y-16327472D01*
G01*
X008416598Y-16342702D01*
G01*
X008431828Y-16358698D01*
G01*
X008446255Y-16375423D01*
G01*
X008459843Y-16392835D01*
G01*
X008472561Y-16410893D01*
G01*
X008484378Y-16429554D01*
G01*
X008495265Y-16448771D01*
G01*
X008505195Y-16468500D01*
G01*
X008510168Y-16479718D01*
G01*
X008514146Y-16488692D01*
G01*
X008522095Y-16509300D01*
G01*
X008529023Y-16530272D01*
G01*
X008534914Y-16551559D01*
G01*
X008539753Y-16573109D01*
G01*
X008543529Y-16594871D01*
G01*
X008546233Y-16616792D01*
G01*
X008547858Y-16638820D01*
G01*
X008548400Y-16660900D01*
G01*
X008547858Y-16682980D01*
G01*
X008546233Y-16705008D01*
G01*
X008543529Y-16726929D01*
G01*
X008539753Y-16748691D01*
G01*
X008534914Y-16770241D01*
G01*
X008529023Y-16791528D01*
G01*
X008525944Y-16800849D01*
G01*
X008522095Y-16812500D01*
G01*
X008514146Y-16833108D01*
G01*
X008505195Y-16853300D01*
G01*
X008495265Y-16873029D01*
G01*
X008484378Y-16892246D01*
G01*
X008472561Y-16910907D01*
G01*
X008459843Y-16928965D01*
G01*
X008446255Y-16946377D01*
G01*
X008431828Y-16963102D01*
G01*
X008416598Y-16979098D01*
G01*
X008400602Y-16994328D01*
G01*
X008383877Y-17008755D01*
G01*
X008374375Y-17016170D01*
G01*
X008369091Y-17020732D01*
G01*
X008363973Y-17026124D01*
G01*
X008359414Y-17031995D01*
G01*
X008355459Y-17038289D01*
G01*
X008352146Y-17044944D01*
G01*
X008349508Y-17051894D01*
G01*
X008347571Y-17059071D01*
G01*
X008346354Y-17066404D01*
G01*
X008345869Y-17073822D01*
G01*
X008346121Y-17081251D01*
G01*
X008347107Y-17088619D01*
G01*
X008348818Y-17095854D01*
G01*
X008351236Y-17102883D01*
G01*
X008354338Y-17109638D01*
G01*
X008358094Y-17116054D01*
G01*
X008362466Y-17122065D01*
G01*
X008367412Y-17127615D01*
G01*
X008372883Y-17132647D01*
G01*
X008378826Y-17137114D01*
G01*
X008385181Y-17140970D01*
G01*
X008391887Y-17144178D01*
G01*
X008398877Y-17146706D01*
G01*
X008406084Y-17148530D01*
G01*
X008413436Y-17149632D01*
G01*
X008420860Y-17150000D01*
G01*
X017075000Y-17150000D01*
G01*
X017082351Y-17149639D01*
G01*
X017089632Y-17148559D01*
G01*
X017096771Y-17146771D01*
G01*
X017103701Y-17144291D01*
G01*
X017110355Y-17141144D01*
G01*
X017116668Y-17137360D01*
G01*
X017122579Y-17132976D01*
G01*
X017128033Y-17128033D01*
G01*
X017132976Y-17122579D01*
G01*
X017137360Y-17116668D01*
G01*
X017141144Y-17110355D01*
G01*
X017144291Y-17103701D01*
G01*
X017146771Y-17096771D01*
G01*
X017148559Y-17089632D01*
G01*
X017149639Y-17082351D01*
G01*
X017150000Y-17075000D01*
G01*
X017150000Y-02394220D01*
G37*
D25*
G36*
X-03874525Y-11129650D02*
G01*
X-05276800Y-11129650D01*
G01*
X-05276800Y-13612811D01*
G01*
X-05276392Y-13620620D01*
G01*
X-05275174Y-13628344D01*
G01*
X-05273158Y-13635900D01*
G01*
X-05270366Y-13643204D01*
G01*
X-05266828Y-13650178D01*
G01*
X-05262584Y-13656746D01*
G01*
X-05257679Y-13662836D01*
G01*
X-05255738Y-13664789D01*
G01*
X-05254598Y-13665772D01*
G01*
X-05238602Y-13681002D01*
G01*
X-05223372Y-13696998D01*
G01*
X-05208945Y-13713723D01*
G01*
X-05195357Y-13731135D01*
G01*
X-05182639Y-13749193D01*
G01*
X-05170822Y-13767854D01*
G01*
X-05164774Y-13778530D01*
G01*
X-05159935Y-13787071D01*
G01*
X-05150005Y-13806800D01*
G01*
X-05141054Y-13826992D01*
G01*
X-05133105Y-13847600D01*
G01*
X-05126177Y-13868572D01*
G01*
X-05120286Y-13889859D01*
G01*
X-05115447Y-13911409D01*
G01*
X-05111671Y-13933171D01*
G01*
X-05108967Y-13955092D01*
G01*
X-05107342Y-13977120D01*
G01*
X-05106800Y-13999200D01*
G01*
X-05107342Y-14021280D01*
G01*
X-05108967Y-14043308D01*
G01*
X-05111671Y-14065229D01*
G01*
X-05115447Y-14086991D01*
G01*
X-05120286Y-14108541D01*
G01*
X-05126177Y-14129828D01*
G01*
X-05133105Y-14150800D01*
G01*
X-05141054Y-14171408D01*
G01*
X-05150005Y-14191600D01*
G01*
X-05159935Y-14211329D01*
G01*
X-05170822Y-14230546D01*
G01*
X-05182639Y-14249207D01*
G01*
X-05195357Y-14267265D01*
G01*
X-05208945Y-14284677D01*
G01*
X-05223372Y-14301402D01*
G01*
X-05238602Y-14317398D01*
G01*
X-05254598Y-14332628D01*
G01*
X-05271323Y-14347055D01*
G01*
X-05288735Y-14360643D01*
G01*
X-05306793Y-14373361D01*
G01*
X-05325454Y-14385178D01*
G01*
X-05344671Y-14396065D01*
G01*
X-05364400Y-14405995D01*
G01*
X-05384592Y-14414946D01*
G01*
X-05405200Y-14422895D01*
G01*
X-05426172Y-14429823D01*
G01*
X-05447459Y-14435714D01*
G01*
X-05469009Y-14440553D01*
G01*
X-05490771Y-14444329D01*
G01*
X-05512692Y-14447033D01*
G01*
X-05534720Y-14448658D01*
G01*
X-05556800Y-14449200D01*
G01*
X-05578880Y-14448658D01*
G01*
X-05600908Y-14447033D01*
G01*
X-05622829Y-14444329D01*
G01*
X-05644591Y-14440553D01*
G01*
X-05666141Y-14435714D01*
G01*
X-05687428Y-14429823D01*
G01*
X-05708400Y-14422895D01*
G01*
X-05729008Y-14414946D01*
G01*
X-05749200Y-14405995D01*
G01*
X-05768929Y-14396065D01*
G01*
X-05788146Y-14385178D01*
G01*
X-05806807Y-14373361D01*
G01*
X-05824865Y-14360643D01*
G01*
X-05842277Y-14347055D01*
G01*
X-05859002Y-14332628D01*
G01*
X-05874998Y-14317398D01*
G01*
X-05890228Y-14301402D01*
G01*
X-05904655Y-14284677D01*
G01*
X-05918243Y-14267265D01*
G01*
X-05930961Y-14249207D01*
G01*
X-05942778Y-14230546D01*
G01*
X-05953665Y-14211329D01*
G01*
X-05963595Y-14191600D01*
G01*
X-05972546Y-14171408D01*
G01*
X-05980495Y-14150800D01*
G01*
X-05987423Y-14129828D01*
G01*
X-05993314Y-14108541D01*
G01*
X-05998153Y-14086991D01*
G01*
X-06001929Y-14065229D01*
G01*
X-06004633Y-14043308D01*
G01*
X-06006258Y-14021280D01*
G01*
X-06006800Y-13999200D01*
G01*
X-06006258Y-13977120D01*
G01*
X-06004633Y-13955092D01*
G01*
X-06001929Y-13933171D01*
G01*
X-05998153Y-13911409D01*
G01*
X-05993314Y-13889859D01*
G01*
X-05987423Y-13868572D01*
G01*
X-05980495Y-13847600D01*
G01*
X-05972546Y-13826992D01*
G01*
X-05963595Y-13806800D01*
G01*
X-05953665Y-13787071D01*
G01*
X-05942778Y-13767854D01*
G01*
X-05930961Y-13749193D01*
G01*
X-05918243Y-13731135D01*
G01*
X-05904655Y-13713723D01*
G01*
X-05890228Y-13696998D01*
G01*
X-05874998Y-13681002D01*
G01*
X-05859002Y-13665772D01*
G01*
X-05857862Y-13664789D01*
G01*
X-05855921Y-13662836D01*
G01*
X-05851016Y-13656746D01*
G01*
X-05846772Y-13650178D01*
G01*
X-05843234Y-13643204D01*
G01*
X-05840442Y-13635900D01*
G01*
X-05838426Y-13628344D01*
G01*
X-05837208Y-13620620D01*
G01*
X-05836800Y-13612811D01*
G01*
X-05836800Y-11129650D01*
G01*
X-10786012Y-11129650D01*
G01*
X-10758270Y-11160259D01*
G01*
X-10588738Y-11388846D01*
G01*
X-10442428Y-11632949D01*
G01*
X-10320749Y-11890218D01*
G01*
X-10224873Y-12158174D01*
G01*
X-10155723Y-12434238D01*
G01*
X-10113964Y-12715750D01*
G01*
X-10100000Y-13000000D01*
G01*
X-10113964Y-13284250D01*
G01*
X-10155723Y-13565762D01*
G01*
X-10224873Y-13841826D01*
G01*
X-10320749Y-14109782D01*
G01*
X-10442428Y-14367051D01*
G01*
X-10588738Y-14611154D01*
G01*
X-10758270Y-14839741D01*
G01*
X-10949390Y-15050610D01*
G01*
X-11160259Y-15241730D01*
G01*
X-11388846Y-15411262D01*
G01*
X-11632949Y-15557572D01*
G01*
X-11890218Y-15679251D01*
G01*
X-12158174Y-15775127D01*
G01*
X-12434238Y-15844277D01*
G01*
X-12715750Y-15886036D01*
G01*
X-13000000Y-15900000D01*
G01*
X-13284250Y-15886036D01*
G01*
X-13565762Y-15844277D01*
G01*
X-13841826Y-15775127D01*
G01*
X-14109782Y-15679251D01*
G01*
X-14367051Y-15557572D01*
G01*
X-14611154Y-15411262D01*
G01*
X-14839741Y-15241730D01*
G01*
X-15050610Y-15050610D01*
G01*
X-15241730Y-14839741D01*
G01*
X-15411262Y-14611154D01*
G01*
X-15557572Y-14367051D01*
G01*
X-15679251Y-14109782D01*
G01*
X-15775127Y-13841826D01*
G01*
X-15844277Y-13565762D01*
G01*
X-15886036Y-13284250D01*
G01*
X-15900000Y-13000000D01*
G01*
X-15886036Y-12715750D01*
G01*
X-15844277Y-12434238D01*
G01*
X-15775127Y-12158174D01*
G01*
X-15679251Y-11890218D01*
G01*
X-15557572Y-11632949D01*
G01*
X-15411262Y-11388846D01*
G01*
X-15241730Y-11160259D01*
G01*
X-15213988Y-11129650D01*
G01*
X-17150000Y-11129650D01*
G01*
X-17150000Y-17075000D01*
G01*
X-17149639Y-17082351D01*
G01*
X-17148559Y-17089632D01*
G01*
X-17146771Y-17096771D01*
G01*
X-17144291Y-17103701D01*
G01*
X-17141144Y-17110355D01*
G01*
X-17137360Y-17116668D01*
G01*
X-17132976Y-17122579D01*
G01*
X-17128033Y-17128033D01*
G01*
X-17122579Y-17132976D01*
G01*
X-17116668Y-17137360D01*
G01*
X-17110355Y-17141144D01*
G01*
X-17103701Y-17144291D01*
G01*
X-17096771Y-17146771D01*
G01*
X-17089632Y-17148559D01*
G01*
X-17082351Y-17149639D01*
G01*
X-17075000Y-17150000D01*
G01*
X-04854682Y-17150000D01*
G01*
X-04858983Y-17148338D01*
G01*
X-04859306Y-17148315D01*
G01*
X-04876356Y-17146212D01*
G01*
X-04893282Y-17143275D01*
G01*
X-04910043Y-17139511D01*
G01*
X-04926600Y-17134929D01*
G01*
X-04942911Y-17129540D01*
G01*
X-04958939Y-17123358D01*
G01*
X-04974644Y-17116396D01*
G01*
X-04989989Y-17108672D01*
G01*
X-05004936Y-17100205D01*
G01*
X-05007739Y-17098430D01*
G01*
X-05009306Y-17098315D01*
G01*
X-05026356Y-17096212D01*
G01*
X-05043282Y-17093275D01*
G01*
X-05060043Y-17089511D01*
G01*
X-05076600Y-17084929D01*
G01*
X-05092911Y-17079540D01*
G01*
X-05108939Y-17073358D01*
G01*
X-05124644Y-17066396D01*
G01*
X-05139989Y-17058672D01*
G01*
X-05154936Y-17050205D01*
G01*
X-05169450Y-17041014D01*
G01*
X-05183495Y-17031123D01*
G01*
X-05197038Y-17020554D01*
G01*
X-05204958Y-17013722D01*
G01*
X-05214989Y-17008672D01*
G01*
X-05229936Y-17000205D01*
G01*
X-05244450Y-16991014D01*
G01*
X-05254407Y-16984002D01*
G01*
X-05267911Y-16979540D01*
G01*
X-05283939Y-16973358D01*
G01*
X-05299644Y-16966396D01*
G01*
X-05314989Y-16958672D01*
G01*
X-05329936Y-16950205D01*
G01*
X-05344450Y-16941014D01*
G01*
X-05358495Y-16931123D01*
G01*
X-05372038Y-16920554D01*
G01*
X-05379958Y-16913722D01*
G01*
X-05389989Y-16908672D01*
G01*
X-05404936Y-16900205D01*
G01*
X-05419450Y-16891014D01*
G01*
X-05433495Y-16881123D01*
G01*
X-05447038Y-16870554D01*
G01*
X-05460046Y-16859333D01*
G01*
X-05472487Y-16847487D01*
G01*
X-05672487Y-16647487D01*
G01*
X-05684333Y-16635046D01*
G01*
X-05695554Y-16622038D01*
G01*
X-05706123Y-16608495D01*
G01*
X-05716014Y-16594450D01*
G01*
X-05725205Y-16579936D01*
G01*
X-05733672Y-16564989D01*
G01*
X-05741396Y-16549644D01*
G01*
X-05748358Y-16533939D01*
G01*
X-05749430Y-16531160D01*
G01*
X-05750205Y-16529936D01*
G01*
X-05758672Y-16514989D01*
G01*
X-05766396Y-16499644D01*
G01*
X-05773358Y-16483939D01*
G01*
X-05774430Y-16481160D01*
G01*
X-05775205Y-16479936D01*
G01*
X-05783672Y-16464989D01*
G01*
X-05791396Y-16449644D01*
G01*
X-05798358Y-16433939D01*
G01*
X-05799430Y-16431160D01*
G01*
X-05800205Y-16429936D01*
G01*
X-05808672Y-16414989D01*
G01*
X-05813722Y-16404958D01*
G01*
X-05820554Y-16397038D01*
G01*
X-05831123Y-16383495D01*
G01*
X-05841014Y-16369450D01*
G01*
X-05850205Y-16354936D01*
G01*
X-05858672Y-16339989D01*
G01*
X-05866396Y-16324644D01*
G01*
X-05873358Y-16308939D01*
G01*
X-05879540Y-16292911D01*
G01*
X-05884929Y-16276600D01*
G01*
X-05889511Y-16260043D01*
G01*
X-05893275Y-16243282D01*
G01*
X-05896212Y-16226356D01*
G01*
X-05898315Y-16209306D01*
G01*
X-05898338Y-16208983D01*
G01*
X-05899430Y-16206160D01*
G01*
X-05900205Y-16204936D01*
G01*
X-05908672Y-16189989D01*
G01*
X-05916396Y-16174644D01*
G01*
X-05923358Y-16158939D01*
G01*
X-05929540Y-16142911D01*
G01*
X-05934929Y-16126600D01*
G01*
X-05939511Y-16110043D01*
G01*
X-05943275Y-16093282D01*
G01*
X-05946212Y-16076356D01*
G01*
X-05948315Y-16059306D01*
G01*
X-05948338Y-16058983D01*
G01*
X-05954540Y-16042911D01*
G01*
X-05959929Y-16026600D01*
G01*
X-05964511Y-16010043D01*
G01*
X-05968275Y-15993282D01*
G01*
X-05971212Y-15976356D01*
G01*
X-05973315Y-15959306D01*
G01*
X-05974578Y-15942174D01*
G01*
X-05975000Y-15925000D01*
G01*
X-05975000Y-15475000D01*
G01*
X-05974578Y-15457826D01*
G01*
X-05973315Y-15440694D01*
G01*
X-05971212Y-15423644D01*
G01*
X-05968275Y-15406718D01*
G01*
X-05964511Y-15389957D01*
G01*
X-05959929Y-15373400D01*
G01*
X-05954540Y-15357089D01*
G01*
X-05948338Y-15341017D01*
G01*
X-05948315Y-15340694D01*
G01*
X-05946212Y-15323644D01*
G01*
X-05943275Y-15306718D01*
G01*
X-05939511Y-15289957D01*
G01*
X-05934929Y-15273400D01*
G01*
X-05929540Y-15257089D01*
G01*
X-05923358Y-15241061D01*
G01*
X-05916396Y-15225356D01*
G01*
X-05908672Y-15210011D01*
G01*
X-05900205Y-15195064D01*
G01*
X-05899430Y-15193840D01*
G01*
X-05898338Y-15191017D01*
G01*
X-05898315Y-15190694D01*
G01*
X-05896212Y-15173644D01*
G01*
X-05893275Y-15156718D01*
G01*
X-05889511Y-15139957D01*
G01*
X-05884929Y-15123400D01*
G01*
X-05879540Y-15107089D01*
G01*
X-05873358Y-15091061D01*
G01*
X-05866396Y-15075356D01*
G01*
X-05858672Y-15060011D01*
G01*
X-05850205Y-15045064D01*
G01*
X-05841014Y-15030550D01*
G01*
X-05831123Y-15016505D01*
G01*
X-05820554Y-15002962D01*
G01*
X-05813722Y-14995042D01*
G01*
X-05808672Y-14985011D01*
G01*
X-05800205Y-14970064D01*
G01*
X-05799430Y-14968840D01*
G01*
X-05798358Y-14966061D01*
G01*
X-05791396Y-14950356D01*
G01*
X-05783672Y-14935011D01*
G01*
X-05775205Y-14920064D01*
G01*
X-05774430Y-14918840D01*
G01*
X-05773358Y-14916061D01*
G01*
X-05766396Y-14900356D01*
G01*
X-05758672Y-14885011D01*
G01*
X-05750205Y-14870064D01*
G01*
X-05749430Y-14868840D01*
G01*
X-05748358Y-14866061D01*
G01*
X-05741396Y-14850356D01*
G01*
X-05733672Y-14835011D01*
G01*
X-05725205Y-14820064D01*
G01*
X-05716014Y-14805550D01*
G01*
X-05706123Y-14791505D01*
G01*
X-05695554Y-14777962D01*
G01*
X-05684333Y-14764954D01*
G01*
X-05672487Y-14752513D01*
G01*
X-02850000Y-11930025D01*
G01*
X-02850000Y-11796268D01*
G01*
X-02860754Y-11803078D01*
G01*
X-02879971Y-11813965D01*
G01*
X-02899700Y-11823895D01*
G01*
X-02919892Y-11832846D01*
G01*
X-02940500Y-11840795D01*
G01*
X-02952151Y-11844644D01*
G01*
X-02961472Y-11847723D01*
G01*
X-02982759Y-11853614D01*
G01*
X-03004309Y-11858453D01*
G01*
X-03026071Y-11862229D01*
G01*
X-03047992Y-11864933D01*
G01*
X-03070020Y-11866558D01*
G01*
X-03092100Y-11867100D01*
G01*
X-03114180Y-11866558D01*
G01*
X-03136208Y-11864933D01*
G01*
X-03158129Y-11862229D01*
G01*
X-03170219Y-11860132D01*
G01*
X-03179891Y-11858453D01*
G01*
X-03201441Y-11853614D01*
G01*
X-03222728Y-11847723D01*
G01*
X-03243700Y-11840795D01*
G01*
X-03264308Y-11832846D01*
G01*
X-03273282Y-11828868D01*
G01*
X-03284500Y-11823895D01*
G01*
X-03304229Y-11813965D01*
G01*
X-03323446Y-11803078D01*
G01*
X-03342107Y-11791261D01*
G01*
X-03360165Y-11778543D01*
G01*
X-03377577Y-11764955D01*
G01*
X-03394302Y-11750528D01*
G01*
X-03410298Y-11735298D01*
G01*
X-03425528Y-11719302D01*
G01*
X-03439955Y-11702577D01*
G01*
X-03453543Y-11685165D01*
G01*
X-03466261Y-11667107D01*
G01*
X-03478078Y-11648446D01*
G01*
X-03488965Y-11629229D01*
G01*
X-03498895Y-11609500D01*
G01*
X-03503868Y-11598282D01*
G01*
X-03507846Y-11589308D01*
G01*
X-03515795Y-11568700D01*
G01*
X-03522723Y-11547728D01*
G01*
X-03528614Y-11526441D01*
G01*
X-03533453Y-11504891D01*
G01*
X-03537229Y-11483129D01*
G01*
X-03537280Y-11482720D01*
G01*
X-03537365Y-11482284D01*
G01*
X-03539280Y-11475723D01*
G01*
X-03541785Y-11469364D01*
G01*
X-03544858Y-11463259D01*
G01*
X-03548474Y-11457459D01*
G01*
X-03552603Y-11452012D01*
G01*
X-03557202Y-11446973D01*
G01*
X-03874525Y-11129650D01*
G37*
D25*
G36*
X-00060360Y-02394220D02*
G01*
X-17150000Y-02394220D01*
G01*
X-17150000Y-11129650D01*
G01*
X-15213988Y-11129650D01*
G01*
X-15050610Y-10949390D01*
G01*
X-14839741Y-10758270D01*
G01*
X-14611154Y-10588738D01*
G01*
X-14367051Y-10442428D01*
G01*
X-14109782Y-10320749D01*
G01*
X-13841826Y-10224873D01*
G01*
X-13565762Y-10155723D01*
G01*
X-13284250Y-10113964D01*
G01*
X-13000000Y-10100000D01*
G01*
X-12715750Y-10113964D01*
G01*
X-12434238Y-10155723D01*
G01*
X-12158174Y-10224873D01*
G01*
X-11890218Y-10320749D01*
G01*
X-11632949Y-10442428D01*
G01*
X-11388846Y-10588738D01*
G01*
X-11160259Y-10758270D01*
G01*
X-10949390Y-10949390D01*
G01*
X-10786012Y-11129650D01*
G01*
X-05836800Y-11129650D01*
G01*
X-05836800Y-08646489D01*
G01*
X-05837208Y-08638680D01*
G01*
X-05838426Y-08630956D01*
G01*
X-05840442Y-08623400D01*
G01*
X-05843234Y-08616096D01*
G01*
X-05846772Y-08609122D01*
G01*
X-05851016Y-08602554D01*
G01*
X-05855921Y-08596464D01*
G01*
X-05857862Y-08594511D01*
G01*
X-05859002Y-08593528D01*
G01*
X-05874998Y-08578298D01*
G01*
X-05890228Y-08562302D01*
G01*
X-05904655Y-08545577D01*
G01*
X-05918243Y-08528165D01*
G01*
X-05930961Y-08510107D01*
G01*
X-05942778Y-08491446D01*
G01*
X-05948826Y-08480770D01*
G01*
X-05953665Y-08472229D01*
G01*
X-05963595Y-08452500D01*
G01*
X-05972546Y-08432308D01*
G01*
X-05980495Y-08411700D01*
G01*
X-05987423Y-08390728D01*
G01*
X-05993314Y-08369441D01*
G01*
X-05998153Y-08347891D01*
G01*
X-05999832Y-08338219D01*
G01*
X-06001929Y-08326129D01*
G01*
X-06004633Y-08304208D01*
G01*
X-06006258Y-08282180D01*
G01*
X-06006800Y-08260100D01*
G01*
X-06006258Y-08238020D01*
G01*
X-06004633Y-08215992D01*
G01*
X-06001929Y-08194071D01*
G01*
X-05998153Y-08172309D01*
G01*
X-05993314Y-08150759D01*
G01*
X-05987423Y-08129472D01*
G01*
X-05980495Y-08108500D01*
G01*
X-05972546Y-08087892D01*
G01*
X-05963595Y-08067700D01*
G01*
X-05953665Y-08047971D01*
G01*
X-05942778Y-08028754D01*
G01*
X-05930961Y-08010093D01*
G01*
X-05918243Y-07992035D01*
G01*
X-05904655Y-07974623D01*
G01*
X-05890228Y-07957898D01*
G01*
X-05874998Y-07941902D01*
G01*
X-05859002Y-07926672D01*
G01*
X-05842277Y-07912245D01*
G01*
X-05824865Y-07898657D01*
G01*
X-05806807Y-07885939D01*
G01*
X-05788146Y-07874122D01*
G01*
X-05768929Y-07863235D01*
G01*
X-05749200Y-07853305D01*
G01*
X-05729008Y-07844354D01*
G01*
X-05708400Y-07836405D01*
G01*
X-05687428Y-07829477D01*
G01*
X-05666141Y-07823586D01*
G01*
X-05644591Y-07818747D01*
G01*
X-05622829Y-07814971D01*
G01*
X-05600908Y-07812267D01*
G01*
X-05578880Y-07810642D01*
G01*
X-05556800Y-07810100D01*
G01*
X-05534720Y-07810642D01*
G01*
X-05512692Y-07812267D01*
G01*
X-05490771Y-07814971D01*
G01*
X-05469009Y-07818747D01*
G01*
X-05447459Y-07823586D01*
G01*
X-05426172Y-07829477D01*
G01*
X-05405200Y-07836405D01*
G01*
X-05384592Y-07844354D01*
G01*
X-05375618Y-07848332D01*
G01*
X-05364400Y-07853305D01*
G01*
X-05344671Y-07863235D01*
G01*
X-05325454Y-07874122D01*
G01*
X-05306793Y-07885939D01*
G01*
X-05288735Y-07898657D01*
G01*
X-05271323Y-07912245D01*
G01*
X-05254598Y-07926672D01*
G01*
X-05238602Y-07941902D01*
G01*
X-05223372Y-07957898D01*
G01*
X-05208945Y-07974623D01*
G01*
X-05195357Y-07992035D01*
G01*
X-05182639Y-08010093D01*
G01*
X-05170822Y-08028754D01*
G01*
X-05159935Y-08047971D01*
G01*
X-05150005Y-08067700D01*
G01*
X-05145032Y-08078918D01*
G01*
X-05141054Y-08087892D01*
G01*
X-05133105Y-08108500D01*
G01*
X-05126177Y-08129472D01*
G01*
X-05120286Y-08150759D01*
G01*
X-05115447Y-08172309D01*
G01*
X-05111671Y-08194071D01*
G01*
X-05108967Y-08215992D01*
G01*
X-05107342Y-08238020D01*
G01*
X-05106800Y-08260100D01*
G01*
X-05107342Y-08282180D01*
G01*
X-05108967Y-08304208D01*
G01*
X-05111671Y-08326129D01*
G01*
X-05113768Y-08338219D01*
G01*
X-05115447Y-08347891D01*
G01*
X-05120286Y-08369441D01*
G01*
X-05126177Y-08390728D01*
G01*
X-05133105Y-08411700D01*
G01*
X-05141054Y-08432308D01*
G01*
X-05150005Y-08452500D01*
G01*
X-05159935Y-08472229D01*
G01*
X-05164774Y-08480770D01*
G01*
X-05170822Y-08491446D01*
G01*
X-05182639Y-08510107D01*
G01*
X-05195357Y-08528165D01*
G01*
X-05208945Y-08545577D01*
G01*
X-05223372Y-08562302D01*
G01*
X-05238602Y-08578298D01*
G01*
X-05254598Y-08593528D01*
G01*
X-05255738Y-08594511D01*
G01*
X-05257679Y-08596464D01*
G01*
X-05262584Y-08602554D01*
G01*
X-05266828Y-08609122D01*
G01*
X-05270366Y-08616096D01*
G01*
X-05273158Y-08623400D01*
G01*
X-05275174Y-08630956D01*
G01*
X-05276392Y-08638680D01*
G01*
X-05276800Y-08646489D01*
G01*
X-05276800Y-11129650D01*
G01*
X-03874525Y-11129650D01*
G01*
X-04581687Y-10422487D01*
G01*
X-04593533Y-10410046D01*
G01*
X-04604754Y-10397038D01*
G01*
X-04615323Y-10383495D01*
G01*
X-04625214Y-10369450D01*
G01*
X-04634405Y-10354936D01*
G01*
X-04642872Y-10339989D01*
G01*
X-04650596Y-10324644D01*
G01*
X-04657558Y-10308939D01*
G01*
X-04663740Y-10292911D01*
G01*
X-04669129Y-10276600D01*
G01*
X-04673711Y-10260043D01*
G01*
X-04677475Y-10243282D01*
G01*
X-04680412Y-10226356D01*
G01*
X-04682515Y-10209306D01*
G01*
X-04683778Y-10192174D01*
G01*
X-04684200Y-10175000D01*
G01*
X-04684200Y-04545965D01*
G01*
X-04684511Y-04539138D01*
G01*
X-04685443Y-04532367D01*
G01*
X-04686987Y-04525709D01*
G01*
X-04689131Y-04519219D01*
G01*
X-04691857Y-04512951D01*
G01*
X-04695142Y-04506958D01*
G01*
X-04695391Y-04506588D01*
G01*
X-04695643Y-04506265D01*
G01*
X-04708361Y-04488207D01*
G01*
X-04720178Y-04469546D01*
G01*
X-04731065Y-04450329D01*
G01*
X-04740995Y-04430600D01*
G01*
X-04749946Y-04410408D01*
G01*
X-04757895Y-04389800D01*
G01*
X-04761744Y-04378149D01*
G01*
X-04764823Y-04368828D01*
G01*
X-04770714Y-04347541D01*
G01*
X-04775553Y-04325991D01*
G01*
X-04779329Y-04304229D01*
G01*
X-04782033Y-04282308D01*
G01*
X-04783658Y-04260280D01*
G01*
X-04784200Y-04238200D01*
G01*
X-04783658Y-04216120D01*
G01*
X-04782033Y-04194092D01*
G01*
X-04779329Y-04172171D01*
G01*
X-04775553Y-04150409D01*
G01*
X-04770714Y-04128859D01*
G01*
X-04764823Y-04107572D01*
G01*
X-04761744Y-04098251D01*
G01*
X-04757895Y-04086600D01*
G01*
X-04749946Y-04065992D01*
G01*
X-04740995Y-04045800D01*
G01*
X-04731065Y-04026071D01*
G01*
X-04720178Y-04006854D01*
G01*
X-04708361Y-03988193D01*
G01*
X-04695643Y-03970135D01*
G01*
X-04682055Y-03952723D01*
G01*
X-04667628Y-03935998D01*
G01*
X-04652398Y-03920002D01*
G01*
X-04636402Y-03904772D01*
G01*
X-04619677Y-03890345D01*
G01*
X-04602265Y-03876757D01*
G01*
X-04584207Y-03864039D01*
G01*
X-04565546Y-03852222D01*
G01*
X-04554870Y-03846174D01*
G01*
X-04546329Y-03841335D01*
G01*
X-04526600Y-03831405D01*
G01*
X-04506408Y-03822454D01*
G01*
X-04497249Y-03818921D01*
G01*
X-04485800Y-03814505D01*
G01*
X-04464828Y-03807577D01*
G01*
X-04443541Y-03801686D01*
G01*
X-04431569Y-03798997D01*
G01*
X-04421991Y-03796847D01*
G01*
X-04400229Y-03793071D01*
G01*
X-04378308Y-03790367D01*
G01*
X-04356280Y-03788742D01*
G01*
X-04334200Y-03788200D01*
G01*
X-04312120Y-03788742D01*
G01*
X-04290092Y-03790367D01*
G01*
X-04268171Y-03793071D01*
G01*
X-04246409Y-03796847D01*
G01*
X-04236831Y-03798997D01*
G01*
X-04224859Y-03801686D01*
G01*
X-04203572Y-03807577D01*
G01*
X-04182600Y-03814505D01*
G01*
X-04171151Y-03818921D01*
G01*
X-04161992Y-03822454D01*
G01*
X-04141800Y-03831405D01*
G01*
X-04122071Y-03841335D01*
G01*
X-04113530Y-03846174D01*
G01*
X-04102854Y-03852222D01*
G01*
X-04084193Y-03864039D01*
G01*
X-04066135Y-03876757D01*
G01*
X-04048723Y-03890345D01*
G01*
X-04031998Y-03904772D01*
G01*
X-04016002Y-03920002D01*
G01*
X-04000772Y-03935998D01*
G01*
X-03986345Y-03952723D01*
G01*
X-03972757Y-03970135D01*
G01*
X-03960039Y-03988193D01*
G01*
X-03948222Y-04006854D01*
G01*
X-03937335Y-04026071D01*
G01*
X-03927405Y-04045800D01*
G01*
X-03918454Y-04065992D01*
G01*
X-03910505Y-04086600D01*
G01*
X-03906656Y-04098251D01*
G01*
X-03903577Y-04107572D01*
G01*
X-03897686Y-04128859D01*
G01*
X-03892847Y-04150409D01*
G01*
X-03891168Y-04160081D01*
G01*
X-03889071Y-04172171D01*
G01*
X-03886367Y-04194092D01*
G01*
X-03884742Y-04216120D01*
G01*
X-03884200Y-04238200D01*
G01*
X-03884742Y-04260280D01*
G01*
X-03886367Y-04282308D01*
G01*
X-03889071Y-04304229D01*
G01*
X-03892847Y-04325991D01*
G01*
X-03897686Y-04347541D01*
G01*
X-03903577Y-04368828D01*
G01*
X-03906656Y-04378149D01*
G01*
X-03910505Y-04389800D01*
G01*
X-03918454Y-04410408D01*
G01*
X-03927405Y-04430600D01*
G01*
X-03937335Y-04450329D01*
G01*
X-03948222Y-04469546D01*
G01*
X-03960039Y-04488207D01*
G01*
X-03972757Y-04506265D01*
G01*
X-03973009Y-04506588D01*
G01*
X-03973258Y-04506958D01*
G01*
X-03976543Y-04512951D01*
G01*
X-03979269Y-04519219D01*
G01*
X-03981413Y-04525709D01*
G01*
X-03982957Y-04532367D01*
G01*
X-03983889Y-04539138D01*
G01*
X-03984200Y-04545965D01*
G01*
X-03984200Y-06171429D01*
G01*
X-03983839Y-06178780D01*
G01*
X-03982759Y-06186061D01*
G01*
X-03980971Y-06193200D01*
G01*
X-03978491Y-06200130D01*
G01*
X-03975344Y-06206784D01*
G01*
X-03971560Y-06213097D01*
G01*
X-03967176Y-06219009D01*
G01*
X-03962233Y-06224462D01*
G01*
X-03956779Y-06229405D01*
G01*
X-03950868Y-06233789D01*
G01*
X-03944555Y-06237573D01*
G01*
X-03937901Y-06240720D01*
G01*
X-03930971Y-06243200D01*
G01*
X-03923832Y-06244988D01*
G01*
X-03916551Y-06246068D01*
G01*
X-03909200Y-06246429D01*
G01*
X-03901849Y-06246068D01*
G01*
X-03894568Y-06244988D01*
G01*
X-03887429Y-06243200D01*
G01*
X-03880499Y-06240720D01*
G01*
X-03873845Y-06237573D01*
G01*
X-03867532Y-06233789D01*
G01*
X-03861621Y-06229405D01*
G01*
X-03856167Y-06224462D01*
G01*
X-03852170Y-06220053D01*
G01*
X-03847855Y-06214523D01*
G01*
X-03833428Y-06197798D01*
G01*
X-03818198Y-06181802D01*
G01*
X-03802202Y-06166572D01*
G01*
X-03785477Y-06152145D01*
G01*
X-03768065Y-06138557D01*
G01*
X-03750007Y-06125839D01*
G01*
X-03731346Y-06114022D01*
G01*
X-03720670Y-06107974D01*
G01*
X-03712129Y-06103135D01*
G01*
X-03692400Y-06093205D01*
G01*
X-03672208Y-06084254D01*
G01*
X-03663049Y-06080721D01*
G01*
X-03651600Y-06076305D01*
G01*
X-03630628Y-06069377D01*
G01*
X-03609341Y-06063486D01*
G01*
X-03597369Y-06060797D01*
G01*
X-03587791Y-06058647D01*
G01*
X-03566029Y-06054871D01*
G01*
X-03544108Y-06052167D01*
G01*
X-03522080Y-06050542D01*
G01*
X-03500000Y-06050000D01*
G01*
X-03477920Y-06050542D01*
G01*
X-03455892Y-06052167D01*
G01*
X-03433971Y-06054871D01*
G01*
X-03412209Y-06058647D01*
G01*
X-03390659Y-06063486D01*
G01*
X-03369372Y-06069377D01*
G01*
X-03348400Y-06076305D01*
G01*
X-03336578Y-06080865D01*
G01*
X-03329844Y-06082926D01*
G01*
X-03322933Y-06084347D01*
G01*
X-03315918Y-06085113D01*
G01*
X-03308863Y-06085216D01*
G01*
X-03301829Y-06084655D01*
G01*
X-03294878Y-06083436D01*
G01*
X-03288074Y-06081570D01*
G01*
X-03281474Y-06079071D01*
G01*
X-03275139Y-06075964D01*
G01*
X-03269124Y-06072275D01*
G01*
X-03263482Y-06068038D01*
G01*
X-03258263Y-06063288D01*
G01*
X-01022487Y-03827513D01*
G01*
X-00997038Y-03804446D01*
G01*
X-00969450Y-03783986D01*
G01*
X-00939989Y-03766328D01*
G01*
X-00908939Y-03751642D01*
G01*
X-00907965Y-03751293D01*
G01*
X-00903922Y-03749442D01*
G01*
X-00899085Y-03746780D01*
G01*
X-00889989Y-03741328D01*
G01*
X-00858939Y-03726642D01*
G01*
X-00857965Y-03726293D01*
G01*
X-00853922Y-03724442D01*
G01*
X-00849085Y-03721780D01*
G01*
X-00839989Y-03716328D01*
G01*
X-00808939Y-03701642D01*
G01*
X-00808269Y-03701402D01*
G01*
X-00799085Y-03696780D01*
G01*
X-00789989Y-03691328D01*
G01*
X-00790004Y-03691302D01*
G01*
X-00785788Y-03688775D01*
G01*
X-00779876Y-03684390D01*
G01*
X-00774422Y-03679448D01*
G01*
X-00497487Y-03402513D01*
G01*
X-00472038Y-03379446D01*
G01*
X-00444450Y-03358986D01*
G01*
X-00414989Y-03341328D01*
G01*
X-00383939Y-03326642D01*
G01*
X-00382965Y-03326293D01*
G01*
X-00378922Y-03324442D01*
G01*
X-00374085Y-03321780D01*
G01*
X-00364989Y-03316328D01*
G01*
X-00333939Y-03301642D01*
G01*
X-00332965Y-03301293D01*
G01*
X-00328922Y-03299442D01*
G01*
X-00324085Y-03296780D01*
G01*
X-00314989Y-03291328D01*
G01*
X-00283939Y-03276642D01*
G01*
X-00283777Y-03276584D01*
G01*
X-00282632Y-03276069D01*
G01*
X-00282637Y-03276058D01*
G01*
X-00279194Y-03274540D01*
G01*
X-00273718Y-03271560D01*
G01*
X-00264989Y-03266328D01*
G01*
X-00233939Y-03251642D01*
G01*
X-00233760Y-03251578D01*
G01*
X-00232571Y-03251044D01*
G01*
X-00232578Y-03251028D01*
G01*
X-00229209Y-03249545D01*
G01*
X-00223703Y-03246551D01*
G01*
X-00214989Y-03241328D01*
G01*
X-00183939Y-03226642D01*
G01*
X-00183176Y-03226369D01*
G01*
X-00182779Y-03226199D01*
G01*
X-00173792Y-03221604D01*
G01*
X-00164989Y-03216328D01*
G01*
X-00133939Y-03201642D01*
G01*
X-00101600Y-03190071D01*
G01*
X-00078433Y-03184268D01*
G01*
X-00071390Y-03182131D01*
G01*
X-00064590Y-03179315D01*
G01*
X-00058939Y-03176642D01*
G01*
X-00026600Y-03165071D01*
G01*
X000006718Y-03156725D01*
G01*
X000038873Y-03151955D01*
G01*
X000040694Y-03151685D01*
G01*
X000075000Y-03150000D01*
G01*
X000514354Y-03150000D01*
G01*
X000521705Y-03149639D01*
G01*
X000528986Y-03148559D01*
G01*
X000536126Y-03146771D01*
G01*
X000543055Y-03144291D01*
G01*
X000549709Y-03141144D01*
G01*
X000556022Y-03137360D01*
G01*
X000561934Y-03132976D01*
G01*
X000567387Y-03128033D01*
G01*
X000572330Y-03122579D01*
G01*
X000576714Y-03116668D01*
G01*
X000580498Y-03110355D01*
G01*
X000583645Y-03103701D01*
G01*
X000586125Y-03096771D01*
G01*
X000587913Y-03089632D01*
G01*
X000588993Y-03082351D01*
G01*
X000589354Y-03075000D01*
G01*
X000588993Y-03067649D01*
G01*
X000587913Y-03060368D01*
G01*
X000586125Y-03053229D01*
G01*
X000583645Y-03046299D01*
G01*
X000580498Y-03039645D01*
G01*
X000576714Y-03033332D01*
G01*
X000572330Y-03027421D01*
G01*
X000567387Y-03021967D01*
G01*
X-00060360Y-02394220D01*
G37*
D25*
G36*
X001770000Y-02394220D02*
G01*
X001373595Y-02394220D01*
G01*
X001641967Y-02662592D01*
G01*
X001647421Y-02667535D01*
G01*
X001653332Y-02671919D01*
G01*
X001659645Y-02675703D01*
G01*
X001666299Y-02678850D01*
G01*
X001673229Y-02681330D01*
G01*
X001680368Y-02683118D01*
G01*
X001687649Y-02684198D01*
G01*
X001695000Y-02684559D01*
G01*
X001702351Y-02684198D01*
G01*
X001709632Y-02683118D01*
G01*
X001716771Y-02681330D01*
G01*
X001723701Y-02678850D01*
G01*
X001730355Y-02675703D01*
G01*
X001736668Y-02671919D01*
G01*
X001742579Y-02667535D01*
G01*
X001748033Y-02662592D01*
G01*
X001752976Y-02657139D01*
G01*
X001757360Y-02651227D01*
G01*
X001761144Y-02644914D01*
G01*
X001764291Y-02638260D01*
G01*
X001766771Y-02631331D01*
G01*
X001768559Y-02624191D01*
G01*
X001769639Y-02616911D01*
G01*
X001770000Y-02609559D01*
G01*
X001770000Y-02394220D01*
G37*
D25*
G36*
X-08694572Y004179008D02*
G01*
X-06574034Y006299546D01*
G01*
X-08948136Y008677156D01*
G01*
X-08957605Y008687117D01*
G01*
X-08966443Y008697370D01*
G01*
X-08975021Y008708370D01*
G01*
X-08982926Y008719612D01*
G01*
X-08990270Y008731229D01*
G01*
X-08997035Y008743191D01*
G01*
X-09003117Y008755285D01*
G01*
X-09008765Y008768040D01*
G01*
X-09013702Y008780865D01*
G01*
X-09018003Y008793918D01*
G01*
X-09021609Y008806966D01*
G01*
X-09024620Y008820375D01*
G01*
X-09026969Y008833915D01*
G01*
X-09028652Y008847555D01*
G01*
X-09029673Y008861468D01*
G01*
X-09030000Y008875000D01*
G01*
X-09030000Y008897871D01*
G01*
X-09035477Y008902145D01*
G01*
X-09052202Y008916572D01*
G01*
X-09068198Y008931802D01*
G01*
X-09083428Y008947798D01*
G01*
X-09097855Y008964523D01*
G01*
X-09111443Y008981935D01*
G01*
X-09124161Y008999993D01*
G01*
X-09135978Y009018654D01*
G01*
X-09146865Y009037871D01*
G01*
X-09156795Y009057600D01*
G01*
X-09165746Y009077792D01*
G01*
X-09173695Y009098400D01*
G01*
X-09180623Y009119372D01*
G01*
X-09186514Y009140659D01*
G01*
X-09191353Y009162209D01*
G01*
X-09195129Y009183971D01*
G01*
X-09197833Y009205892D01*
G01*
X-09199458Y009227920D01*
G01*
X-09200000Y009250000D01*
G01*
X-09199458Y009272080D01*
G01*
X-09197833Y009294108D01*
G01*
X-09195129Y009316029D01*
G01*
X-09191353Y009337791D01*
G01*
X-09186514Y009359341D01*
G01*
X-09180623Y009380628D01*
G01*
X-09173695Y009401600D01*
G01*
X-09165746Y009422208D01*
G01*
X-09156795Y009442400D01*
G01*
X-09146865Y009462129D01*
G01*
X-09135978Y009481346D01*
G01*
X-09124161Y009500007D01*
G01*
X-09111443Y009518065D01*
G01*
X-09097855Y009535477D01*
G01*
X-09083428Y009552202D01*
G01*
X-09068198Y009568198D01*
G01*
X-09052202Y009583428D01*
G01*
X-09035477Y009597855D01*
G01*
X-09018065Y009611443D01*
G01*
X-09000007Y009624161D01*
G01*
X-08981346Y009635978D01*
G01*
X-08962129Y009646865D01*
G01*
X-08942400Y009656795D01*
G01*
X-08922208Y009665746D01*
G01*
X-08901600Y009673695D01*
G01*
X-08880628Y009680623D01*
G01*
X-08859341Y009686514D01*
G01*
X-08837791Y009691353D01*
G01*
X-08816029Y009695129D01*
G01*
X-08794108Y009697833D01*
G01*
X-08772080Y009699458D01*
G01*
X-08750000Y009700000D01*
G01*
X-08727920Y009699458D01*
G01*
X-08705892Y009697833D01*
G01*
X-08683971Y009695129D01*
G01*
X-08662209Y009691353D01*
G01*
X-08640659Y009686514D01*
G01*
X-08619372Y009680623D01*
G01*
X-08598400Y009673695D01*
G01*
X-08577792Y009665746D01*
G01*
X-08557600Y009656795D01*
G01*
X-08537871Y009646865D01*
G01*
X-08518654Y009635978D01*
G01*
X-08499993Y009624161D01*
G01*
X-08481935Y009611443D01*
G01*
X-08464523Y009597855D01*
G01*
X-08447798Y009583428D01*
G01*
X-08431802Y009568198D01*
G01*
X-08416572Y009552202D01*
G01*
X-08402145Y009535477D01*
G01*
X-08388557Y009518065D01*
G01*
X-08375839Y009500007D01*
G01*
X-08364022Y009481346D01*
G01*
X-08353135Y009462129D01*
G01*
X-08343205Y009442400D01*
G01*
X-08334254Y009422208D01*
G01*
X-08326305Y009401600D01*
G01*
X-08319377Y009380628D01*
G01*
X-08313486Y009359341D01*
G01*
X-08308647Y009337791D01*
G01*
X-08304871Y009316029D01*
G01*
X-08302167Y009294108D01*
G01*
X-08300542Y009272080D01*
G01*
X-08300000Y009250000D01*
G01*
X-08300542Y009227920D01*
G01*
X-08302167Y009205892D01*
G01*
X-08304871Y009183971D01*
G01*
X-08308647Y009162209D01*
G01*
X-08313486Y009140659D01*
G01*
X-08319377Y009119372D01*
G01*
X-08326305Y009098400D01*
G01*
X-08334254Y009077792D01*
G01*
X-08343205Y009057600D01*
G01*
X-08353135Y009037871D01*
G01*
X-08364022Y009018654D01*
G01*
X-08375839Y008999993D01*
G01*
X-08388557Y008981935D01*
G01*
X-08402145Y008964523D01*
G01*
X-08416572Y008947798D01*
G01*
X-08421663Y008942451D01*
G01*
X-07683618Y008203314D01*
G01*
X-07686443Y008206935D01*
G01*
X-07699161Y008224993D01*
G01*
X-07710978Y008243654D01*
G01*
X-07721865Y008262871D01*
G01*
X-07731795Y008282600D01*
G01*
X-07740746Y008302792D01*
G01*
X-07748695Y008323400D01*
G01*
X-07755623Y008344372D01*
G01*
X-07761514Y008365659D01*
G01*
X-07766353Y008387209D01*
G01*
X-07770129Y008408971D01*
G01*
X-07772833Y008430892D01*
G01*
X-07774458Y008452920D01*
G01*
X-07775000Y008475000D01*
G01*
X-07774458Y008497080D01*
G01*
X-07772833Y008519108D01*
G01*
X-07770129Y008541029D01*
G01*
X-07766353Y008562791D01*
G01*
X-07761514Y008584341D01*
G01*
X-07755623Y008605628D01*
G01*
X-07748695Y008626600D01*
G01*
X-07740746Y008647208D01*
G01*
X-07731795Y008667400D01*
G01*
X-07721865Y008687129D01*
G01*
X-07710978Y008706346D01*
G01*
X-07699161Y008725007D01*
G01*
X-07686443Y008743065D01*
G01*
X-07672855Y008760477D01*
G01*
X-07658428Y008777202D01*
G01*
X-07643198Y008793198D01*
G01*
X-07627202Y008808428D01*
G01*
X-07610477Y008822855D01*
G01*
X-07593065Y008836443D01*
G01*
X-07575007Y008849161D01*
G01*
X-07556346Y008860978D01*
G01*
X-07537129Y008871865D01*
G01*
X-07517400Y008881795D01*
G01*
X-07497208Y008890746D01*
G01*
X-07476600Y008898695D01*
G01*
X-07455628Y008905623D01*
G01*
X-07434341Y008911514D01*
G01*
X-07412791Y008916353D01*
G01*
X-07391029Y008920129D01*
G01*
X-07369108Y008922833D01*
G01*
X-07347080Y008924458D01*
G01*
X-07325000Y008925000D01*
G01*
X-07302920Y008924458D01*
G01*
X-07280892Y008922833D01*
G01*
X-07273997Y008921983D01*
G01*
X-06322990Y009872990D01*
G01*
X-06313037Y009882466D01*
G01*
X-06302630Y009891443D01*
G01*
X-06291796Y009899898D01*
G01*
X-06280560Y009907811D01*
G01*
X-06268949Y009915164D01*
G01*
X-06256991Y009921938D01*
G01*
X-06244715Y009928117D01*
G01*
X-06240766Y009929868D01*
G01*
X-06238037Y009932466D01*
G01*
X-06227630Y009941443D01*
G01*
X-06216796Y009949898D01*
G01*
X-06205560Y009957811D01*
G01*
X-06193949Y009965164D01*
G01*
X-06181991Y009971938D01*
G01*
X-06169715Y009978117D01*
G01*
X-06157151Y009983686D01*
G01*
X-06149544Y009986621D01*
G01*
X-06143949Y009990164D01*
G01*
X-06131991Y009996938D01*
G01*
X-06119715Y010003117D01*
G01*
X-06107151Y010008686D01*
G01*
X-06099544Y010011621D01*
G01*
X-06093949Y010015164D01*
G01*
X-06081991Y010021938D01*
G01*
X-06069715Y010028117D01*
G01*
X-06057151Y010033686D01*
G01*
X-06044329Y010038632D01*
G01*
X-06031280Y010042943D01*
G01*
X-06018034Y010046609D01*
G01*
X-06004625Y010049620D01*
G01*
X-05991085Y010051969D01*
G01*
X-05977445Y010053652D01*
G01*
X-05966725Y010054442D01*
G01*
X-05957151Y010058686D01*
G01*
X-05944329Y010063632D01*
G01*
X-05931280Y010067943D01*
G01*
X-05918034Y010071609D01*
G01*
X-05904625Y010074620D01*
G01*
X-05891085Y010076969D01*
G01*
X-05877445Y010078652D01*
G01*
X-05863739Y010079663D01*
G01*
X-05850000Y010080000D01*
G01*
X-05650000Y010080000D01*
G01*
X-05636261Y010079663D01*
G01*
X-05622555Y010078652D01*
G01*
X-05608915Y010076969D01*
G01*
X-05595375Y010074620D01*
G01*
X-05581966Y010071609D01*
G01*
X-05568720Y010067943D01*
G01*
X-05555671Y010063632D01*
G01*
X-05542849Y010058686D01*
G01*
X-05533275Y010054442D01*
G01*
X-05522555Y010053652D01*
G01*
X-05508915Y010051969D01*
G01*
X-05495375Y010049620D01*
G01*
X-05481966Y010046609D01*
G01*
X-05468720Y010042943D01*
G01*
X-05455671Y010038632D01*
G01*
X-05442849Y010033686D01*
G01*
X-05430285Y010028117D01*
G01*
X-05418009Y010021938D01*
G01*
X-05406051Y010015164D01*
G01*
X-05400456Y010011621D01*
G01*
X-05392849Y010008686D01*
G01*
X-05380285Y010003117D01*
G01*
X-05368009Y009996938D01*
G01*
X-05356051Y009990164D01*
G01*
X-05350456Y009986621D01*
G01*
X-05342849Y009983686D01*
G01*
X-05330285Y009978117D01*
G01*
X-05318009Y009971938D01*
G01*
X-05306051Y009965164D01*
G01*
X-05294440Y009957811D01*
G01*
X-05283204Y009949898D01*
G01*
X-05272370Y009941443D01*
G01*
X-05261963Y009932466D01*
G01*
X-05259234Y009929868D01*
G01*
X-05255285Y009928117D01*
G01*
X-05243009Y009921938D01*
G01*
X-05231051Y009915164D01*
G01*
X-05219440Y009907811D01*
G01*
X-05208204Y009899898D01*
G01*
X-05197370Y009891443D01*
G01*
X-05186963Y009882466D01*
G01*
X-05177010Y009872990D01*
G01*
X-05127010Y009822990D01*
G01*
X-05117534Y009813037D01*
G01*
X-05108557Y009802630D01*
G01*
X-05100102Y009791796D01*
G01*
X-05092189Y009780560D01*
G01*
X-05084836Y009768949D01*
G01*
X-05078062Y009756991D01*
G01*
X-05071883Y009744715D01*
G01*
X-05070132Y009740766D01*
G01*
X-05067534Y009738037D01*
G01*
X-05058557Y009727630D01*
G01*
X-05050102Y009716796D01*
G01*
X-05042189Y009705560D01*
G01*
X-05034836Y009693949D01*
G01*
X-05028062Y009681991D01*
G01*
X-05021883Y009669715D01*
G01*
X-05016314Y009657151D01*
G01*
X-05013379Y009649544D01*
G01*
X-05009836Y009643949D01*
G01*
X-05003062Y009631991D01*
G01*
X-04996883Y009619715D01*
G01*
X-04991314Y009607151D01*
G01*
X-04988379Y009599544D01*
G01*
X-04984836Y009593949D01*
G01*
X-04978062Y009581991D01*
G01*
X-04971883Y009569715D01*
G01*
X-04966314Y009557151D01*
G01*
X-04961368Y009544329D01*
G01*
X-04957057Y009531280D01*
G01*
X-04955505Y009525674D01*
G01*
X-04947855Y009535477D01*
G01*
X-04933428Y009552202D01*
G01*
X-04918198Y009568198D01*
G01*
X-04902202Y009583428D01*
G01*
X-04885477Y009597855D01*
G01*
X-04868065Y009611443D01*
G01*
X-04850007Y009624161D01*
G01*
X-04831346Y009635978D01*
G01*
X-04812129Y009646865D01*
G01*
X-04792400Y009656795D01*
G01*
X-04772208Y009665746D01*
G01*
X-04751600Y009673695D01*
G01*
X-04730628Y009680623D01*
G01*
X-04709341Y009686514D01*
G01*
X-04687791Y009691353D01*
G01*
X-04666029Y009695129D01*
G01*
X-04644108Y009697833D01*
G01*
X-04622080Y009699458D01*
G01*
X-04600000Y009700000D01*
G01*
X-04577920Y009699458D01*
G01*
X-04555892Y009697833D01*
G01*
X-04533971Y009695129D01*
G01*
X-04512209Y009691353D01*
G01*
X-04490659Y009686514D01*
G01*
X-04469372Y009680623D01*
G01*
X-04448400Y009673695D01*
G01*
X-04427792Y009665746D01*
G01*
X-04407600Y009656795D01*
G01*
X-04387871Y009646865D01*
G01*
X-04368654Y009635978D01*
G01*
X-04349993Y009624161D01*
G01*
X-04331935Y009611443D01*
G01*
X-04314523Y009597855D01*
G01*
X-04297798Y009583428D01*
G01*
X-04281802Y009568198D01*
G01*
X-04266572Y009552202D01*
G01*
X-04252145Y009535477D01*
G01*
X-04238557Y009518065D01*
G01*
X-04225839Y009500007D01*
G01*
X-04214022Y009481346D01*
G01*
X-04203135Y009462129D01*
G01*
X-04193205Y009442400D01*
G01*
X-04184254Y009422208D01*
G01*
X-04176305Y009401600D01*
G01*
X-04169377Y009380628D01*
G01*
X-04163486Y009359341D01*
G01*
X-04158647Y009337791D01*
G01*
X-04154871Y009316029D01*
G01*
X-04152167Y009294108D01*
G01*
X-04150542Y009272080D01*
G01*
X-04150000Y009250000D01*
G01*
X-04150542Y009227920D01*
G01*
X-04152167Y009205892D01*
G01*
X-04154871Y009183971D01*
G01*
X-04158647Y009162209D01*
G01*
X-04163486Y009140659D01*
G01*
X-04169377Y009119372D01*
G01*
X-04176305Y009098400D01*
G01*
X-04184254Y009077792D01*
G01*
X-04193205Y009057600D01*
G01*
X-04203135Y009037871D01*
G01*
X-04214022Y009018654D01*
G01*
X-04225839Y008999993D01*
G01*
X-04238557Y008981935D01*
G01*
X-04250000Y008967272D01*
G01*
X-04250000Y008200000D01*
G01*
X-03935000Y008200000D01*
G01*
X-03935000Y006779975D01*
G01*
X-03677432Y006522406D01*
G01*
X-03658971Y006520129D01*
G01*
X-03637209Y006516353D01*
G01*
X-03615659Y006511514D01*
G01*
X-03594372Y006505623D01*
G01*
X-03573400Y006498695D01*
G01*
X-03552792Y006490746D01*
G01*
X-03532600Y006481795D01*
G01*
X-03512871Y006471865D01*
G01*
X-03493654Y006460978D01*
G01*
X-03474993Y006449161D01*
G01*
X-03456935Y006436443D01*
G01*
X-03439523Y006422855D01*
G01*
X-03422798Y006408428D01*
G01*
X-03406802Y006393198D01*
G01*
X-03391572Y006377202D01*
G01*
X-03377145Y006360477D01*
G01*
X-03363557Y006343065D01*
G01*
X-03350839Y006325007D01*
G01*
X-03339022Y006306346D01*
G01*
X-03328135Y006287129D01*
G01*
X-03318205Y006267400D01*
G01*
X-03309254Y006247208D01*
G01*
X-03301305Y006226600D01*
G01*
X-03294377Y006205628D01*
G01*
X-03288486Y006184341D01*
G01*
X-03283647Y006162791D01*
G01*
X-03279871Y006141029D01*
G01*
X-03277167Y006119108D01*
G01*
X-03275542Y006097080D01*
G01*
X-03275000Y006075000D01*
G01*
X-03275542Y006052920D01*
G01*
X-03277167Y006030892D01*
G01*
X-03279871Y006008971D01*
G01*
X-03283647Y005987209D01*
G01*
X-03288486Y005965659D01*
G01*
X-03294377Y005944372D01*
G01*
X-03301305Y005923400D01*
G01*
X-03309254Y005902792D01*
G01*
X-03318205Y005882600D01*
G01*
X-03328135Y005862871D01*
G01*
X-03339022Y005843654D01*
G01*
X-03350839Y005824993D01*
G01*
X-03363557Y005806935D01*
G01*
X-03377145Y005789523D01*
G01*
X-03391572Y005772798D01*
G01*
X-03406802Y005756802D01*
G01*
X-03422798Y005741572D01*
G01*
X-03439523Y005727145D01*
G01*
X-03456935Y005713557D01*
G01*
X-03474993Y005700839D01*
G01*
X-03493654Y005689022D01*
G01*
X-03512871Y005678135D01*
G01*
X-03532600Y005668205D01*
G01*
X-03552792Y005659254D01*
G01*
X-03573400Y005651305D01*
G01*
X-03594372Y005644377D01*
G01*
X-03615659Y005638486D01*
G01*
X-03637209Y005633647D01*
G01*
X-03637587Y005633581D01*
G01*
X-01048649Y003044771D01*
G01*
X-01043195Y003039828D01*
G01*
X-01037283Y003035444D01*
G01*
X-01030970Y003031660D01*
G01*
X-01024317Y003028513D01*
G01*
X-01017387Y003026034D01*
G01*
X-01010247Y003024246D01*
G01*
X-01002967Y003023166D01*
G01*
X-00995616Y003022805D01*
G01*
X-00988265Y003023166D01*
G01*
X-00980984Y003024246D01*
G01*
X-00973845Y003026035D01*
G01*
X-00966915Y003028514D01*
G01*
X-00960262Y003031661D01*
G01*
X-00953949Y003035445D01*
G01*
X-00948037Y003039829D01*
G01*
X-00942584Y003044772D01*
G01*
X-00937641Y003050226D01*
G01*
X-00933257Y003056137D01*
G01*
X-00930938Y003060005D01*
G01*
X-00922078Y003075646D01*
G01*
X-00910261Y003094307D01*
G01*
X-00897543Y003112365D01*
G01*
X-00883955Y003129777D01*
G01*
X-00869528Y003146502D01*
G01*
X-00854298Y003162498D01*
G01*
X-00838302Y003177728D01*
G01*
X-00836847Y003178983D01*
G01*
X-00835804Y003180020D01*
G01*
X-00831350Y003185357D01*
G01*
X-00827410Y003191084D01*
G01*
X-00824016Y003197151D01*
G01*
X-00821199Y003203506D01*
G01*
X-00818983Y003210095D01*
G01*
X-00817386Y003216861D01*
G01*
X-00816422Y003223745D01*
G01*
X-00816100Y003230689D01*
G01*
X-00816100Y006463611D01*
G01*
X-00816508Y006471420D01*
G01*
X-00817726Y006479144D01*
G01*
X-00819742Y006486700D01*
G01*
X-00822534Y006494004D01*
G01*
X-00826072Y006500978D01*
G01*
X-00830316Y006507546D01*
G01*
X-00835221Y006513636D01*
G01*
X-00837162Y006515589D01*
G01*
X-00838302Y006516572D01*
G01*
X-00854298Y006531802D01*
G01*
X-00869528Y006547798D01*
G01*
X-00883955Y006564523D01*
G01*
X-00897543Y006581935D01*
G01*
X-00910261Y006599993D01*
G01*
X-00922078Y006618654D01*
G01*
X-00932965Y006637871D01*
G01*
X-00942895Y006657600D01*
G01*
X-00947868Y006668818D01*
G01*
X-00951846Y006677792D01*
G01*
X-00959795Y006698400D01*
G01*
X-00966723Y006719372D01*
G01*
X-00972614Y006740659D01*
G01*
X-00977453Y006762209D01*
G01*
X-00981229Y006783971D01*
G01*
X-00983933Y006805892D01*
G01*
X-00985558Y006827920D01*
G01*
X-00986100Y006850000D01*
G01*
X-00985558Y006872080D01*
G01*
X-00983933Y006894108D01*
G01*
X-00981229Y006916029D01*
G01*
X-00977453Y006937791D01*
G01*
X-00972614Y006959341D01*
G01*
X-00966723Y006980628D01*
G01*
X-00959795Y007001600D01*
G01*
X-00951846Y007022208D01*
G01*
X-00942895Y007042400D01*
G01*
X-00932965Y007062129D01*
G01*
X-00922078Y007081346D01*
G01*
X-00910261Y007100007D01*
G01*
X-00897543Y007118065D01*
G01*
X-00883955Y007135477D01*
G01*
X-00877543Y007142910D01*
G01*
X-00869528Y007152202D01*
G01*
X-00854298Y007168198D01*
G01*
X-00838302Y007183428D01*
G01*
X-00821577Y007197855D01*
G01*
X-00804165Y007211443D01*
G01*
X-00786107Y007224161D01*
G01*
X-00767446Y007235978D01*
G01*
X-00748229Y007246865D01*
G01*
X-00728500Y007256795D01*
G01*
X-00717282Y007261768D01*
G01*
X-00708308Y007265746D01*
G01*
X-00687700Y007273695D01*
G01*
X-00666728Y007280623D01*
G01*
X-00645441Y007286514D01*
G01*
X-00623891Y007291353D01*
G01*
X-00602129Y007295129D01*
G01*
X-00580208Y007297833D01*
G01*
X-00558180Y007299458D01*
G01*
X-00536100Y007300000D01*
G01*
X-00514020Y007299458D01*
G01*
X-00491992Y007297833D01*
G01*
X-00470071Y007295129D01*
G01*
X-00448309Y007291353D01*
G01*
X-00426759Y007286514D01*
G01*
X-00405472Y007280623D01*
G01*
X-00384500Y007273695D01*
G01*
X-00363892Y007265746D01*
G01*
X-00343700Y007256795D01*
G01*
X-00323971Y007246865D01*
G01*
X-00304754Y007235978D01*
G01*
X-00286093Y007224161D01*
G01*
X-00268035Y007211443D01*
G01*
X-00250623Y007197855D01*
G01*
X-00233898Y007183428D01*
G01*
X-00217902Y007168198D01*
G01*
X-00202672Y007152202D01*
G01*
X-00188245Y007135477D01*
G01*
X-00174657Y007118065D01*
G01*
X-00161939Y007100007D01*
G01*
X-00150122Y007081346D01*
G01*
X-00139235Y007062129D01*
G01*
X-00129305Y007042400D01*
G01*
X-00120354Y007022208D01*
G01*
X-00112405Y007001600D01*
G01*
X-00108556Y006989949D01*
G01*
X-00105477Y006980628D01*
G01*
X-00099586Y006959341D01*
G01*
X-00094747Y006937791D01*
G01*
X-00090971Y006916029D01*
G01*
X-00088267Y006894108D01*
G01*
X-00086642Y006872080D01*
G01*
X-00086100Y006850000D01*
G01*
X-00086642Y006827920D01*
G01*
X-00088267Y006805892D01*
G01*
X-00090971Y006783971D01*
G01*
X-00094747Y006762209D01*
G01*
X-00096897Y006752631D01*
G01*
X-00099586Y006740659D01*
G01*
X-00105477Y006719372D01*
G01*
X-00112405Y006698400D01*
G01*
X-00120354Y006677792D01*
G01*
X-00129305Y006657600D01*
G01*
X-00139235Y006637871D01*
G01*
X-00150122Y006618654D01*
G01*
X-00161939Y006599993D01*
G01*
X-00174657Y006581935D01*
G01*
X-00188245Y006564523D01*
G01*
X-00202672Y006547798D01*
G01*
X-00217902Y006531802D01*
G01*
X-00233898Y006516572D01*
G01*
X-00235353Y006515317D01*
G01*
X-00236396Y006514280D01*
G01*
X-00240850Y006508943D01*
G01*
X-00244790Y006503216D01*
G01*
X-00248184Y006497149D01*
G01*
X-00251001Y006490794D01*
G01*
X-00253217Y006484205D01*
G01*
X-00254814Y006477439D01*
G01*
X-00255778Y006470555D01*
G01*
X-00256100Y006463611D01*
G01*
X-00256100Y003230689D01*
G01*
X-00255778Y003223745D01*
G01*
X-00254814Y003216861D01*
G01*
X-00253217Y003210095D01*
G01*
X-00251001Y003203506D01*
G01*
X-00248184Y003197151D01*
G01*
X-00244790Y003191084D01*
G01*
X-00240850Y003185357D01*
G01*
X-00236396Y003180020D01*
G01*
X-00235353Y003178983D01*
G01*
X-00233898Y003177728D01*
G01*
X-00217902Y003162498D01*
G01*
X-00202672Y003146502D01*
G01*
X-00188245Y003129777D01*
G01*
X-00174657Y003112365D01*
G01*
X-00161939Y003094307D01*
G01*
X-00150122Y003075646D01*
G01*
X-00144074Y003064970D01*
G01*
X-00139235Y003056429D01*
G01*
X-00129305Y003036700D01*
G01*
X-00120354Y003016508D01*
G01*
X-00112405Y002995900D01*
G01*
X-00105477Y002974928D01*
G01*
X-00099586Y002953641D01*
G01*
X-00094747Y002932091D01*
G01*
X-00090971Y002910329D01*
G01*
X-00088267Y002888408D01*
G01*
X-00086642Y002866380D01*
G01*
X-00086100Y002844300D01*
G01*
X-00086642Y002822220D01*
G01*
X-00088267Y002800192D01*
G01*
X-00090971Y002778271D01*
G01*
X-00094747Y002756509D01*
G01*
X-00099586Y002734959D01*
G01*
X-00105477Y002713672D01*
G01*
X-00112405Y002692700D01*
G01*
X-00120354Y002672092D01*
G01*
X-00124332Y002663118D01*
G01*
X-00129305Y002651900D01*
G01*
X-00139235Y002632171D01*
G01*
X-00150122Y002612954D01*
G01*
X-00161939Y002594293D01*
G01*
X-00174657Y002576235D01*
G01*
X-00188245Y002558823D01*
G01*
X-00202672Y002542098D01*
G01*
X-00217902Y002526102D01*
G01*
X-00233898Y002510872D01*
G01*
X-00250623Y002496445D01*
G01*
X-00268035Y002482857D01*
G01*
X-00286093Y002470139D01*
G01*
X-00304754Y002458322D01*
G01*
X-00320600Y002449345D01*
G01*
X-00324356Y002447094D01*
G01*
X-00330267Y002442709D01*
G01*
X-00335721Y002437767D01*
G01*
X-00340664Y002432313D01*
G01*
X-00345048Y002426401D01*
G01*
X-00348832Y002420088D01*
G01*
X-00351979Y002413435D01*
G01*
X-00354458Y002406505D01*
G01*
X-00356247Y002399365D01*
G01*
X-00357327Y002392085D01*
G01*
X-00357688Y002384734D01*
G01*
X-00357327Y002377382D01*
G01*
X-00356247Y002370102D01*
G01*
X-00354458Y002362962D01*
G01*
X-00351979Y002356032D01*
G01*
X-00348832Y002349379D01*
G01*
X-00345048Y002343066D01*
G01*
X-00340664Y002337154D01*
G01*
X-00335721Y002331701D01*
G01*
X000972012Y001023968D01*
G01*
X000977567Y001018942D01*
G01*
X000983596Y001014495D01*
G01*
X000990038Y001010672D01*
G01*
X000996830Y001007511D01*
G01*
X001003903Y001005043D01*
G01*
X001011187Y001003292D01*
G01*
X001018610Y001002278D01*
G01*
X001026096Y001002009D01*
G01*
X001033573Y001002488D01*
G01*
X001040964Y001003710D01*
G01*
X001048196Y001005664D01*
G01*
X001055197Y001008329D01*
G01*
X001061898Y001011680D01*
G01*
X001068230Y001015682D01*
G01*
X001074132Y001020297D01*
G01*
X001079544Y001025476D01*
G01*
X001084412Y001031170D01*
G01*
X001088688Y001037322D01*
G01*
X001092329Y001043869D01*
G01*
X001095299Y001050747D01*
G01*
X001097568Y001057886D01*
G01*
X001099113Y001065217D01*
G01*
X001099919Y001072665D01*
G01*
X001099978Y001080156D01*
G01*
X001099290Y001087616D01*
G01*
X001097860Y001094970D01*
G01*
X001095705Y001102144D01*
G01*
X001094576Y001104875D01*
G01*
X001093205Y001107600D01*
G01*
X001084254Y001127792D01*
G01*
X001076305Y001148400D01*
G01*
X001069377Y001169372D01*
G01*
X001063486Y001190659D01*
G01*
X001058647Y001212209D01*
G01*
X001054871Y001233971D01*
G01*
X001052167Y001255892D01*
G01*
X001050542Y001277920D01*
G01*
X001050000Y001300000D01*
G01*
X001050542Y001322080D01*
G01*
X001052167Y001344108D01*
G01*
X001054871Y001366029D01*
G01*
X001056968Y001378119D01*
G01*
X001058647Y001387791D01*
G01*
X001063486Y001409341D01*
G01*
X001069377Y001430628D01*
G01*
X001076305Y001451600D01*
G01*
X001084254Y001472208D01*
G01*
X001088232Y001481182D01*
G01*
X001093205Y001492400D01*
G01*
X001103135Y001512129D01*
G01*
X001114022Y001531346D01*
G01*
X001125839Y001550007D01*
G01*
X001138557Y001568065D01*
G01*
X001152145Y001585477D01*
G01*
X001158557Y001592910D01*
G01*
X001166572Y001602202D01*
G01*
X001181802Y001618198D01*
G01*
X001197798Y001633428D01*
G01*
X001214523Y001647855D01*
G01*
X001231935Y001661443D01*
G01*
X001249993Y001674161D01*
G01*
X001268654Y001685978D01*
G01*
X001287871Y001696865D01*
G01*
X001307600Y001706795D01*
G01*
X001318818Y001711768D01*
G01*
X001327792Y001715746D01*
G01*
X001348400Y001723695D01*
G01*
X001369372Y001730623D01*
G01*
X001390659Y001736514D01*
G01*
X001402631Y001739203D01*
G01*
X001412209Y001741353D01*
G01*
X001433971Y001745129D01*
G01*
X001455892Y001747833D01*
G01*
X001477920Y001749458D01*
G01*
X001500000Y001750000D01*
G01*
X001522080Y001749458D01*
G01*
X001544108Y001747833D01*
G01*
X001566029Y001745129D01*
G01*
X001587791Y001741353D01*
G01*
X001597369Y001739203D01*
G01*
X001609341Y001736514D01*
G01*
X001630628Y001730623D01*
G01*
X001651600Y001723695D01*
G01*
X001672208Y001715746D01*
G01*
X001692400Y001706795D01*
G01*
X001712129Y001696865D01*
G01*
X001731346Y001685978D01*
G01*
X001750007Y001674161D01*
G01*
X001768065Y001661443D01*
G01*
X001785477Y001647855D01*
G01*
X001802202Y001633428D01*
G01*
X001818198Y001618198D01*
G01*
X001833428Y001602202D01*
G01*
X001834683Y001600747D01*
G01*
X001835720Y001599704D01*
G01*
X001841057Y001595250D01*
G01*
X001846784Y001591310D01*
G01*
X001852851Y001587916D01*
G01*
X001859206Y001585099D01*
G01*
X001865795Y001582883D01*
G01*
X001872561Y001581286D01*
G01*
X001879445Y001580322D01*
G01*
X001886389Y001580000D01*
G01*
X002209000Y001580000D01*
G01*
X002222739Y001579663D01*
G01*
X002236445Y001578652D01*
G01*
X002250085Y001576969D01*
G01*
X002263625Y001574620D01*
G01*
X002277034Y001571609D01*
G01*
X002290280Y001567943D01*
G01*
X002303329Y001563632D01*
G01*
X002316151Y001558686D01*
G01*
X002328715Y001553117D01*
G01*
X002340991Y001546938D01*
G01*
X002352949Y001540164D01*
G01*
X002364560Y001532811D01*
G01*
X002375796Y001524898D01*
G01*
X002386630Y001516443D01*
G01*
X002397037Y001507466D01*
G01*
X002406990Y001497990D01*
G01*
X002569990Y001334990D01*
G01*
X002732990Y001171990D01*
G01*
X002742466Y001162037D01*
G01*
X002751443Y001151630D01*
G01*
X002759898Y001140796D01*
G01*
X002767811Y001129560D01*
G01*
X002775164Y001117949D01*
G01*
X002781938Y001105991D01*
G01*
X002788117Y001093715D01*
G01*
X002793686Y001081151D01*
G01*
X002798632Y001068329D01*
G01*
X002802943Y001055280D01*
G01*
X002806609Y001042034D01*
G01*
X002809620Y001028625D01*
G01*
X002811969Y001015085D01*
G01*
X002813652Y001001445D01*
G01*
X002814663Y000987739D01*
G01*
X002815000Y000974000D01*
G01*
X002815000Y-01072404D01*
G01*
X002815361Y-01079755D01*
G01*
X002816441Y-01087036D01*
G01*
X002818229Y-01094175D01*
G01*
X002820709Y-01101105D01*
G01*
X002823856Y-01107759D01*
G01*
X002827640Y-01114072D01*
G01*
X002832024Y-01119983D01*
G01*
X002836967Y-01125437D01*
G01*
X002842421Y-01130380D01*
G01*
X002848332Y-01134764D01*
G01*
X002854645Y-01138548D01*
G01*
X002861299Y-01141695D01*
G01*
X002868229Y-01144174D01*
G01*
X002875368Y-01145963D01*
G01*
X002882649Y-01147043D01*
G01*
X002890000Y-01147404D01*
G01*
X002897351Y-01147043D01*
G01*
X002904632Y-01145963D01*
G01*
X002911771Y-01144174D01*
G01*
X002918701Y-01141695D01*
G01*
X002925355Y-01138548D01*
G01*
X002931668Y-01134764D01*
G01*
X002937579Y-01130380D01*
G01*
X002943033Y-01125437D01*
G01*
X002947316Y-01120711D01*
G01*
X002952145Y-01114523D01*
G01*
X002966572Y-01097798D01*
G01*
X002981802Y-01081802D01*
G01*
X002997798Y-01066572D01*
G01*
X003014523Y-01052145D01*
G01*
X003031935Y-01038557D01*
G01*
X003049993Y-01025839D01*
G01*
X003068654Y-01014022D01*
G01*
X003087871Y-01003135D01*
G01*
X003107600Y-00993205D01*
G01*
X003127792Y-00984254D01*
G01*
X003148400Y-00976305D01*
G01*
X003169372Y-00969377D01*
G01*
X003190659Y-00963486D01*
G01*
X003212209Y-00958647D01*
G01*
X003233971Y-00954871D01*
G01*
X003255892Y-00952167D01*
G01*
X003277920Y-00950542D01*
G01*
X003300000Y-00950000D01*
G01*
X003322080Y-00950542D01*
G01*
X003323577Y-00950652D01*
G01*
X003326335Y-00950644D01*
G01*
X003334110Y-00949806D01*
G01*
X003341755Y-00948163D01*
G01*
X003349188Y-00945733D01*
G01*
X003356327Y-00942542D01*
G01*
X003363095Y-00938626D01*
G01*
X003369418Y-00934025D01*
G01*
X003375228Y-00928792D01*
G01*
X005210933Y000906913D01*
G01*
X005215876Y000912366D01*
G01*
X005220260Y000918278D01*
G01*
X005224044Y000924591D01*
G01*
X005227191Y000931245D01*
G01*
X005229671Y000938174D01*
G01*
X005231459Y000945314D01*
G01*
X005232539Y000952595D01*
G01*
X005232900Y000959946D01*
G01*
X005232900Y001613754D01*
G01*
X005232539Y001621105D01*
G01*
X005231459Y001628386D01*
G01*
X005229671Y001635526D01*
G01*
X005227191Y001642455D01*
G01*
X005224044Y001649109D01*
G01*
X005220260Y001655422D01*
G01*
X005215876Y001661334D01*
G01*
X005210933Y001666787D01*
G01*
X003136144Y003741576D01*
G01*
X003130431Y003746731D01*
G01*
X003124221Y003751273D01*
G01*
X003117577Y003755155D01*
G01*
X003110571Y003758335D01*
G01*
X003103276Y003760782D01*
G01*
X003095768Y003762467D01*
G01*
X003088128Y003763375D01*
G01*
X003080434Y003763495D01*
G01*
X003072769Y003762827D01*
G01*
X003065212Y003761376D01*
G01*
X003063148Y003760755D01*
G01*
X003062500Y003760505D01*
G01*
X003041528Y003753577D01*
G01*
X003020241Y003747686D01*
G01*
X002998691Y003742847D01*
G01*
X002976929Y003739071D01*
G01*
X002955008Y003736367D01*
G01*
X002932980Y003734742D01*
G01*
X002910900Y003734200D01*
G01*
X002888820Y003734742D01*
G01*
X002866792Y003736367D01*
G01*
X002844871Y003739071D01*
G01*
X002823109Y003742847D01*
G01*
X002801559Y003747686D01*
G01*
X002780272Y003753577D01*
G01*
X002759300Y003760505D01*
G01*
X002738692Y003768454D01*
G01*
X002718500Y003777405D01*
G01*
X002698771Y003787335D01*
G01*
X002679554Y003798222D01*
G01*
X002660893Y003810039D01*
G01*
X002642835Y003822757D01*
G01*
X002625423Y003836345D01*
G01*
X002608698Y003850772D01*
G01*
X002592702Y003866002D01*
G01*
X002577472Y003881998D01*
G01*
X002569457Y003891290D01*
G01*
X002563045Y003898723D01*
G01*
X002549457Y003916135D01*
G01*
X002536739Y003934193D01*
G01*
X002524922Y003952854D01*
G01*
X002514035Y003972071D01*
G01*
X002504105Y003991800D01*
G01*
X002495154Y004011992D01*
G01*
X002487205Y004032600D01*
G01*
X002480277Y004053572D01*
G01*
X002474386Y004074859D01*
G01*
X002471697Y004086831D01*
G01*
X002469547Y004096409D01*
G01*
X002465771Y004118171D01*
G01*
X002463067Y004140092D01*
G01*
X002461442Y004162120D01*
G01*
X002460900Y004184200D01*
G01*
X002461442Y004206280D01*
G01*
X002463067Y004228308D01*
G01*
X002465771Y004250229D01*
G01*
X002469547Y004271991D01*
G01*
X002474386Y004293541D01*
G01*
X002480277Y004314828D01*
G01*
X002487205Y004335800D01*
G01*
X002495154Y004356408D01*
G01*
X002504105Y004376600D01*
G01*
X002514035Y004396329D01*
G01*
X002524922Y004415546D01*
G01*
X002536739Y004434207D01*
G01*
X002549457Y004452265D01*
G01*
X002563045Y004469677D01*
G01*
X002577472Y004486402D01*
G01*
X002592702Y004502398D01*
G01*
X002608698Y004517628D01*
G01*
X002625423Y004532055D01*
G01*
X002642835Y004545643D01*
G01*
X002660893Y004558361D01*
G01*
X002679554Y004570178D01*
G01*
X002698771Y004581065D01*
G01*
X002718500Y004590995D01*
G01*
X002738692Y004599946D01*
G01*
X002744348Y004602127D01*
G01*
X002749297Y004604468D01*
G01*
X002755610Y004608252D01*
G01*
X002761521Y004612637D01*
G01*
X002766975Y004617579D01*
G01*
X002771918Y004623033D01*
G01*
X002776302Y004628945D01*
G01*
X002780086Y004635258D01*
G01*
X002783233Y004641911D01*
G01*
X002785712Y004648841D01*
G01*
X002787501Y004655981D01*
G01*
X002788581Y004663261D01*
G01*
X002788942Y004670612D01*
G01*
X002788581Y004677964D01*
G01*
X002787501Y004685244D01*
G01*
X002785712Y004692384D01*
G01*
X002783233Y004699314D01*
G01*
X002780086Y004705967D01*
G01*
X002776302Y004712280D01*
G01*
X002771918Y004718192D01*
G01*
X002766975Y004723645D01*
G01*
X002200210Y005290410D01*
G01*
X002181757Y005310770D01*
G01*
X002180660Y005312249D01*
G01*
X002165389Y005332840D01*
G01*
X002151262Y005356409D01*
G01*
X002139514Y005381249D01*
G01*
X002130257Y005407120D01*
G01*
X002123580Y005433775D01*
G01*
X002119548Y005460955D01*
G01*
X002118200Y005488400D01*
G01*
X002118200Y005936047D01*
G01*
X002117839Y005943398D01*
G01*
X002116759Y005950679D01*
G01*
X002114971Y005957818D01*
G01*
X002112491Y005964748D01*
G01*
X002109344Y005971402D01*
G01*
X002105560Y005977715D01*
G01*
X002101176Y005983626D01*
G01*
X002096233Y005989080D01*
G01*
X002091868Y005993036D01*
G01*
X002091570Y005993257D01*
G01*
X002071210Y006011710D01*
G01*
X001888510Y006194410D01*
G01*
X001870057Y006214770D01*
G01*
X001853689Y006236840D01*
G01*
X001839562Y006260409D01*
G01*
X001827814Y006285249D01*
G01*
X001818557Y006311120D01*
G01*
X001811880Y006337775D01*
G01*
X001807848Y006364955D01*
G01*
X001806500Y006392400D01*
G01*
X001806500Y007435200D01*
G01*
X001807848Y007462645D01*
G01*
X001811880Y007489825D01*
G01*
X001818557Y007516480D01*
G01*
X001827814Y007542351D01*
G01*
X001839562Y007567191D01*
G01*
X001853689Y007590760D01*
G01*
X001870057Y007612830D01*
G01*
X001888510Y007633190D01*
G01*
X002096233Y007840913D01*
G01*
X002101176Y007846366D01*
G01*
X002105560Y007852278D01*
G01*
X002109344Y007858591D01*
G01*
X002112491Y007865245D01*
G01*
X002114971Y007872174D01*
G01*
X002116759Y007879314D01*
G01*
X002117839Y007886595D01*
G01*
X002118200Y007893946D01*
G01*
X002118200Y008200000D01*
G01*
X002678200Y008200000D01*
G01*
X002678200Y008163246D01*
G01*
X002678561Y008155895D01*
G01*
X002679641Y008148614D01*
G01*
X002681429Y008141474D01*
G01*
X002683909Y008134545D01*
G01*
X002687056Y008127891D01*
G01*
X002690840Y008121578D01*
G01*
X002695224Y008115666D01*
G01*
X002700167Y008110213D01*
G01*
X002705621Y008105270D01*
G01*
X002711532Y008100886D01*
G01*
X002717845Y008097102D01*
G01*
X002724499Y008093955D01*
G01*
X002731429Y008091475D01*
G01*
X002738568Y008089687D01*
G01*
X002745849Y008088607D01*
G01*
X002753200Y008088246D01*
G01*
X002760551Y008088607D01*
G01*
X002767832Y008089687D01*
G01*
X002774971Y008091475D01*
G01*
X002781901Y008093955D01*
G01*
X002788555Y008097102D01*
G01*
X002794868Y008100886D01*
G01*
X002800779Y008105270D01*
G01*
X002806233Y008110213D01*
G01*
X002896020Y008200000D01*
G01*
X003687979Y008200000D01*
G01*
X003012770Y007524791D01*
G01*
X003007939Y007519472D01*
G01*
X003003639Y007513716D01*
G01*
X002999909Y007507575D01*
G01*
X002996784Y007501105D01*
G01*
X002994292Y007494366D01*
G01*
X002992457Y007487420D01*
G01*
X002991295Y007480329D01*
G01*
X002990817Y007473160D01*
G01*
X002991026Y007465978D01*
G01*
X002991923Y007458849D01*
G01*
X002993497Y007451839D01*
G01*
X002995735Y007445011D01*
G01*
X002998616Y007438429D01*
G01*
X003002113Y007432152D01*
G01*
X003006195Y007426240D01*
G01*
X003010825Y007420745D01*
G01*
X003015958Y007415718D01*
G01*
X003021549Y007411205D01*
G01*
X003027547Y007407248D01*
G01*
X003033895Y007403884D01*
G01*
X003038062Y007402164D01*
G01*
X003052108Y007396746D01*
G01*
X003072300Y007387795D01*
G01*
X003092029Y007377865D01*
G01*
X003111246Y007366978D01*
G01*
X003129907Y007355161D01*
G01*
X003147965Y007342443D01*
G01*
X003165377Y007328855D01*
G01*
X003182102Y007314428D01*
G01*
X003198098Y007299198D01*
G01*
X003213328Y007283202D01*
G01*
X003214311Y007282062D01*
G01*
X003216264Y007280121D01*
G01*
X003222354Y007275216D01*
G01*
X003228922Y007270972D01*
G01*
X003235896Y007267434D01*
G01*
X003243200Y007264642D01*
G01*
X003250756Y007262626D01*
G01*
X003258480Y007261408D01*
G01*
X003266289Y007261000D01*
G01*
X005825900Y007261000D01*
G01*
X005839639Y007260663D01*
G01*
X005853345Y007259652D01*
G01*
X005866985Y007257969D01*
G01*
X005880525Y007255620D01*
G01*
X005893934Y007252609D01*
G01*
X005907180Y007248943D01*
G01*
X005920229Y007244632D01*
G01*
X005933051Y007239686D01*
G01*
X005945615Y007234117D01*
G01*
X005957891Y007227938D01*
G01*
X005969849Y007221164D01*
G01*
X005981460Y007213811D01*
G01*
X005992696Y007205898D01*
G01*
X006003530Y007197443D01*
G01*
X006013937Y007188466D01*
G01*
X006023890Y007178990D01*
G01*
X009587390Y003615490D01*
G01*
X009596866Y003605537D01*
G01*
X009605843Y003595130D01*
G01*
X009614298Y003584296D01*
G01*
X009622211Y003573060D01*
G01*
X009629564Y003561449D01*
G01*
X009636338Y003549491D01*
G01*
X009642517Y003537215D01*
G01*
X009648086Y003524651D01*
G01*
X009653032Y003511829D01*
G01*
X009657343Y003498780D01*
G01*
X009661009Y003485534D01*
G01*
X009664020Y003472125D01*
G01*
X009666369Y003458585D01*
G01*
X009668052Y003444945D01*
G01*
X009669063Y003431239D01*
G01*
X009669400Y003417500D01*
G01*
X009669400Y003273989D01*
G01*
X009669722Y003267045D01*
G01*
X009670686Y003260161D01*
G01*
X009672283Y003253395D01*
G01*
X009674499Y003246806D01*
G01*
X009677316Y003240451D01*
G01*
X009680710Y003234384D01*
G01*
X009684650Y003228657D01*
G01*
X009689104Y003223320D01*
G01*
X009690147Y003222283D01*
G01*
X009691602Y003221028D01*
G01*
X009707598Y003205798D01*
G01*
X009722828Y003189802D01*
G01*
X009737255Y003173077D01*
G01*
X009750843Y003155665D01*
G01*
X009763561Y003137607D01*
G01*
X009775378Y003118946D01*
G01*
X009786265Y003099729D01*
G01*
X009796195Y003080000D01*
G01*
X009805146Y003059808D01*
G01*
X009813095Y003039200D01*
G01*
X009820023Y003018228D01*
G01*
X009825914Y002996941D01*
G01*
X009830753Y002975391D01*
G01*
X009834529Y002953629D01*
G01*
X009837233Y002931708D01*
G01*
X009838858Y002909680D01*
G01*
X009839400Y002887600D01*
G01*
X009838858Y002865520D01*
G01*
X009837233Y002843492D01*
G01*
X009834529Y002821571D01*
G01*
X009830753Y002799809D01*
G01*
X009828603Y002790231D01*
G01*
X009825914Y002778259D01*
G01*
X009820023Y002756972D01*
G01*
X009813095Y002736000D01*
G01*
X009805146Y002715392D01*
G01*
X009796195Y002695200D01*
G01*
X009786265Y002675471D01*
G01*
X009775378Y002656254D01*
G01*
X009763561Y002637593D01*
G01*
X009750843Y002619535D01*
G01*
X009737255Y002602123D01*
G01*
X009722828Y002585398D01*
G01*
X009707598Y002569402D01*
G01*
X009691602Y002554172D01*
G01*
X009674877Y002539745D01*
G01*
X009657465Y002526157D01*
G01*
X009639407Y002513439D01*
G01*
X009620746Y002501622D01*
G01*
X009601529Y002490735D01*
G01*
X009581800Y002480805D01*
G01*
X009561608Y002471854D01*
G01*
X009541000Y002463905D01*
G01*
X009520028Y002456977D01*
G01*
X009498741Y002451086D01*
G01*
X009477191Y002446247D01*
G01*
X009467519Y002444568D01*
G01*
X009455429Y002442471D01*
G01*
X009433508Y002439767D01*
G01*
X009411480Y002438142D01*
G01*
X009389400Y002437600D01*
G01*
X009367320Y002438142D01*
G01*
X009345292Y002439767D01*
G01*
X009323371Y002442471D01*
G01*
X009301609Y002446247D01*
G01*
X009280059Y002451086D01*
G01*
X009258772Y002456977D01*
G01*
X009237800Y002463905D01*
G01*
X009217192Y002471854D01*
G01*
X009197000Y002480805D01*
G01*
X009194688Y002481969D01*
G01*
X009192632Y002482823D01*
G01*
X009185763Y002484933D01*
G01*
X009178725Y002486376D01*
G01*
X009171580Y002487139D01*
G01*
X009164396Y002487214D01*
G01*
X009157237Y002486602D01*
G01*
X009150169Y002485308D01*
G01*
X009143258Y002483343D01*
G01*
X009136567Y002480726D01*
G01*
X009130156Y002477480D01*
G01*
X009124086Y002473636D01*
G01*
X009118411Y002469229D01*
G01*
X009113185Y002464299D01*
G01*
X009108453Y002458891D01*
G01*
X009104262Y002453056D01*
G01*
X009100647Y002446846D01*
G01*
X009097644Y002440319D01*
G01*
X009095279Y002433534D01*
G01*
X009093574Y002426555D01*
G01*
X009092544Y002419444D01*
G01*
X009092200Y002412267D01*
G01*
X009092200Y-02394220D01*
G01*
X010336400Y-02394220D01*
G01*
X010336400Y005487600D01*
G01*
X010336822Y005504774D01*
G01*
X010338085Y005521906D01*
G01*
X010340188Y005538956D01*
G01*
X010343125Y005555882D01*
G01*
X010346889Y005572643D01*
G01*
X010351471Y005589200D01*
G01*
X010356860Y005605511D01*
G01*
X010363042Y005621539D01*
G01*
X010370004Y005637244D01*
G01*
X010377728Y005652589D01*
G01*
X010386195Y005667536D01*
G01*
X010395386Y005682050D01*
G01*
X010405277Y005696095D01*
G01*
X010415846Y005709638D01*
G01*
X010427067Y005722646D01*
G01*
X010438913Y005735087D01*
G01*
X011135242Y006431417D01*
G01*
X011140185Y006436871D01*
G01*
X011144569Y006442782D01*
G01*
X011148353Y006449095D01*
G01*
X011151500Y006455749D01*
G01*
X011153980Y006462679D01*
G01*
X011155768Y006469818D01*
G01*
X011156848Y006477099D01*
G01*
X011157209Y006484450D01*
G01*
X011156848Y006491801D01*
G01*
X011155768Y006499082D01*
G01*
X011153980Y006506221D01*
G01*
X011151500Y006513151D01*
G01*
X011148353Y006519805D01*
G01*
X011144569Y006526118D01*
G01*
X011140185Y006532029D01*
G01*
X011135242Y006537483D01*
G01*
X010683476Y006989249D01*
G01*
X010672208Y006984254D01*
G01*
X010655000Y006977617D01*
G01*
X010655000Y006450000D01*
G01*
X010654663Y006436261D01*
G01*
X010653652Y006422555D01*
G01*
X010651969Y006408915D01*
G01*
X010649620Y006395375D01*
G01*
X010646609Y006381966D01*
G01*
X010642943Y006368720D01*
G01*
X010638632Y006355671D01*
G01*
X010633686Y006342849D01*
G01*
X010628117Y006330285D01*
G01*
X010621938Y006318009D01*
G01*
X010615164Y006306051D01*
G01*
X010607811Y006294440D01*
G01*
X010599898Y006283204D01*
G01*
X010591443Y006272370D01*
G01*
X010582466Y006261963D01*
G01*
X010572990Y006252010D01*
G01*
X010563037Y006242534D01*
G01*
X010552630Y006233557D01*
G01*
X010541796Y006225102D01*
G01*
X010530560Y006217189D01*
G01*
X010518949Y006209836D01*
G01*
X010506991Y006203062D01*
G01*
X010494715Y006196883D01*
G01*
X010482151Y006191314D01*
G01*
X010469329Y006186368D01*
G01*
X010456280Y006182057D01*
G01*
X010443034Y006178391D01*
G01*
X010429625Y006175380D01*
G01*
X010416085Y006173031D01*
G01*
X010402445Y006171348D01*
G01*
X010388739Y006170337D01*
G01*
X010375000Y006170000D01*
G01*
X009040980Y006170000D01*
G01*
X008897990Y006027010D01*
G01*
X008888037Y006017534D01*
G01*
X008877630Y006008557D01*
G01*
X008866796Y006000102D01*
G01*
X008855560Y005992189D01*
G01*
X008843949Y005984836D01*
G01*
X008831991Y005978062D01*
G01*
X008819715Y005971883D01*
G01*
X008815766Y005970132D01*
G01*
X008813037Y005967534D01*
G01*
X008802630Y005958557D01*
G01*
X008791796Y005950102D01*
G01*
X008780560Y005942189D01*
G01*
X008768949Y005934836D01*
G01*
X008756991Y005928062D01*
G01*
X008744715Y005921883D01*
G01*
X008732151Y005916314D01*
G01*
X008724544Y005913379D01*
G01*
X008718949Y005909836D01*
G01*
X008706991Y005903062D01*
G01*
X008694715Y005896883D01*
G01*
X008682151Y005891314D01*
G01*
X008674544Y005888379D01*
G01*
X008668949Y005884836D01*
G01*
X008656991Y005878062D01*
G01*
X008644715Y005871883D01*
G01*
X008632151Y005866314D01*
G01*
X008619329Y005861368D01*
G01*
X008606280Y005857057D01*
G01*
X008593034Y005853391D01*
G01*
X008579625Y005850380D01*
G01*
X008566085Y005848031D01*
G01*
X008552445Y005846348D01*
G01*
X008538739Y005845337D01*
G01*
X008525000Y005845000D01*
G01*
X008490467Y005845000D01*
G01*
X008482151Y005841314D01*
G01*
X008469329Y005836368D01*
G01*
X008456280Y005832057D01*
G01*
X008443034Y005828391D01*
G01*
X008429625Y005825380D01*
G01*
X008416085Y005823031D01*
G01*
X008402445Y005821348D01*
G01*
X008388739Y005820337D01*
G01*
X008375000Y005820000D01*
G01*
X008325000Y005820000D01*
G01*
X008311261Y005820337D01*
G01*
X008297555Y005821348D01*
G01*
X008283915Y005823031D01*
G01*
X008270375Y005825380D01*
G01*
X008256966Y005828391D01*
G01*
X008243720Y005832057D01*
G01*
X008230671Y005836368D01*
G01*
X008217849Y005841314D01*
G01*
X008209533Y005845000D01*
G01*
X008175000Y005845000D01*
G01*
X008161261Y005845337D01*
G01*
X008147555Y005846348D01*
G01*
X008133915Y005848031D01*
G01*
X008120375Y005850380D01*
G01*
X008110898Y005852508D01*
G01*
X008110477Y005852145D01*
G01*
X008093065Y005838557D01*
G01*
X008075007Y005825839D01*
G01*
X008056346Y005814022D01*
G01*
X008037129Y005803135D01*
G01*
X008017400Y005793205D01*
G01*
X007997208Y005784254D01*
G01*
X007976600Y005776305D01*
G01*
X007955628Y005769377D01*
G01*
X007934341Y005763486D01*
G01*
X007912791Y005758647D01*
G01*
X007891029Y005754871D01*
G01*
X007869108Y005752167D01*
G01*
X007847080Y005750542D01*
G01*
X007825000Y005750000D01*
G01*
X007802920Y005750542D01*
G01*
X007780892Y005752167D01*
G01*
X007758971Y005754871D01*
G01*
X007737209Y005758647D01*
G01*
X007715659Y005763486D01*
G01*
X007694372Y005769377D01*
G01*
X007673400Y005776305D01*
G01*
X007652792Y005784254D01*
G01*
X007632600Y005793205D01*
G01*
X007612871Y005803135D01*
G01*
X007593654Y005814022D01*
G01*
X007574993Y005825839D01*
G01*
X007556935Y005838557D01*
G01*
X007539523Y005852145D01*
G01*
X007522798Y005866572D01*
G01*
X007506802Y005881802D01*
G01*
X007491572Y005897798D01*
G01*
X007477145Y005914523D01*
G01*
X007463557Y005931935D01*
G01*
X007450839Y005949993D01*
G01*
X007439022Y005968654D01*
G01*
X007428135Y005987871D01*
G01*
X007418205Y006007600D01*
G01*
X007409254Y006027792D01*
G01*
X007401305Y006048400D01*
G01*
X007394377Y006069372D01*
G01*
X007388486Y006090659D01*
G01*
X007383647Y006112209D01*
G01*
X007379871Y006133971D01*
G01*
X007377167Y006155892D01*
G01*
X007375542Y006177920D01*
G01*
X007375000Y006200000D01*
G01*
X007375542Y006222080D01*
G01*
X007377167Y006244108D01*
G01*
X007379871Y006266029D01*
G01*
X007383647Y006287791D01*
G01*
X007388486Y006309341D01*
G01*
X007394377Y006330628D01*
G01*
X007401305Y006351600D01*
G01*
X007409254Y006372208D01*
G01*
X007418205Y006392400D01*
G01*
X007428135Y006412129D01*
G01*
X007439022Y006431346D01*
G01*
X007450839Y006450007D01*
G01*
X007463557Y006468065D01*
G01*
X007477145Y006485477D01*
G01*
X007491572Y006502202D01*
G01*
X007506802Y006518198D01*
G01*
X007520000Y006530764D01*
G01*
X007520000Y007897871D01*
G01*
X007514523Y007902145D01*
G01*
X007497798Y007916572D01*
G01*
X007481802Y007931802D01*
G01*
X007466572Y007947798D01*
G01*
X007452145Y007964523D01*
G01*
X007438557Y007981935D01*
G01*
X007425839Y007999993D01*
G01*
X007414022Y008018654D01*
G01*
X007403135Y008037871D01*
G01*
X007393205Y008057600D01*
G01*
X007384254Y008077792D01*
G01*
X007376305Y008098400D01*
G01*
X007369377Y008119372D01*
G01*
X007363486Y008140659D01*
G01*
X007358647Y008162209D01*
G01*
X007354871Y008183971D01*
G01*
X007352167Y008205892D01*
G01*
X007350542Y008227920D01*
G01*
X007350000Y008250000D01*
G01*
X007350542Y008272080D01*
G01*
X007352167Y008294108D01*
G01*
X007354871Y008316029D01*
G01*
X007358647Y008337791D01*
G01*
X007363486Y008359341D01*
G01*
X007369377Y008380628D01*
G01*
X007376305Y008401600D01*
G01*
X007384254Y008422208D01*
G01*
X007393205Y008442400D01*
G01*
X007403135Y008462129D01*
G01*
X007414022Y008481346D01*
G01*
X007425839Y008500007D01*
G01*
X007438557Y008518065D01*
G01*
X007440067Y008520000D01*
G01*
X006459552Y008520000D01*
G01*
X006455560Y008517189D01*
G01*
X006443949Y008509836D01*
G01*
X006431991Y008503062D01*
G01*
X006419715Y008496883D01*
G01*
X006415766Y008495132D01*
G01*
X006413037Y008492534D01*
G01*
X006402630Y008483557D01*
G01*
X006391796Y008475102D01*
G01*
X006380560Y008467189D01*
G01*
X006368949Y008459836D01*
G01*
X006356991Y008453062D01*
G01*
X006344715Y008446883D01*
G01*
X006332151Y008441314D01*
G01*
X006324544Y008438379D01*
G01*
X006318949Y008434836D01*
G01*
X006306991Y008428062D01*
G01*
X006294715Y008421883D01*
G01*
X006282151Y008416314D01*
G01*
X006274544Y008413379D01*
G01*
X006268949Y008409836D01*
G01*
X006256991Y008403062D01*
G01*
X006244715Y008396883D01*
G01*
X006232151Y008391314D01*
G01*
X006219329Y008386368D01*
G01*
X006206280Y008382057D01*
G01*
X006193034Y008378391D01*
G01*
X006179625Y008375380D01*
G01*
X006166085Y008373031D01*
G01*
X006152445Y008371348D01*
G01*
X006141725Y008370558D01*
G01*
X006132151Y008366314D01*
G01*
X006119329Y008361368D01*
G01*
X006106280Y008357057D01*
G01*
X006093034Y008353391D01*
G01*
X006079625Y008350380D01*
G01*
X006066085Y008348031D01*
G01*
X006052445Y008346348D01*
G01*
X006038739Y008345337D01*
G01*
X006025000Y008345000D01*
G01*
X005825000Y008345000D01*
G01*
X005811261Y008345337D01*
G01*
X005797555Y008346348D01*
G01*
X005783915Y008348031D01*
G01*
X005770375Y008350380D01*
G01*
X005756966Y008353391D01*
G01*
X005743720Y008357057D01*
G01*
X005730671Y008361368D01*
G01*
X005717849Y008366314D01*
G01*
X005708275Y008370558D01*
G01*
X005697555Y008371348D01*
G01*
X005683915Y008373031D01*
G01*
X005670375Y008375380D01*
G01*
X005656966Y008378391D01*
G01*
X005643720Y008382057D01*
G01*
X005630671Y008386368D01*
G01*
X005617849Y008391314D01*
G01*
X005605285Y008396883D01*
G01*
X005593009Y008403062D01*
G01*
X005581051Y008409836D01*
G01*
X005575456Y008413379D01*
G01*
X005567849Y008416314D01*
G01*
X005555285Y008421883D01*
G01*
X005543009Y008428062D01*
G01*
X005531051Y008434836D01*
G01*
X005525456Y008438379D01*
G01*
X005517849Y008441314D01*
G01*
X005505285Y008446883D01*
G01*
X005493009Y008453062D01*
G01*
X005481051Y008459836D01*
G01*
X005469440Y008467189D01*
G01*
X005458204Y008475102D01*
G01*
X005447370Y008483557D01*
G01*
X005436963Y008492534D01*
G01*
X005434234Y008495132D01*
G01*
X005430285Y008496883D01*
G01*
X005418009Y008503062D01*
G01*
X005406051Y008509836D01*
G01*
X005394440Y008517189D01*
G01*
X005383204Y008525102D01*
G01*
X005372370Y008533557D01*
G01*
X005361963Y008542534D01*
G01*
X005352010Y008552010D01*
G01*
X005076003Y008828017D01*
G01*
X005069108Y008827167D01*
G01*
X005047080Y008825542D01*
G01*
X005025000Y008825000D01*
G01*
X005002920Y008825542D01*
G01*
X004980892Y008827167D01*
G01*
X004958971Y008829871D01*
G01*
X004937209Y008833647D01*
G01*
X004915659Y008838486D01*
G01*
X004894372Y008844377D01*
G01*
X004873400Y008851305D01*
G01*
X004852792Y008859254D01*
G01*
X004832600Y008868205D01*
G01*
X004812871Y008878135D01*
G01*
X004793654Y008889022D01*
G01*
X004774993Y008900839D01*
G01*
X004756935Y008913557D01*
G01*
X004739523Y008927145D01*
G01*
X004722798Y008941572D01*
G01*
X004706802Y008956802D01*
G01*
X004691572Y008972798D01*
G01*
X004677145Y008989523D01*
G01*
X004663557Y009006935D01*
G01*
X004650839Y009024993D01*
G01*
X004639022Y009043654D01*
G01*
X004628135Y009062871D01*
G01*
X004625000Y009069101D01*
G01*
X004621865Y009062871D01*
G01*
X004610978Y009043654D01*
G01*
X004599161Y009024993D01*
G01*
X004586443Y009006935D01*
G01*
X004572855Y008989523D01*
G01*
X004558428Y008972798D01*
G01*
X004543198Y008956802D01*
G01*
X004527202Y008941572D01*
G01*
X004510477Y008927145D01*
G01*
X004493065Y008913557D01*
G01*
X004475007Y008900839D01*
G01*
X004456346Y008889022D01*
G01*
X004437129Y008878135D01*
G01*
X004417400Y008868205D01*
G01*
X004397208Y008859254D01*
G01*
X004376600Y008851305D01*
G01*
X004355628Y008844377D01*
G01*
X004334341Y008838486D01*
G01*
X004312791Y008833647D01*
G01*
X004291029Y008829871D01*
G01*
X004269108Y008827167D01*
G01*
X004247080Y008825542D01*
G01*
X004225000Y008825000D01*
G01*
X004202920Y008825542D01*
G01*
X004180892Y008827167D01*
G01*
X004158971Y008829871D01*
G01*
X004137209Y008833647D01*
G01*
X004115659Y008838486D01*
G01*
X004094372Y008844377D01*
G01*
X004073400Y008851305D01*
G01*
X004052792Y008859254D01*
G01*
X004032600Y008868205D01*
G01*
X004012871Y008878135D01*
G01*
X003993654Y008889022D01*
G01*
X003974993Y008900839D01*
G01*
X003956935Y008913557D01*
G01*
X003939523Y008927145D01*
G01*
X003922798Y008941572D01*
G01*
X003906802Y008956802D01*
G01*
X003891572Y008972798D01*
G01*
X003877145Y008989523D01*
G01*
X003863557Y009006935D01*
G01*
X003850839Y009024993D01*
G01*
X003839022Y009043654D01*
G01*
X003828135Y009062871D01*
G01*
X003818205Y009082600D01*
G01*
X003809254Y009102792D01*
G01*
X003801305Y009123400D01*
G01*
X003794377Y009144372D01*
G01*
X003788486Y009165659D01*
G01*
X003783647Y009187209D01*
G01*
X003779871Y009208971D01*
G01*
X003777167Y009230892D01*
G01*
X003775542Y009252920D01*
G01*
X003775000Y009275000D01*
G01*
X003775542Y009297080D01*
G01*
X003777167Y009319108D01*
G01*
X003779871Y009341029D01*
G01*
X003783647Y009362791D01*
G01*
X003788486Y009384341D01*
G01*
X003794377Y009405628D01*
G01*
X003801305Y009426600D01*
G01*
X003809254Y009447208D01*
G01*
X003818205Y009467400D01*
G01*
X003828135Y009487129D01*
G01*
X003839022Y009506346D01*
G01*
X003850839Y009525007D01*
G01*
X003863557Y009543065D01*
G01*
X003877145Y009560477D01*
G01*
X003891572Y009577202D01*
G01*
X003906802Y009593198D01*
G01*
X003922798Y009608428D01*
G01*
X003939523Y009622855D01*
G01*
X003956935Y009636443D01*
G01*
X003974993Y009649161D01*
G01*
X003993654Y009660978D01*
G01*
X004012871Y009671865D01*
G01*
X004032600Y009681795D01*
G01*
X004052792Y009690746D01*
G01*
X004073400Y009698695D01*
G01*
X004094372Y009705623D01*
G01*
X004115659Y009711514D01*
G01*
X004137209Y009716353D01*
G01*
X004158971Y009720129D01*
G01*
X004180892Y009722833D01*
G01*
X004202920Y009724458D01*
G01*
X004225000Y009725000D01*
G01*
X004247080Y009724458D01*
G01*
X004269108Y009722833D01*
G01*
X004276003Y009721983D01*
G01*
X004452010Y009897990D01*
G01*
X004461963Y009907466D01*
G01*
X004472370Y009916443D01*
G01*
X004483204Y009924898D01*
G01*
X004494440Y009932811D01*
G01*
X004506051Y009940164D01*
G01*
X004518009Y009946938D01*
G01*
X004530285Y009953117D01*
G01*
X004534234Y009954868D01*
G01*
X004536963Y009957466D01*
G01*
X004547370Y009966443D01*
G01*
X004558204Y009974898D01*
G01*
X004569440Y009982811D01*
G01*
X004581051Y009990164D01*
G01*
X004593009Y009996938D01*
G01*
X004605285Y010003117D01*
G01*
X004617849Y010008686D01*
G01*
X004625456Y010011621D01*
G01*
X004631051Y010015164D01*
G01*
X004643009Y010021938D01*
G01*
X004655285Y010028117D01*
G01*
X004667849Y010033686D01*
G01*
X004675456Y010036621D01*
G01*
X004681051Y010040164D01*
G01*
X004693009Y010046938D01*
G01*
X004705285Y010053117D01*
G01*
X004717849Y010058686D01*
G01*
X004730671Y010063632D01*
G01*
X004743720Y010067943D01*
G01*
X004756966Y010071609D01*
G01*
X004770375Y010074620D01*
G01*
X004783915Y010076969D01*
G01*
X004797555Y010078652D01*
G01*
X004808275Y010079442D01*
G01*
X004817849Y010083686D01*
G01*
X004830671Y010088632D01*
G01*
X004843720Y010092943D01*
G01*
X004856966Y010096609D01*
G01*
X004870375Y010099620D01*
G01*
X004883915Y010101969D01*
G01*
X004897555Y010103652D01*
G01*
X004911261Y010104663D01*
G01*
X004925000Y010105000D01*
G01*
X005125000Y010105000D01*
G01*
X005138739Y010104663D01*
G01*
X005152445Y010103652D01*
G01*
X005166085Y010101969D01*
G01*
X005179625Y010099620D01*
G01*
X005193034Y010096609D01*
G01*
X005206280Y010092943D01*
G01*
X005219329Y010088632D01*
G01*
X005232151Y010083686D01*
G01*
X005240467Y010080000D01*
G01*
X008400000Y010080000D01*
G01*
X008413739Y010079663D01*
G01*
X008427445Y010078652D01*
G01*
X008441085Y010076969D01*
G01*
X008454625Y010074620D01*
G01*
X008468034Y010071609D01*
G01*
X008481280Y010067943D01*
G01*
X008494329Y010063632D01*
G01*
X008507151Y010058686D01*
G01*
X008516725Y010054442D01*
G01*
X008527445Y010053652D01*
G01*
X008541085Y010051969D01*
G01*
X008554625Y010049620D01*
G01*
X008568034Y010046609D01*
G01*
X008581280Y010042943D01*
G01*
X008594329Y010038632D01*
G01*
X008607151Y010033686D01*
G01*
X008619715Y010028117D01*
G01*
X008631991Y010021938D01*
G01*
X008643949Y010015164D01*
G01*
X008649544Y010011621D01*
G01*
X008657151Y010008686D01*
G01*
X008669715Y010003117D01*
G01*
X008681991Y009996938D01*
G01*
X008693949Y009990164D01*
G01*
X008699544Y009986621D01*
G01*
X008707151Y009983686D01*
G01*
X008719715Y009978117D01*
G01*
X008731991Y009971938D01*
G01*
X008743949Y009965164D01*
G01*
X008755560Y009957811D01*
G01*
X008766796Y009949898D01*
G01*
X008777630Y009941443D01*
G01*
X008788037Y009932466D01*
G01*
X008790766Y009929868D01*
G01*
X008794715Y009928117D01*
G01*
X008806991Y009921938D01*
G01*
X008818949Y009915164D01*
G01*
X008830560Y009907811D01*
G01*
X008841796Y009899898D01*
G01*
X008852630Y009891443D01*
G01*
X008863037Y009882466D01*
G01*
X008872990Y009872990D01*
G01*
X010017549Y008728430D01*
G01*
X010022798Y008733428D01*
G01*
X010039523Y008747855D01*
G01*
X010056935Y008761443D01*
G01*
X010074993Y008774161D01*
G01*
X010093654Y008785978D01*
G01*
X010112871Y008796865D01*
G01*
X010132600Y008806795D01*
G01*
X010152792Y008815746D01*
G01*
X010173400Y008823695D01*
G01*
X010194372Y008830623D01*
G01*
X010215659Y008836514D01*
G01*
X010237209Y008841353D01*
G01*
X010258971Y008845129D01*
G01*
X010280892Y008847833D01*
G01*
X010302920Y008849458D01*
G01*
X010325000Y008850000D01*
G01*
X010347080Y008849458D01*
G01*
X010369108Y008847833D01*
G01*
X010391029Y008845129D01*
G01*
X010412791Y008841353D01*
G01*
X010434341Y008836514D01*
G01*
X010455628Y008830623D01*
G01*
X010476600Y008823695D01*
G01*
X010497208Y008815746D01*
G01*
X010517400Y008806795D01*
G01*
X010537129Y008796865D01*
G01*
X010556346Y008785978D01*
G01*
X010575007Y008774161D01*
G01*
X010593065Y008761443D01*
G01*
X010610477Y008747855D01*
G01*
X010627202Y008733428D01*
G01*
X010643198Y008718198D01*
G01*
X010658428Y008702202D01*
G01*
X010672855Y008685477D01*
G01*
X010686443Y008668065D01*
G01*
X010699161Y008650007D01*
G01*
X010710978Y008631346D01*
G01*
X010721865Y008612129D01*
G01*
X010731795Y008592400D01*
G01*
X010740746Y008572208D01*
G01*
X010748695Y008551600D01*
G01*
X010755623Y008530628D01*
G01*
X010761514Y008509341D01*
G01*
X010766353Y008487791D01*
G01*
X010770129Y008466029D01*
G01*
X010772833Y008444108D01*
G01*
X010774458Y008422080D01*
G01*
X010775000Y008400000D01*
G01*
X010774458Y008377920D01*
G01*
X010772833Y008355892D01*
G01*
X010770129Y008333971D01*
G01*
X010766353Y008312209D01*
G01*
X010761514Y008290659D01*
G01*
X010755623Y008269372D01*
G01*
X010748695Y008248400D01*
G01*
X010740746Y008227792D01*
G01*
X010731795Y008207600D01*
G01*
X010721865Y008187871D01*
G01*
X010710978Y008168654D01*
G01*
X010699161Y008149993D01*
G01*
X010686443Y008131935D01*
G01*
X010672855Y008114523D01*
G01*
X010658428Y008097798D01*
G01*
X010643198Y008081802D01*
G01*
X010627202Y008066572D01*
G01*
X010610554Y008052212D01*
G01*
X011572389Y007090404D01*
G01*
X011578104Y007096669D01*
G01*
X011587853Y007106355D01*
G01*
X011598065Y007115552D01*
G01*
X011608716Y007124237D01*
G01*
X011619781Y007132388D01*
G01*
X011631232Y007139987D01*
G01*
X011643043Y007147015D01*
G01*
X011655183Y007153455D01*
G01*
X011667626Y007159291D01*
G01*
X011680339Y007164510D01*
G01*
X011693294Y007169098D01*
G01*
X011706458Y007173046D01*
G01*
X011719800Y007176343D01*
G01*
X011733287Y007178981D01*
G01*
X011746888Y007180954D01*
G01*
X011760569Y007182258D01*
G01*
X011774298Y007182888D01*
G01*
X011788041Y007182844D01*
G01*
X011801765Y007182126D01*
G01*
X011815437Y007180736D01*
G01*
X011829025Y007178676D01*
G01*
X011842496Y007175952D01*
G01*
X011855816Y007172570D01*
G01*
X011868955Y007168539D01*
G01*
X011881880Y007163867D01*
G01*
X011894560Y007158568D01*
G01*
X011906965Y007152652D01*
G01*
X011919064Y007146135D01*
G01*
X011930829Y007139032D01*
G01*
X011942232Y007131361D01*
G01*
X011953244Y007123139D01*
G01*
X011963840Y007114386D01*
G01*
X011973994Y007105125D01*
G01*
X011983680Y007095376D01*
G01*
X011992877Y007085164D01*
G01*
X012001562Y007074512D01*
G01*
X012009713Y007063448D01*
G01*
X012017312Y007051997D01*
G01*
X012024340Y007040186D01*
G01*
X012030780Y007028045D01*
G01*
X012036616Y007015603D01*
G01*
X012041835Y007002889D01*
G01*
X012046423Y006989935D01*
G01*
X012050371Y006976771D01*
G01*
X012053668Y006963429D01*
G01*
X012056306Y006949942D01*
G01*
X012056513Y006948513D01*
G01*
X012072477Y006936055D01*
G01*
X012089202Y006921628D01*
G01*
X012105198Y006906398D01*
G01*
X012120428Y006890402D01*
G01*
X012128443Y006881110D01*
G01*
X012134855Y006873677D01*
G01*
X012148443Y006856265D01*
G01*
X012161161Y006838207D01*
G01*
X012172978Y006819546D01*
G01*
X012183865Y006800329D01*
G01*
X012193795Y006780600D01*
G01*
X012202746Y006760408D01*
G01*
X012210695Y006739800D01*
G01*
X012217623Y006718828D01*
G01*
X012223514Y006697541D01*
G01*
X012226203Y006685569D01*
G01*
X012228353Y006675991D01*
G01*
X012232129Y006654229D01*
G01*
X012234833Y006632308D01*
G01*
X012236458Y006610280D01*
G01*
X012237000Y006588200D01*
G01*
X012236458Y006566120D01*
G01*
X012234833Y006544092D01*
G01*
X012232129Y006522171D01*
G01*
X012228353Y006500409D01*
G01*
X012223514Y006478859D01*
G01*
X012217623Y006457572D01*
G01*
X012210695Y006436600D01*
G01*
X012202746Y006415992D01*
G01*
X012193795Y006395800D01*
G01*
X012183865Y006376071D01*
G01*
X012172978Y006356854D01*
G01*
X012161161Y006338193D01*
G01*
X012148443Y006320135D01*
G01*
X012134855Y006302723D01*
G01*
X012120428Y006285998D01*
G01*
X012105198Y006270002D01*
G01*
X012089202Y006254772D01*
G01*
X012072477Y006240345D01*
G01*
X012055065Y006226757D01*
G01*
X012037007Y006214039D01*
G01*
X012018346Y006202222D01*
G01*
X011999129Y006191335D01*
G01*
X011979400Y006181405D01*
G01*
X011968182Y006176432D01*
G01*
X011959208Y006172454D01*
G01*
X011938600Y006164505D01*
G01*
X011917628Y006157577D01*
G01*
X011896341Y006151686D01*
G01*
X011874791Y006146847D01*
G01*
X011853612Y006143172D01*
G01*
X011851079Y006142657D01*
G01*
X011843479Y006140250D01*
G01*
X011836176Y006137048D01*
G01*
X011829255Y006133090D01*
G01*
X011822794Y006128420D01*
G01*
X011816871Y006123097D01*
G01*
X011058367Y005364592D01*
G01*
X011053424Y005359139D01*
G01*
X011049040Y005353227D01*
G01*
X011045256Y005346914D01*
G01*
X011042109Y005340260D01*
G01*
X011039629Y005333331D01*
G01*
X011037841Y005326191D01*
G01*
X011036761Y005318911D01*
G01*
X011036400Y005311559D01*
G01*
X011036400Y-02394220D01*
G01*
X017150000Y-02394220D01*
G01*
X017150000Y011670565D01*
G01*
X017149235Y011669175D01*
G01*
X017115867Y011611923D01*
G01*
X017081105Y011555506D01*
G01*
X017044968Y011499960D01*
G01*
X017007479Y011445318D01*
G01*
X016968660Y011391612D01*
G01*
X016928535Y011338875D01*
G01*
X016887128Y011287138D01*
G01*
X016844464Y011236433D01*
G01*
X016800568Y011186791D01*
G01*
X016755467Y011138241D01*
G01*
X016709188Y011090812D01*
G01*
X016661759Y011044533D01*
G01*
X016613209Y010999432D01*
G01*
X016563567Y010955536D01*
G01*
X016512862Y010912872D01*
G01*
X016461125Y010871465D01*
G01*
X016408388Y010831340D01*
G01*
X016354682Y010792521D01*
G01*
X016300040Y010755032D01*
G01*
X016244494Y010718895D01*
G01*
X016188077Y010684133D01*
G01*
X016130825Y010650765D01*
G01*
X016072771Y010618813D01*
G01*
X016013951Y010588294D01*
G01*
X015954399Y010559229D01*
G01*
X015894152Y010531634D01*
G01*
X015833245Y010505525D01*
G01*
X015771717Y010480919D01*
G01*
X015709603Y010457831D01*
G01*
X015646941Y010436274D01*
G01*
X015583769Y010416261D01*
G01*
X015520124Y010397805D01*
G01*
X015456046Y010380916D01*
G01*
X015391573Y010365604D01*
G01*
X015326744Y010351880D01*
G01*
X015261597Y010339750D01*
G01*
X015196172Y010329223D01*
G01*
X015130509Y010320305D01*
G01*
X015064646Y010313001D01*
G01*
X014998624Y010307316D01*
G01*
X014932483Y010303252D01*
G01*
X014866261Y010300813D01*
G01*
X014800000Y010300000D01*
G01*
X014733739Y010300813D01*
G01*
X014667517Y010303252D01*
G01*
X014601376Y010307316D01*
G01*
X014535354Y010313001D01*
G01*
X014469491Y010320305D01*
G01*
X014403828Y010329223D01*
G01*
X014338403Y010339750D01*
G01*
X014273256Y010351880D01*
G01*
X014208427Y010365604D01*
G01*
X014143954Y010380916D01*
G01*
X014079876Y010397805D01*
G01*
X014016231Y010416261D01*
G01*
X013953059Y010436274D01*
G01*
X013890397Y010457831D01*
G01*
X013828283Y010480919D01*
G01*
X013766755Y010505525D01*
G01*
X013705848Y010531634D01*
G01*
X013645601Y010559229D01*
G01*
X013586049Y010588294D01*
G01*
X013527229Y010618813D01*
G01*
X013469175Y010650765D01*
G01*
X013411923Y010684133D01*
G01*
X013355506Y010718895D01*
G01*
X013299960Y010755032D01*
G01*
X013245318Y010792521D01*
G01*
X013191612Y010831340D01*
G01*
X013138875Y010871465D01*
G01*
X013087138Y010912872D01*
G01*
X013036433Y010955536D01*
G01*
X012986791Y010999432D01*
G01*
X012938241Y011044533D01*
G01*
X012890812Y011090812D01*
G01*
X012844533Y011138241D01*
G01*
X012799432Y011186791D01*
G01*
X012755536Y011236433D01*
G01*
X012712872Y011287138D01*
G01*
X012671465Y011338875D01*
G01*
X012631340Y011391612D01*
G01*
X012592521Y011445318D01*
G01*
X012555032Y011499960D01*
G01*
X012518895Y011555506D01*
G01*
X012484133Y011611923D01*
G01*
X012450765Y011669175D01*
G01*
X012418813Y011727229D01*
G01*
X012388294Y011786049D01*
G01*
X012359229Y011845601D01*
G01*
X012331634Y011905848D01*
G01*
X012305525Y011966755D01*
G01*
X012280919Y012028283D01*
G01*
X012257831Y012090397D01*
G01*
X012236274Y012153059D01*
G01*
X012216261Y012216231D01*
G01*
X012197805Y012279876D01*
G01*
X012180916Y012343954D01*
G01*
X012165604Y012408427D01*
G01*
X012151880Y012473256D01*
G01*
X012139750Y012538403D01*
G01*
X012129223Y012603828D01*
G01*
X012120305Y012669491D01*
G01*
X012113001Y012735354D01*
G01*
X012107316Y012801376D01*
G01*
X012103252Y012867517D01*
G01*
X012100813Y012933739D01*
G01*
X012100000Y013000000D01*
G01*
X012100813Y013066261D01*
G01*
X012103252Y013132483D01*
G01*
X012107316Y013198624D01*
G01*
X012113001Y013264646D01*
G01*
X012120305Y013330509D01*
G01*
X012129223Y013396172D01*
G01*
X012139750Y013461597D01*
G01*
X012151880Y013526744D01*
G01*
X012165604Y013591573D01*
G01*
X012180916Y013656046D01*
G01*
X012197805Y013720124D01*
G01*
X012216261Y013783769D01*
G01*
X012236274Y013846941D01*
G01*
X012257831Y013909603D01*
G01*
X012280919Y013971717D01*
G01*
X012305525Y014033245D01*
G01*
X012331634Y014094152D01*
G01*
X012359229Y014154399D01*
G01*
X012388294Y014213951D01*
G01*
X012418813Y014272771D01*
G01*
X012450765Y014330825D01*
G01*
X012484133Y014388077D01*
G01*
X012518895Y014444494D01*
G01*
X012555032Y014500040D01*
G01*
X012592521Y014554682D01*
G01*
X012631340Y014608388D01*
G01*
X012671465Y014661125D01*
G01*
X012712872Y014712862D01*
G01*
X012755536Y014763567D01*
G01*
X012799432Y014813209D01*
G01*
X012844533Y014861759D01*
G01*
X012890812Y014909188D01*
G01*
X012938241Y014955467D01*
G01*
X012986791Y015000568D01*
G01*
X013036433Y015044464D01*
G01*
X013087138Y015087128D01*
G01*
X013138875Y015128535D01*
G01*
X013191612Y015168660D01*
G01*
X013245318Y015207479D01*
G01*
X013299960Y015244968D01*
G01*
X013355506Y015281105D01*
G01*
X013411923Y015315867D01*
G01*
X013469175Y015349235D01*
G01*
X013527229Y015381187D01*
G01*
X013586049Y015411706D01*
G01*
X013645601Y015440771D01*
G01*
X013705848Y015468366D01*
G01*
X013766755Y015494475D01*
G01*
X013828283Y015519081D01*
G01*
X013890397Y015542169D01*
G01*
X013953059Y015563726D01*
G01*
X014016231Y015583739D01*
G01*
X014079876Y015602195D01*
G01*
X014143954Y015619084D01*
G01*
X014208427Y015634396D01*
G01*
X014273256Y015648120D01*
G01*
X014338403Y015660250D01*
G01*
X014403828Y015670777D01*
G01*
X014469491Y015679695D01*
G01*
X014535354Y015686999D01*
G01*
X014601376Y015692684D01*
G01*
X014667517Y015696748D01*
G01*
X014733739Y015699187D01*
G01*
X014800000Y015700000D01*
G01*
X014866261Y015699187D01*
G01*
X014932483Y015696748D01*
G01*
X014998624Y015692684D01*
G01*
X015064646Y015686999D01*
G01*
X015130509Y015679695D01*
G01*
X015196172Y015670777D01*
G01*
X015261597Y015660250D01*
G01*
X015326744Y015648120D01*
G01*
X015391573Y015634396D01*
G01*
X015456046Y015619084D01*
G01*
X015520124Y015602195D01*
G01*
X015583769Y015583739D01*
G01*
X015646941Y015563726D01*
G01*
X015709603Y015542169D01*
G01*
X015771717Y015519081D01*
G01*
X015833245Y015494475D01*
G01*
X015894152Y015468366D01*
G01*
X015954399Y015440771D01*
G01*
X016013951Y015411706D01*
G01*
X016072771Y015381187D01*
G01*
X016130825Y015349235D01*
G01*
X016188077Y015315867D01*
G01*
X016244494Y015281105D01*
G01*
X016300040Y015244968D01*
G01*
X016354682Y015207479D01*
G01*
X016408388Y015168660D01*
G01*
X016461125Y015128535D01*
G01*
X016512862Y015087128D01*
G01*
X016563567Y015044464D01*
G01*
X016613209Y015000568D01*
G01*
X016661759Y014955467D01*
G01*
X016709188Y014909188D01*
G01*
X016755467Y014861759D01*
G01*
X016800568Y014813209D01*
G01*
X016844464Y014763567D01*
G01*
X016887128Y014712862D01*
G01*
X016928535Y014661125D01*
G01*
X016968660Y014608388D01*
G01*
X017007479Y014554682D01*
G01*
X017044968Y014500040D01*
G01*
X017081105Y014444494D01*
G01*
X017115867Y014388077D01*
G01*
X017149235Y014330825D01*
G01*
X017150000Y014329435D01*
G01*
X017150000Y017150000D01*
G01*
X-17150000Y017150000D01*
G01*
X-17150000Y014329435D01*
G01*
X-17149235Y014330825D01*
G01*
X-17115867Y014388077D01*
G01*
X-17081105Y014444494D01*
G01*
X-17044968Y014500040D01*
G01*
X-17007479Y014554682D01*
G01*
X-16968660Y014608388D01*
G01*
X-16928535Y014661125D01*
G01*
X-16887128Y014712862D01*
G01*
X-16844464Y014763567D01*
G01*
X-16800568Y014813209D01*
G01*
X-16755467Y014861759D01*
G01*
X-16709188Y014909188D01*
G01*
X-16661759Y014955467D01*
G01*
X-16613209Y015000568D01*
G01*
X-16563567Y015044464D01*
G01*
X-16512862Y015087128D01*
G01*
X-16461125Y015128535D01*
G01*
X-16408388Y015168660D01*
G01*
X-16354682Y015207479D01*
G01*
X-16300040Y015244968D01*
G01*
X-16244494Y015281105D01*
G01*
X-16188077Y015315867D01*
G01*
X-16130825Y015349235D01*
G01*
X-16072771Y015381187D01*
G01*
X-16013951Y015411706D01*
G01*
X-15954399Y015440771D01*
G01*
X-15894152Y015468366D01*
G01*
X-15833245Y015494475D01*
G01*
X-15771717Y015519081D01*
G01*
X-15709603Y015542169D01*
G01*
X-15646941Y015563726D01*
G01*
X-15583769Y015583739D01*
G01*
X-15520124Y015602195D01*
G01*
X-15456046Y015619084D01*
G01*
X-15391573Y015634396D01*
G01*
X-15326744Y015648120D01*
G01*
X-15261597Y015660250D01*
G01*
X-15196172Y015670777D01*
G01*
X-15130509Y015679695D01*
G01*
X-15064646Y015686999D01*
G01*
X-14998624Y015692684D01*
G01*
X-14932483Y015696748D01*
G01*
X-14866261Y015699187D01*
G01*
X-14800000Y015700000D01*
G01*
X-14733739Y015699187D01*
G01*
X-14667517Y015696748D01*
G01*
X-14601376Y015692684D01*
G01*
X-14535354Y015686999D01*
G01*
X-14469491Y015679695D01*
G01*
X-14403828Y015670777D01*
G01*
X-14338403Y015660250D01*
G01*
X-14273256Y015648120D01*
G01*
X-14208427Y015634396D01*
G01*
X-14143954Y015619084D01*
G01*
X-14079876Y015602195D01*
G01*
X-14016231Y015583739D01*
G01*
X-13953059Y015563726D01*
G01*
X-13890397Y015542169D01*
G01*
X-13828283Y015519081D01*
G01*
X-13766755Y015494475D01*
G01*
X-13705848Y015468366D01*
G01*
X-13645601Y015440771D01*
G01*
X-13586049Y015411706D01*
G01*
X-13527229Y015381187D01*
G01*
X-13469175Y015349235D01*
G01*
X-13411923Y015315867D01*
G01*
X-13355506Y015281105D01*
G01*
X-13299960Y015244968D01*
G01*
X-13245318Y015207479D01*
G01*
X-13191612Y015168660D01*
G01*
X-13138875Y015128535D01*
G01*
X-13087138Y015087128D01*
G01*
X-13036433Y015044464D01*
G01*
X-12986791Y015000568D01*
G01*
X-12938241Y014955467D01*
G01*
X-12890812Y014909188D01*
G01*
X-12844533Y014861759D01*
G01*
X-12799432Y014813209D01*
G01*
X-12755536Y014763567D01*
G01*
X-12712872Y014712862D01*
G01*
X-12671465Y014661125D01*
G01*
X-12631340Y014608388D01*
G01*
X-12592521Y014554682D01*
G01*
X-12555032Y014500040D01*
G01*
X-12518895Y014444494D01*
G01*
X-12484133Y014388077D01*
G01*
X-12450765Y014330825D01*
G01*
X-12418813Y014272771D01*
G01*
X-12388294Y014213951D01*
G01*
X-12359229Y014154399D01*
G01*
X-12331634Y014094152D01*
G01*
X-12305525Y014033245D01*
G01*
X-12280919Y013971717D01*
G01*
X-12257831Y013909603D01*
G01*
X-12236274Y013846941D01*
G01*
X-12216261Y013783769D01*
G01*
X-12197805Y013720124D01*
G01*
X-12180916Y013656046D01*
G01*
X-12165604Y013591573D01*
G01*
X-12151880Y013526744D01*
G01*
X-12139750Y013461597D01*
G01*
X-12129223Y013396172D01*
G01*
X-12120305Y013330509D01*
G01*
X-12113001Y013264646D01*
G01*
X-12107316Y013198624D01*
G01*
X-12103252Y013132483D01*
G01*
X-12100813Y013066261D01*
G01*
X-12100000Y013000000D01*
G01*
X-12100813Y012933739D01*
G01*
X-12103252Y012867517D01*
G01*
X-12107316Y012801376D01*
G01*
X-12113001Y012735354D01*
G01*
X-12120305Y012669491D01*
G01*
X-12129223Y012603828D01*
G01*
X-12139750Y012538403D01*
G01*
X-12151880Y012473256D01*
G01*
X-12165604Y012408427D01*
G01*
X-12180916Y012343954D01*
G01*
X-12197805Y012279876D01*
G01*
X-12216261Y012216231D01*
G01*
X-12236274Y012153059D01*
G01*
X-12257831Y012090397D01*
G01*
X-12280919Y012028283D01*
G01*
X-12305525Y011966755D01*
G01*
X-12331634Y011905848D01*
G01*
X-12359229Y011845601D01*
G01*
X-12388294Y011786049D01*
G01*
X-12418813Y011727229D01*
G01*
X-12450765Y011669175D01*
G01*
X-12484133Y011611923D01*
G01*
X-12518895Y011555506D01*
G01*
X-12555032Y011499960D01*
G01*
X-12592521Y011445318D01*
G01*
X-12631340Y011391612D01*
G01*
X-12671465Y011338875D01*
G01*
X-12712872Y011287138D01*
G01*
X-12755536Y011236433D01*
G01*
X-12799432Y011186791D01*
G01*
X-12844533Y011138241D01*
G01*
X-12890812Y011090812D01*
G01*
X-12938241Y011044533D01*
G01*
X-12986791Y010999432D01*
G01*
X-13036433Y010955536D01*
G01*
X-13087138Y010912872D01*
G01*
X-13138875Y010871465D01*
G01*
X-13191612Y010831340D01*
G01*
X-13245318Y010792521D01*
G01*
X-13299960Y010755032D01*
G01*
X-13355506Y010718895D01*
G01*
X-13411923Y010684133D01*
G01*
X-13469175Y010650765D01*
G01*
X-13527229Y010618813D01*
G01*
X-13586049Y010588294D01*
G01*
X-13645601Y010559229D01*
G01*
X-13705848Y010531634D01*
G01*
X-13766755Y010505525D01*
G01*
X-13828283Y010480919D01*
G01*
X-13890397Y010457831D01*
G01*
X-13953059Y010436274D01*
G01*
X-14016231Y010416261D01*
G01*
X-14079876Y010397805D01*
G01*
X-14143954Y010380916D01*
G01*
X-14208427Y010365604D01*
G01*
X-14273256Y010351880D01*
G01*
X-14338403Y010339750D01*
G01*
X-14403828Y010329223D01*
G01*
X-14469491Y010320305D01*
G01*
X-14535354Y010313001D01*
G01*
X-14601376Y010307316D01*
G01*
X-14667517Y010303252D01*
G01*
X-14733739Y010300813D01*
G01*
X-14800000Y010300000D01*
G01*
X-14866261Y010300813D01*
G01*
X-14932483Y010303252D01*
G01*
X-14998624Y010307316D01*
G01*
X-15064646Y010313001D01*
G01*
X-15130509Y010320305D01*
G01*
X-15196172Y010329223D01*
G01*
X-15261597Y010339750D01*
G01*
X-15326744Y010351880D01*
G01*
X-15391573Y010365604D01*
G01*
X-15456046Y010380916D01*
G01*
X-15520124Y010397805D01*
G01*
X-15583769Y010416261D01*
G01*
X-15646941Y010436274D01*
G01*
X-15709603Y010457831D01*
G01*
X-15771717Y010480919D01*
G01*
X-15833245Y010505525D01*
G01*
X-15894152Y010531634D01*
G01*
X-15954399Y010559229D01*
G01*
X-16013951Y010588294D01*
G01*
X-16072771Y010618813D01*
G01*
X-16130825Y010650765D01*
G01*
X-16188077Y010684133D01*
G01*
X-16244494Y010718895D01*
G01*
X-16300040Y010755032D01*
G01*
X-16354682Y010792521D01*
G01*
X-16408388Y010831340D01*
G01*
X-16461125Y010871465D01*
G01*
X-16512862Y010912872D01*
G01*
X-16563567Y010955536D01*
G01*
X-16613209Y010999432D01*
G01*
X-16661759Y011044533D01*
G01*
X-16709188Y011090812D01*
G01*
X-16755467Y011138241D01*
G01*
X-16800568Y011186791D01*
G01*
X-16844464Y011236433D01*
G01*
X-16887128Y011287138D01*
G01*
X-16928535Y011338875D01*
G01*
X-16968660Y011391612D01*
G01*
X-17007479Y011445318D01*
G01*
X-17044968Y011499960D01*
G01*
X-17081105Y011555506D01*
G01*
X-17115867Y011611923D01*
G01*
X-17149235Y011669175D01*
G01*
X-17150000Y011670565D01*
G01*
X-17150000Y-02394220D01*
G01*
X-00060360Y-02394220D01*
G01*
X-04339972Y001885392D01*
G01*
X-04345110Y001890074D01*
G01*
X-04350659Y001894261D01*
G01*
X-04356572Y001897916D01*
G01*
X-04362799Y001901007D01*
G01*
X-04369284Y001903509D01*
G01*
X-04375974Y001905400D01*
G01*
X-04382810Y001906663D01*
G01*
X-04389733Y001907287D01*
G01*
X-04391209Y001907283D01*
G01*
X-04393120Y001907142D01*
G01*
X-04415200Y001906600D01*
G01*
X-04437280Y001907142D01*
G01*
X-04459308Y001908767D01*
G01*
X-04481229Y001911471D01*
G01*
X-04502991Y001915247D01*
G01*
X-04524541Y001920086D01*
G01*
X-04545828Y001925977D01*
G01*
X-04555149Y001929056D01*
G01*
X-04566800Y001932905D01*
G01*
X-04587408Y001940854D01*
G01*
X-04607600Y001949805D01*
G01*
X-04627329Y001959735D01*
G01*
X-04635870Y001964574D01*
G01*
X-04646546Y001970622D01*
G01*
X-04665207Y001982439D01*
G01*
X-04683265Y001995157D01*
G01*
X-04700677Y002008745D01*
G01*
X-04708110Y002015157D01*
G01*
X-04717402Y002023172D01*
G01*
X-04733398Y002038402D01*
G01*
X-04748628Y002054398D01*
G01*
X-04763055Y002071123D01*
G01*
X-04776643Y002088535D01*
G01*
X-04789361Y002106593D01*
G01*
X-04801178Y002125254D01*
G01*
X-04812065Y002144471D01*
G01*
X-04821995Y002164200D01*
G01*
X-04826968Y002175418D01*
G01*
X-04830946Y002184392D01*
G01*
X-04838895Y002205000D01*
G01*
X-04845823Y002225972D01*
G01*
X-04851714Y002247259D01*
G01*
X-04856553Y002268809D01*
G01*
X-04858232Y002278481D01*
G01*
X-04860329Y002290571D01*
G01*
X-04863033Y002312492D01*
G01*
X-04864658Y002334520D01*
G01*
X-04865200Y002356600D01*
G01*
X-04864658Y002378680D01*
G01*
X-04863033Y002400708D01*
G01*
X-04860329Y002422629D01*
G01*
X-04856553Y002444391D01*
G01*
X-04851714Y002465941D01*
G01*
X-04845823Y002487228D01*
G01*
X-04838895Y002508200D01*
G01*
X-04834479Y002519649D01*
G01*
X-04830946Y002528808D01*
G01*
X-04821995Y002549000D01*
G01*
X-04812065Y002568729D01*
G01*
X-04801178Y002587946D01*
G01*
X-04789361Y002606607D01*
G01*
X-04776643Y002624665D01*
G01*
X-04763055Y002642077D01*
G01*
X-04748628Y002658802D01*
G01*
X-04733398Y002674798D01*
G01*
X-04717402Y002690028D01*
G01*
X-04700677Y002704455D01*
G01*
X-04683265Y002718043D01*
G01*
X-04665207Y002730761D01*
G01*
X-04646546Y002742578D01*
G01*
X-04635870Y002748626D01*
G01*
X-04627329Y002753465D01*
G01*
X-04607600Y002763395D01*
G01*
X-04587408Y002772346D01*
G01*
X-04578249Y002775879D01*
G01*
X-04566800Y002780295D01*
G01*
X-04545828Y002787223D01*
G01*
X-04524541Y002793114D01*
G01*
X-04512569Y002795803D01*
G01*
X-04502991Y002797953D01*
G01*
X-04481229Y002801729D01*
G01*
X-04459308Y002804433D01*
G01*
X-04437280Y002806058D01*
G01*
X-04415200Y002806600D01*
G01*
X-04393120Y002806058D01*
G01*
X-04371092Y002804433D01*
G01*
X-04349171Y002801729D01*
G01*
X-04327409Y002797953D01*
G01*
X-04305859Y002793114D01*
G01*
X-04284572Y002787223D01*
G01*
X-04275087Y002784090D01*
G01*
X-04267948Y002782299D01*
G01*
X-04260667Y002781218D01*
G01*
X-04253315Y002780855D01*
G01*
X-04245963Y002781215D01*
G01*
X-04238681Y002782294D01*
G01*
X-04231540Y002784081D01*
G01*
X-04224609Y002786560D01*
G01*
X-04217954Y002789706D01*
G01*
X-04211640Y002793490D01*
G01*
X-04205727Y002797874D01*
G01*
X-04200272Y002802817D01*
G01*
X-04195328Y002808271D01*
G01*
X-04190943Y002814183D01*
G01*
X-04187158Y002820496D01*
G01*
X-04184010Y002827150D01*
G01*
X-04181530Y002834081D01*
G01*
X-04179741Y002841222D01*
G01*
X-04178661Y002848503D01*
G01*
X-04178300Y002855855D01*
G01*
X-04178300Y003255735D01*
G01*
X-04178724Y003263696D01*
G01*
X-04179990Y003271568D01*
G01*
X-04182085Y003279261D01*
G01*
X-04184985Y003286688D01*
G01*
X-04188657Y003293765D01*
G01*
X-04190075Y003295906D01*
G01*
X-04202461Y003313493D01*
G01*
X-04214278Y003332154D01*
G01*
X-04225165Y003351371D01*
G01*
X-04235095Y003371100D01*
G01*
X-04244046Y003391292D01*
G01*
X-04247579Y003400451D01*
G01*
X-04251995Y003411900D01*
G01*
X-04258923Y003432872D01*
G01*
X-04264814Y003454159D01*
G01*
X-04269653Y003475709D01*
G01*
X-04273429Y003497471D01*
G01*
X-04276133Y003519392D01*
G01*
X-04277758Y003541420D01*
G01*
X-04278300Y003563500D01*
G01*
X-04277758Y003585580D01*
G01*
X-04276133Y003607608D01*
G01*
X-04273429Y003629529D01*
G01*
X-04269653Y003651291D01*
G01*
X-04264814Y003672841D01*
G01*
X-04258923Y003694128D01*
G01*
X-04251995Y003715100D01*
G01*
X-04244046Y003735708D01*
G01*
X-04235095Y003755900D01*
G01*
X-04225165Y003775629D01*
G01*
X-04220326Y003784170D01*
G01*
X-04214278Y003794846D01*
G01*
X-04202461Y003813507D01*
G01*
X-04189743Y003831565D01*
G01*
X-04176155Y003848977D01*
G01*
X-04161728Y003865702D01*
G01*
X-04146498Y003881698D01*
G01*
X-04130502Y003896928D01*
G01*
X-04113777Y003911355D01*
G01*
X-04096365Y003924943D01*
G01*
X-04078307Y003937661D01*
G01*
X-04059646Y003949478D01*
G01*
X-04048970Y003955526D01*
G01*
X-04040429Y003960365D01*
G01*
X-04020700Y003970295D01*
G01*
X-04000508Y003979246D01*
G01*
X-03979900Y003987195D01*
G01*
X-03958928Y003994123D01*
G01*
X-03937641Y004000014D01*
G01*
X-03916091Y004004853D01*
G01*
X-03906419Y004006532D01*
G01*
X-03894329Y004008629D01*
G01*
X-03872408Y004011333D01*
G01*
X-03850380Y004012958D01*
G01*
X-03828300Y004013500D01*
G01*
X-03806220Y004012958D01*
G01*
X-03784192Y004011333D01*
G01*
X-03762271Y004008629D01*
G01*
X-03750181Y004006532D01*
G01*
X-03740509Y004004853D01*
G01*
X-03718959Y004000014D01*
G01*
X-03697672Y003994123D01*
G01*
X-03676700Y003987195D01*
G01*
X-03656092Y003979246D01*
G01*
X-03635900Y003970295D01*
G01*
X-03616171Y003960365D01*
G01*
X-03607630Y003955526D01*
G01*
X-03596954Y003949478D01*
G01*
X-03578293Y003937661D01*
G01*
X-03560235Y003924943D01*
G01*
X-03542823Y003911355D01*
G01*
X-03526098Y003896928D01*
G01*
X-03510102Y003881698D01*
G01*
X-03494872Y003865702D01*
G01*
X-03480445Y003848977D01*
G01*
X-03466857Y003831565D01*
G01*
X-03454139Y003813507D01*
G01*
X-03442322Y003794846D01*
G01*
X-03436274Y003784170D01*
G01*
X-03431435Y003775629D01*
G01*
X-03421505Y003755900D01*
G01*
X-03412554Y003735708D01*
G01*
X-03404605Y003715100D01*
G01*
X-03400756Y003703449D01*
G01*
X-03397677Y003694128D01*
G01*
X-03391786Y003672841D01*
G01*
X-03386947Y003651291D01*
G01*
X-03383171Y003629529D01*
G01*
X-03380467Y003607608D01*
G01*
X-03378842Y003585580D01*
G01*
X-03378300Y003563500D01*
G01*
X-03378842Y003541420D01*
G01*
X-03380467Y003519392D01*
G01*
X-03383171Y003497471D01*
G01*
X-03386947Y003475709D01*
G01*
X-03391786Y003454159D01*
G01*
X-03397677Y003432872D01*
G01*
X-03400756Y003423551D01*
G01*
X-03404605Y003411900D01*
G01*
X-03412554Y003391292D01*
G01*
X-03421505Y003371100D01*
G01*
X-03431435Y003351371D01*
G01*
X-03442322Y003332154D01*
G01*
X-03454139Y003313493D01*
G01*
X-03466525Y003295906D01*
G01*
X-03467943Y003293765D01*
G01*
X-03471615Y003286688D01*
G01*
X-03474515Y003279261D01*
G01*
X-03476610Y003271568D01*
G01*
X-03477876Y003263696D01*
G01*
X-03478300Y003255735D01*
G01*
X-03478300Y002488741D01*
G01*
X-03477939Y002481389D01*
G01*
X-03476859Y002474109D01*
G01*
X-03475071Y002466969D01*
G01*
X-03472591Y002460040D01*
G01*
X-03469444Y002453386D01*
G01*
X-03465660Y002447073D01*
G01*
X-03461276Y002441161D01*
G01*
X-03456333Y002435708D01*
G01*
X001373595Y-02394220D01*
G01*
X001770000Y-02394220D01*
G01*
X001770000Y-00387224D01*
G01*
X001769639Y-00379872D01*
G01*
X001768559Y-00372592D01*
G01*
X001766771Y-00365452D01*
G01*
X001764291Y-00358522D01*
G01*
X001761144Y-00351869D01*
G01*
X001757360Y-00345556D01*
G01*
X001752976Y-00339644D01*
G01*
X001748033Y-00334190D01*
G01*
X001742579Y-00329248D01*
G01*
X001736668Y-00324863D01*
G01*
X001730355Y-00321079D01*
G01*
X001723701Y-00317933D01*
G01*
X001716771Y-00315453D01*
G01*
X001709632Y-00313665D01*
G01*
X001702351Y-00312585D01*
G01*
X001695000Y-00312224D01*
G01*
X001687649Y-00312585D01*
G01*
X001680368Y-00313665D01*
G01*
X001673229Y-00315453D01*
G01*
X001669598Y-00316752D01*
G01*
X001651600Y-00323695D01*
G01*
X001630628Y-00330623D01*
G01*
X001609341Y-00336514D01*
G01*
X001587791Y-00341353D01*
G01*
X001578119Y-00343032D01*
G01*
X001566029Y-00345129D01*
G01*
X001544108Y-00347833D01*
G01*
X001522080Y-00349458D01*
G01*
X001500000Y-00350000D01*
G01*
X001477920Y-00349458D01*
G01*
X001455892Y-00347833D01*
G01*
X001433971Y-00345129D01*
G01*
X001412209Y-00341353D01*
G01*
X001390659Y-00336514D01*
G01*
X001369372Y-00330623D01*
G01*
X001348400Y-00323695D01*
G01*
X001327792Y-00315746D01*
G01*
X001318818Y-00311768D01*
G01*
X001307600Y-00306795D01*
G01*
X001287871Y-00296865D01*
G01*
X001268654Y-00285978D01*
G01*
X001249993Y-00274161D01*
G01*
X001231935Y-00261443D01*
G01*
X001214523Y-00247855D01*
G01*
X001207090Y-00241443D01*
G01*
X001197798Y-00233428D01*
G01*
X001181802Y-00218198D01*
G01*
X001166572Y-00202202D01*
G01*
X001152145Y-00185477D01*
G01*
X001138557Y-00168065D01*
G01*
X001125839Y-00150007D01*
G01*
X001114022Y-00131346D01*
G01*
X001103135Y-00112129D01*
G01*
X001093205Y-00092400D01*
G01*
X001084254Y-00072208D01*
G01*
X001076305Y-00051600D01*
G01*
X001072456Y-00039949D01*
G01*
X001069377Y-00030628D01*
G01*
X001063486Y-00009341D01*
G01*
X001058647Y000012209D01*
G01*
X001054871Y000033971D01*
G01*
X001052167Y000055892D01*
G01*
X001050542Y000077920D01*
G01*
X001050000Y000100000D01*
G01*
X001050542Y000122080D01*
G01*
X001050652Y000123577D01*
G01*
X001050644Y000126335D01*
G01*
X001049806Y000134110D01*
G01*
X001048163Y000141755D01*
G01*
X001045733Y000149188D01*
G01*
X001042542Y000156327D01*
G01*
X001038626Y000163095D01*
G01*
X001034025Y000169418D01*
G01*
X001028792Y000175228D01*
G01*
X-05397990Y006602010D01*
G01*
X-05407466Y006611963D01*
G01*
X-05416443Y006622370D01*
G01*
X-05424898Y006633204D01*
G01*
X-05432811Y006644440D01*
G01*
X-05440164Y006656051D01*
G01*
X-05446938Y006668009D01*
G01*
X-05453117Y006680285D01*
G01*
X-05458686Y006692849D01*
G01*
X-05463632Y006705671D01*
G01*
X-05467943Y006718720D01*
G01*
X-05470000Y006726152D01*
G01*
X-05470000Y006327129D01*
G01*
X-05464523Y006322855D01*
G01*
X-05447798Y006308428D01*
G01*
X-05431802Y006293198D01*
G01*
X-05416572Y006277202D01*
G01*
X-05402145Y006260477D01*
G01*
X-05388557Y006243065D01*
G01*
X-05375839Y006225007D01*
G01*
X-05364022Y006206346D01*
G01*
X-05353135Y006187129D01*
G01*
X-05343205Y006167400D01*
G01*
X-05334254Y006147208D01*
G01*
X-05326305Y006126600D01*
G01*
X-05319377Y006105628D01*
G01*
X-05313486Y006084341D01*
G01*
X-05308647Y006062791D01*
G01*
X-05304871Y006041029D01*
G01*
X-05302167Y006019108D01*
G01*
X-05300542Y005997080D01*
G01*
X-05300000Y005975000D01*
G01*
X-05300542Y005952920D01*
G01*
X-05302167Y005930892D01*
G01*
X-05304871Y005908971D01*
G01*
X-05308647Y005887209D01*
G01*
X-05313486Y005865659D01*
G01*
X-05319377Y005844372D01*
G01*
X-05326305Y005823400D01*
G01*
X-05334254Y005802792D01*
G01*
X-05343205Y005782600D01*
G01*
X-05353135Y005762871D01*
G01*
X-05364022Y005743654D01*
G01*
X-05375839Y005724993D01*
G01*
X-05388557Y005706935D01*
G01*
X-05402145Y005689523D01*
G01*
X-05416572Y005672798D01*
G01*
X-05431802Y005656802D01*
G01*
X-05447798Y005641572D01*
G01*
X-05464523Y005627145D01*
G01*
X-05481935Y005613557D01*
G01*
X-05499993Y005600839D01*
G01*
X-05518654Y005589022D01*
G01*
X-05537871Y005578135D01*
G01*
X-05557600Y005568205D01*
G01*
X-05577792Y005559254D01*
G01*
X-05598400Y005551305D01*
G01*
X-05619372Y005544377D01*
G01*
X-05640659Y005538486D01*
G01*
X-05662209Y005533647D01*
G01*
X-05683971Y005529871D01*
G01*
X-05705892Y005527167D01*
G01*
X-05727920Y005525542D01*
G01*
X-05750000Y005525000D01*
G01*
X-05772080Y005525542D01*
G01*
X-05794108Y005527167D01*
G01*
X-05816029Y005529871D01*
G01*
X-05837791Y005533647D01*
G01*
X-05859341Y005538486D01*
G01*
X-05880628Y005544377D01*
G01*
X-05901600Y005551305D01*
G01*
X-05922208Y005559254D01*
G01*
X-05942400Y005568205D01*
G01*
X-05962129Y005578135D01*
G01*
X-05981346Y005589022D01*
G01*
X-06000007Y005600839D01*
G01*
X-06018065Y005613557D01*
G01*
X-06035477Y005627145D01*
G01*
X-06052202Y005641572D01*
G01*
X-06068198Y005656802D01*
G01*
X-06083428Y005672798D01*
G01*
X-06097855Y005689523D01*
G01*
X-06111443Y005706935D01*
G01*
X-06124161Y005724993D01*
G01*
X-06135978Y005743654D01*
G01*
X-06146865Y005762871D01*
G01*
X-06156795Y005782600D01*
G01*
X-06165746Y005802792D01*
G01*
X-06173695Y005823400D01*
G01*
X-06180623Y005844372D01*
G01*
X-06186514Y005865659D01*
G01*
X-06191353Y005887209D01*
G01*
X-06191805Y005889815D01*
G01*
X-08298592Y003783028D01*
G01*
X-08303825Y003777218D01*
G01*
X-08308426Y003770895D01*
G01*
X-08312342Y003764127D01*
G01*
X-08315533Y003756988D01*
G01*
X-08317963Y003749555D01*
G01*
X-08319606Y003741910D01*
G01*
X-08320444Y003734135D01*
G01*
X-08320452Y003731377D01*
G01*
X-08320342Y003729880D01*
G01*
X-08319800Y003707800D01*
G01*
X-08320342Y003685720D01*
G01*
X-08321967Y003663692D01*
G01*
X-08324671Y003641771D01*
G01*
X-08328447Y003620009D01*
G01*
X-08330597Y003610431D01*
G01*
X-08333286Y003598459D01*
G01*
X-08339177Y003577172D01*
G01*
X-08346105Y003556200D01*
G01*
X-08354054Y003535592D01*
G01*
X-08363005Y003515400D01*
G01*
X-08372935Y003495671D01*
G01*
X-08377774Y003487130D01*
G01*
X-08383822Y003476454D01*
G01*
X-08395639Y003457793D01*
G01*
X-08408357Y003439735D01*
G01*
X-08421945Y003422323D01*
G01*
X-08436372Y003405598D01*
G01*
X-08451602Y003389602D01*
G01*
X-08467598Y003374372D01*
G01*
X-08484323Y003359945D01*
G01*
X-08501735Y003346357D01*
G01*
X-08519793Y003333639D01*
G01*
X-08538454Y003321822D01*
G01*
X-08557671Y003310935D01*
G01*
X-08577400Y003301005D01*
G01*
X-08597592Y003292054D01*
G01*
X-08618200Y003284105D01*
G01*
X-08639172Y003277177D01*
G01*
X-08660459Y003271286D01*
G01*
X-08682009Y003266447D01*
G01*
X-08703771Y003262671D01*
G01*
X-08725692Y003259967D01*
G01*
X-08747720Y003258342D01*
G01*
X-08769800Y003257800D01*
G01*
X-08791880Y003258342D01*
G01*
X-08813908Y003259967D01*
G01*
X-08835829Y003262671D01*
G01*
X-08847919Y003264768D01*
G01*
X-08857591Y003266447D01*
G01*
X-08879141Y003271286D01*
G01*
X-08900428Y003277177D01*
G01*
X-08921400Y003284105D01*
G01*
X-08942008Y003292054D01*
G01*
X-08962200Y003301005D01*
G01*
X-08981929Y003310935D01*
G01*
X-09001146Y003321822D01*
G01*
X-09019807Y003333639D01*
G01*
X-09037865Y003346357D01*
G01*
X-09055277Y003359945D01*
G01*
X-09072002Y003374372D01*
G01*
X-09087998Y003389602D01*
G01*
X-09103228Y003405598D01*
G01*
X-09117655Y003422323D01*
G01*
X-09131243Y003439735D01*
G01*
X-09143961Y003457793D01*
G01*
X-09155778Y003476454D01*
G01*
X-09166665Y003495671D01*
G01*
X-09176595Y003515400D01*
G01*
X-09185546Y003535592D01*
G01*
X-09193495Y003556200D01*
G01*
X-09200423Y003577172D01*
G01*
X-09206314Y003598459D01*
G01*
X-09211153Y003620009D01*
G01*
X-09214929Y003641771D01*
G01*
X-09217633Y003663692D01*
G01*
X-09219258Y003685720D01*
G01*
X-09219800Y003707800D01*
G01*
X-09219258Y003729880D01*
G01*
X-09217633Y003751908D01*
G01*
X-09214929Y003773829D01*
G01*
X-09211153Y003795591D01*
G01*
X-09206314Y003817141D01*
G01*
X-09200423Y003838428D01*
G01*
X-09193495Y003859400D01*
G01*
X-09185546Y003880008D01*
G01*
X-09176595Y003900200D01*
G01*
X-09166665Y003919929D01*
G01*
X-09155778Y003939146D01*
G01*
X-09143961Y003957807D01*
G01*
X-09131243Y003975865D01*
G01*
X-09117655Y003993277D01*
G01*
X-09103228Y004010002D01*
G01*
X-09087998Y004025998D01*
G01*
X-09072002Y004041228D01*
G01*
X-09062710Y004049243D01*
G01*
X-09055277Y004055655D01*
G01*
X-09037865Y004069243D01*
G01*
X-09019807Y004081961D01*
G01*
X-09001146Y004093778D01*
G01*
X-08981929Y004104665D01*
G01*
X-08962200Y004114595D01*
G01*
X-08942008Y004123546D01*
G01*
X-08921400Y004131495D01*
G01*
X-08900428Y004138423D01*
G01*
X-08879141Y004144314D01*
G01*
X-08867169Y004147003D01*
G01*
X-08857591Y004149153D01*
G01*
X-08835829Y004152929D01*
G01*
X-08813908Y004155633D01*
G01*
X-08791880Y004157258D01*
G01*
X-08769800Y004157800D01*
G01*
X-08747720Y004157258D01*
G01*
X-08745809Y004157117D01*
G01*
X-08744333Y004157113D01*
G01*
X-08737410Y004157737D01*
G01*
X-08730574Y004159000D01*
G01*
X-08723884Y004160891D01*
G01*
X-08717399Y004163393D01*
G01*
X-08711172Y004166484D01*
G01*
X-08705259Y004170139D01*
G01*
X-08699710Y004174326D01*
G01*
X-08694572Y004179008D01*
G37*
D25*
G36*
X-00196921Y-07931091D02*
G01*
X-00199178Y-07939056D01*
G01*
X-00200543Y-07947222D01*
G01*
X-00201000Y-07955489D01*
G01*
X-00201000Y-08556025D01*
G01*
X000162591Y-08192434D01*
G01*
X000166328Y-08185011D01*
G01*
X000174795Y-08170064D01*
G01*
X000175570Y-08168840D01*
G01*
X000176642Y-08166061D01*
G01*
X000183604Y-08150356D01*
G01*
X000191328Y-08135011D01*
G01*
X000199795Y-08120064D01*
G01*
X000200570Y-08118840D01*
G01*
X000201642Y-08116061D01*
G01*
X000208604Y-08100356D01*
G01*
X000216328Y-08085011D01*
G01*
X000224795Y-08070064D01*
G01*
X000225000Y-08069740D01*
G01*
X000225000Y-07453916D01*
G01*
X-00135299Y-07814215D01*
G01*
X-00141384Y-07821098D01*
G01*
X-00146141Y-07828031D01*
G01*
X-00152845Y-07839866D01*
G01*
X-00154285Y-07842647D01*
G01*
X-00154469Y-07843124D01*
G01*
X-00161908Y-07859906D01*
G01*
X-00170161Y-07876302D01*
G01*
X-00177822Y-07889825D01*
G01*
X-00179295Y-07892673D01*
G01*
X-00179469Y-07893124D01*
G01*
X-00186908Y-07909906D01*
G01*
X-00194169Y-07924330D01*
G01*
X-00196921Y-07931091D01*
G37*
D10*
X-06178200Y006299400D02*
X-08769800Y003707800D01*
D16*
X-08769800Y003707800D03*
D11*
X002867000Y-05500000D02*
X002867000Y-04382600D01*
D11*
X002867000Y-04382600D02*
X-03828300Y002312700D01*
D11*
X-03828300Y002312700D02*
X-03828300Y003563500D01*
D16*
X002867000Y-05500000D03*
D16*
X-03828300Y003563500D03*
D10*
X004599500Y006208200D02*
X004284590Y006208200D01*
D10*
X004599500Y004550000D02*
X004599500Y006208200D01*
D16*
X004599500Y006208200D03*
D10*
X003210752Y004675848D02*
X003336600Y004550000D01*
D10*
X003336600Y004550000D02*
X003500000Y004550000D01*
D11*
X011787000Y006588200D02*
X011579500Y006588200D01*
D11*
X010686400Y-10685900D02*
X010686400Y005487600D01*
D11*
X010686400Y005487600D02*
X011787000Y006588200D01*
D16*
X011787000Y006588200D03*
D16*
X010686400Y-10685900D03*
D10*
X001500000Y000100000D02*
X-04215000Y005815000D01*
D11*
X003930400Y-13301800D02*
X003930400Y-10497300D01*
D11*
X003930400Y-10497300D02*
X004061900Y-10365800D01*
D11*
X-04334200Y-04238200D02*
X-04334200Y-10175000D01*
D11*
X-04334200Y-10175000D02*
X-03092100Y-11417100D01*
D16*
X004061900Y-10365800D03*
D16*
X003930400Y-13301800D03*
D16*
X-04334200Y-04238200D03*
D16*
X-03092100Y-11417100D03*
D10*
X001500000Y001300000D02*
X002209000Y001300000D01*
D10*
X002209000Y001300000D02*
X002535000Y000974000D01*
D10*
X002535000Y000974000D02*
X002535000Y-02662000D01*
D10*
X002535000Y-02662000D02*
X004500700Y-04627700D01*
D10*
X004500700Y-04627700D02*
X004500700Y-08565000D01*
D16*
X004500700Y-08565000D03*
D10*
X003950000Y-07499600D02*
X004181400Y-07268200D01*
D10*
X004181400Y-07268200D02*
X004181400Y-05017800D01*
D10*
X004181400Y-05017800D02*
X002050000Y-02886400D01*
D10*
X002050000Y-02886400D02*
X002050000Y000699900D01*
D10*
X003435100Y-01264900D02*
X004052400Y-01882200D01*
D10*
X004052400Y-01882200D02*
X004572300Y-01882200D01*
D10*
X004572300Y-01882200D02*
X006211900Y-00242600D01*
D10*
X006211900Y-00242600D02*
X006211900Y004582600D01*
D10*
X006211900Y004582600D02*
X006553800Y004924500D01*
D10*
X006553800Y004924500D02*
X006974600Y004924500D01*
D10*
X006974600Y004924500D02*
X007342700Y004556400D01*
D10*
X007342700Y004556400D02*
X007342700Y001547300D01*
D10*
X007342700Y001547300D02*
X008044800Y000845200D01*
D10*
X008044800Y000845200D02*
X008330500Y000845200D01*
D10*
X002910900Y004184200D02*
X003089500Y004184200D01*
D10*
X003089500Y004184200D02*
X005512900Y001760800D01*
D10*
X005512900Y001760800D02*
X005512900Y000812900D01*
D10*
X005512900Y000812900D02*
X003435100Y-01264900D01*
D10*
X003300000Y-01400000D02*
X003435100Y-01264900D01*
D16*
X008330500Y000845200D03*
D16*
X002910900Y004184200D03*
D10*
X003084700Y005483000D02*
X003343000Y005483000D01*
D10*
X003343000Y005483000D02*
X004049800Y004776200D01*
D10*
X004049800Y004776200D02*
X004049800Y004377800D01*
D10*
X004049800Y004377800D02*
X005892900Y002534700D01*
D10*
X005892900Y002534700D02*
X005892900Y000192900D01*
D10*
X005892900Y000192900D02*
X004300000Y-01400000D01*
D16*
X003084700Y005483000D03*
D10*
X-05556800Y-08260100D02*
X-05556800Y-13999200D01*
D10*
X006199200Y-11675500D02*
X006199200Y-11755000D01*
D10*
X006199200Y-11755000D02*
X003955000Y-13999200D01*
D10*
X006199200Y-01450000D02*
X006199200Y-11675500D01*
D16*
X-05556800Y-08260100D03*
D16*
X-05556800Y-13999200D03*
D16*
X003955000Y-13999200D03*
D16*
X006199200Y-11675500D03*
D10*
X005637600Y-11181800D02*
X005732300Y-11087100D01*
D10*
X005732300Y-11087100D02*
X005732300Y-02066400D01*
D10*
X005732300Y-02066400D02*
X005619200Y-01953300D01*
D16*
X005637600Y-11181800D03*
D16*
X005619200Y-01953300D03*
D10*
X009389400Y002887600D02*
X009389400Y003417500D01*
D10*
X009389400Y003417500D02*
X005825900Y006981000D01*
D10*
X005825900Y006981000D02*
X002879900Y006981000D01*
D10*
X-00536100Y002844300D02*
X-00536100Y006850000D01*
D16*
X002879900Y006981000D03*
D16*
X009389400Y002887600D03*
D16*
X-00536100Y002844300D03*
D16*
X-00536100Y006850000D03*
D10*
X006800000Y004400000D02*
X006800000Y-15362500D01*
D10*
X006800000Y-15362500D02*
X008098400Y-16660900D01*
D16*
X008098400Y-16660900D03*
D10*
X005500000Y004750000D02*
X005986200Y005236200D01*
D10*
X005986200Y005236200D02*
X007103600Y005236200D01*
D10*
X007103600Y005236200D02*
X008812200Y003527600D01*
D10*
X008812200Y003527600D02*
X008812200Y-13862500D01*
D16*
X008812200Y-13862500D03*
D10*
X002193300Y-11793300D02*
X002193300Y-04251900D01*
D10*
X002193300Y-04251900D02*
X-04415200Y002356600D01*
D16*
X002193300Y-11793300D03*
D16*
X-04415200Y002356600D03*
D16*
X001500000Y001300000D03*
D16*
X002050000Y000699900D03*
D16*
X001500000Y000100000D03*
D16*
X003300000Y-01400000D03*
D16*
X004300000Y-01400000D03*
D16*
X006199196Y-01450000D03*
D16*
X007950000Y000300104D03*
D16*
X008100000Y001500000D03*
D16*
X003500000Y004550000D03*
D16*
X004599504Y004550000D03*
D16*
X005500000Y004750000D03*
D16*
X006800000Y004400000D03*
D16*
X003950000Y-07499593D03*
D12*
X000400000Y-04550000D02*
X000400000Y-06750000D01*
D12*
X000400000Y-06750000D02*
X-00475000Y-07625000D01*
D12*
X-00475000Y-07625000D02*
X-00475000Y-07650000D01*
D12*
X-00475000Y-07650000D02*
X-00500000Y-07675000D01*
D12*
X-00500000Y-07675000D02*
X-00500000Y-07700000D01*
D12*
X-00500000Y-07700000D02*
X-00525000Y-07725000D01*
D12*
X-00525000Y-07725000D02*
X-00525000Y-07750000D01*
D12*
X-00525000Y-07750000D02*
X-00550000Y-07775000D01*
D12*
X-00550000Y-07775000D02*
X-00550000Y-07800000D01*
D12*
X-00550000Y-07800000D02*
X-00575000Y-07825000D01*
D12*
X-00575000Y-07825000D02*
X-00575000Y-10175000D01*
D12*
X-00575000Y-10175000D02*
X-00600000Y-10200000D01*
D12*
X-00600000Y-10200000D02*
X-00600000Y-10250000D01*
D12*
X-00600000Y-10250000D02*
X-00625000Y-10275000D01*
D12*
X-00625000Y-10275000D02*
X-00625000Y-10300000D01*
D12*
X-00625000Y-10300000D02*
X-00650000Y-10325000D01*
D12*
X-00650000Y-10325000D02*
X-00650000Y-10350000D01*
D12*
X-00650000Y-10350000D02*
X-00675000Y-10375000D01*
D12*
X-00675000Y-10375000D02*
X-00675000Y-10400000D01*
D12*
X-00675000Y-10400000D02*
X-00700000Y-10425000D01*
D12*
X-00700000Y-10425000D02*
X-00700000Y-10450000D01*
D12*
X-00700000Y-10450000D02*
X-00725000Y-10475000D01*
D12*
X-00725000Y-10475000D02*
X-00725000Y-10525000D01*
D12*
X-00725000Y-10525000D02*
X-00750000Y-10550000D01*
D12*
X-00750000Y-10550000D02*
X-00750000Y-10575000D01*
D12*
X-00750000Y-10575000D02*
X-00775000Y-10600000D01*
D12*
X-00775000Y-10600000D02*
X-00775000Y-10625000D01*
D12*
X-00775000Y-10625000D02*
X-00800000Y-10650000D01*
D12*
X-00800000Y-10650000D02*
X-00800000Y-10675000D01*
D12*
X-00800000Y-10675000D02*
X-00825000Y-10700000D01*
D12*
X-00825000Y-10700000D02*
X-00825000Y-10725000D01*
D12*
X-00825000Y-10725000D02*
X-00850000Y-10750000D01*
D12*
X-00850000Y-10750000D02*
X-00850000Y-10800000D01*
D12*
X-00850000Y-10800000D02*
X-00875000Y-10825000D01*
D12*
X-00875000Y-10825000D02*
X-00875000Y-10850000D01*
D12*
X-00875000Y-10850000D02*
X-00900000Y-10875000D01*
D12*
X-00900000Y-10875000D02*
X-00900000Y-10900000D01*
D12*
X-00900000Y-10900000D02*
X-00925000Y-10925000D01*
D12*
X-00925000Y-10925000D02*
X-00925000Y-10950000D01*
D12*
X-00925000Y-10950000D02*
X-00950000Y-10975000D01*
D12*
X-00950000Y-10975000D02*
X-00950000Y-11000000D01*
D12*
X-00950000Y-11000000D02*
X-00975000Y-11025000D01*
D12*
X-00975000Y-11025000D02*
X-00975000Y-11075000D01*
D12*
X-00975000Y-11075000D02*
X-01000000Y-11100000D01*
D12*
X-01000000Y-11100000D02*
X-01000000Y-11125000D01*
D12*
X-01000000Y-11125000D02*
X-01025000Y-11150000D01*
D12*
X-01025000Y-11150000D02*
X-01025000Y-11175000D01*
D12*
X-01025000Y-11175000D02*
X-01050000Y-11200000D01*
D12*
X-01050000Y-11200000D02*
X-01050000Y-11225000D01*
D12*
X-01050000Y-11225000D02*
X-01075000Y-11250000D01*
D12*
X-01075000Y-11250000D02*
X-01075000Y-11275000D01*
D12*
X-01075000Y-11275000D02*
X-01100000Y-11300000D01*
D12*
X-01100000Y-11300000D02*
X-01100000Y-11350000D01*
D12*
X-01100000Y-11350000D02*
X-01125000Y-11375000D01*
D12*
X-01125000Y-11375000D02*
X-01125000Y-11400000D01*
D12*
X-01125000Y-11400000D02*
X-01150000Y-11425000D01*
D12*
X-01150000Y-11425000D02*
X-01150000Y-11450000D01*
D12*
X-01150000Y-11450000D02*
X-01175000Y-11475000D01*
D12*
X-01175000Y-11475000D02*
X-01175000Y-11500000D01*
D12*
X-01175000Y-11500000D02*
X-01200000Y-11525000D01*
D12*
X-01200000Y-11525000D02*
X-01200000Y-11550000D01*
D12*
X-01200000Y-11550000D02*
X-01225000Y-11575000D01*
D12*
X-01225000Y-11575000D02*
X-01225000Y-11625000D01*
D12*
X-01225000Y-11625000D02*
X-01250000Y-11650000D01*
D12*
X-01250000Y-11650000D02*
X-01250000Y-11675000D01*
D12*
X-01250000Y-11675000D02*
X-01275000Y-11700000D01*
D12*
X-01275000Y-11700000D02*
X-01275000Y-11725000D01*
D12*
X-01275000Y-11725000D02*
X-01300000Y-11750000D01*
D12*
X-01300000Y-11750000D02*
X-01300000Y-11775000D01*
D12*
X-01300000Y-11775000D02*
X-01325000Y-11800000D01*
D12*
X-01325000Y-11800000D02*
X-01325000Y-11825000D01*
D12*
X-01325000Y-11825000D02*
X-01350000Y-11850000D01*
D12*
X-01350000Y-11850000D02*
X-01350000Y-11900000D01*
D12*
X-01350000Y-11900000D02*
X-01375000Y-11925000D01*
D12*
X-01375000Y-11925000D02*
X-01375000Y-11950000D01*
D12*
X-01375000Y-11950000D02*
X-01400000Y-11975000D01*
D12*
X-01400000Y-11975000D02*
X-01400000Y-12000000D01*
D12*
X-01400000Y-12000000D02*
X-01425000Y-12025000D01*
D12*
X-01425000Y-12025000D02*
X-01425000Y-12050000D01*
D12*
X-01425000Y-12050000D02*
X-01450000Y-12075000D01*
D12*
X-01450000Y-12075000D02*
X-01450000Y-12100000D01*
D12*
X-01450000Y-12100000D02*
X-01475000Y-12125000D01*
D12*
X-01475000Y-12125000D02*
X-01475000Y-12175000D01*
D12*
X-01475000Y-12175000D02*
X-01500000Y-12200000D01*
D12*
X-01500000Y-12200000D02*
X-01500000Y-12225000D01*
D12*
X-01500000Y-12225000D02*
X-01525000Y-12250000D01*
D12*
X-01525000Y-12250000D02*
X-01525000Y-12275000D01*
D12*
X-01525000Y-12275000D02*
X-01550000Y-12300000D01*
D12*
X-01550000Y-12300000D02*
X-01550000Y-12325000D01*
D12*
X-01550000Y-12325000D02*
X-01575000Y-12350000D01*
D12*
X-01575000Y-12350000D02*
X-01575000Y-12375000D01*
D12*
X-01575000Y-12375000D02*
X-01600000Y-12400000D01*
D12*
X-01600000Y-12400000D02*
X-01600000Y-12450000D01*
D12*
X-01600000Y-12450000D02*
X-01625000Y-12475000D01*
D12*
X-01625000Y-12475000D02*
X-01625000Y-12500000D01*
D12*
X-01625000Y-12500000D02*
X-01650000Y-12525000D01*
D12*
X-01650000Y-12525000D02*
X-01650000Y-12550000D01*
D12*
X-01650000Y-12550000D02*
X-01675000Y-12575000D01*
D12*
X-01675000Y-12575000D02*
X-01675000Y-12600000D01*
D12*
X-01675000Y-12600000D02*
X-01700000Y-12625000D01*
D12*
X-01700000Y-12625000D02*
X-01700000Y-12650000D01*
D12*
X-01700000Y-12650000D02*
X-01725000Y-12675000D01*
D12*
X-01725000Y-12675000D02*
X-01725000Y-12725000D01*
D12*
X-01725000Y-12725000D02*
X-01750000Y-12750000D01*
D12*
X-01750000Y-12750000D02*
X-01750000Y-12775000D01*
D12*
X-01750000Y-12775000D02*
X-01775000Y-12800000D01*
D12*
X-01775000Y-12800000D02*
X-01775000Y-12825000D01*
D12*
X-01775000Y-12825000D02*
X-01800000Y-12850000D01*
D12*
X-01800000Y-12850000D02*
X-01800000Y-12875000D01*
D12*
X-01800000Y-12875000D02*
X-01825000Y-12900000D01*
D12*
X-01825000Y-12900000D02*
X-01825000Y-12925000D01*
D12*
X-01825000Y-12925000D02*
X-01850000Y-12950000D01*
D12*
X-01850000Y-12950000D02*
X-01850000Y-13000000D01*
D12*
X-01850000Y-13000000D02*
X-01875000Y-13025000D01*
D12*
X-01875000Y-13025000D02*
X-01875000Y-13050000D01*
D12*
X-01875000Y-13050000D02*
X-01900000Y-13075000D01*
D12*
X-01900000Y-13075000D02*
X-01900000Y-13100000D01*
D12*
X-01900000Y-13100000D02*
X-01925000Y-13125000D01*
D12*
X-01925000Y-13125000D02*
X-01925000Y-13150000D01*
D12*
X-01925000Y-13150000D02*
X-01950000Y-13175000D01*
D12*
X-01950000Y-13175000D02*
X-01950000Y-13200000D01*
D12*
X-01950000Y-13200000D02*
X-01975000Y-13225000D01*
D12*
X-01975000Y-13225000D02*
X-01975000Y-13275000D01*
D12*
X-01975000Y-13275000D02*
X-02000000Y-13300000D01*
D12*
X-02000000Y-13300000D02*
X-02000000Y-13325000D01*
D12*
X-02000000Y-13325000D02*
X-02025000Y-13350000D01*
D12*
X-02025000Y-13350000D02*
X-02025000Y-13375000D01*
D12*
X-02025000Y-13375000D02*
X-02050000Y-13400000D01*
D12*
X-02050000Y-13400000D02*
X-02050000Y-13425000D01*
D12*
X-02050000Y-13425000D02*
X-02075000Y-13450000D01*
D12*
X-02075000Y-13450000D02*
X-02075000Y-13475000D01*
D12*
X-02075000Y-13475000D02*
X-02100000Y-13500000D01*
D12*
X-02100000Y-13500000D02*
X-02100000Y-13525000D01*
D12*
X-02100000Y-13525000D02*
X-02125000Y-13550000D01*
D12*
X-02125000Y-13550000D02*
X-02125000Y-13600000D01*
D12*
X-02125000Y-13600000D02*
X-02150000Y-13625000D01*
D12*
X-02150000Y-13625000D02*
X-02150000Y-13650000D01*
D12*
X-02150000Y-13650000D02*
X-02175000Y-13675000D01*
D12*
X-02175000Y-13675000D02*
X-02175000Y-13700000D01*
D12*
X-02175000Y-13700000D02*
X-02200000Y-13725000D01*
D12*
X-02200000Y-13725000D02*
X-02200000Y-13750000D01*
D12*
X-02200000Y-13750000D02*
X-02225000Y-13775000D01*
D12*
X-02225000Y-13775000D02*
X-02225000Y-13800000D01*
D12*
X-02225000Y-13800000D02*
X-02250000Y-13825000D01*
D12*
X-02250000Y-13825000D02*
X-02250000Y-13875000D01*
D12*
X-02250000Y-13875000D02*
X-02275000Y-13900000D01*
D12*
X-02275000Y-13900000D02*
X-02275000Y-13925000D01*
D12*
X-02275000Y-13925000D02*
X-02300000Y-13950000D01*
D12*
X-02300000Y-13950000D02*
X-02300000Y-13975000D01*
D12*
X-02300000Y-13975000D02*
X-02325000Y-14000000D01*
D16*
X000400000Y-04550000D03*
D12*
X-00400000Y-04550000D02*
X-00400000Y-04500000D01*
D12*
X-00400000Y-04500000D02*
X000025000Y-04075000D01*
D12*
X000025000Y-04075000D02*
X000050000Y-04075000D01*
D12*
X000050000Y-04075000D02*
X000075000Y-04050000D01*
D12*
X000075000Y-04050000D02*
X000100000Y-04050000D01*
D12*
X000100000Y-04050000D02*
X000125000Y-04025000D01*
D12*
X000125000Y-04025000D02*
X000150000Y-04025000D01*
D12*
X000150000Y-04025000D02*
X000175000Y-04000000D01*
D12*
X000175000Y-04000000D02*
X000200000Y-04000000D01*
D12*
X000200000Y-04000000D02*
X000225000Y-03975000D01*
D12*
X000225000Y-03975000D02*
X000575000Y-03975000D01*
D12*
X000575000Y-03975000D02*
X000600000Y-04000000D01*
D12*
X000600000Y-04000000D02*
X000625000Y-04000000D01*
D12*
X000625000Y-04000000D02*
X000650000Y-04025000D01*
D12*
X000650000Y-04025000D02*
X000675000Y-04025000D01*
D12*
X000675000Y-04025000D02*
X000700000Y-04050000D01*
D12*
X000700000Y-04050000D02*
X000725000Y-04050000D01*
D12*
X000725000Y-04050000D02*
X000750000Y-04075000D01*
D12*
X000750000Y-04075000D02*
X000775000Y-04075000D01*
D12*
X000775000Y-04075000D02*
X000875000Y-04175000D01*
D12*
X000875000Y-04175000D02*
X000875000Y-04200000D01*
D12*
X000875000Y-04200000D02*
X000900000Y-04225000D01*
D12*
X000900000Y-04225000D02*
X000900000Y-04250000D01*
D12*
X000900000Y-04250000D02*
X000925000Y-04275000D01*
D12*
X000925000Y-04275000D02*
X000925000Y-04300000D01*
D12*
X000925000Y-04300000D02*
X000950000Y-04325000D01*
D12*
X000950000Y-04325000D02*
X000950000Y-04350000D01*
D12*
X000950000Y-04350000D02*
X000975000Y-04375000D01*
D16*
X-00400000Y-04550000D03*
D11*
X003650000Y-06500000D02*
X003375000Y-06775000D01*
D16*
X003650000Y-06500000D03*
D11*
X-03500000Y-06500000D02*
X-03200000Y-06500000D01*
D16*
X-03500000Y-06500000D03*
D11*
X-02325000Y-14000000D02*
X-03025000Y-14700000D01*
D11*
X-03025000Y-14700000D02*
X-03050000Y-14700000D01*
D11*
X-03050000Y-14700000D02*
X-03100000Y-14750000D01*
D11*
X-03100000Y-14750000D02*
X-03150000Y-14750000D01*
D11*
X-03150000Y-14750000D02*
X-03200000Y-14800000D01*
D11*
X-03200000Y-14800000D02*
X-03225000Y-14800000D01*
D11*
X-03225000Y-14800000D02*
X-04125000Y-15700000D01*
D11*
X-04125000Y-15700000D02*
X-04500000Y-15700000D01*
D11*
X003375000Y-06775000D02*
X002800000Y-07350000D01*
D11*
X002800000Y-07350000D02*
X002800000Y-14150000D01*
D11*
X002800000Y-14150000D02*
X002775000Y-14175000D01*
D11*
X002775000Y-14175000D02*
X002775000Y-14225000D01*
D11*
X002775000Y-14225000D02*
X002750000Y-14250000D01*
D11*
X002750000Y-14250000D02*
X002750000Y-14275000D01*
D11*
X002750000Y-14275000D02*
X002450000Y-14575000D01*
D11*
X002450000Y-14575000D02*
X-00725000Y-14575000D01*
D11*
X-00725000Y-14575000D02*
X-00750000Y-14600000D01*
D11*
X-00750000Y-14600000D02*
X-00825000Y-14600000D01*
D11*
X-00825000Y-14600000D02*
X-00875000Y-14650000D01*
D11*
X-00875000Y-14650000D02*
X-00975000Y-14650000D01*
D11*
X-00975000Y-14650000D02*
X-01025000Y-14700000D01*
D11*
X-01025000Y-14700000D02*
X-01050000Y-14700000D01*
D11*
X-01050000Y-14700000D02*
X-01100000Y-14750000D01*
D11*
X-01100000Y-14750000D02*
X-01150000Y-14750000D01*
D11*
X-01150000Y-14750000D02*
X-01200000Y-14800000D01*
D11*
X-01200000Y-14800000D02*
X-01225000Y-14800000D01*
D11*
X-01225000Y-14800000D02*
X-02125000Y-15700000D01*
D11*
X-02125000Y-15700000D02*
X-02500000Y-15700000D01*
D11*
X000975000Y-04375000D02*
X000975000Y-04725000D01*
D11*
X000975000Y-04725000D02*
X000950000Y-04750000D01*
D11*
X000950000Y-04750000D02*
X000950000Y-04775000D01*
D11*
X000950000Y-04775000D02*
X000925000Y-04800000D01*
D11*
X000925000Y-04800000D02*
X000925000Y-04825000D01*
D11*
X000925000Y-04825000D02*
X000900000Y-04850000D01*
D11*
X000900000Y-04850000D02*
X000900000Y-06900000D01*
D11*
X000900000Y-06900000D02*
X000875000Y-06925000D01*
D11*
X000875000Y-06925000D02*
X000875000Y-06975000D01*
D11*
X000875000Y-06975000D02*
X000850000Y-07000000D01*
D11*
X000850000Y-07000000D02*
X000850000Y-07025000D01*
D11*
X000850000Y-07025000D02*
X000800000Y-07075000D01*
D11*
X000800000Y-07075000D02*
X000800000Y-07100000D01*
D11*
X000800000Y-07100000D02*
X000575000Y-07325000D01*
D11*
X000575000Y-07325000D02*
X000575000Y-08175000D01*
D11*
X000575000Y-08175000D02*
X000550000Y-08200000D01*
D11*
X000550000Y-08200000D02*
X000550000Y-08225000D01*
D11*
X000550000Y-08225000D02*
X000525000Y-08250000D01*
D11*
X000525000Y-08250000D02*
X000525000Y-08275000D01*
D11*
X000525000Y-08275000D02*
X000500000Y-08300000D01*
D11*
X000500000Y-08300000D02*
X000500000Y-08325000D01*
D11*
X000500000Y-08325000D02*
X000475000Y-08350000D01*
D11*
X000475000Y-08350000D02*
X000475000Y-08375000D01*
D11*
X000475000Y-08375000D02*
X-00075000Y-08925000D01*
D11*
X-00075000Y-08925000D02*
X-00075000Y-10325000D01*
D11*
X-00075000Y-10325000D02*
X-00100000Y-10350000D01*
D11*
X-00100000Y-10350000D02*
X-00100000Y-10400000D01*
D11*
X-00100000Y-10400000D02*
X-00125000Y-10425000D01*
D11*
X-00125000Y-10425000D02*
X-00125000Y-10475000D01*
D11*
X-00125000Y-10475000D02*
X-00150000Y-10500000D01*
D11*
X-00150000Y-10500000D02*
X-00150000Y-10525000D01*
D11*
X-00150000Y-10525000D02*
X-00175000Y-10550000D01*
D11*
X-00175000Y-10550000D02*
X-00175000Y-10575000D01*
D11*
X-00175000Y-10575000D02*
X-00200000Y-10600000D01*
D11*
X-00200000Y-10600000D02*
X-00200000Y-10625000D01*
D11*
X-00200000Y-10625000D02*
X-00225000Y-10650000D01*
D11*
X-00225000Y-10650000D02*
X-00225000Y-10675000D01*
D11*
X-00225000Y-10675000D02*
X-00250000Y-10700000D01*
D11*
X-00250000Y-10700000D02*
X-00250000Y-10750000D01*
D11*
X-00250000Y-10750000D02*
X-00275000Y-10775000D01*
D11*
X-00275000Y-10775000D02*
X-00275000Y-10800000D01*
D11*
X-00275000Y-10800000D02*
X-00300000Y-10825000D01*
D11*
X-00300000Y-10825000D02*
X-00300000Y-10850000D01*
D11*
X-00300000Y-10850000D02*
X-00325000Y-10875000D01*
D11*
X-00325000Y-10875000D02*
X-00325000Y-10900000D01*
D11*
X-00325000Y-10900000D02*
X-00350000Y-10925000D01*
D11*
X-00350000Y-10925000D02*
X-00350000Y-10950000D01*
D11*
X-00350000Y-10950000D02*
X-00375000Y-10975000D01*
D11*
X-00375000Y-10975000D02*
X-00375000Y-11025000D01*
D11*
X-00375000Y-11025000D02*
X-00400000Y-11050000D01*
D11*
X-00400000Y-11050000D02*
X-00400000Y-11075000D01*
D11*
X-00400000Y-11075000D02*
X-00425000Y-11100000D01*
D11*
X-00425000Y-11100000D02*
X-00425000Y-11125000D01*
D11*
X-00425000Y-11125000D02*
X-00450000Y-11150000D01*
D11*
X-00450000Y-11150000D02*
X-00450000Y-11175000D01*
D11*
X-00450000Y-11175000D02*
X-00475000Y-11200000D01*
D11*
X-00475000Y-11200000D02*
X-00475000Y-11225000D01*
D11*
X-00475000Y-11225000D02*
X-00500000Y-11250000D01*
D11*
X-00500000Y-11250000D02*
X-00500000Y-13250000D01*
D11*
X-00500000Y-13250000D02*
X-01750000Y-14500000D01*
D16*
X-01750000Y-14500000D03*
D11*
X-03200000Y-06500000D02*
X-02500000Y-07200000D01*
D11*
X-02500000Y-07200000D02*
X-02500000Y-12075000D01*
D11*
X-02500000Y-12075000D02*
X-05425000Y-15000000D01*
D11*
X-05425000Y-15000000D02*
X-05425000Y-15025000D01*
D11*
X-05425000Y-15025000D02*
X-05450000Y-15050000D01*
D11*
X-05450000Y-15050000D02*
X-05450000Y-15075000D01*
D11*
X-05450000Y-15075000D02*
X-05475000Y-15100000D01*
D11*
X-05475000Y-15100000D02*
X-05475000Y-15125000D01*
D11*
X-05475000Y-15125000D02*
X-05500000Y-15150000D01*
D11*
X-05500000Y-15150000D02*
X-05500000Y-15175000D01*
D11*
X-05500000Y-15175000D02*
X-05550000Y-15225000D01*
D11*
X-05550000Y-15225000D02*
X-05550000Y-15300000D01*
D11*
X-05550000Y-15300000D02*
X-05575000Y-15325000D01*
D11*
X-05575000Y-15325000D02*
X-05575000Y-15350000D01*
D11*
X-05575000Y-15350000D02*
X-05600000Y-15375000D01*
D11*
X-05600000Y-15375000D02*
X-05600000Y-15450000D01*
D11*
X-05600000Y-15450000D02*
X-05625000Y-15475000D01*
D11*
X-05625000Y-15475000D02*
X-05625000Y-15925000D01*
D11*
X-05625000Y-15925000D02*
X-05600000Y-15950000D01*
D11*
X-05600000Y-15950000D02*
X-05600000Y-16025000D01*
D11*
X-05600000Y-16025000D02*
X-05575000Y-16050000D01*
D11*
X-05575000Y-16050000D02*
X-05575000Y-16075000D01*
D11*
X-05575000Y-16075000D02*
X-05550000Y-16100000D01*
D11*
X-05550000Y-16100000D02*
X-05550000Y-16175000D01*
D11*
X-05550000Y-16175000D02*
X-05500000Y-16225000D01*
D11*
X-05500000Y-16225000D02*
X-05500000Y-16250000D01*
D11*
X-05500000Y-16250000D02*
X-05475000Y-16275000D01*
D11*
X-05475000Y-16275000D02*
X-05475000Y-16300000D01*
D11*
X-05475000Y-16300000D02*
X-05450000Y-16325000D01*
D11*
X-05450000Y-16325000D02*
X-05450000Y-16350000D01*
D11*
X-05450000Y-16350000D02*
X-05425000Y-16375000D01*
D11*
X-05425000Y-16375000D02*
X-05425000Y-16400000D01*
D11*
X-05425000Y-16400000D02*
X-05225000Y-16600000D01*
D11*
X-05225000Y-16600000D02*
X-05200000Y-16600000D01*
D11*
X-05200000Y-16600000D02*
X-05150000Y-16650000D01*
D11*
X-05150000Y-16650000D02*
X-05100000Y-16650000D01*
D11*
X-05100000Y-16650000D02*
X-05050000Y-16700000D01*
D11*
X-05050000Y-16700000D02*
X-05025000Y-16700000D01*
D11*
X-05025000Y-16700000D02*
X-04975000Y-16750000D01*
D11*
X-04975000Y-16750000D02*
X-04875000Y-16750000D01*
D11*
X-04875000Y-16750000D02*
X-04825000Y-16800000D01*
D11*
X-04825000Y-16800000D02*
X-04750000Y-16800000D01*
D11*
X-04750000Y-16800000D02*
X-04725000Y-16825000D01*
D11*
X-04725000Y-16825000D02*
X-00275000Y-16825000D01*
D11*
X-00275000Y-16825000D02*
X-00250000Y-16800000D01*
D11*
X-00250000Y-16800000D02*
X-00175000Y-16800000D01*
D11*
X-00175000Y-16800000D02*
X-00125000Y-16750000D01*
D11*
X-00125000Y-16750000D02*
X-00025000Y-16750000D01*
D11*
X-00025000Y-16750000D02*
X000025000Y-16700000D01*
D11*
X000025000Y-16700000D02*
X000050000Y-16700000D01*
D11*
X000050000Y-16700000D02*
X000100000Y-16650000D01*
D11*
X000100000Y-16650000D02*
X000150000Y-16650000D01*
D11*
X000150000Y-16650000D02*
X000200000Y-16600000D01*
D11*
X000200000Y-16600000D02*
X000225000Y-16600000D01*
D11*
X000225000Y-16600000D02*
X001125000Y-15700000D01*
D11*
X001125000Y-15700000D02*
X001500000Y-15700000D01*
D18*
X-04500000Y-15700000D03*
D18*
X-02500000Y-15700000D03*
D18*
X-00500000Y-15700000D03*
D18*
X001500000Y-15700000D03*
D16*
X008350000Y006625000D03*
D10*
X007825000Y006200000D02*
X008050000Y006200000D01*
D10*
X008050000Y006200000D02*
X008075000Y006175000D01*
D10*
X008075000Y006175000D02*
X008100000Y006175000D01*
D10*
X008100000Y006175000D02*
X008125000Y006150000D01*
D10*
X008125000Y006150000D02*
X008150000Y006150000D01*
D10*
X008150000Y006150000D02*
X008175000Y006125000D01*
D10*
X008175000Y006125000D02*
X008300000Y006125000D01*
D10*
X008300000Y006125000D02*
X008325000Y006100000D01*
D10*
X008325000Y006100000D02*
X008375000Y006100000D01*
D10*
X008375000Y006100000D02*
X008400000Y006125000D01*
D10*
X008400000Y006125000D02*
X008525000Y006125000D01*
D10*
X008525000Y006125000D02*
X008550000Y006150000D01*
D10*
X008550000Y006150000D02*
X008575000Y006150000D01*
D10*
X008575000Y006150000D02*
X008600000Y006175000D01*
D10*
X008600000Y006175000D02*
X008625000Y006175000D01*
D10*
X008625000Y006175000D02*
X008675000Y006225000D01*
D10*
X008675000Y006225000D02*
X008700000Y006225000D01*
D10*
X008700000Y006225000D02*
X008925000Y006450000D01*
D10*
X008925000Y006450000D02*
X010375000Y006450000D01*
D16*
X007825000Y006200000D03*
D10*
X008925000Y006450000D02*
X008875000Y006500000D01*
D10*
X008875000Y006500000D02*
X008875000Y006586631D01*
D13*
X004541800Y-10858800D02*
X005250600Y-10150000D01*
D13*
X005250600Y-10150000D02*
X005250600Y-08636500D01*
D13*
X004796500Y-03935000D02*
X005250600Y-04389100D01*
D13*
X005250600Y-04389100D02*
X005250600Y-08636500D01*
D14*
X012828000Y006309700D02*
X012828000Y004869000D01*
D10*
X004914300Y001499700D02*
X000974900Y005439100D01*
D10*
X000974900Y005439100D02*
X000974900Y005481600D01*
D13*
X005019112Y001499746D02*
X005019100Y001499700D01*
D13*
X005019100Y001499700D02*
X004914300Y001499700D01*
D13*
X003213100Y-00637300D02*
X004914300Y001063900D01*
D13*
X004914300Y001063900D02*
X004914300Y001499700D01*
D13*
X000974900Y005481600D02*
X000890400Y005481600D01*
D13*
X-10599873Y005700000D02*
X-10599900Y005700000D01*
D13*
X-10599900Y005700000D02*
X-09625100Y006674800D01*
D16*
X004541800Y-10858800D03*
D16*
X005250600Y-08636500D03*
D16*
X004796500Y-03935000D03*
D16*
X012828000Y004869000D03*
D16*
X003213100Y-00637300D03*
D16*
X000890400Y005481600D03*
D16*
X-10599873Y005700000D03*
D16*
X005019112Y001499746D03*
D16*
X-00000027Y-07999973D03*
D10*
X011787000Y006588200D02*
X011780277Y006902952D01*
%ADD26C,1.199998*%
D26*
X-11325112Y015624101D03*
X-11325112Y015624101D02*
X-11325112Y015024103D01*
X-11325112Y015024103D03*
D26*
X-11325112Y011544277D03*
X-11325112Y011544277D02*
X-11325112Y010744279D01*
X-11325112Y010744279D03*
D26*
X-02674888Y011544277D03*
X-02674888Y011544277D02*
X-02674888Y010744279D01*
X-02674888Y010744279D03*
D26*
X-02674888Y015624101D03*
X-02674888Y015624101D02*
X-02674888Y015024103D01*
X-02674888Y015024103D03*
D26*
X002674888Y015624101D03*
X002674888Y015624101D02*
X002674888Y015024103D01*
X002674888Y015024103D03*
D26*
X002674888Y011544277D03*
X002674888Y011544277D02*
X002674888Y010744279D01*
X002674888Y010744279D03*
D26*
X011325112Y011544277D03*
X011325112Y011544277D02*
X011325112Y010744279D01*
X011325112Y010744279D03*
D26*
X011325112Y015624101D03*
X011325112Y015624101D02*
X011325112Y015024103D01*
X011325112Y015024103D03*
D10*
X010375000Y006450000D02*
X010375000Y007275000D01*
D10*
X010375000Y007275000D02*
X010500000Y007400000D01*
D16*
X010500000Y007400000D03*
D10*
X007825000Y006200000D02*
X007800000Y006225000D01*
D10*
X007800000Y006225000D02*
X007800000Y008250000D01*
D16*
X007800000Y008250000D03*
D10*
X-06178200Y006299400D02*
X-08750000Y008875000D01*
D10*
X-08750000Y008875000D02*
X-08750000Y009250000D01*
D16*
X-08750000Y009250000D03*
D10*
X-05750000Y005975000D02*
X-05750000Y009250000D01*
D16*
X-05750000Y005975000D03*
D16*
X-05750000Y009250000D03*
D10*
X005925000Y009175000D02*
X006000000Y009250000D01*
D10*
X006000000Y009250000D02*
X008300000Y009250000D01*
D16*
X005925000Y009175000D03*
D16*
X008300000Y009250000D03*
D10*
X008500000Y008325000D02*
X008225000Y008600000D01*
D10*
X008225000Y008600000D02*
X008225000Y008625000D01*
D10*
X008225000Y008625000D02*
X008125000Y008725000D01*
D10*
X008125000Y008725000D02*
X008100000Y008725000D01*
D10*
X008100000Y008725000D02*
X008075000Y008750000D01*
D10*
X008075000Y008750000D02*
X008050000Y008750000D01*
D10*
X008050000Y008750000D02*
X008025000Y008775000D01*
D10*
X008025000Y008775000D02*
X008000000Y008775000D01*
D10*
X008000000Y008775000D02*
X007975000Y008800000D01*
D10*
X007975000Y008800000D02*
X006350000Y008800000D01*
D10*
X006350000Y008800000D02*
X006300000Y008750000D01*
D10*
X006300000Y008750000D02*
X006275000Y008750000D01*
D10*
X006275000Y008750000D02*
X006225000Y008700000D01*
D10*
X006225000Y008700000D02*
X006200000Y008700000D01*
D10*
X006200000Y008700000D02*
X006175000Y008675000D01*
D10*
X006175000Y008675000D02*
X006150000Y008675000D01*
D10*
X006150000Y008675000D02*
X006125000Y008650000D01*
D10*
X006125000Y008650000D02*
X006050000Y008650000D01*
D10*
X006050000Y008650000D02*
X006025000Y008625000D01*
D10*
X006025000Y008625000D02*
X005825000Y008625000D01*
D10*
X005825000Y008625000D02*
X005800000Y008650000D01*
D10*
X005800000Y008650000D02*
X005725000Y008650000D01*
D10*
X005725000Y008650000D02*
X005700000Y008675000D01*
D10*
X005700000Y008675000D02*
X005675000Y008675000D01*
D10*
X005675000Y008675000D02*
X005650000Y008700000D01*
D10*
X005650000Y008700000D02*
X005625000Y008700000D01*
D10*
X005625000Y008700000D02*
X005575000Y008750000D01*
D10*
X005575000Y008750000D02*
X005550000Y008750000D01*
D10*
X005550000Y008750000D02*
X005025000Y009275000D01*
D16*
X008500000Y008325000D03*
D16*
X005025000Y009275000D03*
D11*
X-03725000Y006075000D02*
X-04600000Y006950000D01*
D11*
X-04600000Y006950000D02*
X-04600000Y009250000D01*
D16*
X-03725000Y006075000D03*
D16*
X-04600000Y009250000D03*
D10*
X004225000Y009275000D02*
X004650000Y009700000D01*
D10*
X004650000Y009700000D02*
X004675000Y009700000D01*
D10*
X004675000Y009700000D02*
X004725000Y009750000D01*
D10*
X004725000Y009750000D02*
X004750000Y009750000D01*
D10*
X004750000Y009750000D02*
X004775000Y009775000D01*
D10*
X004775000Y009775000D02*
X004800000Y009775000D01*
D10*
X004800000Y009775000D02*
X004825000Y009800000D01*
D10*
X004825000Y009800000D02*
X004900000Y009800000D01*
D10*
X004900000Y009800000D02*
X004925000Y009825000D01*
D10*
X004925000Y009825000D02*
X005125000Y009825000D01*
D10*
X005125000Y009825000D02*
X005150000Y009800000D01*
D10*
X005150000Y009800000D02*
X008400000Y009800000D01*
D10*
X008400000Y009800000D02*
X008425000Y009775000D01*
D10*
X008425000Y009775000D02*
X008500000Y009775000D01*
D10*
X008500000Y009775000D02*
X008525000Y009750000D01*
D10*
X008525000Y009750000D02*
X008550000Y009750000D01*
D10*
X008550000Y009750000D02*
X008575000Y009725000D01*
D10*
X008575000Y009725000D02*
X008600000Y009725000D01*
D10*
X008600000Y009725000D02*
X008650000Y009675000D01*
D10*
X008650000Y009675000D02*
X008675000Y009675000D01*
D10*
X008675000Y009675000D02*
X009950000Y008400000D01*
D10*
X009950000Y008400000D02*
X010325000Y008400000D01*
D16*
X004225000Y009275000D03*
D16*
X010325000Y008400000D03*
D10*
X-04215000Y005815000D02*
X-05200000Y006800000D01*
D10*
X-05200000Y006800000D02*
X-05200000Y009350000D01*
D10*
X-05200000Y009350000D02*
X-05225000Y009375000D01*
D10*
X-05225000Y009375000D02*
X-05225000Y009450000D01*
D10*
X-05225000Y009450000D02*
X-05250000Y009475000D01*
D10*
X-05250000Y009475000D02*
X-05250000Y009500000D01*
D10*
X-05250000Y009500000D02*
X-05275000Y009525000D01*
D10*
X-05275000Y009525000D02*
X-05275000Y009550000D01*
D10*
X-05275000Y009550000D02*
X-05325000Y009600000D01*
D10*
X-05325000Y009600000D02*
X-05325000Y009625000D01*
D10*
X-05325000Y009625000D02*
X-05375000Y009675000D01*
D10*
X-05375000Y009675000D02*
X-05400000Y009675000D01*
D10*
X-05400000Y009675000D02*
X-05450000Y009725000D01*
D10*
X-05450000Y009725000D02*
X-05475000Y009725000D01*
D10*
X-05475000Y009725000D02*
X-05500000Y009750000D01*
D10*
X-05500000Y009750000D02*
X-05525000Y009750000D01*
D10*
X-05525000Y009750000D02*
X-05550000Y009775000D01*
D10*
X-05550000Y009775000D02*
X-05625000Y009775000D01*
D10*
X-05625000Y009775000D02*
X-05650000Y009800000D01*
D10*
X-05650000Y009800000D02*
X-05850000Y009800000D01*
D10*
X-05850000Y009800000D02*
X-05875000Y009775000D01*
D10*
X-05875000Y009775000D02*
X-05950000Y009775000D01*
D10*
X-05950000Y009775000D02*
X-05975000Y009750000D01*
D10*
X-05975000Y009750000D02*
X-06000000Y009750000D01*
D10*
X-06000000Y009750000D02*
X-06025000Y009725000D01*
D10*
X-06025000Y009725000D02*
X-06050000Y009725000D01*
D10*
X-06050000Y009725000D02*
X-06100000Y009675000D01*
D10*
X-06100000Y009675000D02*
X-06125000Y009675000D01*
D10*
X-06125000Y009675000D02*
X-07325000Y008475000D01*
D16*
X-07325000Y008475000D03*
D10*
X012828000Y006309700D02*
X012275000Y006850000D01*
D10*
X012275000Y006850000D02*
X012275000Y006875000D01*
D10*
X012275000Y006875000D02*
X012200000Y006950000D01*
D10*
X012200000Y006950000D02*
X012200000Y006975000D01*
D10*
X012200000Y006975000D02*
X012125000Y007050000D01*
D10*
X012125000Y007050000D02*
X012125000Y007100000D01*
D10*
X012125000Y007100000D02*
X012050000Y007175000D01*
D10*
X012050000Y007175000D02*
X012050000Y007200000D01*
D10*
X012050000Y007200000D02*
X011325000Y007925000D01*
D10*
X011325000Y007925000D02*
X011325112Y011144278D01*
D10*
X002674888Y015324102D02*
X002674888Y011144278D01*
D10*
X-09075000Y006700000D02*
X-09600000Y006700000D01*
D10*
X-09600000Y006700000D02*
X-09625100Y006674800D01*
D16*
X-09075000Y006700000D03*
D10*
X-00100000Y007400000D02*
X-00100000Y007200000D01*
D10*
X-00100000Y007200000D02*
X-00075000Y007175000D01*
D10*
X-00075000Y007175000D02*
X-00075000Y007150000D01*
D10*
X-00075000Y007150000D02*
X-00050000Y007125000D01*
D10*
X-00050000Y007125000D02*
X-00050000Y007100000D01*
D10*
X-00050000Y007100000D02*
X-00025000Y007075000D01*
D10*
X-00025000Y007075000D02*
X-00025000Y007050000D01*
D10*
X-00025000Y007050000D02*
X000000000Y007025000D01*
D10*
X000000000Y007025000D02*
X000000000Y006375000D01*
D10*
X000000000Y006375000D02*
X000890400Y005481600D01*
D16*
X-00100000Y007400000D03*
D10*
X002674888Y011144278D02*
X003500000Y010325000D01*
D10*
X003500000Y010325000D02*
X003500000Y008275000D01*
D10*
X003500000Y008275000D02*
X004225000Y007550000D01*
D16*
X004225000Y007550000D03*
%LPC*%
D17*
X-13000000Y-13000000D03*
%LPD*%
%LPC*%
D17*
X-14800000Y013000000D03*
%LPD*%
%LPC*%
D17*
X013000000Y-13000000D03*
%LPD*%
%LPC*%
D17*
X014800000Y013000000D03*
%LPD*%
%LPC*%
D20*
X-04100082Y011644404D03*
%LPD*%
%LPC*%
D20*
X-09899918Y011644404D03*
%LPD*%
%LPC*%
D20*
X009899918Y011644404D03*
%LPD*%
%LPC*%
D20*
X004100082Y011644404D03*
%LPD*%
M02*