M48
; DRILL file {tscircuit} date 2026-10-08T20:48:53.904Z
; FORMAT={-:-/ absolute / metric / decimal}
; #@! TF.CreationDate,2026-10-08T20:48:53.904Z
; #@! TF.GenerationSoftware,tscircuit
; #@! TF.FileFunction,Plated,1,2,PTH
FMAT,2
METRIC
; #@! TA.AperFunction,Plated,PTH,ComponentDrill
T10C0.799998
; #@! TA.AperFunction,Plated,PTH,ComponentDrill
T11C0.900000
; #@! TA.AperFunction,Plated,PTH,ComponentDrill
T12C0.250000
%
G90
G05
T10
X-9.6251Y15.1241
G85X-9.625Y14.724
X-9.6251Y11.0943
G85X-9.625Y10.394
X-0.9749Y11.0943
G85X-0.975Y10.394
X-0.9749Y15.1241
G85X-0.975Y14.724
X0.9749Y15.1241
G85X0.975Y14.724
X0.9749Y11.0943
G85X0.975Y10.394
X9.6251Y11.0943
G85X9.625Y10.394
X9.6251Y15.1241
G85X9.625Y14.724
T11
X-3.0000Y-15.5000
X-1.0000Y-15.5000
X1.0000Y-15.5000
X3.0000Y-15.5000
T12
X4.5418Y-10.8588
X5.2506Y-8.6365
X4.7965Y-3.9350
X12.8280Y4.8690
X3.2131Y-0.6373
X0.8904Y5.4816
X-8.7698Y3.7078
X-6.1782Y11.0458
X2.8670Y-5.5000
X-3.8283Y3.5635
X6.1257Y11.0337
X4.5995Y6.2082
X4.0247Y11.4920
X6.8017Y11.3660
X11.7870Y6.5882
X10.6864Y-10.6859
X-4.2150Y8.6130
X4.0619Y-10.3658
X3.9304Y-13.3018
X-4.3342Y-4.2382
X-3.0921Y-11.4171
X4.5007Y-8.5650
X8.3305Y0.8452
X2.9109Y4.1842
X3.0847Y5.4830
X-5.5568Y-8.2601
X-5.5568Y-13.9992
X3.9550Y-13.9992
X6.1992Y-11.6755
X5.6376Y-11.1818
X5.6192Y-1.9533
X2.8799Y6.9810
X9.3894Y2.8876
X-0.5361Y2.8443
X-0.5361Y6.8500
X8.0984Y-16.6609
X8.8122Y-13.8625
X2.1933Y-11.7933
X-4.4152Y2.3566
X-10.5999Y5.7000
X5.0191Y1.4997
X-0.0000Y-8.0000
X1.5000Y1.3000
X2.0500Y0.6999
X1.5000Y0.1000
X3.3000Y-1.4000
X4.3000Y-1.4000
X6.1992Y-1.4500
X7.9500Y0.3001
X8.1000Y1.5000
X3.5000Y4.5500
X4.5995Y4.5500
X5.5000Y4.7500
X6.8000Y4.4000
X3.9500Y-7.4996
X0.4000Y-4.5500
X-0.4000Y-4.5500
X3.6500Y-6.5000
X-3.5000Y-6.5000
M30