M48
; DRILL file {tscircuit} date 2026-10-10T01:14:48.449Z
; FORMAT={-:-/ absolute / metric / decimal}
; #@! TF.CreationDate,2026-10-10T01:14:48.449Z
; #@! TF.GenerationSoftware,tscircuit
; #@! TF.FileFunction,Plated,1,2,PTH
FMAT,2
METRIC
; #@! TA.AperFunction,Plated,PTH,ComponentDrill
T10C0.250000
; #@! TA.AperFunction,Plated,PTH,ComponentDrill
T11C0.799998
; #@! TA.AperFunction,Plated,PTH,ComponentDrill
T12C0.750000
; #@! TA.AperFunction,Plated,PTH,ComponentDrill
T13C0.200000
%
G90
G05
T10
X-8.7698Y3.7078
X4.5995Y6.2082
X11.7870Y6.5882
X10.6864Y-10.6859
X4.0619Y-10.3658
X-4.3342Y-4.2382
X8.3305Y0.8452
X2.9109Y4.1842
X3.0847Y5.4830
X6.1992Y-11.6755
X5.6376Y-11.1818
X5.6192Y-1.9533
X2.8799Y6.9810
X9.3894Y2.8876
X-0.5361Y2.8443
X-0.5361Y6.8500
X8.0984Y-16.6609
X8.8122Y-13.8625
X2.1933Y-11.7933
X-4.4152Y2.3566
X1.5000Y1.3000
X2.0500Y0.6999
X1.5000Y0.1000
X3.3000Y-1.4000
X4.3000Y-1.4000
X6.1992Y-1.4500
X7.9500Y0.3001
X8.1000Y1.5000
X3.5000Y4.5500
X4.5995Y4.5500
X5.5000Y4.7500
X6.8000Y4.4000
X8.3500Y6.6250
X7.8250Y6.2000
X4.5418Y-10.8588
X5.2506Y-8.6365
X4.7965Y-3.9350
X12.8280Y4.8690
X3.2131Y-0.6373
X0.8904Y5.4816
X-10.5999Y5.7000
X5.0191Y1.4997
X-0.0000Y-7.3999
X10.5000Y7.4000
X7.8000Y8.2500
X-8.7500Y9.2500
X-5.7500Y5.9750
X-5.7500Y9.2500
X5.9250Y9.1750
X8.3000Y9.2500
X8.5000Y8.3250
X5.0250Y9.2750
X4.2250Y9.2750
X10.3250Y8.4000
X-7.3250Y8.4750
X-9.0750Y6.7000
X-0.1000Y7.4000
X4.2250Y7.5500
X0.4500Y-4.0000
X-0.4000Y-4.1000
X3.4500Y-6.2250
X-3.2000Y-4.7500
X2.5000Y-4.2000
X4.8500Y-6.4500
X9.9500Y-3.5750
X4.0250Y-12.5500
X-5.1000Y-12.7500
X-3.4750Y-12.1000
X-0.4500Y-11.4000
X-2.2250Y-12.2750
X-2.2250Y-9.6250
X3.4500Y-7.5000
X3.3500Y-8.6000
X2.0500Y0.6999
X3.1500Y-4.6500
X-6.6000Y-6.4000
X3.0750Y-14.7750
X3.2000Y-13.2000
X1.2500Y-4.0500
X2.0000Y-3.7500
X-8.2250Y-10.8500
X-2.2250Y-10.3000
T11
X-11.3251Y15.5241
G85X-11.325Y15.124
X-11.3251Y11.4943
G85X-11.325Y10.794
X-2.6749Y11.4943
G85X-2.675Y10.794
X-2.6749Y15.5241
G85X-2.675Y15.124
X2.6749Y15.5241
G85X2.675Y15.124
X2.6749Y11.4943
G85X2.675Y10.794
X11.3251Y11.4943
G85X11.325Y10.794
X11.3251Y15.5241
G85X11.325Y15.124
T12
X-4.5000Y-14.1000
X-2.5000Y-14.1000
X-0.5000Y-14.1000
X1.5000Y-14.1000
T13
X-3.4000Y-7.0500
X-3.6500Y-7.5500
X-3.7000Y-8.1500
X-3.6750Y-6.5000
X-6.4000Y-8.0000
X-6.4000Y-9.4000
X-6.5000Y-11.3500
X2.1000Y-0.9500
X3.9250Y-4.0500
X4.4000Y-6.9000
X-2.9500Y0.0250
X-3.6750Y-1.8250
X-9.7250Y-3.9750
X-8.1750Y-11.7500
X-2.2000Y4.4500
X-3.0500Y4.0000
X-1.7250Y2.0000
X-2.4500Y5.8000
X-4.1750Y5.1000
X-1.5250Y0.6000
X-3.5000Y-13.4368
X0.2250Y2.9250
M30