%TF.GenerationSoftware,tscircuit,circuit-json-to-gerber,0.0.111*%
%TF.CreationDate,2026-10-08T20:48:53.723Z*%
%TF.SameCoordinates,Original*%
%TF.FileFunction,Other,Fab,Top*%
%TF.FilePolarity,Positive*%
%FSLAX46Y46*%
%MOMM*%
G04 Gerber Fmt 4.6, Leading zero omitted, Abs format (unit mm)*
G04 Created by tscircuit (builder) date 2026-10-08T20:48:53.723Z*
G01*
%LPD*%
G75*
G04 APERTURE MACROS START*
%AMHORZPILL*
0 Horizontal pill (stadium) shape macro*
0 Parameters:*
0 $1 = Total width*
0 $2 = Total height*
0 $3 = Circle diameter (equal to height)*
0 $4 = Circle center offset
0 21 = Center Line(Exposure, Width, Height, Center X, Center Y, Rotation)*
0 1 = Circle(Exposure, Diameter, Center X, Center Y, Rotation)*
21,1,$1-$3,$2,0.0,0.0,0.0*
1,1,$3,0.0-$4,0.0*
1,1,$3,$4,0.0*%
%AMVERTPILL*
0 Vertical pill (stadium) shape macro*
0 Parameters:*
0 $1 = Total width*
0 $2 = Total height*
0 $3 = Circle diameter (equal to width)*
0 $4 = Circle center offset
0 21 = Center Line(Exposure, Width, Height, Center X, Center Y, Rotation)*
21,1,$1,$2-$3,0.0,0.0,0.0*
1,1,$3,0.0,0.0-$4*
1,1,$3,0.0,$4*%
%AMROUNDRECT*
0 Rectangle with rounded corners*
0 $1 Corner radius*
0 $2 $3 $4 $5 $6 $7 $8 $9 X,Y Position of each corner*
0 Polygon box body*
4,1,4,$2,$3,$4,$5,$6,$7,$8,$9,$2,$3,0*
0 Circles for rounded corners*
1,1,$1+$1,$2,$3*
1,1,$1+$1,$4,$5*
1,1,$1+$1,$6,$7*
1,1,$1+$1,$8,$9*
0 Rectangles between the rounded corners*
20,1,$1+$1,$2,$3,$4,$5,0*
20,1,$1+$1,$4,$5,$6,$7,0*
20,1,$1+$1,$6,$7,$8,$9,0*
20,1,$1+$1,$8,$9,$2,$3,0*%
G04 APERTURE MACROS END*
G04 aperture START LIST*
%ADD10C,0.450000*%
%ADD11C,0.419000*%
%ADD12C,0.184000*%
%ADD13C,0.160000*%
%ADD14C,0.227000*%
%ADD15C,0.196000*%
%ADD16C,0.439000*%
%ADD17C,0.205000*%
%ADD18C,0.179000*%
%ADD19C,0.173000*%
%ADD20C,0.424000*%
%ADD21C,0.180000*%
%ADD22C,0.384000*%
%ADD23C,0.389000*%
%ADD24C,0.189000*%
%ADD25C,0.435000*%
%ADD26C,0.429000*%
%ADD27C,0.258000*%
%ADD28C,0.354000*%
%ADD29C,0.239000*%
%ADD30C,0.600000*%
%ADD31C,0.335000*%
%ADD32C,0.300000*%
%ADD33C,0.363000*%
%ADD34C,0.496000*%
%ADD35C,0.403000*%
%ADD36C,0.182000*%
%ADD37C,0.175000*%
%ADD38C,0.266000*%
%ADD39C,0.199000*%
%ADD40C,0.280000*%
%ADD41C,0.348000*%
%ADD42C,0.351000*%
%ADD43C,0.349000*%
%ADD44C,0.298000*%
%ADD45C,0.254000*%
%ADD46C,0.080000*%
%TD*%
G04 aperture END LIST*
D45*
X-09710061Y000712014D02*
X-08868102Y000712014D01*
X-08868102Y000505055D01*
X-09710670Y000505055D01*
X-09710061Y000712014D01*
D45*
X-09375390Y000161596D02*
X-09375390Y001003555D01*
X-09168431Y001003555D01*
X-09168431Y000160986D01*
X-09375390Y000161596D01*
D45*
X-12941525Y000623774D02*
X-12099566Y000623774D01*
X-12099566Y000416815D01*
X-12942135Y000416815D01*
X-12941525Y000623774D01*
D45*
X-11299999Y000500000D02*
X-11299999Y000500000D01*
X-10700000Y-00099999D01*
X-10700000Y001099999D01*
X-11299999Y000500000D01*
D45*
X008189939Y-12287986D02*
X009031898Y-12287986D01*
X009031898Y-12494945D01*
X008189330Y-12494945D01*
X008189939Y-12287986D01*
D45*
X008524610Y-12838404D02*
X008524610Y-11996445D01*
X008731569Y-11996445D01*
X008731569Y-12839014D01*
X008524610Y-12838404D01*
D45*
X004958475Y-12376226D02*
X005800434Y-12376226D01*
X005800434Y-12583185D01*
X004957865Y-12583185D01*
X004958475Y-12376226D01*
D45*
X006600001Y-12500000D02*
X006600001Y-12500000D01*
X007200000Y-13099999D01*
X007200000Y-11900001D01*
X006600001Y-12500000D01*
D45*
X-14409968Y-08205024D02*
X-13089981Y-08205024D01*
X-13089981Y-08007031D01*
X-14409968Y-08007031D01*
X-14409968Y-08205024D01*
D45*
X-13848984Y-08502026D02*
X-13650965Y-08502026D01*
X-13650965Y-07710028D01*
X-13848984Y-07710028D01*
X-13848984Y-08502026D01*
D45*
X-13848984Y-02298025D02*
X-13650965Y-02298025D01*
X-13650965Y-03090022D01*
X-13848984Y-03090022D01*
X-13848984Y-02298025D01*
D45*
X-05535000Y007250898D02*
X-04254992Y007250898D01*
X-04254992Y007058900D01*
X-05535000Y007058900D01*
X-05535000Y007250898D01*
D45*
X-05027000Y007504898D02*
X-04834976Y007504898D01*
X-04834976Y006736904D01*
X-05027000Y006736904D01*
X-05027000Y007504898D01*
D45*
X-05027000Y003694898D02*
X-04834976Y003694898D01*
X-04834976Y004462893D01*
X-05027000Y004462893D01*
X-05027000Y003694898D01*
D46*
X-13750000Y-07035024D02*
X-13750000Y-06435024D01*
D46*
X-13450000Y-06735024D02*
X-14050000Y-06735024D01*
D46*
X-13750000Y-04364976D02*
X-13750000Y-03764976D01*
M02*