G04 Explicit reviewed solder-paste apertures mm*
%FSLAX46Y46*%
%MOMM*%
%LPD*%
%ADD10C,0.001*%
D10*
G01*
%LPD*%
G36*
X-8027496Y-8106496D02*
X-8027496Y-9093500D01*
X-8972504Y-9093500D01*
X-8972504Y-8106496D01*
X-8027496Y-8106496D01*
G37*
%LPD*%
G36*
X-13330001Y-6845050D02*
X-13330001Y-9295046D01*
X-14169999Y-9295046D01*
X-14169999Y-6845050D01*
X-13330001Y-6845050D01*
G37*
%LPD*%
G36*
X-8027496Y-6106500D02*
X-8027496Y-7093504D01*
X-8972504Y-7093504D01*
X-8972504Y-6106500D01*
X-8027496Y-6106500D01*
G37*
%LPD*%
G36*
X-8549520Y-4935200D02*
X-9652022Y-4935200D01*
X-9652022Y-4464794D01*
X-8549520Y-4464794D01*
X-8549520Y-4935200D01*
G37*
%LPD*%
G36*
X-7495246Y-3829323D02*
X-7524512Y-3818584D01*
X-7553244Y-3806476D01*
X-7581390Y-3793052D01*
X-7608860Y-3778312D01*
X-7635619Y-3762292D01*
X-7661595Y-3745046D01*
X-7686736Y-3726608D01*
X-7710971Y-3707014D01*
X-7734280Y-3686283D01*
X-7756576Y-3664502D01*
X-7777841Y-3641691D01*
X-7798004Y-3617919D01*
X-7817028Y-3593222D01*
X-7834879Y-3567655D01*
X-7851504Y-3541287D01*
X-7866883Y-3514155D01*
X-7880983Y-3486347D01*
X-7893749Y-3430838D01*
X-9081880Y-3430838D01*
X-9081880Y-2968842D01*
X-7893749Y-2968842D01*
X-7880983Y-2913298D01*
X-7866883Y-2885490D01*
X-7851504Y-2858357D01*
X-7834879Y-2831990D01*
X-7817028Y-2806422D01*
X-7798004Y-2781726D01*
X-7777841Y-2757954D01*
X-7756576Y-2735142D01*
X-7734280Y-2713361D01*
X-7710971Y-2692630D01*
X-7686736Y-2673036D01*
X-7661595Y-2654598D01*
X-7635619Y-2637352D01*
X-7608860Y-2621332D01*
X-7581390Y-2606592D01*
X-7553244Y-2593169D01*
X-7524512Y-2581060D01*
X-7495246Y-2570321D01*
X-7465500Y-2560969D01*
X-7435363Y-2553021D01*
X-7404870Y-2546478D01*
X-7374111Y-2541393D01*
X-7343138Y-2537748D01*
X-7312041Y-2535561D01*
X-7280872Y-2534815D01*
X-5982932Y-2534815D01*
X-5951764Y-2535561D01*
X-5920667Y-2537748D01*
X-5889694Y-2541393D01*
X-5858935Y-2546478D01*
X-5828442Y-2553021D01*
X-5798305Y-2560969D01*
X-5768559Y-2570321D01*
X-5739293Y-2581060D01*
X-5710561Y-2593169D01*
X-5682415Y-2606593D01*
X-5654945Y-2621332D01*
X-5628186Y-2637352D01*
X-5602209Y-2654599D01*
X-5577068Y-2673036D01*
X-5552834Y-2692630D01*
X-5529525Y-2713361D01*
X-5507228Y-2735142D01*
X-5485964Y-2757954D01*
X-5465801Y-2781726D01*
X-5446776Y-2806422D01*
X-5428925Y-2831990D01*
X-5412301Y-2858357D01*
X-5396921Y-2885490D01*
X-5382822Y-2913298D01*
X-5370056Y-2941746D01*
X-5358623Y-2970745D01*
X-5348577Y-3000259D01*
X-5339919Y-3030219D01*
X-5332682Y-3060551D01*
X-5326868Y-3091169D01*
X-5322494Y-3122052D01*
X-5319578Y-3153096D01*
X-5318120Y-3184229D01*
X-5318120Y-3215415D01*
X-5319578Y-3246548D01*
X-5322494Y-3277592D01*
X-5326868Y-3308476D01*
X-5332682Y-3339093D01*
X-5339919Y-3369426D01*
X-5348577Y-3399385D01*
X-5358623Y-3428900D01*
X-5370056Y-3457899D01*
X-5382822Y-3486347D01*
X-5396921Y-3514155D01*
X-5412301Y-3541287D01*
X-5428925Y-3567655D01*
X-5446776Y-3593222D01*
X-5465801Y-3617919D01*
X-5485964Y-3641691D01*
X-5507228Y-3664502D01*
X-5529525Y-3686283D01*
X-5552834Y-3707014D01*
X-5577068Y-3726608D01*
X-5602209Y-3745046D01*
X-5628186Y-3762293D01*
X-5654945Y-3778312D01*
X-5682415Y-3793052D01*
X-5710561Y-3806476D01*
X-5739293Y-3818584D01*
X-5768559Y-3829323D01*
X-5798305Y-3838675D01*
X-5828442Y-3846623D01*
X-5858935Y-3853166D01*
X-5889694Y-3858251D01*
X-5920667Y-3861896D01*
X-5951764Y-3864083D01*
X-5982932Y-3864830D01*
X-7280872Y-3864830D01*
X-7312041Y-3864083D01*
X-7343138Y-3861896D01*
X-7374111Y-3858251D01*
X-7404870Y-3853166D01*
X-7435363Y-3846623D01*
X-7465500Y-3838675D01*
X-7495246Y-3829323D01*
G37*
%LPD*%
G36*
X-13330001Y-1504954D02*
X-13330001Y-3954950D01*
X-14169999Y-3954950D01*
X-14169999Y-1504954D01*
X-13330001Y-1504954D01*
G37*
%LPD*%
G36*
X-8549520Y-1464800D02*
X-8549520Y-1935206D01*
X-9652022Y-1935206D01*
X-9652022Y-1464800D01*
X-8549520Y-1464800D01*
G37*
%LPD*%
G36*
X-12180023Y832504D02*
X-12180023Y167496D01*
X-13020021Y167496D01*
X-13020021Y832504D01*
X-12180023Y832504D01*
G37*
%LPD*%
G36*
X-8779979Y167496D02*
X-9619977Y167496D01*
X-9619977Y832504D01*
X-8779979Y832504D01*
X-8779979Y167496D01*
G37*
%LPD*%
G36*
X-15971098Y1697598D02*
X-16535630Y1697598D01*
X-16535630Y2302402D01*
X-15971098Y2302402D01*
X-15971098Y1697598D01*
G37*
%LPD*%
G36*
X-14464370Y2302402D02*
X-14464370Y1697598D01*
X-15028902Y1697598D01*
X-15028902Y2302402D01*
X-14464370Y2302402D01*
G37*
%LPD*%
G36*
X-7075134Y3910004D02*
X-7075134Y3490004D01*
X-8125132Y3490004D01*
X-8125132Y3910004D01*
X-7075134Y3910004D01*
G37*
%LPD*%
G36*
X-13075122Y3910004D02*
X-13075122Y3490004D01*
X-14125120Y3490004D01*
X-14125120Y3910004D01*
X-13075122Y3910004D01*
G37*
%LPD*%
G36*
X-7074880Y4490002D02*
X-8124878Y4490002D01*
X-8124878Y4910002D01*
X-7074880Y4910002D01*
X-7074880Y4490002D01*
G37*
%LPD*%
G36*
X-13075122Y4490002D02*
X-14125120Y4490002D01*
X-14125120Y4910002D01*
X-13075122Y4910002D01*
X-13075122Y4490002D01*
G37*
%LPD*%
G36*
X-15285001Y5079975D02*
X-15285001Y4519977D01*
X-15914999Y4519977D01*
X-15914999Y5079975D01*
X-15285001Y5079975D01*
G37*
%LPD*%
G36*
X-9686548Y5600000D02*
X-9686548Y4321918D01*
X-10499873Y4321918D01*
X-10499873Y5600000D01*
X-9686548Y5600000D01*
G37*
%LPD*%
G36*
X-10699873Y5600000D02*
X-10699873Y4321918D01*
X-11513198Y4321918D01*
X-11513198Y5600000D01*
X-10699873Y5600000D01*
G37*
%LPD*%
G36*
X-7074880Y5490000D02*
X-8124878Y5490000D01*
X-8124878Y5910000D01*
X-7074880Y5910000D01*
X-7074880Y5490000D01*
G37*
%LPD*%
G36*
X-13075122Y5490000D02*
X-14125120Y5490000D01*
X-14125120Y5910000D01*
X-13075122Y5910000D01*
X-13075122Y5490000D01*
G37*
%LPD*%
G36*
X-15285001Y6480023D02*
X-15285001Y5920025D01*
X-15914999Y5920025D01*
X-15914999Y6480023D01*
X-15285001Y6480023D01*
G37*
%LPD*%
G36*
X-9686548Y7078082D02*
X-9686548Y5800000D01*
X-10499873Y5800000D01*
X-10499873Y7078082D01*
X-9686548Y7078082D01*
G37*
%LPD*%
G36*
X-10699873Y7078082D02*
X-10699873Y5800000D01*
X-11513198Y5800000D01*
X-11513198Y7078082D01*
X-10699873Y7078082D01*
G37*
%LPD*%
G36*
X-7074880Y6489998D02*
X-8124878Y6489998D01*
X-8124878Y6909998D01*
X-7074880Y6909998D01*
X-7074880Y6489998D01*
G37*
%LPD*%
G36*
X-13075122Y6489998D02*
X-14125120Y6489998D01*
X-14125120Y6909998D01*
X-13075122Y6909998D01*
X-13075122Y6489998D01*
G37*
%LPD*%
G36*
X-7075134Y7909996D02*
X-7075134Y7489996D01*
X-8125132Y7489996D01*
X-8125132Y7909996D01*
X-7075134Y7909996D01*
G37*
%LPD*%
G36*
X-13075122Y7909996D02*
X-13075122Y7489996D01*
X-14125120Y7489996D01*
X-14125120Y7909996D01*
X-13075122Y7909996D01*
G37*
%LPD*%
G36*
X-9610169Y9920836D02*
X-9610169Y10830817D01*
X-9400169Y10830817D01*
X-9400151Y10830817D01*
X-9190152Y10830817D01*
X-9190152Y9920836D01*
X-9400151Y9920836D01*
X-9400169Y9920836D01*
X-9610169Y9920836D01*
G37*
%LPD*%
G36*
X-9989998Y9920836D02*
X-10199997Y9920836D01*
X-10200015Y9920836D01*
X-10410015Y9920836D01*
X-10410015Y10830817D01*
X-10200015Y10830817D01*
X-10199997Y10830817D01*
X-9989998Y10830817D01*
X-9989998Y9920836D01*
G37*
%LPD*%
G36*
X-7645062Y9920929D02*
X-7855062Y9920929D01*
X-7855062Y10830927D01*
X-7645062Y10830927D01*
X-7645062Y9920929D01*
G37*
%LPD*%
G36*
X-8144680Y10830927D02*
X-8144680Y9920929D01*
X-8354680Y9920929D01*
X-8354680Y10830927D01*
X-8144680Y10830927D01*
G37*
%LPD*%
G36*
X-8645060Y10830927D02*
X-8645060Y9920929D01*
X-8855060Y9920929D01*
X-8855060Y10830927D01*
X-8645060Y10830927D01*
G37*
%LPD*%
G36*
X-7144936Y10830927D02*
X-7144936Y9920929D01*
X-7354936Y9920929D01*
X-7354936Y10830927D01*
X-7144936Y10830927D01*
G37*
%LPD*%
G36*
X-2420025Y-12614999D02*
X-2980023Y-12614999D01*
X-2980023Y-11985001D01*
X-2420025Y-11985001D01*
X-2420025Y-12614999D01*
G37*
%LPD*%
G36*
X-1019977Y-12614999D02*
X-1579975Y-12614999D01*
X-1579975Y-11985001D01*
X-1019977Y-11985001D01*
X-1019977Y-12614999D01*
G37*
%LPD*%
G36*
X-3785001Y-11820025D02*
X-3785001Y-12380023D01*
X-4414999Y-12380023D01*
X-4414999Y-11820025D01*
X-3785001Y-11820025D01*
G37*
%LPD*%
G36*
X-3785001Y-10419977D02*
X-3785001Y-10979975D01*
X-4414999Y-10979975D01*
X-4414999Y-10419977D01*
X-3785001Y-10419977D01*
G37*
%LPD*%
G36*
X-3635001Y-8970025D02*
X-3635001Y-9530023D01*
X-4264999Y-9530023D01*
X-4264999Y-8970025D01*
X-3635001Y-8970025D01*
G37*
%LPD*%
G36*
X-100027Y-9339325D02*
X-1339379Y-9339325D01*
X-1339379Y-8099973D01*
X-100027Y-8099973D01*
X-100027Y-9339325D01*
G37*
%LPD*%
G36*
X-3635001Y-8129975D02*
X-4264999Y-8129975D01*
X-4264999Y-7569977D01*
X-3635001Y-7569977D01*
X-3635001Y-8129975D01*
G37*
%LPD*%
G36*
X-100027Y-6660621D02*
X-100027Y-7899973D01*
X-1339379Y-7899973D01*
X-1339379Y-6660621D01*
X-100027Y-6660621D01*
G37*
%LPD*%
G36*
X-5620025Y-6085001D02*
X-5620025Y-6714999D01*
X-6180023Y-6714999D01*
X-6180023Y-6085001D01*
X-5620025Y-6085001D01*
G37*
%LPD*%
G36*
X-4219977Y-6085001D02*
X-4219977Y-6714999D01*
X-4779975Y-6714999D01*
X-4779975Y-6085001D01*
X-4219977Y-6085001D01*
G37*
%LPD*%
G36*
X-703615Y-3381954D02*
X-1496389Y-3381954D01*
X-1496389Y-2418046D01*
X-703615Y-2418046D01*
X-703615Y-3381954D01*
G37*
%LPD*%
G36*
X-2703611Y-3381954D02*
X-3496385Y-3381954D01*
X-3496385Y-2418046D01*
X-2703611Y-2418046D01*
X-2703611Y-3381954D01*
G37*
%LPD*%
G36*
X-971098Y302402D02*
X-971098Y-302402D01*
X-1535630Y-302402D01*
X-1535630Y302402D01*
X-971098Y302402D01*
G37*
%LPD*%
G36*
X-6706496Y972504D02*
X-6706496Y27497D01*
X-7693500Y27497D01*
X-7693500Y972504D01*
X-6706496Y972504D01*
G37*
%LPD*%
G36*
X-4706500Y972504D02*
X-4706500Y27497D01*
X-5693504Y27497D01*
X-5693504Y972504D01*
X-4706500Y972504D01*
G37*
%LPD*%
G36*
X-1164370Y1097598D02*
X-1728902Y1097598D01*
X-1728902Y1702402D01*
X-1164370Y1702402D01*
X-1164370Y1097598D01*
G37*
%LPD*%
G36*
X-2671098Y1097598D02*
X-3235630Y1097598D01*
X-3235630Y1702402D01*
X-2671098Y1702402D01*
X-2671098Y1097598D01*
G37*
%LPD*%
G36*
X-1164370Y3502402D02*
X-1164370Y2897598D01*
X-1728902Y2897598D01*
X-1728902Y3502402D01*
X-1164370Y3502402D01*
G37*
%LPD*%
G36*
X-2671098Y3502402D02*
X-2671098Y2897598D01*
X-3235630Y2897598D01*
X-3235630Y3502402D01*
X-2671098Y3502402D01*
G37*
%LPD*%
G36*
X-4480001Y4405015D02*
X-4480001Y3495017D01*
X-5319999Y3495017D01*
X-5319999Y4405015D01*
X-4480001Y4405015D01*
G37*
%LPD*%
G36*
X428902Y3797598D02*
X-135630Y3797598D01*
X-135630Y4402402D01*
X428902Y4402402D01*
X428902Y3797598D01*
G37*
%LPD*%
G36*
X-2671098Y4697598D02*
X-3235630Y4697598D01*
X-3235630Y5302402D01*
X-2671098Y5302402D01*
X-2671098Y4697598D01*
G37*
%LPD*%
G36*
X-1164370Y5302402D02*
X-1164370Y4697598D01*
X-1728902Y4697598D01*
X-1728902Y5302402D01*
X-1164370Y5302402D01*
G37*
%LPD*%
G36*
X-1164370Y7102402D02*
X-1164370Y6497598D01*
X-1728902Y6497598D01*
X-1728902Y7102402D01*
X-1164370Y7102402D01*
G37*
%LPD*%
G36*
X-2671098Y7102402D02*
X-2671098Y6497598D01*
X-3235630Y6497598D01*
X-3235630Y7102402D01*
X-2671098Y7102402D01*
G37*
%LPD*%
G36*
X-4480001Y6794985D02*
X-5319999Y6794985D01*
X-5319999Y7704983D01*
X-4480001Y7704983D01*
X-4480001Y6794985D01*
G37*
%LPD*%
G36*
X-4010035Y10830883D02*
X-3800053Y10830883D01*
X-3800053Y10830989D01*
X-3590054Y10830989D01*
X-3590054Y9920973D01*
X-3800036Y9920973D01*
X-3800036Y9920867D01*
X-4010035Y9920867D01*
X-4010035Y10830883D01*
G37*
%LPD*%
G36*
X-5144940Y10830927D02*
X-5144940Y9920929D01*
X-5354940Y9920929D01*
X-5354940Y10830927D01*
X-5144940Y10830927D01*
G37*
%LPD*%
G36*
X-5645066Y10830927D02*
X-5645066Y9920929D01*
X-5855066Y9920929D01*
X-5855066Y10830927D01*
X-5645066Y10830927D01*
G37*
%LPD*%
G36*
X-6144938Y10830927D02*
X-6144938Y9920929D01*
X-6354938Y9920929D01*
X-6354938Y10830927D01*
X-6144938Y10830927D01*
G37*
%LPD*%
G36*
X-6645064Y9920929D02*
X-6855064Y9920929D01*
X-6855064Y10830927D01*
X-6645064Y10830927D01*
X-6645064Y9920929D01*
G37*
%LPD*%
G36*
X-4810034Y10830973D02*
X-4600070Y10830973D01*
X-4600070Y10830990D01*
X-4390052Y10830990D01*
X-4390052Y9921010D01*
X-4600016Y9921010D01*
X-4600016Y9920992D01*
X-4810034Y9920992D01*
X-4810034Y10830973D01*
G37*
%LPD*%
G36*
X-471098Y13302402D02*
X-471098Y12697598D01*
X-1035630Y12697598D01*
X-1035630Y13302402D01*
X-471098Y13302402D01*
G37*
%LPD*%
G36*
X4179975Y-9185001D02*
X4179975Y-9814999D01*
X3619977Y-9814999D01*
X3619977Y-9185001D01*
X4179975Y-9185001D01*
G37*
%LPD*%
G36*
X1339325Y-8099973D02*
X1339325Y-9339325D01*
X99973Y-9339325D01*
X99973Y-8099973D01*
X1339325Y-8099973D01*
G37*
%LPD*%
G36*
X1339325Y-7899973D02*
X99973Y-7899973D01*
X99973Y-6660621D01*
X1339325Y-6660621D01*
X1339325Y-7899973D01*
G37*
%LPD*%
G36*
X4179975Y-5664999D02*
X3619977Y-5664999D01*
X3619977Y-5035001D01*
X4179975Y-5035001D01*
X4179975Y-5664999D01*
G37*
%LPD*%
G36*
X1496389Y-2418046D02*
X1496389Y-3381954D01*
X703615Y-3381954D01*
X703615Y-2418046D01*
X1496389Y-2418046D01*
G37*
%LPD*%
G36*
X3496385Y-2418046D02*
X3496385Y-3381954D01*
X2703611Y-3381954D01*
X2703611Y-2418046D01*
X3496385Y-2418046D01*
G37*
%LPD*%
G36*
X4689250Y-184997D02*
X4689250Y-814995D01*
X4509250Y-814995D01*
X4509250Y-184997D01*
X4689250Y-184997D01*
G37*
%LPD*%
G36*
X4289200Y-814995D02*
X4109200Y-814995D01*
X4109200Y-184997D01*
X4289200Y-184997D01*
X4289200Y-814995D01*
G37*
%LPD*%
G36*
X3889404Y-814995D02*
X3709404Y-814995D01*
X3709404Y-184997D01*
X3889404Y-184997D01*
X3889404Y-814995D01*
G37*
%LPD*%
G36*
X535630Y302402D02*
X535630Y-302402D01*
X-28902Y-302402D01*
X-28902Y302402D01*
X535630Y302402D01*
G37*
%LPD*%
G36*
X3314303Y390104D02*
X3314303Y210104D01*
X2684305Y210104D01*
X2684305Y390104D01*
X3314303Y390104D01*
G37*
%LPD*%
G36*
X3314303Y789900D02*
X3314303Y609900D01*
X2684305Y609900D01*
X2684305Y789900D01*
X3314303Y789900D01*
G37*
%LPD*%
G36*
X4919112Y315313D02*
X3834679Y315313D01*
X3834679Y1399746D01*
X4919112Y1399746D01*
X4919112Y315313D01*
G37*
%LPD*%
G36*
X3314303Y1009950D02*
X2684305Y1009950D01*
X2684305Y1189950D01*
X3314303Y1189950D01*
X3314303Y1009950D01*
G37*
%LPD*%
G36*
X3314303Y1591016D02*
X3314303Y1411016D01*
X2684305Y1411016D01*
X2684305Y1591016D01*
X3314303Y1591016D01*
G37*
%LPD*%
G36*
X3314303Y1989796D02*
X3314303Y1809796D01*
X2684305Y1809796D01*
X2684305Y1989796D01*
X3314303Y1989796D01*
G37*
%LPD*%
G36*
X4919112Y2684179D02*
X4919112Y1599746D01*
X3834679Y1599746D01*
X3834679Y2684179D01*
X4919112Y2684179D01*
G37*
%LPD*%
G36*
X579975Y1985001D02*
X19977Y1985001D01*
X19977Y2614999D01*
X579975Y2614999D01*
X579975Y1985001D01*
G37*
%LPD*%
G36*
X1980023Y1985001D02*
X1420025Y1985001D01*
X1420025Y2614999D01*
X1980023Y2614999D01*
X1980023Y1985001D01*
G37*
%LPD*%
G36*
X3314303Y2390100D02*
X3314303Y2210100D01*
X2684305Y2210100D01*
X2684305Y2390100D01*
X3314303Y2390100D01*
G37*
%LPD*%
G36*
X3314303Y2789896D02*
X3314303Y2609896D01*
X2684305Y2609896D01*
X2684305Y2789896D01*
X3314303Y2789896D01*
G37*
%LPD*%
G36*
X3889404Y3814995D02*
X3889404Y3184997D01*
X3709404Y3184997D01*
X3709404Y3814995D01*
X3889404Y3814995D01*
G37*
%LPD*%
G36*
X4289200Y3184997D02*
X4109200Y3184997D01*
X4109200Y3814995D01*
X4289200Y3814995D01*
X4289200Y3184997D01*
G37*
%LPD*%
G36*
X1935630Y3797598D02*
X1371098Y3797598D01*
X1371098Y4402402D01*
X1935630Y4402402D01*
X1935630Y3797598D01*
G37*
%LPD*%
G36*
X1979925Y5690014D02*
X1979925Y5410014D01*
X1419927Y5410014D01*
X1419927Y5690014D01*
X1979925Y5690014D01*
G37*
%LPD*%
G36*
X4180073Y5690014D02*
X4180073Y5410014D01*
X3620075Y5410014D01*
X3620075Y5690014D01*
X4180073Y5690014D01*
G37*
%LPD*%
G36*
X1979925Y6340000D02*
X1979925Y6060000D01*
X1419927Y6060000D01*
X1419927Y6340000D01*
X1979925Y6340000D01*
G37*
%LPD*%
G36*
X1979925Y6709986D02*
X1419927Y6709986D01*
X1419927Y6989986D01*
X1979925Y6989986D01*
X1979925Y6709986D01*
G37*
%LPD*%
G36*
X4180073Y6709986D02*
X3620075Y6709986D01*
X3620075Y6989986D01*
X4180073Y6989986D01*
X4180073Y6709986D01*
G37*
%LPD*%
G36*
X3780023Y8614999D02*
X3780023Y7985001D01*
X3220025Y7985001D01*
X3220025Y8614999D01*
X3780023Y8614999D01*
G37*
%LPD*%
G36*
X2379975Y8614999D02*
X2379975Y7985001D01*
X1819977Y7985001D01*
X1819977Y8614999D01*
X2379975Y8614999D01*
G37*
%LPD*%
G36*
X4010002Y10830817D02*
X4010002Y9920836D01*
X3800003Y9920836D01*
X3799985Y9920836D01*
X3589985Y9920836D01*
X3589985Y10830817D01*
X3799985Y10830817D01*
X3800003Y10830817D01*
X4010002Y10830817D01*
G37*
%LPD*%
G36*
X1035630Y12697598D02*
X471098Y12697598D01*
X471098Y13302402D01*
X1035630Y13302402D01*
X1035630Y12697598D01*
G37*
%LPD*%
G36*
X5719977Y-12832504D02*
X4879979Y-12832504D01*
X4879979Y-12167496D01*
X5719977Y-12167496D01*
X5719977Y-12832504D01*
G37*
%LPD*%
G36*
X5580023Y-9185001D02*
X5580023Y-9814999D01*
X5020025Y-9814999D01*
X5020025Y-9185001D01*
X5580023Y-9185001D01*
G37*
%LPD*%
G36*
X7128902Y-8697598D02*
X7128902Y-9302402D01*
X6564370Y-9302402D01*
X6564370Y-8697598D01*
X7128902Y-8697598D01*
G37*
%LPD*%
G36*
X6980023Y-7185001D02*
X6980023Y-7814999D01*
X6420025Y-7814999D01*
X6420025Y-7185001D01*
X6980023Y-7185001D01*
G37*
%LPD*%
G36*
X5579975Y-7814999D02*
X5019977Y-7814999D01*
X5019977Y-7185001D01*
X5579975Y-7185001D01*
X5579975Y-7814999D01*
G37*
%LPD*%
G36*
X5580023Y-5664999D02*
X5020025Y-5664999D01*
X5020025Y-5035001D01*
X5580023Y-5035001D01*
X5580023Y-5664999D01*
G37*
%LPD*%
G36*
X7128902Y-4697598D02*
X7128902Y-5302402D01*
X6564370Y-5302402D01*
X6564370Y-4697598D01*
X7128902Y-4697598D01*
G37*
%LPD*%
G36*
X5079975Y-2485001D02*
X5079975Y-3114999D01*
X4519977Y-3114999D01*
X4519977Y-2485001D01*
X5079975Y-2485001D01*
G37*
%LPD*%
G36*
X6480023Y-2485001D02*
X6480023Y-3114999D01*
X5920025Y-3114999D01*
X5920025Y-2485001D01*
X6480023Y-2485001D01*
G37*
%LPD*%
G36*
X5889400Y-814995D02*
X5709400Y-814995D01*
X5709400Y-184997D01*
X5889400Y-184997D01*
X5889400Y-814995D01*
G37*
%LPD*%
G36*
X6289196Y-814995D02*
X6109196Y-814995D01*
X6109196Y-184997D01*
X6289196Y-184997D01*
X6289196Y-814995D01*
G37*
%LPD*%
G36*
X5489096Y-184997D02*
X5489096Y-814995D01*
X5309096Y-814995D01*
X5309096Y-184997D01*
X5489096Y-184997D01*
G37*
%LPD*%
G36*
X5089300Y-184235D02*
X5089300Y-814233D01*
X4909300Y-814233D01*
X4909300Y-184235D01*
X5089300Y-184235D01*
G37*
%LPD*%
G36*
X7314295Y390104D02*
X7314295Y210104D01*
X6684297Y210104D01*
X6684297Y390104D01*
X7314295Y390104D01*
G37*
%LPD*%
G36*
X7314295Y609900D02*
X6684297Y609900D01*
X6684297Y789900D01*
X7314295Y789900D01*
X7314295Y609900D01*
G37*
%LPD*%
G36*
X6203545Y315313D02*
X5119112Y315313D01*
X5119112Y1399746D01*
X6203545Y1399746D01*
X6203545Y315313D01*
G37*
%LPD*%
G36*
X7314295Y1590000D02*
X7314295Y1410000D01*
X6684297Y1410000D01*
X6684297Y1590000D01*
X7314295Y1590000D01*
G37*
%LPD*%
G36*
X7314295Y1989796D02*
X7314295Y1809796D01*
X6684297Y1809796D01*
X6684297Y1989796D01*
X7314295Y1989796D01*
G37*
%LPD*%
G36*
X6203545Y2684179D02*
X6203545Y1599746D01*
X5119112Y1599746D01*
X5119112Y2684179D01*
X6203545Y2684179D01*
G37*
%LPD*%
G36*
X7314295Y2210100D02*
X6684297Y2210100D01*
X6684297Y2390100D01*
X7314295Y2390100D01*
X7314295Y2210100D01*
G37*
%LPD*%
G36*
X7314295Y2609896D02*
X6684297Y2609896D01*
X6684297Y2789896D01*
X7314295Y2789896D01*
X7314295Y2609896D01*
G37*
%LPD*%
G36*
X5089300Y3814741D02*
X5089300Y3184743D01*
X4909300Y3184743D01*
X4909300Y3814741D01*
X5089300Y3814741D01*
G37*
%LPD*%
G36*
X5889400Y3814995D02*
X5889400Y3184997D01*
X5709400Y3184997D01*
X5709400Y3814995D01*
X5889400Y3814995D01*
G37*
%LPD*%
G36*
X6289196Y3814995D02*
X6289196Y3184997D01*
X6109196Y3184997D01*
X6109196Y3814995D01*
X6289196Y3814995D01*
G37*
%LPD*%
G36*
X5489096Y3184997D02*
X5309096Y3184997D01*
X5309096Y3814995D01*
X5489096Y3814995D01*
X5489096Y3184997D01*
G37*
%LPD*%
G36*
X4689504Y3184997D02*
X4509504Y3184997D01*
X4509504Y3814995D01*
X4689504Y3814995D01*
X4689504Y3184997D01*
G37*
%LPD*%
G36*
X6835630Y8602402D02*
X6835630Y7997598D01*
X6271098Y7997598D01*
X6271098Y8602402D01*
X6835630Y8602402D01*
G37*
%LPD*%
G36*
X5328902Y8602402D02*
X5328902Y7997598D01*
X4764370Y7997598D01*
X4764370Y8602402D01*
X5328902Y8602402D01*
G37*
%LPD*%
G36*
X4389831Y9920836D02*
X4389831Y10830817D01*
X4599831Y10830817D01*
X4599849Y10830817D01*
X4809848Y10830817D01*
X4809848Y9920836D01*
X4599849Y9920836D01*
X4599831Y9920836D01*
X4389831Y9920836D01*
G37*
%LPD*%
G36*
X5855320Y9920929D02*
X5645320Y9920929D01*
X5645320Y10830927D01*
X5855320Y10830927D01*
X5855320Y9920929D01*
G37*
%LPD*%
G36*
X6354938Y9920929D02*
X6144938Y9920929D01*
X6144938Y10830927D01*
X6354938Y10830927D01*
X6354938Y9920929D01*
G37*
%LPD*%
G36*
X6855064Y10830927D02*
X6855064Y9920929D01*
X6645064Y9920929D01*
X6645064Y10830927D01*
X6855064Y10830927D01*
G37*
%LPD*%
G36*
X5354940Y10830927D02*
X5354940Y9920929D01*
X5144940Y9920929D01*
X5144940Y10830927D01*
X5354940Y10830927D01*
G37*
%LPD*%
G36*
X9120021Y-12167496D02*
X9120021Y-12832504D01*
X8280023Y-12832504D01*
X8280023Y-12167496D01*
X9120021Y-12167496D01*
G37*
%LPD*%
G36*
X7528902Y-10802402D02*
X6964370Y-10802402D01*
X6964370Y-10197598D01*
X7528902Y-10197598D01*
X7528902Y-10802402D01*
G37*
%LPD*%
G36*
X9035630Y-10802402D02*
X8471098Y-10802402D01*
X8471098Y-10197598D01*
X9035630Y-10197598D01*
X9035630Y-10802402D01*
G37*
%LPD*%
G36*
X8635630Y-8697598D02*
X8635630Y-9302402D01*
X8071098Y-9302402D01*
X8071098Y-8697598D01*
X8635630Y-8697598D01*
G37*
%LPD*%
G36*
X8635630Y-4697598D02*
X8635630Y-5302402D01*
X8071098Y-5302402D01*
X8071098Y-4697598D01*
X8635630Y-4697598D01*
G37*
%LPD*%
G36*
X11472504Y-4006496D02*
X11472504Y-4993500D01*
X10527496Y-4993500D01*
X10527496Y-4006496D01*
X11472504Y-4006496D01*
G37*
%LPD*%
G36*
X11472504Y-2993504D02*
X10527496Y-2993504D01*
X10527496Y-2006500D01*
X11472504Y-2006500D01*
X11472504Y-2993504D01*
G37*
%LPD*%
G36*
X11535630Y197598D02*
X10971098Y197598D01*
X10971098Y802402D01*
X11535630Y802402D01*
X11535630Y197598D01*
G37*
%LPD*%
G36*
X10028902Y802402D02*
X10028902Y197598D01*
X9464370Y197598D01*
X9464370Y802402D01*
X10028902Y802402D01*
G37*
%LPD*%
G36*
X7314295Y1190204D02*
X7314295Y1010204D01*
X6684297Y1010204D01*
X6684297Y1190204D01*
X7314295Y1190204D01*
G37*
%LPD*%
G36*
X16109575Y3060040D02*
X16109575Y2640040D01*
X15360575Y2640040D01*
X15360575Y3060040D01*
X16109575Y3060040D01*
G37*
%LPD*%
G36*
X13639425Y3590000D02*
X12890425Y3590000D01*
X12890425Y4010000D01*
X13639425Y4010000D01*
X13639425Y3590000D01*
G37*
%LPD*%
G36*
X9236241Y3775702D02*
X8863839Y3775702D01*
X8863839Y4526106D01*
X9236241Y4526106D01*
X9236241Y3775702D01*
G37*
%LPD*%
G36*
X10186201Y4526106D02*
X10186201Y3775702D01*
X9813799Y3775702D01*
X9813799Y4526106D01*
X10186201Y4526106D01*
G37*
%LPD*%
G36*
X11136161Y4526106D02*
X11136161Y3775702D01*
X10763759Y3775702D01*
X10763759Y4526106D01*
X11136161Y4526106D01*
G37*
%LPD*%
G36*
X16109575Y4959960D02*
X16109575Y4539960D01*
X15360575Y4539960D01*
X15360575Y4959960D01*
X16109575Y4959960D01*
G37*
%LPD*%
G36*
X15535630Y6097598D02*
X14971098Y6097598D01*
X14971098Y6702402D01*
X15535630Y6702402D01*
X15535630Y6097598D01*
G37*
%LPD*%
G36*
X14028902Y6097598D02*
X13464370Y6097598D01*
X13464370Y6702402D01*
X14028902Y6702402D01*
X14028902Y6097598D01*
G37*
%LPD*%
G36*
X10186201Y6824298D02*
X10186201Y6073894D01*
X9813799Y6073894D01*
X9813799Y6824298D01*
X10186201Y6824298D01*
G37*
%LPD*%
G36*
X11136161Y6824298D02*
X11136161Y6073894D01*
X10763759Y6073894D01*
X10763759Y6824298D01*
X11136161Y6824298D01*
G37*
%LPD*%
G36*
X9236241Y6824298D02*
X9236241Y6073894D01*
X8863839Y6073894D01*
X8863839Y6824298D01*
X9236241Y6824298D01*
G37*
%LPD*%
G36*
X11265164Y8210999D02*
X10869204Y8210999D01*
X10869204Y8589001D01*
X11265164Y8589001D01*
X11265164Y8210999D01*
G37*
%LPD*%
G36*
X12130796Y8210999D02*
X11734836Y8210999D01*
X11734836Y8589001D01*
X12130796Y8589001D01*
X12130796Y8210999D01*
G37*
%LPD*%
G36*
X8354934Y10830927D02*
X8354934Y9920929D01*
X8144934Y9920929D01*
X8144934Y10830927D01*
X8354934Y10830927D01*
G37*
%LPD*%
G36*
X7354936Y9920929D02*
X7144936Y9920929D01*
X7144936Y10830927D01*
X7354936Y10830927D01*
X7354936Y9920929D01*
G37*
%LPD*%
G36*
X7855062Y9920929D02*
X7645062Y9920929D01*
X7645062Y10830927D01*
X7855062Y10830927D01*
X7855062Y9920929D01*
G37*
%LPD*%
G36*
X8855060Y10830927D02*
X8855060Y9920929D01*
X8645060Y9920929D01*
X8645060Y10830927D01*
X8855060Y10830927D01*
G37*
%LPD*%
G36*
X9989965Y10830883D02*
X10199947Y10830883D01*
X10199947Y10830989D01*
X10409946Y10830989D01*
X10409946Y9920973D01*
X10199964Y9920973D01*
X10199964Y9920867D01*
X9989965Y9920867D01*
X9989965Y10830883D01*
G37*
%LPD*%
G36*
X9189966Y10830973D02*
X9399930Y10830973D01*
X9399930Y10830990D01*
X9609948Y10830990D01*
X9609948Y9921010D01*
X9399984Y9921010D01*
X9399984Y9920992D01*
X9189966Y9920992D01*
X9189966Y10830973D01*
G37*
M02*
