%TF.GenerationSoftware,tscircuit,circuit-json-to-gerber,0.0.111*%
%TF.CreationDate,2026-10-07T23:52:13.678Z*%
%TF.SameCoordinates,Original*%
%TF.FileFunction,Copper,L2,Bot*%
%TF.FilePolarity,Positive*%
%FSLAX46Y46*%
%MOMM*%
G04 Gerber Fmt 4.6, Leading zero omitted, Abs format (unit mm)*
G04 Created by tscircuit (builder) date 2026-10-07T23:52:13.678Z*
G01*
%LPD*%
G75*
G04 APERTURE MACROS START*
%AMHORZPILL*
0 Horizontal pill (stadium) shape macro*
0 Parameters:*
0 $1 = Total width*
0 $2 = Total height*
0 $3 = Circle diameter (equal to height)*
0 $4 = Circle center offset
0 21 = Center Line(Exposure, Width, Height, Center X, Center Y, Rotation)*
0 1 = Circle(Exposure, Diameter, Center X, Center Y, Rotation)*
21,1,$1-$3,$2,0.0,0.0,0.0*
1,1,$3,0.0-$4,0.0*
1,1,$3,$4,0.0*%
%AMVERTPILL*
0 Vertical pill (stadium) shape macro*
0 Parameters:*
0 $1 = Total width*
0 $2 = Total height*
0 $3 = Circle diameter (equal to width)*
0 $4 = Circle center offset
0 21 = Center Line(Exposure, Width, Height, Center X, Center Y, Rotation)*
21,1,$1,$2-$3,0.0,0.0,0.0*
1,1,$3,0.0,0.0-$4*
1,1,$3,0.0,$4*%
%AMROUNDRECT*
0 Rectangle with rounded corners*
0 $1 Corner radius*
0 $2 $3 $4 $5 $6 $7 $8 $9 X,Y Position of each corner*
0 Polygon box body*
4,1,4,$2,$3,$4,$5,$6,$7,$8,$9,$2,$3,0*
0 Circles for rounded corners*
1,1,$1+$1,$2,$3*
1,1,$1+$1,$4,$5*
1,1,$1+$1,$6,$7*
1,1,$1+$1,$8,$9*
0 Rectangles between the rounded corners*
20,1,$1+$1,$2,$3,$4,$5,0*
20,1,$1+$1,$4,$5,$6,$7,0*
20,1,$1+$1,$6,$7,$8,$9,0*
20,1,$1+$1,$8,$9,$2,$3,0*%
G04 APERTURE MACROS END*
G04 aperture START LIST*
%ADD10C,0.270000*%
%ADD11C,0.443000*%
%ADD12C,0.352000*%
%ADD13C,0.194000*%
%ADD14C,0.450000*%
%ADD15C,0.214000*%
%ADD16C,0.160000*%
%ADD17C,0.600000*%
%ADD18C,0.502000*%
%ADD19C,0.300000*%
%ADD20C,0.256000*%
%ADD21C,0.378000*%
%ADD22C,0.328000*%
%ADD23C,0.351000*%
%ADD24C,3.200000*%
%ADD25C,0.100000*%
%ADD26C,0.599999*%
%ADD27VERTPILL,1.199998X1.799996X1.199998X0.299999*%
%ADD28VERTPILL,1.199998X1.999996X1.199998X0.399999*%
%ADD29C,0.090000*%
%ADD30C,1.700000*%
%ADD31C,0.063000*%
%ADD32C,0.058500*%
%ADD33C,0.500000*%
%ADD34C,0.001000*%
%TD*%
G04 aperture END LIST*
D34*
G36*
X017150000Y-17150000D02*
G01*
X017150000Y017150000D01*
G01*
X-17150000Y017150000D01*
G01*
X-17150000Y-17150000D01*
G01*
X017150000Y-17150000D01*
G37*
%LPC*%
D34*
G36*
X-02033905Y-15910792D02*
G01*
X-02026394Y-15892659D01*
G01*
X-02000000Y-15818894D01*
G01*
X-01973606Y-15892659D01*
G01*
X-01966095Y-15910792D01*
G01*
X-01930431Y-15986198D01*
G01*
X-01921179Y-16003508D01*
G01*
X-01878295Y-16075055D01*
G01*
X-01867391Y-16091375D01*
G01*
X-01817700Y-16158374D01*
G01*
X-01805249Y-16173546D01*
G01*
X-01749231Y-16235353D01*
G01*
X-01735353Y-16249231D01*
G01*
X-01673546Y-16305249D01*
G01*
X-01658374Y-16317700D01*
G01*
X-01591375Y-16367391D01*
G01*
X-01575055Y-16378295D01*
G01*
X-01503508Y-16421179D01*
G01*
X-01486198Y-16430431D01*
G01*
X-01410792Y-16466095D01*
G01*
X-01392659Y-16473606D01*
G01*
X-01314120Y-16501708D01*
G01*
X-01295338Y-16507406D01*
G01*
X-01214423Y-16527674D01*
G01*
X-01195173Y-16531503D01*
G01*
X-01112661Y-16543742D01*
G01*
X-01093128Y-16545666D01*
G01*
X-01009814Y-16549759D01*
G01*
X-00990186Y-16549759D01*
G01*
X-00906872Y-16545666D01*
G01*
X-00887339Y-16543742D01*
G01*
X-00804827Y-16531503D01*
G01*
X-00785577Y-16527674D01*
G01*
X-00704662Y-16507406D01*
G01*
X-00685880Y-16501708D01*
G01*
X-00607341Y-16473606D01*
G01*
X-00589208Y-16466095D01*
G01*
X-00513802Y-16430431D01*
G01*
X-00496492Y-16421179D01*
G01*
X-00424945Y-16378295D01*
G01*
X-00408625Y-16367391D01*
G01*
X-00341626Y-16317700D01*
G01*
X-00326454Y-16305249D01*
G01*
X-00264647Y-16249231D01*
G01*
X-00250769Y-16235353D01*
G01*
X-00194751Y-16173546D01*
G01*
X-00182300Y-16158374D01*
G01*
X-00132609Y-16091375D01*
G01*
X-00121705Y-16075055D01*
G01*
X-00078821Y-16003508D01*
G01*
X-00069569Y-15986198D01*
G01*
X-00033905Y-15910792D01*
G01*
X-00026394Y-15892659D01*
G01*
X000000000Y-15818894D01*
G01*
X000026394Y-15892659D01*
G01*
X000033905Y-15910792D01*
G01*
X000069569Y-15986198D01*
G01*
X000078821Y-16003508D01*
G01*
X000121705Y-16075055D01*
G01*
X000132609Y-16091375D01*
G01*
X000182300Y-16158374D01*
G01*
X000194751Y-16173546D01*
G01*
X000250769Y-16235353D01*
G01*
X000264647Y-16249231D01*
G01*
X000326454Y-16305249D01*
G01*
X000341626Y-16317700D01*
G01*
X000408625Y-16367391D01*
G01*
X000424945Y-16378295D01*
G01*
X000496492Y-16421179D01*
G01*
X000513802Y-16430431D01*
G01*
X000589208Y-16466095D01*
G01*
X000607341Y-16473606D01*
G01*
X000685880Y-16501708D01*
G01*
X000704662Y-16507406D01*
G01*
X000785577Y-16527674D01*
G01*
X000804827Y-16531503D01*
G01*
X000887339Y-16543742D01*
G01*
X000906872Y-16545666D01*
G01*
X000990186Y-16549759D01*
G01*
X001009814Y-16549759D01*
G01*
X001093128Y-16545666D01*
G01*
X001112661Y-16543742D01*
G01*
X001195173Y-16531503D01*
G01*
X001214423Y-16527674D01*
G01*
X001295338Y-16507406D01*
G01*
X001314120Y-16501708D01*
G01*
X001392659Y-16473606D01*
G01*
X001410792Y-16466095D01*
G01*
X001486198Y-16430431D01*
G01*
X001503508Y-16421179D01*
G01*
X001575055Y-16378295D01*
G01*
X001591375Y-16367391D01*
G01*
X001658374Y-16317700D01*
G01*
X001673546Y-16305249D01*
G01*
X001735353Y-16249231D01*
G01*
X001749231Y-16235353D01*
G01*
X001805249Y-16173546D01*
G01*
X001817700Y-16158374D01*
G01*
X001867391Y-16091375D01*
G01*
X001878295Y-16075055D01*
G01*
X001921179Y-16003508D01*
G01*
X001930431Y-15986198D01*
G01*
X001966095Y-15910792D01*
G01*
X001973606Y-15892659D01*
G01*
X002000000Y-15818894D01*
G01*
X002026394Y-15892659D01*
G01*
X002033905Y-15910792D01*
G01*
X002069569Y-15986198D01*
G01*
X002078821Y-16003508D01*
G01*
X002121705Y-16075055D01*
G01*
X002132609Y-16091375D01*
G01*
X002182300Y-16158374D01*
G01*
X002194751Y-16173546D01*
G01*
X002250769Y-16235353D01*
G01*
X002264647Y-16249231D01*
G01*
X002326454Y-16305249D01*
G01*
X002341626Y-16317700D01*
G01*
X002408625Y-16367391D01*
G01*
X002424945Y-16378295D01*
G01*
X002496492Y-16421179D01*
G01*
X002513802Y-16430431D01*
G01*
X002589208Y-16466095D01*
G01*
X002607341Y-16473606D01*
G01*
X002685880Y-16501708D01*
G01*
X002704662Y-16507406D01*
G01*
X002785577Y-16527674D01*
G01*
X002804827Y-16531503D01*
G01*
X002887339Y-16543742D01*
G01*
X002906872Y-16545666D01*
G01*
X002990186Y-16549759D01*
G01*
X003009814Y-16549759D01*
G01*
X003093128Y-16545666D01*
G01*
X003112661Y-16543742D01*
G01*
X003195173Y-16531503D01*
G01*
X003214423Y-16527674D01*
G01*
X003295338Y-16507406D01*
G01*
X003314120Y-16501708D01*
G01*
X003392659Y-16473606D01*
G01*
X003410792Y-16466095D01*
G01*
X003486198Y-16430431D01*
G01*
X003503508Y-16421179D01*
G01*
X003575055Y-16378295D01*
G01*
X003591375Y-16367391D01*
G01*
X003658374Y-16317700D01*
G01*
X003673546Y-16305249D01*
G01*
X003735353Y-16249231D01*
G01*
X003749231Y-16235353D01*
G01*
X003805249Y-16173546D01*
G01*
X003817700Y-16158374D01*
G01*
X003867391Y-16091375D01*
G01*
X003878295Y-16075055D01*
G01*
X003921179Y-16003508D01*
G01*
X003930431Y-15986198D01*
G01*
X003966095Y-15910792D01*
G01*
X003973606Y-15892659D01*
G01*
X004001708Y-15814120D01*
G01*
X004007406Y-15795338D01*
G01*
X004027674Y-15714423D01*
G01*
X004031503Y-15695173D01*
G01*
X004043742Y-15612661D01*
G01*
X004045666Y-15593128D01*
G01*
X004049759Y-15509814D01*
G01*
X004049759Y-15490186D01*
G01*
X004045666Y-15406872D01*
G01*
X004043742Y-15387339D01*
G01*
X004031503Y-15304827D01*
G01*
X004027674Y-15285577D01*
G01*
X004007406Y-15204662D01*
G01*
X004001708Y-15185880D01*
G01*
X003973606Y-15107341D01*
G01*
X003966095Y-15089208D01*
G01*
X003930431Y-15013802D01*
G01*
X003921179Y-14996492D01*
G01*
X003878295Y-14924945D01*
G01*
X003867391Y-14908625D01*
G01*
X003817700Y-14841626D01*
G01*
X003805249Y-14826454D01*
G01*
X003749231Y-14764647D01*
G01*
X003735353Y-14750769D01*
G01*
X003673546Y-14694751D01*
G01*
X003658374Y-14682300D01*
G01*
X003591375Y-14632609D01*
G01*
X003575055Y-14621705D01*
G01*
X003503508Y-14578821D01*
G01*
X003486198Y-14569569D01*
G01*
X003410792Y-14533905D01*
G01*
X003392659Y-14526394D01*
G01*
X003314120Y-14498292D01*
G01*
X003295338Y-14492594D01*
G01*
X003214423Y-14472326D01*
G01*
X003195173Y-14468497D01*
G01*
X003112661Y-14456258D01*
G01*
X003093128Y-14454334D01*
G01*
X003009814Y-14450241D01*
G01*
X002990186Y-14450241D01*
G01*
X002906872Y-14454334D01*
G01*
X002887339Y-14456258D01*
G01*
X002804827Y-14468497D01*
G01*
X002785577Y-14472326D01*
G01*
X002704662Y-14492594D01*
G01*
X002685880Y-14498292D01*
G01*
X002607341Y-14526394D01*
G01*
X002589208Y-14533905D01*
G01*
X002526526Y-14563551D01*
G01*
X-00083332Y-11953693D01*
G01*
X-00062051Y-11946079D01*
G01*
X-00043918Y-11938568D01*
G01*
X-00021740Y-11928078D01*
G01*
X-00004430Y-11918826D01*
G01*
X000016613Y-11906213D01*
G01*
X000032932Y-11895309D01*
G01*
X000052638Y-11880694D01*
G01*
X000067810Y-11868243D01*
G01*
X000085988Y-11851767D01*
G01*
X000099867Y-11837888D01*
G01*
X000116343Y-11819710D01*
G01*
X000128794Y-11804538D01*
G01*
X000143409Y-11784832D01*
G01*
X000154313Y-11768513D01*
G01*
X000166926Y-11747470D01*
G01*
X000176178Y-11730160D01*
G01*
X000186668Y-11707982D01*
G01*
X000194179Y-11689849D01*
G01*
X000202444Y-11666749D01*
G01*
X000208141Y-11647967D01*
G01*
X000214103Y-11624169D01*
G01*
X000217932Y-11604919D01*
G01*
X000221531Y-11580650D01*
G01*
X000223455Y-11561118D01*
G01*
X000224659Y-11536614D01*
G01*
X000224659Y-11516986D01*
G01*
X000223455Y-11492482D01*
G01*
X000221531Y-11472950D01*
G01*
X000217932Y-11448681D01*
G01*
X000214103Y-11429431D01*
G01*
X000208141Y-11405633D01*
G01*
X000202444Y-11386851D01*
G01*
X000194179Y-11363751D01*
G01*
X000186668Y-11345618D01*
G01*
X000176178Y-11323440D01*
G01*
X000166926Y-11306130D01*
G01*
X000154313Y-11285087D01*
G01*
X000143409Y-11268768D01*
G01*
X000128794Y-11249062D01*
G01*
X000116343Y-11233890D01*
G01*
X000099867Y-11215712D01*
G01*
X000085988Y-11201833D01*
G01*
X000067810Y-11185357D01*
G01*
X000052638Y-11172906D01*
G01*
X000032932Y-11158291D01*
G01*
X000016613Y-11147387D01*
G01*
X-00004430Y-11134774D01*
G01*
X-00021740Y-11125522D01*
G01*
X-00043918Y-11115032D01*
G01*
X-00062051Y-11107521D01*
G01*
X-00085151Y-11099256D01*
G01*
X-00103933Y-11093559D01*
G01*
X-00127731Y-11087597D01*
G01*
X-00134639Y-11086223D01*
G01*
X-00200600Y-11020263D01*
G01*
X-00200600Y-07899037D01*
G01*
X001541337Y-06157100D01*
G01*
X002252530Y-06157100D01*
G01*
X002258387Y-06161013D01*
G01*
X002279430Y-06173626D01*
G01*
X002296740Y-06182878D01*
G01*
X002318918Y-06193368D01*
G01*
X002337051Y-06200879D01*
G01*
X002360151Y-06209144D01*
G01*
X002378933Y-06214841D01*
G01*
X002402731Y-06220803D01*
G01*
X002421981Y-06224632D01*
G01*
X002446250Y-06228231D01*
G01*
X002465782Y-06230155D01*
G01*
X002490286Y-06231359D01*
G01*
X002509914Y-06231359D01*
G01*
X002534418Y-06230155D01*
G01*
X002553950Y-06228231D01*
G01*
X002578219Y-06224632D01*
G01*
X002597469Y-06220803D01*
G01*
X002621267Y-06214841D01*
G01*
X002640049Y-06209144D01*
G01*
X002663149Y-06200879D01*
G01*
X002681282Y-06193368D01*
G01*
X002703460Y-06182878D01*
G01*
X002720770Y-06173626D01*
G01*
X002741813Y-06161013D01*
G01*
X002758132Y-06150109D01*
G01*
X002777838Y-06135494D01*
G01*
X002793010Y-06123043D01*
G01*
X002811188Y-06106567D01*
G01*
X002825067Y-06092688D01*
G01*
X002841543Y-06074510D01*
G01*
X002853994Y-06059338D01*
G01*
X002868609Y-06039632D01*
G01*
X002879513Y-06023313D01*
G01*
X002892126Y-06002270D01*
G01*
X002901378Y-05984960D01*
G01*
X002911868Y-05962782D01*
G01*
X002919379Y-05944649D01*
G01*
X002927644Y-05921549D01*
G01*
X002933341Y-05902767D01*
G01*
X002939303Y-05878969D01*
G01*
X002943132Y-05859719D01*
G01*
X002946731Y-05835450D01*
G01*
X002948655Y-05815918D01*
G01*
X002949859Y-05791414D01*
G01*
X002949859Y-05771786D01*
G01*
X002948655Y-05747282D01*
G01*
X002946731Y-05727750D01*
G01*
X002943132Y-05703481D01*
G01*
X002939303Y-05684231D01*
G01*
X002933341Y-05660433D01*
G01*
X002927644Y-05641651D01*
G01*
X002919379Y-05618551D01*
G01*
X002911868Y-05600418D01*
G01*
X002901378Y-05578240D01*
G01*
X002892126Y-05560930D01*
G01*
X002879513Y-05539887D01*
G01*
X002868609Y-05523568D01*
G01*
X002853994Y-05503862D01*
G01*
X002841543Y-05488690D01*
G01*
X002825067Y-05470512D01*
G01*
X002811188Y-05456633D01*
G01*
X002793010Y-05440157D01*
G01*
X002777838Y-05427706D01*
G01*
X002758132Y-05413091D01*
G01*
X002741813Y-05402187D01*
G01*
X002720770Y-05389574D01*
G01*
X002703460Y-05380322D01*
G01*
X002681282Y-05369832D01*
G01*
X002663149Y-05362321D01*
G01*
X002640049Y-05354056D01*
G01*
X002621267Y-05348359D01*
G01*
X002597469Y-05342397D01*
G01*
X002578219Y-05338568D01*
G01*
X002553950Y-05334969D01*
G01*
X002534418Y-05333045D01*
G01*
X002509914Y-05331841D01*
G01*
X002490286Y-05331841D01*
G01*
X002465782Y-05333045D01*
G01*
X002446250Y-05334969D01*
G01*
X002421981Y-05338568D01*
G01*
X002405207Y-05341905D01*
G01*
X002435305Y-05308697D01*
G01*
X002464535Y-05269285D01*
G01*
X002489761Y-05227198D01*
G01*
X002510740Y-05182842D01*
G01*
X002527270Y-05136642D01*
G01*
X002539193Y-05089045D01*
G01*
X002546392Y-05040509D01*
G01*
X002548800Y-04991500D01*
G01*
X002548800Y-04964900D01*
G01*
X002546392Y-04915891D01*
G01*
X002539193Y-04867355D01*
G01*
X002527270Y-04819758D01*
G01*
X002510740Y-04773558D01*
G01*
X002489761Y-04729202D01*
G01*
X002464535Y-04687115D01*
G01*
X002435305Y-04647703D01*
G01*
X002402353Y-04611347D01*
G01*
X000572707Y-02781700D01*
G01*
X000760253Y-02594153D01*
G01*
X000793205Y-02557797D01*
G01*
X000822435Y-02518385D01*
G01*
X000847661Y-02476298D01*
G01*
X000868640Y-02431942D01*
G01*
X000885170Y-02385742D01*
G01*
X000897093Y-02338145D01*
G01*
X000904292Y-02289609D01*
G01*
X000906700Y-02240600D01*
G01*
X000904292Y-02191591D01*
G01*
X000897093Y-02143055D01*
G01*
X000885170Y-02095458D01*
G01*
X000868640Y-02049258D01*
G01*
X000847661Y-02004902D01*
G01*
X000822435Y-01962815D01*
G01*
X000794686Y-01925400D01*
G01*
X003304163Y-01925400D01*
G01*
X003303868Y-01926881D01*
G01*
X003300269Y-01951150D01*
G01*
X003298345Y-01970682D01*
G01*
X003297141Y-01995186D01*
G01*
X003297141Y-02014814D01*
G01*
X003298345Y-02039318D01*
G01*
X003300269Y-02058850D01*
G01*
X003303868Y-02083119D01*
G01*
X003307697Y-02102369D01*
G01*
X003313659Y-02126167D01*
G01*
X003319356Y-02144949D01*
G01*
X003327621Y-02168049D01*
G01*
X003335132Y-02186182D01*
G01*
X003345622Y-02208360D01*
G01*
X003354874Y-02225670D01*
G01*
X003367487Y-02246713D01*
G01*
X003378391Y-02263032D01*
G01*
X003393006Y-02282738D01*
G01*
X003396000Y-02286387D01*
G01*
X003396000Y-06267562D01*
G01*
X003383090Y-06278157D01*
G01*
X003364912Y-06294633D01*
G01*
X003351033Y-06308512D01*
G01*
X003334557Y-06326690D01*
G01*
X003322106Y-06341862D01*
G01*
X003307491Y-06361568D01*
G01*
X003296587Y-06377887D01*
G01*
X003283974Y-06398930D01*
G01*
X003274722Y-06416240D01*
G01*
X003264232Y-06438418D01*
G01*
X003256721Y-06456551D01*
G01*
X003248456Y-06479651D01*
G01*
X003242759Y-06498433D01*
G01*
X003236797Y-06522231D01*
G01*
X003232968Y-06541481D01*
G01*
X003229369Y-06565750D01*
G01*
X003227445Y-06585282D01*
G01*
X003226241Y-06609786D01*
G01*
X003226241Y-06629414D01*
G01*
X003227445Y-06653918D01*
G01*
X003229369Y-06673450D01*
G01*
X003232968Y-06697719D01*
G01*
X003236797Y-06716969D01*
G01*
X003242759Y-06740767D01*
G01*
X003248456Y-06759549D01*
G01*
X003256721Y-06782649D01*
G01*
X003264232Y-06800782D01*
G01*
X003274722Y-06822960D01*
G01*
X003283974Y-06840270D01*
G01*
X003296587Y-06861313D01*
G01*
X003307491Y-06877632D01*
G01*
X003322106Y-06897338D01*
G01*
X003334557Y-06912510D01*
G01*
X003351033Y-06930688D01*
G01*
X003364912Y-06944567D01*
G01*
X003383090Y-06961043D01*
G01*
X003398262Y-06973494D01*
G01*
X003417968Y-06988109D01*
G01*
X003434287Y-06999013D01*
G01*
X003455330Y-07011626D01*
G01*
X003472640Y-07020878D01*
G01*
X003494818Y-07031368D01*
G01*
X003512951Y-07038879D01*
G01*
X003536051Y-07047144D01*
G01*
X003554833Y-07052841D01*
G01*
X003578631Y-07058803D01*
G01*
X003597881Y-07062632D01*
G01*
X003622150Y-07066231D01*
G01*
X003641682Y-07068155D01*
G01*
X003666186Y-07069359D01*
G01*
X003685814Y-07069359D01*
G01*
X003710318Y-07068155D01*
G01*
X003729850Y-07066231D01*
G01*
X003754119Y-07062632D01*
G01*
X003773369Y-07058803D01*
G01*
X003797167Y-07052841D01*
G01*
X003815949Y-07047144D01*
G01*
X003839049Y-07038879D01*
G01*
X003857182Y-07031368D01*
G01*
X003879360Y-07020878D01*
G01*
X003896670Y-07011626D01*
G01*
X003917713Y-06999013D01*
G01*
X003934032Y-06988109D01*
G01*
X003953738Y-06973494D01*
G01*
X003968910Y-06961043D01*
G01*
X003987088Y-06944567D01*
G01*
X004000967Y-06930688D01*
G01*
X004017443Y-06912510D01*
G01*
X004029894Y-06897338D01*
G01*
X004044509Y-06877632D01*
G01*
X004055413Y-06861313D01*
G01*
X004068026Y-06840270D01*
G01*
X004077278Y-06822960D01*
G01*
X004087768Y-06800782D01*
G01*
X004095279Y-06782649D01*
G01*
X004103544Y-06759549D01*
G01*
X004109241Y-06740767D01*
G01*
X004115203Y-06716969D01*
G01*
X004119032Y-06697719D01*
G01*
X004122631Y-06673450D01*
G01*
X004124555Y-06653918D01*
G01*
X004125759Y-06629414D01*
G01*
X004125759Y-06609786D01*
G01*
X004124555Y-06585282D01*
G01*
X004122631Y-06565750D01*
G01*
X004119032Y-06541481D01*
G01*
X004115203Y-06522231D01*
G01*
X004109241Y-06498433D01*
G01*
X004103544Y-06479651D01*
G01*
X004095279Y-06456551D01*
G01*
X004087768Y-06438418D01*
G01*
X004077278Y-06416240D01*
G01*
X004068026Y-06398930D01*
G01*
X004055413Y-06377887D01*
G01*
X004044509Y-06361568D01*
G01*
X004029894Y-06341862D01*
G01*
X004017443Y-06326690D01*
G01*
X004000967Y-06308512D01*
G01*
X003987088Y-06294633D01*
G01*
X003968910Y-06278157D01*
G01*
X003956000Y-06267562D01*
G01*
X003956000Y-02403210D01*
G01*
X003967570Y-02397026D01*
G01*
X003988613Y-02384413D01*
G01*
X004004932Y-02373509D01*
G01*
X004024638Y-02358894D01*
G01*
X004039810Y-02346443D01*
G01*
X004057988Y-02329967D01*
G01*
X004071867Y-02316088D01*
G01*
X004088343Y-02297910D01*
G01*
X004100794Y-02282738D01*
G01*
X004115409Y-02263032D01*
G01*
X004126313Y-02246713D01*
G01*
X004138926Y-02225670D01*
G01*
X004148178Y-02208360D01*
G01*
X004158668Y-02186182D01*
G01*
X004166179Y-02168049D01*
G01*
X004174444Y-02144949D01*
G01*
X004180141Y-02126167D01*
G01*
X004186103Y-02102369D01*
G01*
X004189932Y-02083119D01*
G01*
X004193531Y-02058850D01*
G01*
X004195455Y-02039318D01*
G01*
X004196659Y-02014814D01*
G01*
X004196659Y-01995186D01*
G01*
X004195455Y-01970682D01*
G01*
X004193531Y-01951150D01*
G01*
X004189932Y-01926881D01*
G01*
X004186103Y-01907631D01*
G01*
X004180141Y-01883833D01*
G01*
X004174444Y-01865051D01*
G01*
X004166179Y-01841951D01*
G01*
X004158668Y-01823818D01*
G01*
X004148178Y-01801640D01*
G01*
X004138926Y-01784330D01*
G01*
X004126313Y-01763287D01*
G01*
X004115409Y-01746968D01*
G01*
X004100794Y-01727262D01*
G01*
X004088343Y-01712090D01*
G01*
X004071867Y-01693912D01*
G01*
X004057988Y-01680033D01*
G01*
X004039810Y-01663557D01*
G01*
X004024638Y-01651106D01*
G01*
X004004932Y-01636491D01*
G01*
X003988613Y-01625587D01*
G01*
X003967570Y-01612974D01*
G01*
X003950260Y-01603722D01*
G01*
X003928082Y-01593232D01*
G01*
X003909949Y-01585721D01*
G01*
X003888672Y-01578108D01*
G01*
X003922280Y-01544500D01*
G01*
X004103462Y-01544500D01*
G01*
X004114057Y-01557410D01*
G01*
X004130533Y-01575588D01*
G01*
X004144412Y-01589467D01*
G01*
X004162590Y-01605943D01*
G01*
X004177762Y-01618394D01*
G01*
X004197468Y-01633009D01*
G01*
X004213787Y-01643913D01*
G01*
X004234830Y-01656526D01*
G01*
X004252140Y-01665778D01*
G01*
X004274318Y-01676268D01*
G01*
X004292451Y-01683779D01*
G01*
X004315551Y-01692044D01*
G01*
X004334333Y-01697741D01*
G01*
X004358131Y-01703703D01*
G01*
X004377381Y-01707532D01*
G01*
X004401650Y-01711131D01*
G01*
X004421182Y-01713055D01*
G01*
X004422409Y-01713116D01*
G01*
X004420068Y-01724881D01*
G01*
X004416469Y-01749150D01*
G01*
X004414545Y-01768682D01*
G01*
X004413341Y-01793186D01*
G01*
X004413341Y-01812814D01*
G01*
X004414545Y-01837318D01*
G01*
X004416469Y-01856850D01*
G01*
X004420068Y-01881119D01*
G01*
X004423897Y-01900369D01*
G01*
X004429859Y-01924167D01*
G01*
X004435556Y-01942949D01*
G01*
X004443821Y-01966049D01*
G01*
X004451332Y-01984182D01*
G01*
X004461822Y-02006360D01*
G01*
X004471074Y-02023670D01*
G01*
X004483687Y-02044713D01*
G01*
X004494591Y-02061032D01*
G01*
X004509206Y-02080738D01*
G01*
X004521657Y-02095910D01*
G01*
X004538133Y-02114088D01*
G01*
X004552012Y-02127967D01*
G01*
X004570190Y-02144443D01*
G01*
X004585362Y-02156894D01*
G01*
X004605068Y-02171509D01*
G01*
X004621387Y-02182413D01*
G01*
X004642430Y-02195026D01*
G01*
X004659740Y-02204278D01*
G01*
X004681918Y-02214768D01*
G01*
X004700051Y-02222279D01*
G01*
X004723151Y-02230544D01*
G01*
X004741933Y-02236241D01*
G01*
X004765731Y-02242203D01*
G01*
X004784981Y-02246032D01*
G01*
X004809250Y-02249631D01*
G01*
X004828782Y-02251555D01*
G01*
X004853286Y-02252759D01*
G01*
X004872914Y-02252759D01*
G01*
X004897418Y-02251555D01*
G01*
X004916950Y-02249631D01*
G01*
X004941219Y-02246032D01*
G01*
X004960469Y-02242203D01*
G01*
X004984267Y-02236241D01*
G01*
X005003049Y-02230544D01*
G01*
X005026149Y-02222279D01*
G01*
X005044282Y-02214768D01*
G01*
X005066460Y-02204278D01*
G01*
X005083770Y-02195026D01*
G01*
X005104813Y-02182413D01*
G01*
X005121132Y-02171509D01*
G01*
X005140838Y-02156894D01*
G01*
X005156010Y-02144443D01*
G01*
X005174188Y-02127967D01*
G01*
X005188067Y-02114088D01*
G01*
X005204543Y-02095910D01*
G01*
X005215138Y-02083000D01*
G01*
X009029000Y-02083000D01*
G01*
X009056445Y-02081652D01*
G01*
X009083625Y-02077620D01*
G01*
X009110280Y-02070943D01*
G01*
X009136151Y-02061686D01*
G01*
X009160991Y-02049938D01*
G01*
X009184560Y-02035811D01*
G01*
X009206630Y-02019443D01*
G01*
X009226990Y-02000990D01*
G01*
X009589462Y-01638518D01*
G01*
X009606082Y-01640155D01*
G01*
X009630586Y-01641359D01*
G01*
X009650214Y-01641359D01*
G01*
X009674718Y-01640155D01*
G01*
X009694250Y-01638231D01*
G01*
X009718519Y-01634632D01*
G01*
X009737769Y-01630803D01*
G01*
X009761567Y-01624841D01*
G01*
X009780349Y-01619144D01*
G01*
X009803449Y-01610879D01*
G01*
X009821582Y-01603368D01*
G01*
X009843760Y-01592878D01*
G01*
X009861070Y-01583626D01*
G01*
X009882113Y-01571013D01*
G01*
X009898432Y-01560109D01*
G01*
X009918138Y-01545494D01*
G01*
X009933310Y-01533043D01*
G01*
X009951488Y-01516567D01*
G01*
X009965367Y-01502688D01*
G01*
X009981843Y-01484510D01*
G01*
X009994294Y-01469338D01*
G01*
X010008909Y-01449632D01*
G01*
X010019813Y-01433313D01*
G01*
X010032426Y-01412270D01*
G01*
X010041678Y-01394960D01*
G01*
X010052168Y-01372782D01*
G01*
X010059679Y-01354649D01*
G01*
X010067944Y-01331549D01*
G01*
X010073641Y-01312767D01*
G01*
X010079603Y-01288969D01*
G01*
X010083432Y-01269719D01*
G01*
X010087031Y-01245450D01*
G01*
X010088955Y-01225918D01*
G01*
X010090159Y-01201414D01*
G01*
X010090159Y-01181786D01*
G01*
X010088955Y-01157282D01*
G01*
X010087031Y-01137750D01*
G01*
X010083432Y-01113481D01*
G01*
X010079603Y-01094231D01*
G01*
X010073641Y-01070433D01*
G01*
X010067944Y-01051651D01*
G01*
X010059679Y-01028551D01*
G01*
X010052168Y-01010418D01*
G01*
X010041678Y-00988240D01*
G01*
X010032426Y-00970930D01*
G01*
X010019813Y-00949887D01*
G01*
X010008909Y-00933568D01*
G01*
X009994294Y-00913862D01*
G01*
X009981843Y-00898690D01*
G01*
X009965367Y-00880512D01*
G01*
X009951488Y-00866633D01*
G01*
X009933310Y-00850157D01*
G01*
X009918138Y-00837706D01*
G01*
X009898432Y-00823091D01*
G01*
X009882113Y-00812187D01*
G01*
X009861070Y-00799574D01*
G01*
X009843760Y-00790322D01*
G01*
X009821582Y-00779832D01*
G01*
X009803449Y-00772321D01*
G01*
X009780349Y-00764056D01*
G01*
X009761567Y-00758359D01*
G01*
X009737769Y-00752397D01*
G01*
X009718519Y-00748568D01*
G01*
X009694250Y-00744969D01*
G01*
X009674718Y-00743045D01*
G01*
X009650214Y-00741841D01*
G01*
X009630586Y-00741841D01*
G01*
X009606082Y-00743045D01*
G01*
X009586550Y-00744969D01*
G01*
X009562281Y-00748568D01*
G01*
X009543031Y-00752397D01*
G01*
X009519233Y-00758359D01*
G01*
X009500451Y-00764056D01*
G01*
X009477351Y-00772321D01*
G01*
X009459218Y-00779832D01*
G01*
X009437040Y-00790322D01*
G01*
X009436835Y-00790431D01*
G01*
X009441020Y-00773725D01*
G01*
X009445052Y-00746545D01*
G01*
X009446400Y-00719100D01*
G01*
X009446400Y-00218300D01*
G01*
X009446400Y-00218300D01*
G01*
X009445052Y-00190855D01*
G01*
X009441020Y-00163675D01*
G01*
X009434343Y-00137020D01*
G01*
X009425086Y-00111149D01*
G01*
X009413338Y-00086309D01*
G01*
X009399211Y-00062740D01*
G01*
X009382843Y-00040670D01*
G01*
X009364390Y-00020310D01*
G01*
X009364390Y-00020310D01*
G01*
X008888490Y000455590D01*
G01*
X008888490Y000455590D01*
G01*
X008868130Y000474043D01*
G01*
X008846060Y000490411D01*
G01*
X008822491Y000504538D01*
G01*
X008797651Y000516286D01*
G01*
X008771780Y000525543D01*
G01*
X008745125Y000532220D01*
G01*
X008717945Y000536252D01*
G01*
X008690500Y000537600D01*
G01*
X-08079500Y000537600D01*
G01*
X-08106945Y000536252D01*
G01*
X-08134125Y000532220D01*
G01*
X-08160780Y000525543D01*
G01*
X-08186651Y000516286D01*
G01*
X-08211491Y000504538D01*
G01*
X-08235060Y000490411D01*
G01*
X-08257130Y000474043D01*
G01*
X-08277490Y000455590D01*
G01*
X-09166080Y-00433000D01*
G01*
X-15404520Y-00433000D01*
G01*
X-15783200Y-00054320D01*
G01*
X-15783200Y000446820D01*
G01*
X-09953720Y006276300D01*
G01*
X-08915738Y006276300D01*
G01*
X-08905143Y006263390D01*
G01*
X-08888667Y006245212D01*
G01*
X-08874788Y006231333D01*
G01*
X-08856610Y006214857D01*
G01*
X-08841438Y006202406D01*
G01*
X-08821732Y006187791D01*
G01*
X-08805413Y006176887D01*
G01*
X-08784370Y006164274D01*
G01*
X-08767060Y006155022D01*
G01*
X-08744882Y006144532D01*
G01*
X-08726749Y006137021D01*
G01*
X-08703649Y006128756D01*
G01*
X-08684867Y006123059D01*
G01*
X-08661069Y006117097D01*
G01*
X-08641819Y006113268D01*
G01*
X-08617550Y006109669D01*
G01*
X-08598018Y006107745D01*
G01*
X-08573514Y006106541D01*
G01*
X-08553886Y006106541D01*
G01*
X-08529382Y006107745D01*
G01*
X-08509850Y006109669D01*
G01*
X-08485581Y006113268D01*
G01*
X-08466331Y006117097D01*
G01*
X-08442533Y006123059D01*
G01*
X-08423751Y006128756D01*
G01*
X-08400651Y006137021D01*
G01*
X-08382518Y006144532D01*
G01*
X-08360340Y006155022D01*
G01*
X-08343030Y006164274D01*
G01*
X-08321987Y006176887D01*
G01*
X-08305668Y006187791D01*
G01*
X-08285962Y006202406D01*
G01*
X-08270790Y006214857D01*
G01*
X-08252612Y006231333D01*
G01*
X-08238733Y006245212D01*
G01*
X-08222257Y006263390D01*
G01*
X-08209806Y006278562D01*
G01*
X-08195191Y006298268D01*
G01*
X-08184287Y006314587D01*
G01*
X-08171674Y006335630D01*
G01*
X-08162422Y006352940D01*
G01*
X-08151932Y006375118D01*
G01*
X-08144421Y006393251D01*
G01*
X-08136156Y006416351D01*
G01*
X-08130459Y006435133D01*
G01*
X-08124497Y006458931D01*
G01*
X-08120668Y006478181D01*
G01*
X-08117069Y006502450D01*
G01*
X-08115145Y006521982D01*
G01*
X-08113941Y006546486D01*
G01*
X-08113941Y006566114D01*
G01*
X-08115145Y006590618D01*
G01*
X-08117069Y006610150D01*
G01*
X-08120668Y006634419D01*
G01*
X-08124497Y006653669D01*
G01*
X-08130459Y006677467D01*
G01*
X-08136156Y006696249D01*
G01*
X-08144421Y006719349D01*
G01*
X-08151932Y006737482D01*
G01*
X-08162422Y006759660D01*
G01*
X-08171674Y006776970D01*
G01*
X-08184287Y006798013D01*
G01*
X-08195191Y006814332D01*
G01*
X-08209806Y006834038D01*
G01*
X-08222257Y006849210D01*
G01*
X-08238733Y006867388D01*
G01*
X-08252612Y006881267D01*
G01*
X-08270790Y006897743D01*
G01*
X-08285962Y006910194D01*
G01*
X-08305668Y006924809D01*
G01*
X-08321987Y006935713D01*
G01*
X-08343030Y006948326D01*
G01*
X-08360340Y006957578D01*
G01*
X-08382518Y006968068D01*
G01*
X-08400651Y006975579D01*
G01*
X-08423751Y006983844D01*
G01*
X-08442533Y006989541D01*
G01*
X-08466331Y006995503D01*
G01*
X-08485581Y006999332D01*
G01*
X-08509850Y007002931D01*
G01*
X-08529382Y007004855D01*
G01*
X-08553886Y007006059D01*
G01*
X-08573514Y007006059D01*
G01*
X-08598018Y007004855D01*
G01*
X-08617550Y007002931D01*
G01*
X-08641819Y006999332D01*
G01*
X-08661069Y006995503D01*
G01*
X-08684867Y006989541D01*
G01*
X-08703649Y006983844D01*
G01*
X-08726749Y006975579D01*
G01*
X-08744882Y006968068D01*
G01*
X-08767060Y006957578D01*
G01*
X-08784370Y006948326D01*
G01*
X-08805413Y006935713D01*
G01*
X-08821732Y006924809D01*
G01*
X-08841438Y006910194D01*
G01*
X-08856610Y006897743D01*
G01*
X-08874788Y006881267D01*
G01*
X-08888667Y006867388D01*
G01*
X-08905143Y006849210D01*
G01*
X-08915738Y006836300D01*
G01*
X-09841320Y006836300D01*
G01*
X-09482520Y007195100D01*
G01*
X-03442300Y007195100D01*
G01*
X-03414855Y007196448D01*
G01*
X-03387675Y007200480D01*
G01*
X-03361020Y007207157D01*
G01*
X-03335149Y007216414D01*
G01*
X-03310309Y007228162D01*
G01*
X-03286740Y007242289D01*
G01*
X-03264670Y007258657D01*
G01*
X-03244310Y007277110D01*
G01*
X-02720210Y007801210D01*
G01*
X-02701757Y007821570D01*
G01*
X-02685389Y007843640D01*
G01*
X-02671262Y007867209D01*
G01*
X-02659514Y007892049D01*
G01*
X-02650257Y007917920D01*
G01*
X-02643580Y007944575D01*
G01*
X-02639548Y007971755D01*
G01*
X-02638200Y007999200D01*
G01*
X-02638200Y009862120D01*
G01*
X-01686811Y010813509D01*
G01*
X-01686641Y010812833D01*
G01*
X-01680944Y010794051D01*
G01*
X-01672679Y010770951D01*
G01*
X-01665168Y010752818D01*
G01*
X-01654678Y010730640D01*
G01*
X-01645426Y010713330D01*
G01*
X-01632813Y010692287D01*
G01*
X-01621909Y010675968D01*
G01*
X-01607294Y010656262D01*
G01*
X-01594843Y010641090D01*
G01*
X-01578367Y010622912D01*
G01*
X-01564488Y010609033D01*
G01*
X-01546310Y010592557D01*
G01*
X-01531138Y010580106D01*
G01*
X-01511432Y010565491D01*
G01*
X-01495113Y010554587D01*
G01*
X-01474070Y010541974D01*
G01*
X-01456760Y010532722D01*
G01*
X-01434582Y010522232D01*
G01*
X-01416449Y010514721D01*
G01*
X-01393349Y010506456D01*
G01*
X-01374567Y010500759D01*
G01*
X-01350769Y010494797D01*
G01*
X-01331519Y010490968D01*
G01*
X-01307250Y010487369D01*
G01*
X-01301142Y010486767D01*
G01*
X-00921087Y010106713D01*
G01*
X-00921087Y010106713D01*
G01*
X-00895638Y010083646D01*
G01*
X-00868050Y010063186D01*
G01*
X-00838589Y010045528D01*
G01*
X-00807539Y010030842D01*
G01*
X-00775200Y010019271D01*
G01*
X-00741882Y010010925D01*
G01*
X-00707906Y010005885D01*
G01*
X-00673600Y010004200D01*
G01*
X-00673600Y010004200D01*
G01*
X-00138100Y010004200D01*
G01*
X-00138100Y006330100D01*
G01*
X-00136752Y006302655D01*
G01*
X-00132720Y006275475D01*
G01*
X-00126043Y006248820D01*
G01*
X-00116786Y006222949D01*
G01*
X-00105038Y006198109D01*
G01*
X-00090911Y006174540D01*
G01*
X-00074543Y006152470D01*
G01*
X-00056090Y006132110D01*
G01*
X001970682Y004105338D01*
G01*
X001969045Y004088718D01*
G01*
X001967841Y004064214D01*
G01*
X001967841Y004044586D01*
G01*
X001969045Y004020082D01*
G01*
X001970969Y004000550D01*
G01*
X001974568Y003976281D01*
G01*
X001978397Y003957031D01*
G01*
X001984359Y003933233D01*
G01*
X001990056Y003914451D01*
G01*
X001998321Y003891351D01*
G01*
X002005832Y003873218D01*
G01*
X002016322Y003851040D01*
G01*
X002022009Y003840400D01*
G01*
X000282483Y003840400D01*
G01*
X000277738Y003844294D01*
G01*
X000258032Y003858909D01*
G01*
X000241713Y003869813D01*
G01*
X000220670Y003882426D01*
G01*
X000203360Y003891678D01*
G01*
X000181182Y003902168D01*
G01*
X000163049Y003909679D01*
G01*
X000139949Y003917944D01*
G01*
X000121167Y003923641D01*
G01*
X000097369Y003929603D01*
G01*
X000078119Y003933432D01*
G01*
X000053850Y003937031D01*
G01*
X000034318Y003938955D01*
G01*
X000009814Y003940159D01*
G01*
X-00009814Y003940159D01*
G01*
X-00034318Y003938955D01*
G01*
X-00053850Y003937031D01*
G01*
X-00078119Y003933432D01*
G01*
X-00097369Y003929603D01*
G01*
X-00121167Y003923641D01*
G01*
X-00139949Y003917944D01*
G01*
X-00163049Y003909679D01*
G01*
X-00181182Y003902168D01*
G01*
X-00203360Y003891678D01*
G01*
X-00220670Y003882426D01*
G01*
X-00241713Y003869813D01*
G01*
X-00258032Y003858909D01*
G01*
X-00277738Y003844294D01*
G01*
X-00292910Y003831843D01*
G01*
X-00311088Y003815367D01*
G01*
X-00324967Y003801488D01*
G01*
X-00341443Y003783310D01*
G01*
X-00353894Y003768138D01*
G01*
X-00368509Y003748432D01*
G01*
X-00379413Y003732113D01*
G01*
X-00392026Y003711070D01*
G01*
X-00401278Y003693760D01*
G01*
X-00411768Y003671582D01*
G01*
X-00419279Y003653449D01*
G01*
X-00427544Y003630349D01*
G01*
X-00433241Y003611567D01*
G01*
X-00439203Y003587769D01*
G01*
X-00443032Y003568519D01*
G01*
X-00446631Y003544250D01*
G01*
X-00448555Y003524718D01*
G01*
X-00449759Y003500214D01*
G01*
X-00449759Y003480586D01*
G01*
X-00448555Y003456082D01*
G01*
X-00446631Y003436550D01*
G01*
X-00443032Y003412281D01*
G01*
X-00439203Y003393031D01*
G01*
X-00433241Y003369233D01*
G01*
X-00427544Y003350451D01*
G01*
X-00419279Y003327351D01*
G01*
X-00411768Y003309218D01*
G01*
X-00401278Y003287040D01*
G01*
X-00392026Y003269730D01*
G01*
X-00379413Y003248687D01*
G01*
X-00368509Y003232368D01*
G01*
X-00353894Y003212662D01*
G01*
X-00341443Y003197490D01*
G01*
X-00324967Y003179312D01*
G01*
X-00311088Y003165433D01*
G01*
X-00292910Y003148957D01*
G01*
X-00277738Y003136506D01*
G01*
X-00258032Y003121891D01*
G01*
X-00241713Y003110987D01*
G01*
X-00220670Y003098374D01*
G01*
X-00203360Y003089122D01*
G01*
X-00181182Y003078632D01*
G01*
X-00163049Y003071121D01*
G01*
X-00139949Y003062856D01*
G01*
X-00121167Y003057159D01*
G01*
X-00097369Y003051197D01*
G01*
X-00078119Y003047368D01*
G01*
X-00053850Y003043769D01*
G01*
X-00034318Y003041845D01*
G01*
X-00009814Y003040641D01*
G01*
X000009814Y003040641D01*
G01*
X000034318Y003041845D01*
G01*
X000053850Y003043769D01*
G01*
X000078119Y003047368D01*
G01*
X000097369Y003051197D01*
G01*
X000121167Y003057159D01*
G01*
X000139949Y003062856D01*
G01*
X000163049Y003071121D01*
G01*
X000181182Y003078632D01*
G01*
X000203360Y003089122D01*
G01*
X000220670Y003098374D01*
G01*
X000241713Y003110987D01*
G01*
X000258032Y003121891D01*
G01*
X000277738Y003136506D01*
G01*
X000282483Y003140400D01*
G01*
X007869867Y003140400D01*
G01*
X007876562Y003134906D01*
G01*
X007896268Y003120291D01*
G01*
X007912587Y003109387D01*
G01*
X007933630Y003096774D01*
G01*
X007950940Y003087522D01*
G01*
X007973118Y003077032D01*
G01*
X007991251Y003069521D01*
G01*
X008014351Y003061256D01*
G01*
X008033133Y003055559D01*
G01*
X008056931Y003049597D01*
G01*
X008076181Y003045768D01*
G01*
X008100450Y003042169D01*
G01*
X008119982Y003040245D01*
G01*
X008144486Y003039041D01*
G01*
X008164114Y003039041D01*
G01*
X008188618Y003040245D01*
G01*
X008208150Y003042169D01*
G01*
X008232419Y003045768D01*
G01*
X008251669Y003049597D01*
G01*
X008275467Y003055559D01*
G01*
X008294249Y003061256D01*
G01*
X008317349Y003069521D01*
G01*
X008335482Y003077032D01*
G01*
X008356100Y003086784D01*
G01*
X008356100Y003070144D01*
G01*
X008354451Y003069644D01*
G01*
X008331351Y003061379D01*
G01*
X008313218Y003053868D01*
G01*
X008291040Y003043378D01*
G01*
X008273730Y003034126D01*
G01*
X008252687Y003021513D01*
G01*
X008236368Y003010609D01*
G01*
X008216662Y002995994D01*
G01*
X008201490Y002983543D01*
G01*
X008183312Y002967067D01*
G01*
X008169433Y002953188D01*
G01*
X008152957Y002935010D01*
G01*
X008140506Y002919838D01*
G01*
X008125891Y002900132D01*
G01*
X008114987Y002883813D01*
G01*
X008102374Y002862770D01*
G01*
X008093122Y002845460D01*
G01*
X008082632Y002823282D01*
G01*
X008075121Y002805149D01*
G01*
X008066856Y002782049D01*
G01*
X008061159Y002763267D01*
G01*
X008055197Y002739469D01*
G01*
X008051368Y002720219D01*
G01*
X008047769Y002695950D01*
G01*
X008045845Y002676418D01*
G01*
X008044641Y002651914D01*
G01*
X008044641Y002632286D01*
G01*
X008045845Y002607782D01*
G01*
X008047769Y002588250D01*
G01*
X008051368Y002563981D01*
G01*
X008055197Y002544731D01*
G01*
X008061159Y002520933D01*
G01*
X008066856Y002502151D01*
G01*
X008075121Y002479051D01*
G01*
X008082632Y002460918D01*
G01*
X008093122Y002438740D01*
G01*
X008102374Y002421430D01*
G01*
X008114987Y002400387D01*
G01*
X008125891Y002384068D01*
G01*
X008140506Y002364362D01*
G01*
X008152957Y002349190D01*
G01*
X008169433Y002331012D01*
G01*
X008183312Y002317133D01*
G01*
X008201490Y002300657D01*
G01*
X008216662Y002288206D01*
G01*
X008236368Y002273591D01*
G01*
X008252687Y002262687D01*
G01*
X008273730Y002250074D01*
G01*
X008291040Y002240822D01*
G01*
X008313218Y002230332D01*
G01*
X008331351Y002222821D01*
G01*
X008354451Y002214556D01*
G01*
X008373233Y002208859D01*
G01*
X008397031Y002202897D01*
G01*
X008416281Y002199068D01*
G01*
X008440550Y002195469D01*
G01*
X008460082Y002193545D01*
G01*
X008484586Y002192341D01*
G01*
X008504214Y002192341D01*
G01*
X008528718Y002193545D01*
G01*
X008548250Y002195469D01*
G01*
X008572519Y002199068D01*
G01*
X008591769Y002202897D01*
G01*
X008615567Y002208859D01*
G01*
X008634349Y002214556D01*
G01*
X008657449Y002222821D01*
G01*
X008675582Y002230332D01*
G01*
X008697760Y002240822D01*
G01*
X008715070Y002250074D01*
G01*
X008736113Y002262687D01*
G01*
X008752432Y002273591D01*
G01*
X008772138Y002288206D01*
G01*
X008787310Y002300657D01*
G01*
X008805488Y002317133D01*
G01*
X008819367Y002331012D01*
G01*
X008835843Y002349190D01*
G01*
X008848294Y002364362D01*
G01*
X008862909Y002384068D01*
G01*
X008873813Y002400387D01*
G01*
X008886426Y002421430D01*
G01*
X008895678Y002438740D01*
G01*
X008906168Y002460918D01*
G01*
X008913679Y002479051D01*
G01*
X008921944Y002502151D01*
G01*
X008927641Y002520933D01*
G01*
X008933603Y002544731D01*
G01*
X008937432Y002563981D01*
G01*
X008941031Y002588250D01*
G01*
X008942955Y002607782D01*
G01*
X008944159Y002632286D01*
G01*
X008944159Y002651914D01*
G01*
X008942955Y002676418D01*
G01*
X008941031Y002695950D01*
G01*
X008937432Y002720219D01*
G01*
X008933603Y002739469D01*
G01*
X008927641Y002763267D01*
G01*
X008921944Y002782049D01*
G01*
X008916100Y002798382D01*
G01*
X008916100Y003737800D01*
G01*
X008916100Y003737800D01*
G01*
X008914752Y003765245D01*
G01*
X008910720Y003792425D01*
G01*
X008904043Y003819080D01*
G01*
X008894786Y003844951D01*
G01*
X008883038Y003869791D01*
G01*
X008868911Y003893360D01*
G01*
X008852543Y003915430D01*
G01*
X008834090Y003935790D01*
G01*
X008601290Y004168590D01*
G01*
X008580930Y004187043D01*
G01*
X008566051Y004198078D01*
G01*
X008558860Y004203411D01*
G01*
X008535291Y004217538D01*
G01*
X008510451Y004229286D01*
G01*
X008484580Y004238543D01*
G01*
X008457925Y004245220D01*
G01*
X008430745Y004249252D01*
G01*
X008403300Y004250600D01*
G01*
X004258680Y004250600D01*
G01*
X000733600Y007775680D01*
G01*
X000733600Y008859320D01*
G01*
X000952000Y009077720D01*
G01*
X000952000Y008900900D01*
G01*
X000953348Y008873455D01*
G01*
X000957380Y008846275D01*
G01*
X000964057Y008819620D01*
G01*
X000973314Y008793749D01*
G01*
X000985062Y008768909D01*
G01*
X000999189Y008745340D01*
G01*
X001015557Y008723270D01*
G01*
X001034010Y008702910D01*
G01*
X002912410Y006824510D01*
G01*
X002932770Y006806057D01*
G01*
X002954840Y006789689D01*
G01*
X002978409Y006775562D01*
G01*
X003003249Y006763814D01*
G01*
X003029120Y006754557D01*
G01*
X003055775Y006747880D01*
G01*
X003082955Y006743848D01*
G01*
X003110400Y006742500D01*
G01*
X004852320Y006742500D01*
G01*
X004338354Y006228534D01*
G01*
X004321060Y006237778D01*
G01*
X004298882Y006248268D01*
G01*
X004280749Y006255779D01*
G01*
X004257649Y006264044D01*
G01*
X004238867Y006269741D01*
G01*
X004215069Y006275703D01*
G01*
X004195819Y006279532D01*
G01*
X004171550Y006283131D01*
G01*
X004152018Y006285055D01*
G01*
X004127514Y006286259D01*
G01*
X004107886Y006286259D01*
G01*
X004083382Y006285055D01*
G01*
X004063850Y006283131D01*
G01*
X004039581Y006279532D01*
G01*
X004020331Y006275703D01*
G01*
X003996533Y006269741D01*
G01*
X003977751Y006264044D01*
G01*
X003954651Y006255779D01*
G01*
X003936518Y006248268D01*
G01*
X003914340Y006237778D01*
G01*
X003897030Y006228526D01*
G01*
X003875987Y006215913D01*
G01*
X003859668Y006205009D01*
G01*
X003839962Y006190394D01*
G01*
X003824790Y006177943D01*
G01*
X003806612Y006161467D01*
G01*
X003792733Y006147588D01*
G01*
X003776257Y006129410D01*
G01*
X003763806Y006114238D01*
G01*
X003749191Y006094532D01*
G01*
X003738287Y006078213D01*
G01*
X003725674Y006057170D01*
G01*
X003716422Y006039860D01*
G01*
X003705932Y006017682D01*
G01*
X003698421Y005999549D01*
G01*
X003690156Y005976449D01*
G01*
X003684459Y005957667D01*
G01*
X003678497Y005933869D01*
G01*
X003674668Y005914619D01*
G01*
X003671069Y005890350D01*
G01*
X003669145Y005870818D01*
G01*
X003667941Y005846314D01*
G01*
X003667941Y005826686D01*
G01*
X003669145Y005802182D01*
G01*
X003671069Y005782650D01*
G01*
X003674668Y005758381D01*
G01*
X003678497Y005739131D01*
G01*
X003684459Y005715333D01*
G01*
X003690156Y005696551D01*
G01*
X003698421Y005673451D01*
G01*
X003705932Y005655318D01*
G01*
X003716422Y005633140D01*
G01*
X003725674Y005615830D01*
G01*
X003738287Y005594787D01*
G01*
X003749191Y005578468D01*
G01*
X003763806Y005558762D01*
G01*
X003776257Y005543590D01*
G01*
X003792733Y005525412D01*
G01*
X003806612Y005511533D01*
G01*
X003824790Y005495057D01*
G01*
X003839962Y005482606D01*
G01*
X003859668Y005467991D01*
G01*
X003875987Y005457087D01*
G01*
X003897030Y005444474D01*
G01*
X003914340Y005435222D01*
G01*
X003936518Y005424732D01*
G01*
X003954651Y005417221D01*
G01*
X003977751Y005408956D01*
G01*
X003996533Y005403259D01*
G01*
X004020331Y005397297D01*
G01*
X004039581Y005393468D01*
G01*
X004063850Y005389869D01*
G01*
X004083382Y005387945D01*
G01*
X004107886Y005386741D01*
G01*
X004127514Y005386741D01*
G01*
X004152018Y005387945D01*
G01*
X004171550Y005389869D01*
G01*
X004195819Y005393468D01*
G01*
X004215069Y005397297D01*
G01*
X004238867Y005403259D01*
G01*
X004257649Y005408956D01*
G01*
X004280749Y005417221D01*
G01*
X004298882Y005424732D01*
G01*
X004321060Y005435222D01*
G01*
X004338370Y005444474D01*
G01*
X004359413Y005457087D01*
G01*
X004375732Y005467991D01*
G01*
X004395438Y005482606D01*
G01*
X004410610Y005495057D01*
G01*
X004428788Y005511533D01*
G01*
X004442667Y005525412D01*
G01*
X004459143Y005543590D01*
G01*
X004471594Y005558762D01*
G01*
X004486209Y005578468D01*
G01*
X004497113Y005594787D01*
G01*
X004506121Y005609815D01*
G01*
X004519930Y005620057D01*
G01*
X004540290Y005638510D01*
G01*
X005477362Y006575582D01*
G01*
X005493982Y006573945D01*
G01*
X005507528Y006573279D01*
G01*
X006999704Y005081016D01*
G01*
X006999707Y005081013D01*
G01*
X006999710Y005081010D01*
G01*
X007009887Y005071786D01*
G01*
X007020064Y005062562D01*
G01*
X007020067Y005062560D01*
G01*
X007020070Y005062557D01*
G01*
X007031102Y005054375D01*
G01*
X007042134Y005046193D01*
G01*
X007042137Y005046191D01*
G01*
X007042140Y005046189D01*
G01*
X007053921Y005039127D01*
G01*
X007065702Y005032066D01*
G01*
X007065705Y005032064D01*
G01*
X007065709Y005032062D01*
G01*
X007078125Y005026190D01*
G01*
X007090541Y005020317D01*
G01*
X007090545Y005020315D01*
G01*
X007090549Y005020314D01*
G01*
X007103481Y005015687D01*
G01*
X007116412Y005011059D01*
G01*
X007116416Y005011058D01*
G01*
X007116420Y005011057D01*
G01*
X007129744Y005007719D01*
G01*
X007143067Y005004382D01*
G01*
X007143071Y005004381D01*
G01*
X007143075Y005004380D01*
G01*
X007156661Y005002365D01*
G01*
X007170247Y005000349D01*
G01*
X007170251Y005000349D01*
G01*
X007170255Y005000348D01*
G01*
X007183974Y004999674D01*
G01*
X007197692Y004999000D01*
G01*
X007197696Y004999000D01*
G01*
X007197700Y004999000D01*
G01*
X007701900Y004999000D01*
G01*
X007729345Y005000348D01*
G01*
X007756525Y005004380D01*
G01*
X007783180Y005011057D01*
G01*
X007809051Y005020314D01*
G01*
X007833891Y005032062D01*
G01*
X007857460Y005046189D01*
G01*
X007879530Y005062557D01*
G01*
X007899890Y005081010D01*
G01*
X008595290Y005776410D01*
G01*
X008613743Y005796770D01*
G01*
X008630111Y005818840D01*
G01*
X008634706Y005826505D01*
G01*
X008639013Y005829087D01*
G01*
X008655332Y005839991D01*
G01*
X008675038Y005854606D01*
G01*
X008690210Y005867057D01*
G01*
X008708388Y005883533D01*
G01*
X008722267Y005897412D01*
G01*
X008738743Y005915590D01*
G01*
X008751194Y005930762D01*
G01*
X008765809Y005950468D01*
G01*
X008776713Y005966787D01*
G01*
X008789326Y005987830D01*
G01*
X008798578Y006005140D01*
G01*
X008809068Y006027318D01*
G01*
X008816579Y006045451D01*
G01*
X008824844Y006068551D01*
G01*
X008830541Y006087333D01*
G01*
X008836503Y006111131D01*
G01*
X008840332Y006130381D01*
G01*
X008843931Y006154650D01*
G01*
X008845855Y006174182D01*
G01*
X008847059Y006198686D01*
G01*
X008847059Y006218314D01*
G01*
X008845855Y006242818D01*
G01*
X008843931Y006262350D01*
G01*
X008840332Y006286619D01*
G01*
X008836503Y006305869D01*
G01*
X008830541Y006329667D01*
G01*
X008824844Y006348449D01*
G01*
X008816579Y006371549D01*
G01*
X008809068Y006389682D01*
G01*
X008798578Y006411860D01*
G01*
X008789326Y006429170D01*
G01*
X008776713Y006450213D01*
G01*
X008765809Y006466532D01*
G01*
X008751194Y006486238D01*
G01*
X008738743Y006501410D01*
G01*
X008722267Y006519588D01*
G01*
X008708388Y006533467D01*
G01*
X008690210Y006549943D01*
G01*
X008675038Y006562394D01*
G01*
X008655332Y006577009D01*
G01*
X008639013Y006587913D01*
G01*
X008617970Y006600526D01*
G01*
X008600660Y006609778D01*
G01*
X008578482Y006620268D01*
G01*
X008560349Y006627779D01*
G01*
X008537249Y006636044D01*
G01*
X008518467Y006641741D01*
G01*
X008494669Y006647703D01*
G01*
X008475419Y006651532D01*
G01*
X008451150Y006655131D01*
G01*
X008431618Y006657055D01*
G01*
X008407114Y006658259D01*
G01*
X008387486Y006658259D01*
G01*
X008362982Y006657055D01*
G01*
X008343450Y006655131D01*
G01*
X008319181Y006651532D01*
G01*
X008299931Y006647703D01*
G01*
X008276133Y006641741D01*
G01*
X008257351Y006636044D01*
G01*
X008234251Y006627779D01*
G01*
X008216118Y006620268D01*
G01*
X008193940Y006609778D01*
G01*
X008176630Y006600526D01*
G01*
X008155587Y006587913D01*
G01*
X008139268Y006577009D01*
G01*
X008119562Y006562394D01*
G01*
X008104390Y006549943D01*
G01*
X008086212Y006533467D01*
G01*
X008072333Y006519588D01*
G01*
X008055857Y006501410D01*
G01*
X008043406Y006486238D01*
G01*
X008028791Y006466532D01*
G01*
X008017887Y006450213D01*
G01*
X008005274Y006429170D01*
G01*
X007996022Y006411860D01*
G01*
X007985532Y006389682D01*
G01*
X007978021Y006371549D01*
G01*
X007969756Y006348449D01*
G01*
X007964059Y006329667D01*
G01*
X007958097Y006305869D01*
G01*
X007954268Y006286619D01*
G01*
X007950669Y006262350D01*
G01*
X007948745Y006242818D01*
G01*
X007947541Y006218314D01*
G01*
X007947541Y006198686D01*
G01*
X007948745Y006174182D01*
G01*
X007950669Y006154650D01*
G01*
X007954268Y006130381D01*
G01*
X007958097Y006111131D01*
G01*
X007964059Y006087333D01*
G01*
X007969756Y006068551D01*
G01*
X007978021Y006045451D01*
G01*
X007985532Y006027318D01*
G01*
X007996022Y006005140D01*
G01*
X008005274Y005987830D01*
G01*
X008008825Y005981905D01*
G01*
X007893097Y005866176D01*
G01*
X007889141Y005881967D01*
G01*
X007883444Y005900749D01*
G01*
X007875179Y005923849D01*
G01*
X007867668Y005941982D01*
G01*
X007857178Y005964160D01*
G01*
X007847926Y005981470D01*
G01*
X007835313Y006002513D01*
G01*
X007824409Y006018832D01*
G01*
X007809794Y006038538D01*
G01*
X007797343Y006053710D01*
G01*
X007780867Y006071888D01*
G01*
X007766988Y006085767D01*
G01*
X007748810Y006102243D01*
G01*
X007735900Y006112838D01*
G01*
X007735900Y006693400D01*
G01*
X007734552Y006720845D01*
G01*
X007730520Y006748025D01*
G01*
X007723843Y006774680D01*
G01*
X007714586Y006800551D01*
G01*
X007702838Y006825391D01*
G01*
X007688711Y006848960D01*
G01*
X007672343Y006871030D01*
G01*
X007653890Y006891390D01*
G01*
X005974218Y008571062D01*
G01*
X005975855Y008587682D01*
G01*
X005977059Y008612186D01*
G01*
X005977059Y008631814D01*
G01*
X005975855Y008656318D01*
G01*
X005973931Y008675850D01*
G01*
X005970332Y008700119D01*
G01*
X005966503Y008719369D01*
G01*
X005960541Y008743167D01*
G01*
X005954844Y008761949D01*
G01*
X005946579Y008785049D01*
G01*
X005939068Y008803182D01*
G01*
X005928578Y008825360D01*
G01*
X005919326Y008842670D01*
G01*
X005906713Y008863713D01*
G01*
X005895809Y008880032D01*
G01*
X005881194Y008899738D01*
G01*
X005868743Y008914910D01*
G01*
X005852267Y008933088D01*
G01*
X005838388Y008946967D01*
G01*
X005820210Y008963443D01*
G01*
X005805038Y008975894D01*
G01*
X005785332Y008990509D01*
G01*
X005769013Y009001413D01*
G01*
X005747970Y009014026D01*
G01*
X005730660Y009023278D01*
G01*
X005708482Y009033768D01*
G01*
X005690349Y009041279D01*
G01*
X005667249Y009049544D01*
G01*
X005648467Y009055241D01*
G01*
X005624669Y009061203D01*
G01*
X005605419Y009065032D01*
G01*
X005581150Y009068631D01*
G01*
X005561618Y009070555D01*
G01*
X005537114Y009071759D01*
G01*
X005517486Y009071759D01*
G01*
X005492982Y009070555D01*
G01*
X005473450Y009068631D01*
G01*
X005449181Y009065032D01*
G01*
X005429931Y009061203D01*
G01*
X005406133Y009055241D01*
G01*
X005387351Y009049544D01*
G01*
X005364251Y009041279D01*
G01*
X005346118Y009033768D01*
G01*
X005323940Y009023278D01*
G01*
X005306630Y009014026D01*
G01*
X005285587Y009001413D01*
G01*
X005269268Y008990509D01*
G01*
X005249562Y008975894D01*
G01*
X005234390Y008963443D01*
G01*
X005216212Y008946967D01*
G01*
X005202333Y008933088D01*
G01*
X005185857Y008914910D01*
G01*
X005173406Y008899738D01*
G01*
X005158791Y008880032D01*
G01*
X005147887Y008863713D01*
G01*
X005135274Y008842670D01*
G01*
X005126022Y008825360D01*
G01*
X005115532Y008803182D01*
G01*
X005108021Y008785049D01*
G01*
X005099756Y008761949D01*
G01*
X005094059Y008743167D01*
G01*
X005088097Y008719369D01*
G01*
X005084268Y008700119D01*
G01*
X005080669Y008675850D01*
G01*
X005078745Y008656318D01*
G01*
X005077541Y008631814D01*
G01*
X005077541Y008612186D01*
G01*
X005078745Y008587682D01*
G01*
X005080669Y008568150D01*
G01*
X005084268Y008543881D01*
G01*
X005088097Y008524631D01*
G01*
X005094059Y008500833D01*
G01*
X005099756Y008482051D01*
G01*
X005108021Y008458951D01*
G01*
X005115532Y008440818D01*
G01*
X005126022Y008418640D01*
G01*
X005135274Y008401330D01*
G01*
X005147887Y008380287D01*
G01*
X005158791Y008363968D01*
G01*
X005173406Y008344262D01*
G01*
X005185857Y008329090D01*
G01*
X005202333Y008310912D01*
G01*
X005216212Y008297033D01*
G01*
X005234390Y008280557D01*
G01*
X005249562Y008268106D01*
G01*
X005269268Y008253491D01*
G01*
X005285587Y008242587D01*
G01*
X005306630Y008229974D01*
G01*
X005323940Y008220722D01*
G01*
X005346118Y008210232D01*
G01*
X005364251Y008202721D01*
G01*
X005387351Y008194456D01*
G01*
X005406133Y008188759D01*
G01*
X005429931Y008182797D01*
G01*
X005449181Y008178968D01*
G01*
X005473450Y008175369D01*
G01*
X005492982Y008173445D01*
G01*
X005517486Y008172241D01*
G01*
X005537114Y008172241D01*
G01*
X005561618Y008173445D01*
G01*
X005578238Y008175082D01*
G01*
X007175900Y006577420D01*
G01*
X007175900Y006112838D01*
G01*
X007162990Y006102243D01*
G01*
X007144812Y006085767D01*
G01*
X007130933Y006071888D01*
G01*
X007114457Y006053710D01*
G01*
X007102006Y006038538D01*
G01*
X007087391Y006018832D01*
G01*
X007076487Y006002513D01*
G01*
X007063874Y005981470D01*
G01*
X007054622Y005964160D01*
G01*
X007044132Y005941982D01*
G01*
X007036621Y005923849D01*
G01*
X007028356Y005900749D01*
G01*
X007022659Y005881967D01*
G01*
X007016697Y005858169D01*
G01*
X007016338Y005856364D01*
G01*
X005963522Y006909241D01*
G01*
X005967503Y006925131D01*
G01*
X005971332Y006944381D01*
G01*
X005974931Y006968650D01*
G01*
X005976855Y006988182D01*
G01*
X005978059Y007012686D01*
G01*
X005978059Y007032314D01*
G01*
X005976855Y007056818D01*
G01*
X005974931Y007076350D01*
G01*
X005971332Y007100619D01*
G01*
X005967503Y007119869D01*
G01*
X005961541Y007143667D01*
G01*
X005955844Y007162449D01*
G01*
X005947579Y007185549D01*
G01*
X005940068Y007203682D01*
G01*
X005929578Y007225860D01*
G01*
X005920326Y007243170D01*
G01*
X005907713Y007264213D01*
G01*
X005896809Y007280532D01*
G01*
X005882194Y007300238D01*
G01*
X005869743Y007315410D01*
G01*
X005853267Y007333588D01*
G01*
X005839388Y007347467D01*
G01*
X005821210Y007363943D01*
G01*
X005806038Y007376394D01*
G01*
X005786332Y007391009D01*
G01*
X005770013Y007401913D01*
G01*
X005748970Y007414526D01*
G01*
X005731660Y007423778D01*
G01*
X005709482Y007434268D01*
G01*
X005691349Y007441779D01*
G01*
X005668249Y007450044D01*
G01*
X005649467Y007455741D01*
G01*
X005625669Y007461703D01*
G01*
X005606419Y007465532D01*
G01*
X005582150Y007469131D01*
G01*
X005562618Y007471055D01*
G01*
X005538114Y007472259D01*
G01*
X005518486Y007472259D01*
G01*
X005493982Y007471055D01*
G01*
X005474450Y007469131D01*
G01*
X005450181Y007465532D01*
G01*
X005430931Y007461703D01*
G01*
X005407133Y007455741D01*
G01*
X005388351Y007450044D01*
G01*
X005365251Y007441779D01*
G01*
X005347118Y007434268D01*
G01*
X005324940Y007423778D01*
G01*
X005307630Y007414526D01*
G01*
X005286587Y007401913D01*
G01*
X005270268Y007391009D01*
G01*
X005250562Y007376394D01*
G01*
X005235390Y007363943D01*
G01*
X005217212Y007347467D01*
G01*
X005203333Y007333588D01*
G01*
X005186857Y007315410D01*
G01*
X005176262Y007302500D01*
G01*
X003226380Y007302500D01*
G01*
X001881467Y008647413D01*
G01*
X001903849Y008655421D01*
G01*
X001921982Y008662932D01*
G01*
X001944160Y008673422D01*
G01*
X001961470Y008682674D01*
G01*
X001982513Y008695287D01*
G01*
X001998832Y008706191D01*
G01*
X002018538Y008720806D01*
G01*
X002033710Y008733257D01*
G01*
X002051888Y008749733D01*
G01*
X002065767Y008763612D01*
G01*
X002082243Y008781790D01*
G01*
X002094694Y008796962D01*
G01*
X002109309Y008816668D01*
G01*
X002120213Y008832987D01*
G01*
X002132826Y008854030D01*
G01*
X002142078Y008871340D01*
G01*
X002152568Y008893518D01*
G01*
X002160079Y008911651D01*
G01*
X002168344Y008934751D01*
G01*
X002174041Y008953533D01*
G01*
X002180003Y008977331D01*
G01*
X002183832Y008996581D01*
G01*
X002187431Y009020850D01*
G01*
X002189355Y009040382D01*
G01*
X002190559Y009064886D01*
G01*
X002190559Y009084514D01*
G01*
X002189355Y009109018D01*
G01*
X002187718Y009125638D01*
G01*
X003615380Y010553300D01*
G01*
X004782100Y010553300D01*
G01*
X004809545Y010554648D01*
G01*
X004836725Y010558680D01*
G01*
X004863380Y010565357D01*
G01*
X004889251Y010574614D01*
G01*
X004914091Y010586362D01*
G01*
X004937660Y010600489D01*
G01*
X004959730Y010616857D01*
G01*
X004980090Y010635310D01*
G01*
X007717562Y013372782D01*
G01*
X007734182Y013371145D01*
G01*
X007758686Y013369941D01*
G01*
X007778314Y013369941D01*
G01*
X007802818Y013371145D01*
G01*
X007822350Y013373069D01*
G01*
X007846619Y013376668D01*
G01*
X007865869Y013380497D01*
G01*
X007889667Y013386459D01*
G01*
X007908449Y013392156D01*
G01*
X007931549Y013400421D01*
G01*
X007949682Y013407932D01*
G01*
X007971860Y013418422D01*
G01*
X007989170Y013427674D01*
G01*
X008010213Y013440287D01*
G01*
X008026532Y013451191D01*
G01*
X008046238Y013465806D01*
G01*
X008061410Y013478257D01*
G01*
X008079588Y013494733D01*
G01*
X008093467Y013508612D01*
G01*
X008109943Y013526790D01*
G01*
X008122394Y013541962D01*
G01*
X008137009Y013561668D01*
G01*
X008147913Y013577987D01*
G01*
X008160526Y013599030D01*
G01*
X008169778Y013616340D01*
G01*
X008180268Y013638518D01*
G01*
X008187779Y013656651D01*
G01*
X008196044Y013679751D01*
G01*
X008201741Y013698533D01*
G01*
X008207703Y013722331D01*
G01*
X008211532Y013741581D01*
G01*
X008215131Y013765850D01*
G01*
X008217055Y013785382D01*
G01*
X008218259Y013809886D01*
G01*
X008218259Y013829514D01*
G01*
X008217055Y013854018D01*
G01*
X008215131Y013873550D01*
G01*
X008211532Y013897819D01*
G01*
X008207703Y013917069D01*
G01*
X008201741Y013940867D01*
G01*
X008196044Y013959649D01*
G01*
X008187779Y013982749D01*
G01*
X008180268Y014000882D01*
G01*
X008169778Y014023060D01*
G01*
X008160526Y014040370D01*
G01*
X008147913Y014061413D01*
G01*
X008137009Y014077732D01*
G01*
X008122394Y014097438D01*
G01*
X008109943Y014112610D01*
G01*
X008093467Y014130788D01*
G01*
X008079588Y014144667D01*
G01*
X008061410Y014161143D01*
G01*
X008046238Y014173594D01*
G01*
X008026532Y014188209D01*
G01*
X008010213Y014199113D01*
G01*
X007989170Y014211726D01*
G01*
X007971860Y014220978D01*
G01*
X007949682Y014231468D01*
G01*
X007931549Y014238979D01*
G01*
X007908449Y014247244D01*
G01*
X007889667Y014252941D01*
G01*
X007865869Y014258903D01*
G01*
X007846619Y014262732D01*
G01*
X007822350Y014266331D01*
G01*
X007802818Y014268255D01*
G01*
X007778314Y014269459D01*
G01*
X007758686Y014269459D01*
G01*
X007734182Y014268255D01*
G01*
X007714650Y014266331D01*
G01*
X007690381Y014262732D01*
G01*
X007671131Y014258903D01*
G01*
X007647333Y014252941D01*
G01*
X007628551Y014247244D01*
G01*
X007605451Y014238979D01*
G01*
X007587318Y014231468D01*
G01*
X007565140Y014220978D01*
G01*
X007547830Y014211726D01*
G01*
X007526787Y014199113D01*
G01*
X007510468Y014188209D01*
G01*
X007490762Y014173594D01*
G01*
X007475590Y014161143D01*
G01*
X007457412Y014144667D01*
G01*
X007443533Y014130788D01*
G01*
X007427057Y014112610D01*
G01*
X007414606Y014097438D01*
G01*
X007399991Y014077732D01*
G01*
X007389087Y014061413D01*
G01*
X007376474Y014040370D01*
G01*
X007367222Y014023060D01*
G01*
X007356732Y014000882D01*
G01*
X007349221Y013982749D01*
G01*
X007340956Y013959649D01*
G01*
X007335259Y013940867D01*
G01*
X007329297Y013917069D01*
G01*
X007325468Y013897819D01*
G01*
X007321869Y013873550D01*
G01*
X007319945Y013854018D01*
G01*
X007318741Y013829514D01*
G01*
X007318741Y013809886D01*
G01*
X007319945Y013785382D01*
G01*
X007321582Y013768762D01*
G01*
X004666120Y011113300D01*
G01*
X003615380Y011113300D01*
G01*
X002920590Y011808090D01*
G01*
X002900230Y011826543D01*
G01*
X002878160Y011842911D01*
G01*
X002854591Y011857038D01*
G01*
X002829751Y011868786D01*
G01*
X002803880Y011878043D01*
G01*
X002777225Y011884720D01*
G01*
X002750045Y011888752D01*
G01*
X002722600Y011890100D01*
G01*
X002342100Y011890100D01*
G01*
X002314655Y011888752D01*
G01*
X002287475Y011884720D01*
G01*
X002260820Y011878043D01*
G01*
X002234949Y011868786D01*
G01*
X002210109Y011857038D01*
G01*
X002186540Y011842911D01*
G01*
X002164470Y011826543D01*
G01*
X002144110Y011808090D01*
G01*
X001644810Y011308790D01*
G01*
X001626357Y011288430D01*
G01*
X001609989Y011266360D01*
G01*
X001595862Y011242791D01*
G01*
X001584114Y011217951D01*
G01*
X001574857Y011192080D01*
G01*
X001568180Y011165425D01*
G01*
X001564148Y011138245D01*
G01*
X001562800Y011110800D01*
G01*
X001562800Y010535948D01*
G01*
X001552578Y010557560D01*
G01*
X001543326Y010574870D01*
G01*
X001530713Y010595913D01*
G01*
X001519809Y010612232D01*
G01*
X001505194Y010631938D01*
G01*
X001492743Y010647110D01*
G01*
X001476267Y010665288D01*
G01*
X001462388Y010679167D01*
G01*
X001444210Y010695643D01*
G01*
X001429038Y010708094D01*
G01*
X001409332Y010722709D01*
G01*
X001393013Y010733613D01*
G01*
X001371970Y010746226D01*
G01*
X001354660Y010755478D01*
G01*
X001332482Y010765968D01*
G01*
X001314349Y010773479D01*
G01*
X001291249Y010781744D01*
G01*
X001272467Y010787441D01*
G01*
X001248669Y010793403D01*
G01*
X001229419Y010797232D01*
G01*
X001205150Y010800831D01*
G01*
X001185618Y010802755D01*
G01*
X001161114Y010803959D01*
G01*
X001141486Y010803959D01*
G01*
X001116982Y010802755D01*
G01*
X001097450Y010800831D01*
G01*
X001073181Y010797232D01*
G01*
X001053931Y010793403D01*
G01*
X001030133Y010787441D01*
G01*
X001011351Y010781744D01*
G01*
X000988251Y010773479D01*
G01*
X000970118Y010765968D01*
G01*
X000947940Y010755478D01*
G01*
X000930630Y010746226D01*
G01*
X000909587Y010733613D01*
G01*
X000893268Y010722709D01*
G01*
X000873562Y010708094D01*
G01*
X000868817Y010704200D01*
G01*
X000141900Y010704200D01*
G01*
X-00273179Y010704200D01*
G01*
X-00259687Y010712287D01*
G01*
X-00243368Y010723191D01*
G01*
X-00223662Y010737806D01*
G01*
X-00208490Y010750257D01*
G01*
X-00190312Y010766733D01*
G01*
X-00176433Y010780612D01*
G01*
X-00159957Y010798790D01*
G01*
X-00147506Y010813962D01*
G01*
X-00132891Y010833668D01*
G01*
X-00121987Y010849987D01*
G01*
X-00109374Y010871030D01*
G01*
X-00100122Y010888340D01*
G01*
X-00089632Y010910518D01*
G01*
X-00082121Y010928651D01*
G01*
X-00073856Y010951751D01*
G01*
X-00068159Y010970533D01*
G01*
X-00062197Y010994331D01*
G01*
X-00058368Y011013581D01*
G01*
X-00054769Y011037850D01*
G01*
X-00052845Y011057382D01*
G01*
X-00051641Y011081886D01*
G01*
X-00051641Y011101514D01*
G01*
X-00052845Y011126018D01*
G01*
X-00054769Y011145550D01*
G01*
X-00058368Y011169819D01*
G01*
X-00062197Y011189069D01*
G01*
X-00068159Y011212867D01*
G01*
X-00073856Y011231649D01*
G01*
X-00082121Y011254749D01*
G01*
X-00089632Y011272882D01*
G01*
X-00100122Y011295060D01*
G01*
X-00109374Y011312370D01*
G01*
X-00121987Y011333413D01*
G01*
X-00132891Y011349732D01*
G01*
X-00147506Y011369438D01*
G01*
X-00159957Y011384610D01*
G01*
X-00176433Y011402788D01*
G01*
X-00190312Y011416667D01*
G01*
X-00208490Y011433143D01*
G01*
X-00223662Y011445594D01*
G01*
X-00243368Y011460209D01*
G01*
X-00259687Y011471113D01*
G01*
X-00280730Y011483726D01*
G01*
X-00298040Y011492978D01*
G01*
X-00320218Y011503468D01*
G01*
X-00338351Y011510979D01*
G01*
X-00361451Y011519244D01*
G01*
X-00380233Y011524941D01*
G01*
X-00404031Y011530903D01*
G01*
X-00423281Y011534732D01*
G01*
X-00447550Y011538331D01*
G01*
X-00467082Y011540255D01*
G01*
X-00491586Y011541459D01*
G01*
X-00511214Y011541459D01*
G01*
X-00535718Y011540255D01*
G01*
X-00552338Y011538618D01*
G01*
X-00631910Y011618190D01*
G01*
X-00631910Y011618190D01*
G01*
X-00652270Y011636643D01*
G01*
X-00674340Y011653011D01*
G01*
X-00697909Y011667138D01*
G01*
X-00722749Y011678886D01*
G01*
X-00748620Y011688143D01*
G01*
X-00775275Y011694820D01*
G01*
X-00802455Y011698852D01*
G01*
X-00829900Y011700200D01*
G01*
X-01476100Y011700200D01*
G01*
X-01503545Y011698852D01*
G01*
X-01530725Y011694820D01*
G01*
X-01557380Y011688143D01*
G01*
X-01583251Y011678886D01*
G01*
X-01608091Y011667138D01*
G01*
X-01631660Y011653011D01*
G01*
X-01653730Y011636643D01*
G01*
X-01674090Y011618190D01*
G01*
X-03116190Y010176090D01*
G01*
X-03134643Y010155730D01*
G01*
X-03151011Y010133660D01*
G01*
X-03165138Y010110091D01*
G01*
X-03176886Y010085251D01*
G01*
X-03186143Y010059380D01*
G01*
X-03192820Y010032725D01*
G01*
X-03196852Y010005545D01*
G01*
X-03198200Y009978100D01*
G01*
X-03198200Y008115180D01*
G01*
X-03558280Y007755100D01*
G01*
X-09598500Y007755100D01*
G01*
X-09625945Y007753752D01*
G01*
X-09653125Y007749720D01*
G01*
X-09679780Y007743043D01*
G01*
X-09705651Y007733786D01*
G01*
X-09730491Y007722038D01*
G01*
X-09754060Y007707911D01*
G01*
X-09776130Y007691543D01*
G01*
X-09796490Y007673090D01*
G01*
X-16592490Y000877090D01*
G01*
X-16610943Y000856730D01*
G01*
X-16627311Y000834660D01*
G01*
X-16641438Y000811091D01*
G01*
X-16653186Y000786251D01*
G01*
X-16662443Y000760380D01*
G01*
X-16669120Y000733725D01*
G01*
X-16673152Y000706545D01*
G01*
X-16674500Y000679100D01*
G01*
X-16674500Y-00285400D01*
G01*
X-16673152Y-00312845D01*
G01*
X-16669120Y-00340025D01*
G01*
X-16662443Y-00366680D01*
G01*
X-16653186Y-00392551D01*
G01*
X-16641438Y-00417391D01*
G01*
X-16627311Y-00440960D01*
G01*
X-16610943Y-00463030D01*
G01*
X-16592490Y-00483390D01*
G01*
X-15228990Y-01846890D01*
G01*
X-15208630Y-01865343D01*
G01*
X-15186560Y-01881711D01*
G01*
X-15162991Y-01895838D01*
G01*
X-15138151Y-01907586D01*
G01*
X-15112280Y-01916843D01*
G01*
X-15085625Y-01923520D01*
G01*
X-15058445Y-01927552D01*
G01*
X-15031000Y-01928900D01*
G01*
X-08307580Y-01928900D01*
G01*
X-07977280Y-02259200D01*
G01*
X-08050282Y-02259200D01*
G01*
X-08055330Y-02256174D01*
G01*
X-08072640Y-02246922D01*
G01*
X-08094818Y-02236432D01*
G01*
X-08112951Y-02228921D01*
G01*
X-08136051Y-02220656D01*
G01*
X-08154833Y-02214959D01*
G01*
X-08178631Y-02208997D01*
G01*
X-08197881Y-02205168D01*
G01*
X-08222150Y-02201569D01*
G01*
X-08241682Y-02199645D01*
G01*
X-08266186Y-02198441D01*
G01*
X-08285814Y-02198441D01*
G01*
X-08310318Y-02199645D01*
G01*
X-08329850Y-02201569D01*
G01*
X-08354119Y-02205168D01*
G01*
X-08373369Y-02208997D01*
G01*
X-08397167Y-02214959D01*
G01*
X-08415949Y-02220656D01*
G01*
X-08439049Y-02228921D01*
G01*
X-08457182Y-02236432D01*
G01*
X-08479360Y-02246922D01*
G01*
X-08496670Y-02256174D01*
G01*
X-08517713Y-02268787D01*
G01*
X-08534032Y-02279691D01*
G01*
X-08553738Y-02294306D01*
G01*
X-08568910Y-02306757D01*
G01*
X-08587088Y-02323233D01*
G01*
X-08600967Y-02337112D01*
G01*
X-08617443Y-02355290D01*
G01*
X-08629894Y-02370462D01*
G01*
X-08644509Y-02390168D01*
G01*
X-08655413Y-02406487D01*
G01*
X-08668026Y-02427530D01*
G01*
X-08677278Y-02444840D01*
G01*
X-08687768Y-02467018D01*
G01*
X-08695279Y-02485151D01*
G01*
X-08703544Y-02508251D01*
G01*
X-08709241Y-02527033D01*
G01*
X-08715203Y-02550831D01*
G01*
X-08719032Y-02570081D01*
G01*
X-08722631Y-02594350D01*
G01*
X-08724555Y-02613882D01*
G01*
X-08725759Y-02638386D01*
G01*
X-08725759Y-02658014D01*
G01*
X-08724555Y-02682518D01*
G01*
X-08722631Y-02702050D01*
G01*
X-08719032Y-02726319D01*
G01*
X-08715203Y-02745569D01*
G01*
X-08709241Y-02769367D01*
G01*
X-08703544Y-02788149D01*
G01*
X-08695279Y-02811249D01*
G01*
X-08687768Y-02829382D01*
G01*
X-08677278Y-02851560D01*
G01*
X-08668026Y-02868870D01*
G01*
X-08655413Y-02889913D01*
G01*
X-08644509Y-02906232D01*
G01*
X-08629894Y-02925938D01*
G01*
X-08617443Y-02941110D01*
G01*
X-08600967Y-02959288D01*
G01*
X-08587088Y-02973167D01*
G01*
X-08568910Y-02989643D01*
G01*
X-08553738Y-03002094D01*
G01*
X-08534032Y-03016709D01*
G01*
X-08517713Y-03027613D01*
G01*
X-08496670Y-03040226D01*
G01*
X-08479360Y-03049478D01*
G01*
X-08457182Y-03059968D01*
G01*
X-08439049Y-03067479D01*
G01*
X-08415949Y-03075744D01*
G01*
X-08397167Y-03081441D01*
G01*
X-08373369Y-03087403D01*
G01*
X-08354119Y-03091232D01*
G01*
X-08329850Y-03094831D01*
G01*
X-08310318Y-03096755D01*
G01*
X-08285814Y-03097959D01*
G01*
X-08266186Y-03097959D01*
G01*
X-08241682Y-03096755D01*
G01*
X-08222150Y-03094831D01*
G01*
X-08197881Y-03091232D01*
G01*
X-08178631Y-03087403D01*
G01*
X-08154833Y-03081441D01*
G01*
X-08136051Y-03075744D01*
G01*
X-08112951Y-03067479D01*
G01*
X-08094818Y-03059968D01*
G01*
X-08072640Y-03049478D01*
G01*
X-08055330Y-03040226D01*
G01*
X-08050282Y-03037200D01*
G01*
X-02246318Y-03037200D01*
G01*
X-02241270Y-03040226D01*
G01*
X-02223960Y-03049478D01*
G01*
X-02201782Y-03059968D01*
G01*
X-02183649Y-03067479D01*
G01*
X-02160549Y-03075744D01*
G01*
X-02141767Y-03081441D01*
G01*
X-02117969Y-03087403D01*
G01*
X-02098719Y-03091232D01*
G01*
X-02074450Y-03094831D01*
G01*
X-02054918Y-03096755D01*
G01*
X-02030414Y-03097959D01*
G01*
X-02010786Y-03097959D01*
G01*
X-01986282Y-03096755D01*
G01*
X-01966750Y-03094831D01*
G01*
X-01942481Y-03091232D01*
G01*
X-01923231Y-03087403D01*
G01*
X-01899433Y-03081441D01*
G01*
X-01880651Y-03075744D01*
G01*
X-01857551Y-03067479D01*
G01*
X-01849251Y-03064041D01*
G01*
X-02629005Y-03843795D01*
G01*
X-02658728Y-03876589D01*
G01*
X-02685093Y-03912138D01*
G01*
X-02707846Y-03950100D01*
G01*
X-02726770Y-03990110D01*
G01*
X-02741680Y-04031782D01*
G01*
X-02752434Y-04074714D01*
G01*
X-02758928Y-04118494D01*
G01*
X-02761100Y-04162700D01*
G01*
X-02758928Y-04206906D01*
G01*
X-02752434Y-04250686D01*
G01*
X-02741680Y-04293618D01*
G01*
X-02726770Y-04335290D01*
G01*
X-02707846Y-04375300D01*
G01*
X-02685093Y-04413262D01*
G01*
X-02658728Y-04448811D01*
G01*
X-02648665Y-04459914D01*
G01*
X-02656387Y-04466913D01*
G01*
X-03399187Y-05209713D01*
G01*
X-03422254Y-05235162D01*
G01*
X-03442714Y-05262750D01*
G01*
X-03460372Y-05292211D01*
G01*
X-03467919Y-05308167D01*
G01*
X-03475058Y-05323261D01*
G01*
X-03486629Y-05355600D01*
G01*
X-03494975Y-05388918D01*
G01*
X-03500015Y-05422894D01*
G01*
X-03501700Y-05457200D01*
G01*
X-03501700Y-14577855D01*
G01*
X-03503508Y-14578821D01*
G01*
X-03575055Y-14621705D01*
G01*
X-03591375Y-14632609D01*
G01*
X-03658374Y-14682300D01*
G01*
X-03673546Y-14694751D01*
G01*
X-03735353Y-14750769D01*
G01*
X-03749231Y-14764647D01*
G01*
X-03805249Y-14826454D01*
G01*
X-03817700Y-14841626D01*
G01*
X-03867391Y-14908625D01*
G01*
X-03878295Y-14924945D01*
G01*
X-03921179Y-14996492D01*
G01*
X-03930431Y-15013802D01*
G01*
X-03966095Y-15089208D01*
G01*
X-03973606Y-15107341D01*
G01*
X-04001708Y-15185880D01*
G01*
X-04007406Y-15204662D01*
G01*
X-04027674Y-15285577D01*
G01*
X-04031503Y-15304827D01*
G01*
X-04043742Y-15387339D01*
G01*
X-04045666Y-15406872D01*
G01*
X-04049759Y-15490186D01*
G01*
X-04049759Y-15509814D01*
G01*
X-04045666Y-15593128D01*
G01*
X-04043742Y-15612661D01*
G01*
X-04031503Y-15695173D01*
G01*
X-04027674Y-15714423D01*
G01*
X-04007406Y-15795338D01*
G01*
X-04001708Y-15814120D01*
G01*
X-03973606Y-15892659D01*
G01*
X-03966095Y-15910792D01*
G01*
X-03930431Y-15986198D01*
G01*
X-03921179Y-16003508D01*
G01*
X-03878295Y-16075055D01*
G01*
X-03867391Y-16091375D01*
G01*
X-03817700Y-16158374D01*
G01*
X-03805249Y-16173546D01*
G01*
X-03749231Y-16235353D01*
G01*
X-03735353Y-16249231D01*
G01*
X-03673546Y-16305249D01*
G01*
X-03658374Y-16317700D01*
G01*
X-03591375Y-16367391D01*
G01*
X-03575055Y-16378295D01*
G01*
X-03503508Y-16421179D01*
G01*
X-03486198Y-16430431D01*
G01*
X-03410792Y-16466095D01*
G01*
X-03392659Y-16473606D01*
G01*
X-03314120Y-16501708D01*
G01*
X-03295338Y-16507406D01*
G01*
X-03214423Y-16527674D01*
G01*
X-03195173Y-16531503D01*
G01*
X-03112661Y-16543742D01*
G01*
X-03093128Y-16545666D01*
G01*
X-03009814Y-16549759D01*
G01*
X-02990186Y-16549759D01*
G01*
X-02906872Y-16545666D01*
G01*
X-02887339Y-16543742D01*
G01*
X-02804827Y-16531503D01*
G01*
X-02785577Y-16527674D01*
G01*
X-02704662Y-16507406D01*
G01*
X-02685880Y-16501708D01*
G01*
X-02607341Y-16473606D01*
G01*
X-02589208Y-16466095D01*
G01*
X-02513802Y-16430431D01*
G01*
X-02496492Y-16421179D01*
G01*
X-02424945Y-16378295D01*
G01*
X-02408625Y-16367391D01*
G01*
X-02341626Y-16317700D01*
G01*
X-02326454Y-16305249D01*
G01*
X-02264647Y-16249231D01*
G01*
X-02250769Y-16235353D01*
G01*
X-02194751Y-16173546D01*
G01*
X-02182300Y-16158374D01*
G01*
X-02132609Y-16091375D01*
G01*
X-02121705Y-16075055D01*
G01*
X-02078821Y-16003508D01*
G01*
X-02069569Y-15986198D01*
G01*
X-02033905Y-15910792D01*
G37*
D34*
G36*
X-15900000Y-10100000D02*
G01*
X-15900000Y-15900000D01*
G01*
X-10100000Y-15900000D01*
G01*
X-10100000Y-10100000D01*
G01*
X-15900000Y-10100000D01*
G37*
D34*
G36*
X-10819249Y001251166D02*
G01*
X-10787096Y001294519D01*
G01*
X-10759348Y001340814D01*
G01*
X-10736271Y001389606D01*
G01*
X-10718087Y001440426D01*
G01*
X-10704973Y001492782D01*
G01*
X-10697053Y001546173D01*
G01*
X-10694404Y001600082D01*
G01*
X-10697053Y001653991D01*
G01*
X-10704973Y001707382D01*
G01*
X-10718087Y001759738D01*
G01*
X-10736271Y001810558D01*
G01*
X-10759348Y001859350D01*
G01*
X-10787096Y001905645D01*
G01*
X-10819249Y001948998D01*
G01*
X-10855496Y001988990D01*
G01*
X-10895488Y002025237D01*
G01*
X-10938841Y002057390D01*
G01*
X-10985136Y002085138D01*
G01*
X-11033928Y002108215D01*
G01*
X-11084748Y002126399D01*
G01*
X-11137104Y002139513D01*
G01*
X-11190495Y002147433D01*
G01*
X-11244404Y002150081D01*
G01*
X-11298313Y002147433D01*
G01*
X-11351703Y002139513D01*
G01*
X-11404060Y002126399D01*
G01*
X-11454880Y002108215D01*
G01*
X-11503672Y002085138D01*
G01*
X-11549967Y002057390D01*
G01*
X-11593320Y002025237D01*
G01*
X-11633312Y001988990D01*
G01*
X-11669559Y001948998D01*
G01*
X-11701712Y001905645D01*
G01*
X-11729460Y001859350D01*
G01*
X-11752537Y001810558D01*
G01*
X-11770721Y001759738D01*
G01*
X-11783835Y001707382D01*
G01*
X-11791755Y001653991D01*
G01*
X-11794403Y001600082D01*
G01*
X-11791755Y001546173D01*
G01*
X-11783835Y001492782D01*
G01*
X-11770721Y001440426D01*
G01*
X-11752537Y001389606D01*
G01*
X-11729460Y001340814D01*
G01*
X-11701712Y001294519D01*
G01*
X-11669559Y001251166D01*
G01*
X-11633312Y001211174D01*
G01*
X-11593320Y001174927D01*
G01*
X-11549967Y001142774D01*
G01*
X-11503672Y001115026D01*
G01*
X-11454880Y001091949D01*
G01*
X-11404060Y001073765D01*
G01*
X-11351703Y001060651D01*
G01*
X-11298313Y001052731D01*
G01*
X-11244404Y001050083D01*
G01*
X-11190495Y001052731D01*
G01*
X-11137104Y001060651D01*
G01*
X-11084748Y001073765D01*
G01*
X-11033928Y001091949D01*
G01*
X-10985136Y001115026D01*
G01*
X-10938841Y001142774D01*
G01*
X-10895488Y001174927D01*
G01*
X-10855496Y001211174D01*
G01*
X-10819249Y001251166D01*
G37*
D34*
G36*
X-10819249Y007051002D02*
G01*
X-10787096Y007094355D01*
G01*
X-10759348Y007140650D01*
G01*
X-10736271Y007189442D01*
G01*
X-10718087Y007240262D01*
G01*
X-10704973Y007292618D01*
G01*
X-10697053Y007346009D01*
G01*
X-10694404Y007399918D01*
G01*
X-10697053Y007453827D01*
G01*
X-10704973Y007507218D01*
G01*
X-10718087Y007559574D01*
G01*
X-10736271Y007610394D01*
G01*
X-10759348Y007659186D01*
G01*
X-10787096Y007705481D01*
G01*
X-10819249Y007748834D01*
G01*
X-10855496Y007788826D01*
G01*
X-10895488Y007825073D01*
G01*
X-10938841Y007857226D01*
G01*
X-10985136Y007884974D01*
G01*
X-11033928Y007908051D01*
G01*
X-11084748Y007926235D01*
G01*
X-11137104Y007939349D01*
G01*
X-11190495Y007947269D01*
G01*
X-11244404Y007949917D01*
G01*
X-11298313Y007947269D01*
G01*
X-11351703Y007939349D01*
G01*
X-11404060Y007926235D01*
G01*
X-11454880Y007908051D01*
G01*
X-11503672Y007884974D01*
G01*
X-11549967Y007857226D01*
G01*
X-11593320Y007825073D01*
G01*
X-11633312Y007788826D01*
G01*
X-11669559Y007748834D01*
G01*
X-11701712Y007705481D01*
G01*
X-11729460Y007659186D01*
G01*
X-11752537Y007610394D01*
G01*
X-11770721Y007559574D01*
G01*
X-11783835Y007507218D01*
G01*
X-11791755Y007453827D01*
G01*
X-11794403Y007399918D01*
G01*
X-11791755Y007346009D01*
G01*
X-11783835Y007292618D01*
G01*
X-11770721Y007240262D01*
G01*
X-11752537Y007189442D01*
G01*
X-11729460Y007140650D01*
G01*
X-11701712Y007094355D01*
G01*
X-11669559Y007051002D01*
G01*
X-11633312Y007011010D01*
G01*
X-11593320Y006974763D01*
G01*
X-11549967Y006942610D01*
G01*
X-11503672Y006914862D01*
G01*
X-11454880Y006891785D01*
G01*
X-11404060Y006873601D01*
G01*
X-11351703Y006860487D01*
G01*
X-11298313Y006852567D01*
G01*
X-11244404Y006849919D01*
G01*
X-11190495Y006852567D01*
G01*
X-11137104Y006860487D01*
G01*
X-11084748Y006873601D01*
G01*
X-11033928Y006891785D01*
G01*
X-10985136Y006914862D01*
G01*
X-10938841Y006942610D01*
G01*
X-10895488Y006974763D01*
G01*
X-10855496Y007011010D01*
G01*
X-10819249Y007051002D01*
G37*
D34*
G36*
X-10100000Y015900000D02*
G01*
X-15900000Y015900000D01*
G01*
X-15900000Y010100000D01*
G01*
X-10100000Y010100000D01*
G01*
X-10100000Y015900000D01*
G37*
D34*
G36*
X-01004056Y001387851D02*
G01*
X-00998359Y001406633D01*
G01*
X-00992397Y001430431D01*
G01*
X-00988568Y001449681D01*
G01*
X-00984969Y001473950D01*
G01*
X-00983045Y001493482D01*
G01*
X-00981841Y001517986D01*
G01*
X-00981841Y001537614D01*
G01*
X-00983045Y001562118D01*
G01*
X-00984682Y001578738D01*
G01*
X-00903120Y001660300D01*
G01*
X001061562Y001660300D01*
G01*
X001072157Y001647390D01*
G01*
X001088633Y001629212D01*
G01*
X001102512Y001615333D01*
G01*
X001120690Y001598857D01*
G01*
X001135862Y001586406D01*
G01*
X001155568Y001571791D01*
G01*
X001171887Y001560887D01*
G01*
X001192930Y001548274D01*
G01*
X001210240Y001539022D01*
G01*
X001232418Y001528532D01*
G01*
X001250551Y001521021D01*
G01*
X001273651Y001512756D01*
G01*
X001292433Y001507059D01*
G01*
X001316231Y001501097D01*
G01*
X001335481Y001497268D01*
G01*
X001359750Y001493669D01*
G01*
X001379282Y001491745D01*
G01*
X001403786Y001490541D01*
G01*
X001423414Y001490541D01*
G01*
X001447918Y001491745D01*
G01*
X001467450Y001493669D01*
G01*
X001491719Y001497268D01*
G01*
X001510969Y001501097D01*
G01*
X001534767Y001507059D01*
G01*
X001553549Y001512756D01*
G01*
X001576649Y001521021D01*
G01*
X001594782Y001528532D01*
G01*
X001616960Y001539022D01*
G01*
X001634270Y001548274D01*
G01*
X001655313Y001560887D01*
G01*
X001671632Y001571791D01*
G01*
X001691338Y001586406D01*
G01*
X001706510Y001598857D01*
G01*
X001724688Y001615333D01*
G01*
X001738567Y001629212D01*
G01*
X001755043Y001647390D01*
G01*
X001767494Y001662562D01*
G01*
X001782109Y001682268D01*
G01*
X001793013Y001698587D01*
G01*
X001805626Y001719630D01*
G01*
X001814878Y001736940D01*
G01*
X001825368Y001759118D01*
G01*
X001832879Y001777251D01*
G01*
X001841144Y001800351D01*
G01*
X001846841Y001819133D01*
G01*
X001852803Y001842931D01*
G01*
X001856632Y001862181D01*
G01*
X001860231Y001886450D01*
G01*
X001862155Y001905982D01*
G01*
X001863359Y001930486D01*
G01*
X001863359Y001950114D01*
G01*
X001862155Y001974618D01*
G01*
X001860231Y001994150D01*
G01*
X001856632Y002018419D01*
G01*
X001852803Y002037669D01*
G01*
X001846841Y002061467D01*
G01*
X001841144Y002080249D01*
G01*
X001832879Y002103349D01*
G01*
X001825368Y002121482D01*
G01*
X001814878Y002143660D01*
G01*
X001805626Y002160970D01*
G01*
X001793013Y002182013D01*
G01*
X001782109Y002198332D01*
G01*
X001767494Y002218038D01*
G01*
X001755043Y002233210D01*
G01*
X001738567Y002251388D01*
G01*
X001724688Y002265267D01*
G01*
X001706510Y002281743D01*
G01*
X001691338Y002294194D01*
G01*
X001671632Y002308809D01*
G01*
X001655313Y002319713D01*
G01*
X001634270Y002332326D01*
G01*
X001616960Y002341578D01*
G01*
X001594782Y002352068D01*
G01*
X001576649Y002359579D01*
G01*
X001553549Y002367844D01*
G01*
X001534767Y002373541D01*
G01*
X001510969Y002379503D01*
G01*
X001491719Y002383332D01*
G01*
X001467450Y002386931D01*
G01*
X001447918Y002388855D01*
G01*
X001423414Y002390059D01*
G01*
X001403786Y002390059D01*
G01*
X001379282Y002388855D01*
G01*
X001359750Y002386931D01*
G01*
X001335481Y002383332D01*
G01*
X001316231Y002379503D01*
G01*
X001292433Y002373541D01*
G01*
X001273651Y002367844D01*
G01*
X001250551Y002359579D01*
G01*
X001232418Y002352068D01*
G01*
X001210240Y002341578D01*
G01*
X001192930Y002332326D01*
G01*
X001171887Y002319713D01*
G01*
X001155568Y002308809D01*
G01*
X001135862Y002294194D01*
G01*
X001120690Y002281743D01*
G01*
X001102512Y002265267D01*
G01*
X001088633Y002251388D01*
G01*
X001072157Y002233210D01*
G01*
X001061562Y002220300D01*
G01*
X-01019100Y002220300D01*
G01*
X-01046545Y002218952D01*
G01*
X-01073725Y002214920D01*
G01*
X-01100380Y002208243D01*
G01*
X-01126251Y002198986D01*
G01*
X-01151091Y002187238D01*
G01*
X-01174660Y002173111D01*
G01*
X-01196730Y002156743D01*
G01*
X-01217090Y002138290D01*
G01*
X-01380662Y001974718D01*
G01*
X-01397282Y001976355D01*
G01*
X-01421786Y001977559D01*
G01*
X-01441414Y001977559D01*
G01*
X-01465918Y001976355D01*
G01*
X-01485450Y001974431D01*
G01*
X-01509719Y001970832D01*
G01*
X-01528969Y001967003D01*
G01*
X-01552767Y001961041D01*
G01*
X-01571549Y001955344D01*
G01*
X-01594649Y001947079D01*
G01*
X-01612782Y001939568D01*
G01*
X-01634960Y001929078D01*
G01*
X-01652270Y001919826D01*
G01*
X-01673313Y001907213D01*
G01*
X-01689632Y001896309D01*
G01*
X-01709338Y001881694D01*
G01*
X-01724510Y001869243D01*
G01*
X-01742688Y001852767D01*
G01*
X-01756567Y001838888D01*
G01*
X-01773043Y001820710D01*
G01*
X-01785494Y001805538D01*
G01*
X-01800109Y001785832D01*
G01*
X-01811013Y001769513D01*
G01*
X-01823626Y001748470D01*
G01*
X-01832878Y001731160D01*
G01*
X-01843368Y001708982D01*
G01*
X-01850879Y001690849D01*
G01*
X-01859144Y001667749D01*
G01*
X-01864841Y001648967D01*
G01*
X-01870803Y001625169D01*
G01*
X-01874632Y001605919D01*
G01*
X-01878231Y001581650D01*
G01*
X-01880155Y001562118D01*
G01*
X-01881359Y001537614D01*
G01*
X-01881359Y001517986D01*
G01*
X-01880155Y001493482D01*
G01*
X-01878231Y001473950D01*
G01*
X-01874632Y001449681D01*
G01*
X-01870803Y001430431D01*
G01*
X-01864841Y001406633D01*
G01*
X-01859144Y001387851D01*
G01*
X-01850879Y001364751D01*
G01*
X-01843368Y001346618D01*
G01*
X-01832878Y001324440D01*
G01*
X-01823626Y001307130D01*
G01*
X-01811013Y001286087D01*
G01*
X-01800109Y001269768D01*
G01*
X-01785494Y001250062D01*
G01*
X-01773043Y001234890D01*
G01*
X-01756567Y001216712D01*
G01*
X-01742688Y001202833D01*
G01*
X-01724510Y001186357D01*
G01*
X-01709338Y001173906D01*
G01*
X-01689632Y001159291D01*
G01*
X-01673313Y001148387D01*
G01*
X-01652270Y001135774D01*
G01*
X-01634960Y001126522D01*
G01*
X-01612782Y001116032D01*
G01*
X-01594649Y001108521D01*
G01*
X-01571549Y001100256D01*
G01*
X-01552767Y001094559D01*
G01*
X-01528969Y001088597D01*
G01*
X-01509719Y001084768D01*
G01*
X-01485450Y001081169D01*
G01*
X-01465918Y001079245D01*
G01*
X-01441414Y001078041D01*
G01*
X-01421786Y001078041D01*
G01*
X-01397282Y001079245D01*
G01*
X-01377750Y001081169D01*
G01*
X-01353481Y001084768D01*
G01*
X-01334231Y001088597D01*
G01*
X-01310433Y001094559D01*
G01*
X-01291651Y001100256D01*
G01*
X-01268551Y001108521D01*
G01*
X-01250418Y001116032D01*
G01*
X-01228240Y001126522D01*
G01*
X-01210930Y001135774D01*
G01*
X-01189887Y001148387D01*
G01*
X-01173568Y001159291D01*
G01*
X-01153862Y001173906D01*
G01*
X-01138690Y001186357D01*
G01*
X-01120512Y001202833D01*
G01*
X-01106633Y001216712D01*
G01*
X-01090157Y001234890D01*
G01*
X-01077706Y001250062D01*
G01*
X-01063091Y001269768D01*
G01*
X-01052187Y001286087D01*
G01*
X-01039574Y001307130D01*
G01*
X-01030322Y001324440D01*
G01*
X-01019832Y001346618D01*
G01*
X-01012321Y001364751D01*
G01*
X-01004056Y001387851D01*
G37*
D34*
G36*
X001113194Y-11114013D02*
G01*
X001121874Y-11148664D01*
G01*
X001133908Y-11182297D01*
G01*
X001149181Y-11214588D01*
G01*
X001167545Y-11245228D01*
G01*
X001188824Y-11273919D01*
G01*
X001212813Y-11300387D01*
G01*
X003379413Y-13466987D01*
G01*
X003405881Y-13490976D01*
G01*
X003434572Y-13512255D01*
G01*
X003465212Y-13530619D01*
G01*
X003497503Y-13545892D01*
G01*
X003531136Y-13557926D01*
G01*
X003565787Y-13566606D01*
G01*
X003601122Y-13571847D01*
G01*
X003636800Y-13573600D01*
G01*
X007628188Y-13573600D01*
G01*
X007634268Y-13578109D01*
G01*
X007650587Y-13589013D01*
G01*
X007671630Y-13601626D01*
G01*
X007688940Y-13610878D01*
G01*
X007711118Y-13621368D01*
G01*
X007729251Y-13628879D01*
G01*
X007752351Y-13637144D01*
G01*
X007771133Y-13642841D01*
G01*
X007794931Y-13648803D01*
G01*
X007814181Y-13652632D01*
G01*
X007838450Y-13656231D01*
G01*
X007857982Y-13658155D01*
G01*
X007882486Y-13659359D01*
G01*
X007902114Y-13659359D01*
G01*
X007926618Y-13658155D01*
G01*
X007946150Y-13656231D01*
G01*
X007970419Y-13652632D01*
G01*
X007989669Y-13648803D01*
G01*
X008013467Y-13642841D01*
G01*
X008032249Y-13637144D01*
G01*
X008055349Y-13628879D01*
G01*
X008073482Y-13621368D01*
G01*
X008095660Y-13610878D01*
G01*
X008112970Y-13601626D01*
G01*
X008134013Y-13589013D01*
G01*
X008150332Y-13578109D01*
G01*
X008170038Y-13563494D01*
G01*
X008185210Y-13551043D01*
G01*
X008203388Y-13534567D01*
G01*
X008217267Y-13520688D01*
G01*
X008233743Y-13502510D01*
G01*
X008246194Y-13487338D01*
G01*
X008260809Y-13467632D01*
G01*
X008271713Y-13451313D01*
G01*
X008284326Y-13430270D01*
G01*
X008293578Y-13412960D01*
G01*
X008304068Y-13390782D01*
G01*
X008311579Y-13372649D01*
G01*
X008319844Y-13349549D01*
G01*
X008325541Y-13330767D01*
G01*
X008331503Y-13306969D01*
G01*
X008335332Y-13287719D01*
G01*
X008338931Y-13263450D01*
G01*
X008340855Y-13243918D01*
G01*
X008342059Y-13219414D01*
G01*
X008342059Y-13199786D01*
G01*
X008340855Y-13175282D01*
G01*
X008338931Y-13155750D01*
G01*
X008335332Y-13131481D01*
G01*
X008331503Y-13112231D01*
G01*
X008325541Y-13088433D01*
G01*
X008319844Y-13069651D01*
G01*
X008311579Y-13046551D01*
G01*
X008304068Y-13028418D01*
G01*
X008293578Y-13006240D01*
G01*
X008284326Y-12988930D01*
G01*
X008271713Y-12967887D01*
G01*
X008260809Y-12951568D01*
G01*
X008246194Y-12931862D01*
G01*
X008233743Y-12916690D01*
G01*
X008217267Y-12898512D01*
G01*
X008203388Y-12884633D01*
G01*
X008185210Y-12868157D01*
G01*
X008170038Y-12855706D01*
G01*
X008150332Y-12841091D01*
G01*
X008134013Y-12830187D01*
G01*
X008112970Y-12817574D01*
G01*
X008095660Y-12808322D01*
G01*
X008073482Y-12797832D01*
G01*
X008055349Y-12790321D01*
G01*
X008032249Y-12782056D01*
G01*
X008013467Y-12776359D01*
G01*
X007989669Y-12770397D01*
G01*
X007970419Y-12766568D01*
G01*
X007946150Y-12762969D01*
G01*
X007926618Y-12761045D01*
G01*
X007902114Y-12759841D01*
G01*
X007882486Y-12759841D01*
G01*
X007857982Y-12761045D01*
G01*
X007838450Y-12762969D01*
G01*
X007814181Y-12766568D01*
G01*
X007794931Y-12770397D01*
G01*
X007771133Y-12776359D01*
G01*
X007752351Y-12782056D01*
G01*
X007729251Y-12790321D01*
G01*
X007711118Y-12797832D01*
G01*
X007688940Y-12808322D01*
G01*
X007671630Y-12817574D01*
G01*
X007650587Y-12830187D01*
G01*
X007634268Y-12841091D01*
G01*
X007628188Y-12845600D01*
G01*
X003787574Y-12845600D01*
G01*
X002200104Y-11258130D01*
G01*
X002220649Y-11250779D01*
G01*
X002238782Y-11243268D01*
G01*
X002260960Y-11232778D01*
G01*
X002278270Y-11223526D01*
G01*
X002299313Y-11210913D01*
G01*
X002315632Y-11200009D01*
G01*
X002335338Y-11185394D01*
G01*
X002350510Y-11172943D01*
G01*
X002368688Y-11156467D01*
G01*
X002382567Y-11142588D01*
G01*
X002399043Y-11124410D01*
G01*
X002411494Y-11109238D01*
G01*
X002426109Y-11089532D01*
G01*
X002437013Y-11073213D01*
G01*
X002449626Y-11052170D01*
G01*
X002458878Y-11034860D01*
G01*
X002469368Y-11012682D01*
G01*
X002476879Y-10994549D01*
G01*
X002485144Y-10971449D01*
G01*
X002490841Y-10952667D01*
G01*
X002496803Y-10928869D01*
G01*
X002500632Y-10909619D01*
G01*
X002504231Y-10885350D01*
G01*
X002506155Y-10865818D01*
G01*
X002507359Y-10841314D01*
G01*
X002507359Y-10821686D01*
G01*
X002506155Y-10797182D01*
G01*
X002504518Y-10780562D01*
G01*
X003488280Y-09796800D01*
G01*
X007400462Y-09796800D01*
G01*
X007411057Y-09809710D01*
G01*
X007427533Y-09827888D01*
G01*
X007441412Y-09841767D01*
G01*
X007459590Y-09858243D01*
G01*
X007474762Y-09870694D01*
G01*
X007494468Y-09885309D01*
G01*
X007510787Y-09896213D01*
G01*
X007531830Y-09908826D01*
G01*
X007549140Y-09918078D01*
G01*
X007571318Y-09928568D01*
G01*
X007589451Y-09936079D01*
G01*
X007612551Y-09944344D01*
G01*
X007631333Y-09950041D01*
G01*
X007655131Y-09956003D01*
G01*
X007674381Y-09959832D01*
G01*
X007698650Y-09963431D01*
G01*
X007718182Y-09965355D01*
G01*
X007742686Y-09966559D01*
G01*
X007762314Y-09966559D01*
G01*
X007786818Y-09965355D01*
G01*
X007806350Y-09963431D01*
G01*
X007830619Y-09959832D01*
G01*
X007849869Y-09956003D01*
G01*
X007873667Y-09950041D01*
G01*
X007892449Y-09944344D01*
G01*
X007915549Y-09936079D01*
G01*
X007933682Y-09928568D01*
G01*
X007955860Y-09918078D01*
G01*
X007973170Y-09908826D01*
G01*
X007994213Y-09896213D01*
G01*
X008010532Y-09885309D01*
G01*
X008030238Y-09870694D01*
G01*
X008045410Y-09858243D01*
G01*
X008063588Y-09841767D01*
G01*
X008077467Y-09827888D01*
G01*
X008093943Y-09809710D01*
G01*
X008106394Y-09794538D01*
G01*
X008121009Y-09774832D01*
G01*
X008131913Y-09758513D01*
G01*
X008144526Y-09737470D01*
G01*
X008153778Y-09720160D01*
G01*
X008164268Y-09697982D01*
G01*
X008171779Y-09679849D01*
G01*
X008180044Y-09656749D01*
G01*
X008185741Y-09637967D01*
G01*
X008191703Y-09614169D01*
G01*
X008195532Y-09594919D01*
G01*
X008199131Y-09570650D01*
G01*
X008201055Y-09551118D01*
G01*
X008202259Y-09526614D01*
G01*
X008202259Y-09506986D01*
G01*
X008201055Y-09482482D01*
G01*
X008199131Y-09462950D01*
G01*
X008195532Y-09438681D01*
G01*
X008191703Y-09419431D01*
G01*
X008185741Y-09395633D01*
G01*
X008180044Y-09376851D01*
G01*
X008171779Y-09353751D01*
G01*
X008164268Y-09335618D01*
G01*
X008153778Y-09313440D01*
G01*
X008144526Y-09296130D01*
G01*
X008131913Y-09275087D01*
G01*
X008121009Y-09258768D01*
G01*
X008106394Y-09239062D01*
G01*
X008093943Y-09223890D01*
G01*
X008077467Y-09205712D01*
G01*
X008063588Y-09191833D01*
G01*
X008045410Y-09175357D01*
G01*
X008030238Y-09162906D01*
G01*
X008010532Y-09148291D01*
G01*
X007994213Y-09137387D01*
G01*
X007973170Y-09124774D01*
G01*
X007955860Y-09115522D01*
G01*
X007933682Y-09105032D01*
G01*
X007915549Y-09097521D01*
G01*
X007892449Y-09089256D01*
G01*
X007873667Y-09083559D01*
G01*
X007849869Y-09077597D01*
G01*
X007830619Y-09073768D01*
G01*
X007806350Y-09070169D01*
G01*
X007786818Y-09068245D01*
G01*
X007762314Y-09067041D01*
G01*
X007742686Y-09067041D01*
G01*
X007718182Y-09068245D01*
G01*
X007698650Y-09070169D01*
G01*
X007674381Y-09073768D01*
G01*
X007655131Y-09077597D01*
G01*
X007631333Y-09083559D01*
G01*
X007612551Y-09089256D01*
G01*
X007589451Y-09097521D01*
G01*
X007571318Y-09105032D01*
G01*
X007549140Y-09115522D01*
G01*
X007531830Y-09124774D01*
G01*
X007510787Y-09137387D01*
G01*
X007494468Y-09148291D01*
G01*
X007474762Y-09162906D01*
G01*
X007459590Y-09175357D01*
G01*
X007441412Y-09191833D01*
G01*
X007427533Y-09205712D01*
G01*
X007411057Y-09223890D01*
G01*
X007400462Y-09236800D01*
G01*
X003372300Y-09236800D01*
G01*
X003344855Y-09238148D01*
G01*
X003317675Y-09242180D01*
G01*
X003291020Y-09248857D01*
G01*
X003265149Y-09258114D01*
G01*
X003240309Y-09269862D01*
G01*
X003216740Y-09283989D01*
G01*
X003194670Y-09300357D01*
G01*
X003174310Y-09318810D01*
G01*
X002108538Y-10384582D01*
G01*
X002091918Y-10382945D01*
G01*
X002067414Y-10381741D01*
G01*
X002047786Y-10381741D01*
G01*
X002023282Y-10382945D01*
G01*
X002003750Y-10384869D01*
G01*
X001979481Y-10388468D01*
G01*
X001960231Y-10392297D01*
G01*
X001936433Y-10398259D01*
G01*
X001917651Y-10403956D01*
G01*
X001894551Y-10412221D01*
G01*
X001876418Y-10419732D01*
G01*
X001854240Y-10430222D01*
G01*
X001836930Y-10439474D01*
G01*
X001834200Y-10441110D01*
G01*
X001834200Y-10094774D01*
G01*
X003484831Y-08444142D01*
G01*
X003492319Y-08443032D01*
G01*
X003511569Y-08439203D01*
G01*
X003535367Y-08433241D01*
G01*
X003554149Y-08427544D01*
G01*
X003577249Y-08419279D01*
G01*
X003595382Y-08411768D01*
G01*
X003617560Y-08401278D01*
G01*
X003634870Y-08392026D01*
G01*
X003655913Y-08379413D01*
G01*
X003672232Y-08368509D01*
G01*
X003691938Y-08353894D01*
G01*
X003707110Y-08341443D01*
G01*
X003725288Y-08324967D01*
G01*
X003739167Y-08311088D01*
G01*
X003755643Y-08292910D01*
G01*
X003768094Y-08277738D01*
G01*
X003782709Y-08258032D01*
G01*
X003793613Y-08241713D01*
G01*
X003806226Y-08220670D01*
G01*
X003815478Y-08203360D01*
G01*
X003825968Y-08181182D01*
G01*
X003833479Y-08163049D01*
G01*
X003841744Y-08139949D01*
G01*
X003847441Y-08121167D01*
G01*
X003853403Y-08097369D01*
G01*
X003857232Y-08078119D01*
G01*
X003860831Y-08053850D01*
G01*
X003862755Y-08034318D01*
G01*
X003863959Y-08009814D01*
G01*
X003863959Y-07990186D01*
G01*
X003862755Y-07965682D01*
G01*
X003860831Y-07946150D01*
G01*
X003857232Y-07921881D01*
G01*
X003853403Y-07902631D01*
G01*
X003847441Y-07878833D01*
G01*
X003841744Y-07860051D01*
G01*
X003833479Y-07836951D01*
G01*
X003825968Y-07818818D01*
G01*
X003815478Y-07796640D01*
G01*
X003806226Y-07779330D01*
G01*
X003793613Y-07758287D01*
G01*
X003782709Y-07741968D01*
G01*
X003768094Y-07722262D01*
G01*
X003755643Y-07707090D01*
G01*
X003739167Y-07688912D01*
G01*
X003725288Y-07675033D01*
G01*
X003707110Y-07658557D01*
G01*
X003691938Y-07646106D01*
G01*
X003672232Y-07631491D01*
G01*
X003655913Y-07620587D01*
G01*
X003634870Y-07607974D01*
G01*
X003617560Y-07598722D01*
G01*
X003595382Y-07588232D01*
G01*
X003577249Y-07580721D01*
G01*
X003554149Y-07572456D01*
G01*
X003535367Y-07566759D01*
G01*
X003511569Y-07560797D01*
G01*
X003492319Y-07556968D01*
G01*
X003468050Y-07553369D01*
G01*
X003448518Y-07551445D01*
G01*
X003424014Y-07550241D01*
G01*
X003404386Y-07550241D01*
G01*
X003379882Y-07551445D01*
G01*
X003360350Y-07553369D01*
G01*
X003336081Y-07556968D01*
G01*
X003316831Y-07560797D01*
G01*
X003293033Y-07566759D01*
G01*
X003274251Y-07572456D01*
G01*
X003251151Y-07580721D01*
G01*
X003233018Y-07588232D01*
G01*
X003210840Y-07598722D01*
G01*
X003193530Y-07607974D01*
G01*
X003172487Y-07620587D01*
G01*
X003156168Y-07631491D01*
G01*
X003136462Y-07646106D01*
G01*
X003121290Y-07658557D01*
G01*
X003103112Y-07675033D01*
G01*
X003089233Y-07688912D01*
G01*
X003072757Y-07707090D01*
G01*
X003060306Y-07722262D01*
G01*
X003045691Y-07741968D01*
G01*
X003034787Y-07758287D01*
G01*
X003022174Y-07779330D01*
G01*
X003012922Y-07796640D01*
G01*
X003002432Y-07818818D01*
G01*
X002994921Y-07836951D01*
G01*
X002986656Y-07860051D01*
G01*
X002980959Y-07878833D01*
G01*
X002974997Y-07902631D01*
G01*
X002971168Y-07921881D01*
G01*
X002970058Y-07929369D01*
G01*
X001212813Y-09686613D01*
G01*
X001188824Y-09713081D01*
G01*
X001167545Y-09741772D01*
G01*
X001149181Y-09772412D01*
G01*
X001133908Y-09804703D01*
G01*
X001121874Y-09838336D01*
G01*
X001113194Y-09872987D01*
G01*
X001107953Y-09908322D01*
G01*
X001106200Y-09944000D01*
G01*
X001106200Y-11043000D01*
G01*
X001107953Y-11078678D01*
G01*
X001113194Y-11114013D01*
G37*
D34*
G36*
X004909438Y-11757394D02*
G01*
X004914183Y-11753500D01*
G01*
X009503317Y-11753500D01*
G01*
X009508062Y-11757394D01*
G01*
X009527768Y-11772009D01*
G01*
X009544087Y-11782913D01*
G01*
X009565130Y-11795526D01*
G01*
X009582440Y-11804778D01*
G01*
X009604618Y-11815268D01*
G01*
X009622751Y-11822779D01*
G01*
X009645851Y-11831044D01*
G01*
X009664633Y-11836741D01*
G01*
X009688431Y-11842703D01*
G01*
X009707681Y-11846532D01*
G01*
X009731950Y-11850131D01*
G01*
X009751482Y-11852055D01*
G01*
X009775986Y-11853259D01*
G01*
X009795614Y-11853259D01*
G01*
X009820118Y-11852055D01*
G01*
X009839650Y-11850131D01*
G01*
X009863919Y-11846532D01*
G01*
X009883169Y-11842703D01*
G01*
X009906967Y-11836741D01*
G01*
X009925749Y-11831044D01*
G01*
X009948849Y-11822779D01*
G01*
X009966982Y-11815268D01*
G01*
X009989160Y-11804778D01*
G01*
X010006470Y-11795526D01*
G01*
X010027513Y-11782913D01*
G01*
X010043832Y-11772009D01*
G01*
X010063538Y-11757394D01*
G01*
X010078710Y-11744943D01*
G01*
X010096888Y-11728467D01*
G01*
X010100000Y-11725355D01*
G01*
X010100000Y-15900000D01*
G01*
X015900000Y-15900000D01*
G01*
X015900000Y-10100000D01*
G01*
X010100000Y-10100000D01*
G01*
X010100000Y-11081645D01*
G01*
X010096888Y-11078533D01*
G01*
X010078710Y-11062057D01*
G01*
X010063538Y-11049606D01*
G01*
X010043832Y-11034991D01*
G01*
X010027513Y-11024087D01*
G01*
X010006470Y-11011474D01*
G01*
X009989160Y-11002222D01*
G01*
X009966982Y-10991732D01*
G01*
X009948849Y-10984221D01*
G01*
X009925749Y-10975956D01*
G01*
X009906967Y-10970259D01*
G01*
X009883169Y-10964297D01*
G01*
X009863919Y-10960468D01*
G01*
X009839650Y-10956869D01*
G01*
X009820118Y-10954945D01*
G01*
X009795614Y-10953741D01*
G01*
X009775986Y-10953741D01*
G01*
X009751482Y-10954945D01*
G01*
X009731950Y-10956869D01*
G01*
X009707681Y-10960468D01*
G01*
X009688431Y-10964297D01*
G01*
X009664633Y-10970259D01*
G01*
X009645851Y-10975956D01*
G01*
X009622751Y-10984221D01*
G01*
X009604618Y-10991732D01*
G01*
X009582440Y-11002222D01*
G01*
X009565130Y-11011474D01*
G01*
X009544087Y-11024087D01*
G01*
X009527768Y-11034991D01*
G01*
X009508062Y-11049606D01*
G01*
X009503317Y-11053500D01*
G01*
X004914183Y-11053500D01*
G01*
X004909438Y-11049606D01*
G01*
X004889732Y-11034991D01*
G01*
X004873413Y-11024087D01*
G01*
X004852370Y-11011474D01*
G01*
X004835060Y-11002222D01*
G01*
X004812882Y-10991732D01*
G01*
X004794749Y-10984221D01*
G01*
X004771649Y-10975956D01*
G01*
X004752867Y-10970259D01*
G01*
X004729069Y-10964297D01*
G01*
X004709819Y-10960468D01*
G01*
X004685550Y-10956869D01*
G01*
X004666018Y-10954945D01*
G01*
X004641514Y-10953741D01*
G01*
X004621886Y-10953741D01*
G01*
X004597382Y-10954945D01*
G01*
X004577850Y-10956869D01*
G01*
X004553581Y-10960468D01*
G01*
X004534331Y-10964297D01*
G01*
X004510533Y-10970259D01*
G01*
X004491751Y-10975956D01*
G01*
X004468651Y-10984221D01*
G01*
X004450518Y-10991732D01*
G01*
X004428340Y-11002222D01*
G01*
X004411030Y-11011474D01*
G01*
X004389987Y-11024087D01*
G01*
X004373668Y-11034991D01*
G01*
X004353962Y-11049606D01*
G01*
X004338790Y-11062057D01*
G01*
X004320612Y-11078533D01*
G01*
X004306733Y-11092412D01*
G01*
X004290257Y-11110590D01*
G01*
X004277806Y-11125762D01*
G01*
X004263191Y-11145468D01*
G01*
X004252287Y-11161787D01*
G01*
X004239674Y-11182830D01*
G01*
X004230422Y-11200140D01*
G01*
X004219932Y-11222318D01*
G01*
X004212421Y-11240451D01*
G01*
X004204156Y-11263551D01*
G01*
X004198459Y-11282333D01*
G01*
X004192497Y-11306131D01*
G01*
X004188668Y-11325381D01*
G01*
X004185069Y-11349650D01*
G01*
X004183145Y-11369182D01*
G01*
X004181941Y-11393686D01*
G01*
X004181941Y-11413314D01*
G01*
X004183145Y-11437818D01*
G01*
X004185069Y-11457350D01*
G01*
X004188668Y-11481619D01*
G01*
X004192497Y-11500869D01*
G01*
X004198459Y-11524667D01*
G01*
X004204156Y-11543449D01*
G01*
X004212421Y-11566549D01*
G01*
X004219932Y-11584682D01*
G01*
X004230422Y-11606860D01*
G01*
X004239674Y-11624170D01*
G01*
X004252287Y-11645213D01*
G01*
X004263191Y-11661532D01*
G01*
X004277806Y-11681238D01*
G01*
X004290257Y-11696410D01*
G01*
X004306733Y-11714588D01*
G01*
X004320612Y-11728467D01*
G01*
X004338790Y-11744943D01*
G01*
X004353962Y-11757394D01*
G01*
X004373668Y-11772009D01*
G01*
X004389987Y-11782913D01*
G01*
X004411030Y-11795526D01*
G01*
X004428340Y-11804778D01*
G01*
X004450518Y-11815268D01*
G01*
X004468651Y-11822779D01*
G01*
X004491751Y-11831044D01*
G01*
X004510533Y-11836741D01*
G01*
X004534331Y-11842703D01*
G01*
X004553581Y-11846532D01*
G01*
X004577850Y-11850131D01*
G01*
X004597382Y-11852055D01*
G01*
X004621886Y-11853259D01*
G01*
X004641514Y-11853259D01*
G01*
X004666018Y-11852055D01*
G01*
X004685550Y-11850131D01*
G01*
X004709819Y-11846532D01*
G01*
X004729069Y-11842703D01*
G01*
X004752867Y-11836741D01*
G01*
X004771649Y-11831044D01*
G01*
X004794749Y-11822779D01*
G01*
X004812882Y-11815268D01*
G01*
X004835060Y-11804778D01*
G01*
X004852370Y-11795526D01*
G01*
X004873413Y-11782913D01*
G01*
X004889732Y-11772009D01*
G01*
X004909438Y-11757394D01*
G37*
D34*
G36*
X006917943Y-06628710D02*
G01*
X006928538Y-06615800D01*
G01*
X009910200Y-06615800D01*
G01*
X009937645Y-06614452D01*
G01*
X009964825Y-06610420D01*
G01*
X009991480Y-06603743D01*
G01*
X010017351Y-06594486D01*
G01*
X010042191Y-06582738D01*
G01*
X010065760Y-06568611D01*
G01*
X010087830Y-06552243D01*
G01*
X010108190Y-06533790D01*
G01*
X010216562Y-06425418D01*
G01*
X010233182Y-06427055D01*
G01*
X010257686Y-06428259D01*
G01*
X010277314Y-06428259D01*
G01*
X010301818Y-06427055D01*
G01*
X010321350Y-06425131D01*
G01*
X010345619Y-06421532D01*
G01*
X010364869Y-06417703D01*
G01*
X010388667Y-06411741D01*
G01*
X010407449Y-06406044D01*
G01*
X010430549Y-06397779D01*
G01*
X010448682Y-06390268D01*
G01*
X010470860Y-06379778D01*
G01*
X010488170Y-06370526D01*
G01*
X010509213Y-06357913D01*
G01*
X010525532Y-06347009D01*
G01*
X010545238Y-06332394D01*
G01*
X010560410Y-06319943D01*
G01*
X010578588Y-06303467D01*
G01*
X010592467Y-06289588D01*
G01*
X010608943Y-06271410D01*
G01*
X010621394Y-06256238D01*
G01*
X010636009Y-06236532D01*
G01*
X010646913Y-06220213D01*
G01*
X010659526Y-06199170D01*
G01*
X010668778Y-06181860D01*
G01*
X010679268Y-06159682D01*
G01*
X010686779Y-06141549D01*
G01*
X010695044Y-06118449D01*
G01*
X010700741Y-06099667D01*
G01*
X010706703Y-06075869D01*
G01*
X010710532Y-06056619D01*
G01*
X010714131Y-06032350D01*
G01*
X010716055Y-06012818D01*
G01*
X010717259Y-05988314D01*
G01*
X010717259Y-05968686D01*
G01*
X010716055Y-05944182D01*
G01*
X010714131Y-05924650D01*
G01*
X010710532Y-05900381D01*
G01*
X010706703Y-05881131D01*
G01*
X010700741Y-05857333D01*
G01*
X010695044Y-05838551D01*
G01*
X010686779Y-05815451D01*
G01*
X010679268Y-05797318D01*
G01*
X010668778Y-05775140D01*
G01*
X010659526Y-05757830D01*
G01*
X010646913Y-05736787D01*
G01*
X010636009Y-05720468D01*
G01*
X010621394Y-05700762D01*
G01*
X010608943Y-05685590D01*
G01*
X010592467Y-05667412D01*
G01*
X010578588Y-05653533D01*
G01*
X010560410Y-05637057D01*
G01*
X010545238Y-05624606D01*
G01*
X010525532Y-05609991D01*
G01*
X010509213Y-05599087D01*
G01*
X010488170Y-05586474D01*
G01*
X010470860Y-05577222D01*
G01*
X010448682Y-05566732D01*
G01*
X010430549Y-05559221D01*
G01*
X010407449Y-05550956D01*
G01*
X010388667Y-05545259D01*
G01*
X010364869Y-05539297D01*
G01*
X010345619Y-05535468D01*
G01*
X010321350Y-05531869D01*
G01*
X010301818Y-05529945D01*
G01*
X010277314Y-05528741D01*
G01*
X010257686Y-05528741D01*
G01*
X010233182Y-05529945D01*
G01*
X010213650Y-05531869D01*
G01*
X010189381Y-05535468D01*
G01*
X010170131Y-05539297D01*
G01*
X010146333Y-05545259D01*
G01*
X010127551Y-05550956D01*
G01*
X010104451Y-05559221D01*
G01*
X010086318Y-05566732D01*
G01*
X010064140Y-05577222D01*
G01*
X010046830Y-05586474D01*
G01*
X010025787Y-05599087D01*
G01*
X010009468Y-05609991D01*
G01*
X009989762Y-05624606D01*
G01*
X009974590Y-05637057D01*
G01*
X009956412Y-05653533D01*
G01*
X009942533Y-05667412D01*
G01*
X009926057Y-05685590D01*
G01*
X009913606Y-05700762D01*
G01*
X009898991Y-05720468D01*
G01*
X009888087Y-05736787D01*
G01*
X009875474Y-05757830D01*
G01*
X009866222Y-05775140D01*
G01*
X009855732Y-05797318D01*
G01*
X009848221Y-05815451D01*
G01*
X009839956Y-05838551D01*
G01*
X009834259Y-05857333D01*
G01*
X009828297Y-05881131D01*
G01*
X009824468Y-05900381D01*
G01*
X009820869Y-05924650D01*
G01*
X009818945Y-05944182D01*
G01*
X009817741Y-05968686D01*
G01*
X009817741Y-05988314D01*
G01*
X009818945Y-06012818D01*
G01*
X009820582Y-06029438D01*
G01*
X009794220Y-06055800D01*
G01*
X006928538Y-06055800D01*
G01*
X006917943Y-06042890D01*
G01*
X006901467Y-06024712D01*
G01*
X006887588Y-06010833D01*
G01*
X006869410Y-05994357D01*
G01*
X006854238Y-05981906D01*
G01*
X006834532Y-05967291D01*
G01*
X006818213Y-05956387D01*
G01*
X006797170Y-05943774D01*
G01*
X006779860Y-05934522D01*
G01*
X006757682Y-05924032D01*
G01*
X006739549Y-05916521D01*
G01*
X006716449Y-05908256D01*
G01*
X006697667Y-05902559D01*
G01*
X006673869Y-05896597D01*
G01*
X006654619Y-05892768D01*
G01*
X006630350Y-05889169D01*
G01*
X006610818Y-05887245D01*
G01*
X006586314Y-05886041D01*
G01*
X006566686Y-05886041D01*
G01*
X006542182Y-05887245D01*
G01*
X006522650Y-05889169D01*
G01*
X006498381Y-05892768D01*
G01*
X006479131Y-05896597D01*
G01*
X006455333Y-05902559D01*
G01*
X006436551Y-05908256D01*
G01*
X006413451Y-05916521D01*
G01*
X006395318Y-05924032D01*
G01*
X006373140Y-05934522D01*
G01*
X006355830Y-05943774D01*
G01*
X006334787Y-05956387D01*
G01*
X006318468Y-05967291D01*
G01*
X006298762Y-05981906D01*
G01*
X006283590Y-05994357D01*
G01*
X006265412Y-06010833D01*
G01*
X006251533Y-06024712D01*
G01*
X006235057Y-06042890D01*
G01*
X006222606Y-06058062D01*
G01*
X006207991Y-06077768D01*
G01*
X006197087Y-06094087D01*
G01*
X006184474Y-06115130D01*
G01*
X006175222Y-06132440D01*
G01*
X006164732Y-06154618D01*
G01*
X006157221Y-06172751D01*
G01*
X006148956Y-06195851D01*
G01*
X006143259Y-06214633D01*
G01*
X006137297Y-06238431D01*
G01*
X006133468Y-06257681D01*
G01*
X006129869Y-06281950D01*
G01*
X006127945Y-06301482D01*
G01*
X006126741Y-06325986D01*
G01*
X006126741Y-06345614D01*
G01*
X006127945Y-06370118D01*
G01*
X006129869Y-06389650D01*
G01*
X006133468Y-06413919D01*
G01*
X006137297Y-06433169D01*
G01*
X006143259Y-06456967D01*
G01*
X006148956Y-06475749D01*
G01*
X006157221Y-06498849D01*
G01*
X006164732Y-06516982D01*
G01*
X006175222Y-06539160D01*
G01*
X006184474Y-06556470D01*
G01*
X006197087Y-06577513D01*
G01*
X006207991Y-06593832D01*
G01*
X006222606Y-06613538D01*
G01*
X006235057Y-06628710D01*
G01*
X006251533Y-06646888D01*
G01*
X006265412Y-06660767D01*
G01*
X006283590Y-06677243D01*
G01*
X006298762Y-06689694D01*
G01*
X006318468Y-06704309D01*
G01*
X006334787Y-06715213D01*
G01*
X006355830Y-06727826D01*
G01*
X006373140Y-06737078D01*
G01*
X006395318Y-06747568D01*
G01*
X006413451Y-06755079D01*
G01*
X006436551Y-06763344D01*
G01*
X006455333Y-06769041D01*
G01*
X006479131Y-06775003D01*
G01*
X006498381Y-06778832D01*
G01*
X006522650Y-06782431D01*
G01*
X006542182Y-06784355D01*
G01*
X006566686Y-06785559D01*
G01*
X006586314Y-06785559D01*
G01*
X006610818Y-06784355D01*
G01*
X006630350Y-06782431D01*
G01*
X006654619Y-06778832D01*
G01*
X006673869Y-06775003D01*
G01*
X006697667Y-06769041D01*
G01*
X006716449Y-06763344D01*
G01*
X006739549Y-06755079D01*
G01*
X006757682Y-06747568D01*
G01*
X006779860Y-06737078D01*
G01*
X006797170Y-06727826D01*
G01*
X006818213Y-06715213D01*
G01*
X006834532Y-06704309D01*
G01*
X006854238Y-06689694D01*
G01*
X006869410Y-06677243D01*
G01*
X006887588Y-06660767D01*
G01*
X006901467Y-06646888D01*
G01*
X006917943Y-06628710D01*
G37*
D34*
G36*
X011669559Y001251166D02*
G01*
X011701712Y001294519D01*
G01*
X011729460Y001340814D01*
G01*
X011752537Y001389606D01*
G01*
X011770721Y001440426D01*
G01*
X011783835Y001492782D01*
G01*
X011791755Y001546173D01*
G01*
X011794403Y001600082D01*
G01*
X011791755Y001653991D01*
G01*
X011783835Y001707382D01*
G01*
X011770721Y001759738D01*
G01*
X011752537Y001810558D01*
G01*
X011729460Y001859350D01*
G01*
X011701712Y001905645D01*
G01*
X011669559Y001948998D01*
G01*
X011633312Y001988990D01*
G01*
X011593320Y002025237D01*
G01*
X011549967Y002057390D01*
G01*
X011503672Y002085138D01*
G01*
X011454880Y002108215D01*
G01*
X011404060Y002126399D01*
G01*
X011351703Y002139513D01*
G01*
X011298313Y002147433D01*
G01*
X011244404Y002150081D01*
G01*
X011190495Y002147433D01*
G01*
X011137104Y002139513D01*
G01*
X011084748Y002126399D01*
G01*
X011033928Y002108215D01*
G01*
X010985136Y002085138D01*
G01*
X010938841Y002057390D01*
G01*
X010895488Y002025237D01*
G01*
X010855496Y001988990D01*
G01*
X010819249Y001948998D01*
G01*
X010787096Y001905645D01*
G01*
X010759348Y001859350D01*
G01*
X010736271Y001810558D01*
G01*
X010718087Y001759738D01*
G01*
X010704973Y001707382D01*
G01*
X010697053Y001653991D01*
G01*
X010694404Y001600082D01*
G01*
X010697053Y001546173D01*
G01*
X010704973Y001492782D01*
G01*
X010718087Y001440426D01*
G01*
X010736271Y001389606D01*
G01*
X010759348Y001340814D01*
G01*
X010787096Y001294519D01*
G01*
X010819249Y001251166D01*
G01*
X010855496Y001211174D01*
G01*
X010895488Y001174927D01*
G01*
X010938841Y001142774D01*
G01*
X010985136Y001115026D01*
G01*
X011033928Y001091949D01*
G01*
X011084748Y001073765D01*
G01*
X011137104Y001060651D01*
G01*
X011190495Y001052731D01*
G01*
X011244404Y001050083D01*
G01*
X011298313Y001052731D01*
G01*
X011351703Y001060651D01*
G01*
X011404060Y001073765D01*
G01*
X011454880Y001091949D01*
G01*
X011503672Y001115026D01*
G01*
X011549967Y001142774D01*
G01*
X011593320Y001174927D01*
G01*
X011633312Y001211174D01*
G01*
X011669559Y001251166D01*
G37*
D34*
G36*
X011669559Y007051002D02*
G01*
X011701712Y007094355D01*
G01*
X011729460Y007140650D01*
G01*
X011752537Y007189442D01*
G01*
X011770721Y007240262D01*
G01*
X011783835Y007292618D01*
G01*
X011791755Y007346009D01*
G01*
X011794403Y007399918D01*
G01*
X011791755Y007453827D01*
G01*
X011783835Y007507218D01*
G01*
X011770721Y007559574D01*
G01*
X011752537Y007610394D01*
G01*
X011729460Y007659186D01*
G01*
X011701712Y007705481D01*
G01*
X011669559Y007748834D01*
G01*
X011633312Y007788826D01*
G01*
X011593320Y007825073D01*
G01*
X011549967Y007857226D01*
G01*
X011503672Y007884974D01*
G01*
X011454880Y007908051D01*
G01*
X011404060Y007926235D01*
G01*
X011351703Y007939349D01*
G01*
X011298313Y007947269D01*
G01*
X011244404Y007949917D01*
G01*
X011190495Y007947269D01*
G01*
X011137104Y007939349D01*
G01*
X011084748Y007926235D01*
G01*
X011033928Y007908051D01*
G01*
X010985136Y007884974D01*
G01*
X010938841Y007857226D01*
G01*
X010895488Y007825073D01*
G01*
X010855496Y007788826D01*
G01*
X010819249Y007748834D01*
G01*
X010787096Y007705481D01*
G01*
X010759348Y007659186D01*
G01*
X010736271Y007610394D01*
G01*
X010718087Y007559574D01*
G01*
X010704973Y007507218D01*
G01*
X010697053Y007453827D01*
G01*
X010694404Y007399918D01*
G01*
X010697053Y007346009D01*
G01*
X010704973Y007292618D01*
G01*
X010718087Y007240262D01*
G01*
X010736271Y007189442D01*
G01*
X010759348Y007140650D01*
G01*
X010787096Y007094355D01*
G01*
X010819249Y007051002D01*
G01*
X010855496Y007011010D01*
G01*
X010895488Y006974763D01*
G01*
X010938841Y006942610D01*
G01*
X010985136Y006914862D01*
G01*
X011033928Y006891785D01*
G01*
X011084748Y006873601D01*
G01*
X011137104Y006860487D01*
G01*
X011190495Y006852567D01*
G01*
X011244404Y006849919D01*
G01*
X011298313Y006852567D01*
G01*
X011351703Y006860487D01*
G01*
X011404060Y006873601D01*
G01*
X011454880Y006891785D01*
G01*
X011503672Y006914862D01*
G01*
X011549967Y006942610D01*
G01*
X011593320Y006974763D01*
G01*
X011633312Y007011010D01*
G01*
X011669559Y007051002D01*
G37*
D34*
G36*
X015900000Y015900000D02*
G01*
X010100000Y015900000D01*
G01*
X010100000Y010100000D01*
G01*
X015900000Y010100000D01*
G01*
X015900000Y015900000D01*
G37*
%LPD*%
%ADD35C,1.199998*%
D35*
X-15224101Y000174888D03*
X-15224101Y000174888D02*
X-14624103Y000174888D01*
X-14624103Y000174888D03*
D35*
X-11144277Y000174888D03*
X-11144277Y000174888D02*
X-10344279Y000174888D01*
X-10344279Y000174888D03*
D35*
X-11144277Y008825112D03*
X-11144277Y008825112D02*
X-10344279Y008825112D01*
X-10344279Y008825112D03*
D35*
X-15224101Y008825112D03*
X-15224101Y008825112D02*
X-14624103Y008825112D01*
X-14624103Y008825112D03*
D35*
X015224101Y008825112D03*
X015224101Y008825112D02*
X014624103Y008825112D01*
X014624103Y008825112D03*
D35*
X011144277Y008825112D03*
X011144277Y008825112D02*
X010344279Y008825112D01*
X010344279Y008825112D03*
D35*
X011144277Y000174888D03*
X011144277Y000174888D02*
X010344279Y000174888D01*
X010344279Y000174888D03*
D35*
X015224101Y000174888D03*
X015224101Y000174888D02*
X014624103Y000174888D01*
X014624103Y000174888D03*
D30*
X-03000000Y-15500000D03*
D30*
X-01000000Y-15500000D03*
D30*
X001000000Y-15500000D03*
D30*
X003000000Y-15500000D03*
D10*
X003099000Y-07464300D02*
X006693900Y-07464300D01*
D10*
X006693900Y-07464300D02*
X006753400Y-07523800D01*
D11*
X-00000027Y-07999973D02*
X000000000Y-08000000D01*
D11*
X000000000Y-08000000D02*
X000535700Y-07464300D01*
D11*
X000535700Y-07464300D02*
X003099000Y-07464300D01*
D12*
X003099000Y-07464300D02*
X003099000Y-04481100D01*
D13*
X009512600Y008825100D02*
X009512600Y006619500D01*
D13*
X009512600Y006619500D02*
X007833700Y004940600D01*
D13*
X007833700Y004940600D02*
X003902000Y004940600D01*
D13*
X003902000Y004940600D02*
X000935300Y007907300D01*
D14*
X005019100Y001334500D02*
X008353000Y001334500D01*
D14*
X008353000Y001334500D02*
X009512600Y000174900D01*
D15*
X011976000Y000174900D02*
X011976000Y-04987800D01*
D15*
X011976000Y-04987800D02*
X009440000Y-07523800D01*
D15*
X009440000Y-07523800D02*
X006753400Y-07523800D01*
D16*
X-09512600Y000174900D02*
X-08641400Y001046100D01*
D16*
X-08641400Y001046100D02*
X004730700Y001046100D01*
D16*
X004730700Y001046100D02*
X005019100Y001334500D01*
D14*
X009512600Y008825100D02*
X009018500Y009319200D01*
D14*
X009018500Y009319200D02*
X006472700Y009319200D01*
D14*
X010744300Y000174900D02*
X009512600Y000174900D01*
D14*
X005019100Y001334500D02*
X005019100Y001499700D01*
D14*
X010744300Y008825100D02*
X009512600Y008825100D01*
D14*
X-10744300Y000174900D02*
X-09512600Y000174900D01*
D14*
X-10744300Y008825100D02*
X-04025000Y008825100D01*
D14*
X-04025000Y008825100D02*
X-03399900Y008200000D01*
D14*
X006753400Y-08643300D02*
X006753400Y-07523800D01*
D14*
X014924100Y000174900D02*
X011976000Y000174900D01*
D14*
X010744300Y000174900D02*
X011976000Y000174900D01*
D14*
X014924100Y008825100D02*
X010744300Y008825100D01*
D14*
X-10744300Y000174900D02*
X-14924100Y000174900D01*
D14*
X-14924100Y008825100D02*
X-10744300Y008825100D01*
D33*
X003099000Y-04481100D03*
D33*
X000935300Y007907300D03*
D33*
X006472700Y009319200D03*
D33*
X006753400Y-08643300D03*
D17*
X-00117800Y-02798300D02*
X002048800Y-04964900D01*
D17*
X002048800Y-04964900D02*
X002048800Y-04991500D01*
D18*
X-02310100Y-04162700D02*
X-00945700Y-02798300D01*
D18*
X-00945700Y-02798300D02*
X-00117800Y-02798300D01*
D17*
X-00117800Y-02798300D02*
X-00117800Y-02765100D01*
D17*
X-00117800Y-02765100D02*
X000406700Y-02240600D01*
D33*
X002048800Y-04991500D03*
D33*
X-02310100Y-04162700D03*
D33*
X000406700Y-02240600D03*
D16*
X007455900Y005760800D02*
X007455900Y006693400D01*
D16*
X007455900Y006693400D02*
X005527300Y008622000D01*
D33*
X007455900Y005760800D03*
D33*
X005527300Y008622000D03*
D16*
X005491300Y006985500D02*
X004342300Y005836500D01*
D16*
X004342300Y005836500D02*
X004117700Y005836500D01*
D16*
X005528300Y007022500D02*
X003110400Y007022500D01*
D16*
X003110400Y007022500D02*
X001232000Y008900900D01*
D16*
X001232000Y008900900D02*
X001232000Y009313000D01*
D16*
X001232000Y009313000D02*
X002531700Y010612700D01*
D16*
X002531700Y010612700D02*
X002531700Y011104400D01*
D16*
X005528300Y007022500D02*
X005491300Y006985500D01*
D16*
X005491300Y006985500D02*
X007197700Y005279000D01*
D16*
X007197700Y005279000D02*
X007701900Y005279000D01*
D16*
X007701900Y005279000D02*
X008397300Y005974400D01*
D16*
X008397300Y005974400D02*
X008397300Y006208500D01*
D33*
X008397300Y006208500D03*
D33*
X002531700Y011104400D03*
D33*
X005528300Y007022500D03*
D33*
X004117700Y005836500D03*
D19*
X000000000Y003490400D02*
X008152700Y003490400D01*
D19*
X008152700Y003490400D02*
X008154300Y003488800D01*
D33*
X000000000Y003490400D03*
D33*
X008154300Y003488800D03*
D16*
X-00501400Y011091700D02*
X-00829900Y011420200D01*
D16*
X-00829900Y011420200D02*
X-01476100Y011420200D01*
D16*
X-01476100Y011420200D02*
X-02918200Y009978100D01*
D16*
X-02918200Y009978100D02*
X-02918200Y007999200D01*
D16*
X-02918200Y007999200D02*
X-03442300Y007475100D01*
D16*
X-03442300Y007475100D02*
X-09598500Y007475100D01*
D16*
X-09598500Y007475100D02*
X-16394500Y000679100D01*
D16*
X-16394500Y000679100D02*
X-16394500Y-00285400D01*
D16*
X-16394500Y-00285400D02*
X-15031000Y-01648900D01*
D16*
X-15031000Y-01648900D02*
X-08191600Y-01648900D01*
D16*
X-08191600Y-01648900D02*
X-07612300Y-02228200D01*
D16*
X-07612300Y-02228200D02*
X-02282100Y-02228200D01*
D16*
X-02282100Y-02228200D02*
X-01293200Y-01239300D01*
D16*
X-01293200Y-01239300D02*
X002724800Y-01239300D01*
D16*
X002724800Y-01239300D02*
X002999300Y-00964800D01*
D33*
X-00501400Y011091700D03*
D33*
X002999300Y-00964800D03*
D19*
X009785800Y-11403500D02*
X004631700Y-11403500D01*
D16*
X008681400Y-00465700D02*
X008368200Y-00152500D01*
D16*
X008368200Y-00152500D02*
X-01749000Y-00152500D01*
D16*
X-01749000Y-00152500D02*
X-02062200Y-00465700D01*
D20*
X-02062200Y-00465700D02*
X-02314600Y-00465700D01*
D20*
X-02314600Y-00465700D02*
X-03500000Y-01651100D01*
D19*
X000141900Y010354200D02*
X-00673600Y010354200D01*
D19*
X-00673600Y010354200D02*
X-01253400Y010934000D01*
D19*
X001151300Y010354200D02*
X000141900Y010354200D01*
D16*
X000141900Y010354200D02*
X000141900Y006330100D01*
D16*
X000141900Y006330100D02*
X002417600Y004054400D01*
D33*
X009785800Y-11403500D03*
D33*
X004631700Y-11403500D03*
D33*
X002417600Y004054400D03*
D33*
X-01253400Y010934000D03*
D33*
X001151300Y010354200D03*
D33*
X008681400Y-00465700D03*
D33*
X-02062200Y-00465700D03*
D33*
X-03500000Y-01651100D03*
D16*
X003746900Y-02005000D02*
X003676000Y-02075900D01*
D16*
X003676000Y-02075900D02*
X003676000Y-06619600D01*
D33*
X003746900Y-02005000D03*
D33*
X003676000Y-06619600D03*
D16*
X009640400Y-01191600D02*
X009029000Y-01803000D01*
D16*
X009029000Y-01803000D02*
X004863100Y-01803000D01*
D16*
X003499400Y010833300D02*
X002722600Y011610100D01*
D16*
X002722600Y011610100D02*
X002342100Y011610100D01*
D16*
X002342100Y011610100D02*
X001842800Y011110800D01*
D16*
X001842800Y011110800D02*
X001842800Y010364500D01*
D16*
X001842800Y010364500D02*
X000453600Y008975300D01*
D16*
X000453600Y008975300D02*
X000453600Y007659700D01*
D16*
X000453600Y007659700D02*
X004142700Y003970600D01*
D16*
X004142700Y003970600D02*
X008403300Y003970600D01*
D16*
X008403300Y003970600D02*
X008636100Y003737800D01*
D16*
X008636100Y003737800D02*
X008636100Y002783800D01*
D16*
X008636100Y002783800D02*
X008494400Y002642100D01*
D16*
X007768500Y013819700D02*
X004782100Y010833300D01*
D16*
X004782100Y010833300D02*
X003499400Y010833300D01*
D16*
X001740800Y009074700D02*
X003499400Y010833300D01*
D33*
X004863100Y-01803000D03*
D33*
X009640400Y-01191600D03*
D33*
X008494400Y002642100D03*
D33*
X007768500Y013819700D03*
D33*
X001740800Y009074700D03*
D16*
X-01138200Y-01765700D02*
X-01017900Y-01645400D01*
D16*
X-01017900Y-01645400D02*
X003425400Y-01645400D01*
D16*
X003425400Y-01645400D02*
X003806300Y-01264500D01*
D16*
X003806300Y-01264500D02*
X004455500Y-01264500D01*
D16*
X-01431600Y001527800D02*
X-01019100Y001940300D01*
D16*
X-01019100Y001940300D02*
X001413600Y001940300D01*
D33*
X001413600Y001940300D03*
D33*
X-01431600Y001527800D03*
D33*
X-01138200Y-01765700D03*
D33*
X004455500Y-01264500D03*
D16*
X-02847700Y-01746500D02*
X-02460200Y-01746500D01*
D16*
X-02460200Y-01746500D02*
X-01471300Y-00757600D01*
D16*
X-01471300Y-00757600D02*
X001304100Y-00757600D01*
D16*
X001304100Y-00757600D02*
X001596000Y-00465700D01*
D16*
X001596000Y-00465700D02*
X005405500Y-00465700D01*
D16*
X005405500Y-00465700D02*
X006199200Y-01259400D01*
D33*
X-02847700Y-01746500D03*
D33*
X006199200Y-01259400D03*
D33*
X001304100Y-00757600D03*
D16*
X006999300Y-00989100D02*
X008896400Y-00989100D01*
D16*
X008896400Y-00989100D02*
X009166400Y-00719100D01*
D16*
X009166400Y-00719100D02*
X009166400Y-00218300D01*
D16*
X009166400Y-00218300D02*
X008690500Y000257600D01*
D16*
X008690500Y000257600D02*
X-08079500Y000257600D01*
D16*
X-08079500Y000257600D02*
X-09050100Y-00713000D01*
D16*
X-09050100Y-00713000D02*
X-15520500Y-00713000D01*
D16*
X-15520500Y-00713000D02*
X-16063200Y-00170300D01*
D16*
X-16063200Y-00170300D02*
X-16063200Y000562800D01*
D16*
X-16063200Y000562800D02*
X-10069700Y006556300D01*
D16*
X-10069700Y006556300D02*
X-08563700Y006556300D01*
D16*
X007752500Y-09516800D02*
X003372300Y-09516800D01*
D16*
X003372300Y-09516800D02*
X002057600Y-10831500D01*
D33*
X007752500Y-09516800D03*
D33*
X002057600Y-10831500D03*
D33*
X006999300Y-00989100D03*
D33*
X-08563700Y006556300D03*
D19*
X-03074000Y-00246100D02*
X-06682100Y-00246100D01*
D33*
X-06682100Y-00246100D03*
D33*
X-03074000Y-00246100D03*
D21*
X-02020600Y-02648200D02*
X-08276000Y-02648200D01*
D33*
X-02020600Y-02648200D03*
D33*
X-08276000Y-02648200D03*
D19*
X001000000Y-15500000D02*
X-02672700Y-11827300D01*
D19*
X-02672700Y-11827300D02*
X-02672700Y-05639100D01*
D19*
X-02672700Y-05639100D02*
X-02199700Y-05166100D01*
D19*
X-02199700Y-05166100D02*
X-01062400Y-05166100D01*
D19*
X-01062400Y-05166100D02*
X-00500400Y-04604100D01*
D33*
X-00500400Y-04604100D03*
D19*
X-03000000Y-15500000D02*
X-03151700Y-15348300D01*
D19*
X-03151700Y-15348300D02*
X-03151700Y-05457200D01*
D19*
X-03151700Y-05457200D02*
X-02408900Y-04714400D01*
D19*
X-02408900Y-04714400D02*
X-02081600Y-04714400D01*
D19*
X-02081600Y-04714400D02*
X-01381700Y-04014500D01*
D19*
X-01381700Y-04014500D02*
X000079700Y-04014500D01*
D19*
X000079700Y-04014500D02*
X000498700Y-04433500D01*
D33*
X000498700Y-04433500D03*
D22*
X007892300Y-13209600D02*
X003636800Y-13209600D01*
D22*
X003636800Y-13209600D02*
X001470200Y-11043000D01*
D22*
X001470200Y-11043000D02*
X001470200Y-09944000D01*
D22*
X001470200Y-09944000D02*
X003414200Y-08000000D01*
D33*
X003414200Y-08000000D03*
D33*
X007892300Y-13209600D03*
D23*
X-00225100Y-11526800D02*
X-00576100Y-11175800D01*
D23*
X-00576100Y-11175800D02*
X-00576100Y-07743500D01*
D23*
X-00576100Y-07743500D02*
X001385800Y-05781600D01*
D23*
X001385800Y-05781600D02*
X002500100Y-05781600D01*
D33*
X002500100Y-05781600D03*
D33*
X-00225100Y-11526800D03*
D16*
X010267500Y-05978500D02*
X009910200Y-06335800D01*
D16*
X009910200Y-06335800D02*
X006576500Y-06335800D01*
D33*
X006576500Y-06335800D03*
D33*
X010267500Y-05978500D03*
D19*
X-02119400Y-05925600D02*
X-02119400Y-10412600D01*
D19*
X-02119400Y-10412600D02*
X002968000Y-15500000D01*
D19*
X002968000Y-15500000D02*
X003000000Y-15500000D01*
D33*
X-02119400Y-05925600D03*
D33*
X-03399873Y008200000D03*
D33*
X005019112Y001499746D03*
D33*
X-00000027Y-07999973D03*
%LPC*%
D24*
X-13000000Y-13000000D03*
%LPD*%
%LPC*%
D24*
X-13000000Y013000000D03*
%LPD*%
%LPC*%
D24*
X013000000Y-13000000D03*
%LPD*%
%LPC*%
D24*
X013000000Y013000000D03*
%LPD*%
%LPC*%
D26*
X-11244404Y007399918D03*
%LPD*%
%LPC*%
D26*
X-11244404Y001600082D03*
%LPD*%
%LPC*%
D26*
X011244404Y001600082D03*
%LPD*%
%LPC*%
D26*
X011244404Y007399918D03*
%LPD*%
M02*