M48
; DRILL file {tscircuit} date 2026-10-07T23:52:13.784Z
; FORMAT={-:-/ absolute / metric / decimal}
; #@! TF.CreationDate,2026-10-07T23:52:13.784Z
; #@! TF.GenerationSoftware,tscircuit
; #@! TF.FileFunction,Plated,1,2,PTH
FMAT,2
METRIC
; #@! TA.AperFunction,Plated,PTH,ComponentDrill
T10C0.799998
; #@! TA.AperFunction,Plated,PTH,ComponentDrill
T11C0.900000
; #@! TA.AperFunction,Plated,PTH,ComponentDrill
T12C0.250000
%
G90
G05
T10
X-15.1241Y0.1749
G85X-14.724Y0.175
X-11.0943Y0.1749
G85X-10.394Y0.175
X-11.0943Y8.8251
G85X-10.394Y8.825
X-15.1241Y8.8251
G85X-14.724Y8.825
X15.1241Y8.8251
G85X14.724Y8.825
X11.0943Y8.8251
G85X10.394Y8.825
X11.0943Y0.1749
G85X10.394Y0.175
X15.1241Y0.1749
G85X14.724Y0.175
T11
X-3.0000Y-15.5000
X-1.0000Y-15.5000
X1.0000Y-15.5000
X3.0000Y-15.5000
T12
X3.0990Y-4.4811
X0.9353Y7.9073
X6.4727Y9.3192
X6.7534Y-8.6433
X2.0488Y-4.9915
X-2.3101Y-4.1627
X0.4067Y-2.2406
X7.4559Y5.7608
X5.5273Y8.6220
X8.3973Y6.2085
X2.5317Y11.1044
X5.5283Y7.0225
X4.1177Y5.8365
X0.0000Y3.4904
X8.1543Y3.4888
X-0.5014Y11.0917
X2.9993Y-0.9648
X9.7858Y-11.4035
X4.6317Y-11.4035
X2.4176Y4.0544
X-1.2534Y10.9340
X1.1513Y10.3542
X8.6814Y-0.4657
X-2.0622Y-0.4657
X-3.5000Y-1.6511
X3.7469Y-2.0050
X3.6760Y-6.6196
X4.8631Y-1.8030
X9.6404Y-1.1916
X8.4944Y2.6421
X7.7685Y13.8197
X1.7408Y9.0747
X1.4136Y1.9403
X-1.4316Y1.5278
X-1.1382Y-1.7657
X4.4555Y-1.2645
X-2.8477Y-1.7465
X6.1992Y-1.2594
X1.3041Y-0.7576
X7.7525Y-9.5168
X2.0576Y-10.8315
X6.9993Y-0.9891
X-8.5637Y6.5563
X-6.6821Y-0.2461
X-3.0740Y-0.2461
X-2.0206Y-2.6482
X-8.2760Y-2.6482
X-0.5004Y-4.6041
X0.4987Y-4.4335
X3.4142Y-8.0000
X7.8923Y-13.2096
X2.5001Y-5.7816
X-0.2251Y-11.5268
X6.5765Y-6.3358
X10.2675Y-5.9785
X-2.1194Y-5.9256
X-3.3999Y8.2000
X5.0191Y1.4997
X-0.0000Y-8.0000
M30