%TF.GenerationSoftware,tscircuit,circuit-json-to-gerber,0.0.111*%
%TF.CreationDate,2026-10-07T23:52:13.678Z*%
%TF.SameCoordinates,Original*%
%TF.FileFunction,Soldermask,Top*%
%TF.FilePolarity,Negative*%
%FSLAX46Y46*%
%MOMM*%
G04 Gerber Fmt 4.6, Leading zero omitted, Abs format (unit mm)*
G04 Created by tscircuit (builder) date 2026-10-07T23:52:13.678Z*
G01*
%LPD*%
G75*
G04 APERTURE MACROS START*
%AMHORZPILL*
0 Horizontal pill (stadium) shape macro*
0 Parameters:*
0 $1 = Total width*
0 $2 = Total height*
0 $3 = Circle diameter (equal to height)*
0 $4 = Circle center offset
0 21 = Center Line(Exposure, Width, Height, Center X, Center Y, Rotation)*
0 1 = Circle(Exposure, Diameter, Center X, Center Y, Rotation)*
21,1,$1-$3,$2,0.0,0.0,0.0*
1,1,$3,0.0-$4,0.0*
1,1,$3,$4,0.0*%
%AMVERTPILL*
0 Vertical pill (stadium) shape macro*
0 Parameters:*
0 $1 = Total width*
0 $2 = Total height*
0 $3 = Circle diameter (equal to width)*
0 $4 = Circle center offset
0 21 = Center Line(Exposure, Width, Height, Center X, Center Y, Rotation)*
21,1,$1,$2-$3,0.0,0.0,0.0*
1,1,$3,0.0,0.0-$4*
1,1,$3,0.0,$4*%
%AMROUNDRECT*
0 Rectangle with rounded corners*
0 $1 Corner radius*
0 $2 $3 $4 $5 $6 $7 $8 $9 X,Y Position of each corner*
0 Polygon box body*
4,1,4,$2,$3,$4,$5,$6,$7,$8,$9,$2,$3,0*
0 Circles for rounded corners*
1,1,$1+$1,$2,$3*
1,1,$1+$1,$4,$5*
1,1,$1+$1,$6,$7*
1,1,$1+$1,$8,$9*
0 Rectangles between the rounded corners*
20,1,$1+$1,$2,$3,$4,$5,0*
20,1,$1+$1,$4,$5,$6,$7,0*
20,1,$1+$1,$6,$7,$8,$9,0*
20,1,$1+$1,$8,$9,$2,$3,0*%
G04 APERTURE MACROS END*
G04 aperture START LIST*
%ADD10C,0.443000*%
%ADD11C,0.450000*%
%ADD12C,0.160000*%
%ADD13C,0.279000*%
%ADD14C,0.210000*%
%ADD15C,0.257000*%
%ADD16C,0.419000*%
%ADD17C,0.403000*%
%ADD18C,0.367000*%
%ADD19C,0.180000*%
%ADD20C,0.246000*%
%ADD21C,0.435000*%
%ADD22C,0.376000*%
%ADD23C,0.375000*%
%ADD24C,0.420000*%
%ADD25C,0.352000*%
%ADD26C,0.336000*%
%ADD27C,0.300000*%
%ADD28C,0.600000*%
%ADD29C,0.400000*%
%ADD30C,0.427000*%
%ADD31C,0.545000*%
%ADD32C,0.349000*%
%ADD33C,0.226000*%
%ADD34C,0.190000*%
%ADD35C,0.216000*%
%ADD36C,0.280000*%
%ADD37C,0.298000*%
%ADD38C,0.207000*%
%ADD39C,0.448000*%
%ADD40C,0.399000*%
%ADD41C,0.279800*%
%ADD42C,3.200000*%
%ADD43C,0.100000*%
%ADD44C,0.599999*%
%ADD45VERTPILL,1.199998X1.799996X1.199998X0.299999*%
%ADD46VERTPILL,1.199998X1.999996X1.199998X0.399999*%
%ADD47R,1.299997X0.299999*%
%ADD48R,0.909998X0.210000*%
%ADD49C,0.090000*%
%ADD50R,1.499997X0.599999*%
%ADD51R,1.049998X0.419999*%
%ADD52R,2.099996X3.299993*%
%ADD53R,1.469997X2.309995*%
%ADD54R,0.806475X0.864006*%
%ADD55R,0.564533X0.604804*%
%ADD56R,0.799998X0.899998*%
%ADD57R,0.559999X0.629999*%
%ADD58R,0.699999X0.200000*%
%ADD59R,0.489999X0.140000*%
%ADD60R,0.200000X0.699999*%
%ADD61R,0.140000X0.489999*%
%ADD62R,2.799994X2.799994*%
%ADD63R,1.959996X1.959996*%
%ADD64R,1.350010X1.410005*%
%ADD65R,0.945007X0.987003*%
%ADD66R,0.672008X1.575003*%
%ADD67R,0.470405X1.102502*%
%ADD68R,1.199998X0.950011*%
%ADD69R,0.839998X0.665008*%
%ADD70R,0.950011X1.199998*%
%ADD71R,0.665008X0.839998*%
%ADD72R,1.410005X1.350010*%
%ADD73R,0.987003X0.945007*%
%ADD74R,3.199994X3.199994*%
%ADD75R,2.239996X2.239996*%
%ADD76C,0.280010*%
%ADD77R,0.899998X0.799998*%
%ADD78R,0.629999X0.559999*%
%ADD79R,1.199998X3.499993*%
%ADD80R,0.839998X2.449995*%
%ADD81R,1.377010X1.132535*%
%ADD82R,0.963907X0.792775*%
%ADD83R,1.132535X1.377010*%
%ADD84R,0.792775X0.963907*%
%ADD85C,1.700000*%
%ADD86R,1.200000X1.500000*%
%ADD87R,0.840000X1.050000*%
%ADD88R,1.072007X0.532003*%
%ADD89R,0.750405X0.372402*%
%ADD90R,1.299997X1.199998*%
%ADD91R,0.909998X0.839998*%
%ADD92R,0.565658X0.540004*%
%ADD93R,0.395961X0.378003*%
%ADD94R,0.400000X0.600000*%
%ADD95R,0.280000X0.420000*%
%ADD96C,0.063000*%
%ADD97C,0.058500*%
%ADD98C,0.500000*%
%ADD99C,0.001000*%
%TD*%
G04 aperture END LIST*
D42*
X-13000000Y-13000000D03*
D42*
X-13000000Y013000000D03*
D42*
X013000000Y-13000000D03*
D42*
X013000000Y013000000D03*
D44*
X-11244404Y007399918D03*
D44*
X-11244404Y001600082D03*
%ADD100C,1.199998*%
D100*
X-15224101Y000174888D03*
X-15224101Y000174888D02*
X-14624103Y000174888D01*
X-14624103Y000174888D03*
D100*
X-11144277Y000174888D03*
X-11144277Y000174888D02*
X-10344279Y000174888D01*
X-10344279Y000174888D03*
D100*
X-11144277Y008825112D03*
X-11144277Y008825112D02*
X-10344279Y008825112D01*
X-10344279Y008825112D03*
D100*
X-15224101Y008825112D03*
X-15224101Y008825112D02*
X-14624103Y008825112D01*
X-14624103Y008825112D03*
D47*
X-09975928Y006250060D03*
D47*
X-09975928Y005749934D03*
D47*
X-09975928Y005250062D03*
D47*
X-09975928Y004749936D03*
D47*
X-09975928Y004250064D03*
D47*
X-09975928Y003749938D03*
D47*
X-09975928Y003250320D03*
D47*
X-09975928Y002749940D03*
D99*
G36*
X-10625863Y007399969D02*
X-09325840Y007399969D01*
X-09325840Y007399969D01*
X-09325840Y007699968D01*
X-09325840Y007699968D01*
X-09325993Y007699968D01*
X-09325993Y007699968D01*
X-09325993Y007999942D01*
X-09325993Y007999942D01*
X-10626016Y007999942D01*
X-10626016Y007999942D01*
X-10626016Y007699943D01*
X-10626016Y007699943D01*
X-10625863Y007699943D01*
X-10625863Y007699943D01*
X-10625863Y007399969D01*
X-10625863Y007399969D01*
G37*
D99*
G36*
X-09325840Y001600006D02*
X-10625812Y001600006D01*
X-10625812Y001600006D01*
X-10625812Y001300006D01*
X-10625812Y001300006D01*
X-10625812Y001299981D01*
X-10625812Y001299981D01*
X-10625812Y000999982D01*
X-10625812Y000999982D01*
X-09325840Y000999982D01*
X-09325840Y000999982D01*
X-09325840Y001299981D01*
X-09325840Y001299981D01*
X-09325840Y001300006D01*
X-09325840Y001300006D01*
X-09325840Y001600006D01*
X-09325840Y001600006D01*
G37*
D99*
G36*
X-10625812Y001799828D02*
X-09325840Y001799828D01*
X-09325840Y001799828D01*
X-09325840Y002099827D01*
X-09325840Y002099827D01*
X-09325840Y002099852D01*
X-09325840Y002099852D01*
X-09325840Y002399852D01*
X-09325840Y002399852D01*
X-10625812Y002399852D01*
X-10625812Y002399852D01*
X-10625812Y002099852D01*
X-10625812Y002099852D01*
X-10625812Y002099827D01*
X-10625812Y002099827D01*
X-10625812Y001799828D01*
X-10625812Y001799828D01*
G37*
D99*
G36*
X-10625965Y006599970D02*
X-09325993Y006599970D01*
X-09325993Y006599970D01*
X-09325993Y006899995D01*
X-09325993Y006899995D01*
X-09326018Y006899995D01*
X-09326018Y006899995D01*
X-09326018Y007199944D01*
X-09326018Y007199944D01*
X-10625990Y007199944D01*
X-10625990Y007199944D01*
X-10625990Y006899919D01*
X-10625990Y006899919D01*
X-10625965Y006899919D01*
X-10625965Y006899919D01*
X-10625965Y006599970D01*
X-10625965Y006599970D01*
G37*
D44*
X011244404Y001600082D03*
D44*
X011244404Y007399918D03*
D100*
X015224101Y008825112D03*
X015224101Y008825112D02*
X014624103Y008825112D01*
X014624103Y008825112D03*
D100*
X011144277Y008825112D03*
X011144277Y008825112D02*
X010344279Y008825112D01*
X010344279Y008825112D03*
D100*
X011144277Y000174888D03*
X011144277Y000174888D02*
X010344279Y000174888D01*
X010344279Y000174888D03*
D100*
X015224101Y000174888D03*
X015224101Y000174888D02*
X014624103Y000174888D01*
X014624103Y000174888D03*
D47*
X009975928Y002749940D03*
D47*
X009975928Y003250066D03*
D47*
X009975928Y003749938D03*
D47*
X009975928Y004250064D03*
D47*
X009975928Y004749936D03*
D47*
X009975928Y005250062D03*
D47*
X009975928Y005749680D03*
D47*
X009975928Y006250060D03*
D99*
G36*
X010625863Y001600031D02*
X009325840Y001600031D01*
X009325840Y001600031D01*
X009325840Y001300032D01*
X009325840Y001300032D01*
X009325993Y001300032D01*
X009325993Y001300032D01*
X009325993Y001000058D01*
X009325993Y001000058D01*
X010626016Y001000058D01*
X010626016Y001000058D01*
X010626016Y001300057D01*
X010626016Y001300057D01*
X010625863Y001300057D01*
X010625863Y001300057D01*
X010625863Y001600031D01*
X010625863Y001600031D01*
G37*
D99*
G36*
X009325840Y007399994D02*
X010625812Y007399994D01*
X010625812Y007399994D01*
X010625812Y007699994D01*
X010625812Y007699994D01*
X010625812Y007700019D01*
X010625812Y007700019D01*
X010625812Y008000018D01*
X010625812Y008000018D01*
X009325840Y008000018D01*
X009325840Y008000018D01*
X009325840Y007700019D01*
X009325840Y007700019D01*
X009325840Y007699994D01*
X009325840Y007699994D01*
X009325840Y007399994D01*
X009325840Y007399994D01*
G37*
D99*
G36*
X010625812Y007200172D02*
X009325840Y007200172D01*
X009325840Y007200172D01*
X009325840Y006900173D01*
X009325840Y006900173D01*
X009325840Y006900148D01*
X009325840Y006900148D01*
X009325840Y006600148D01*
X009325840Y006600148D01*
X010625812Y006600148D01*
X010625812Y006600148D01*
X010625812Y006900148D01*
X010625812Y006900148D01*
X010625812Y006900173D01*
X010625812Y006900173D01*
X010625812Y007200172D01*
X010625812Y007200172D01*
G37*
D99*
G36*
X010625965Y002400030D02*
X009325993Y002400030D01*
X009325993Y002400030D01*
X009325993Y002100005D01*
X009325993Y002100005D01*
X009326018Y002100005D01*
X009326018Y002100005D01*
X009326018Y001800056D01*
X009326018Y001800056D01*
X010625990Y001800056D01*
X010625990Y001800056D01*
X010625990Y002100081D01*
X010625990Y002100081D01*
X010625965Y002100081D01*
X010625965Y002100081D01*
X010625965Y002400030D01*
X010625965Y002400030D01*
G37*
D50*
X-00400133Y010199996D03*
D50*
X-00399879Y009199998D03*
D50*
X-00399879Y008200000D03*
D50*
X-00399879Y007200002D03*
D50*
X-00400133Y006200004D03*
D50*
X-06400121Y006200004D03*
D50*
X-06400121Y007200002D03*
D50*
X-06400121Y008200000D03*
D50*
X-06400121Y009199998D03*
D50*
X-06400121Y010199996D03*
D52*
X-03399873Y008200000D03*
D54*
X-07746636Y011700000D03*
D54*
X-09253364Y011700000D03*
D56*
X-04799976Y011700000D03*
D56*
X-06200024Y011700000D03*
D54*
X000253364Y011800000D03*
D54*
X-01253364Y011800000D03*
D58*
X002999304Y001501016D03*
D58*
X002999304Y001099950D03*
D58*
X002999304Y000699900D03*
D58*
X002999304Y000300104D03*
D58*
X002999304Y001899796D03*
D58*
X002999304Y002300100D03*
D58*
X002999304Y002699896D03*
D60*
X003799404Y-00499996D03*
D60*
X004199200Y-00499996D03*
D60*
X004599250Y-00499996D03*
D60*
X004999300Y-00499234D03*
D60*
X005399096Y-00499996D03*
D60*
X005799400Y-00499996D03*
D60*
X006199196Y-00499996D03*
D58*
X006999296Y000300104D03*
D58*
X006999296Y000699900D03*
D58*
X006999296Y001100204D03*
D58*
X006999296Y001500000D03*
D58*
X006999296Y001899796D03*
D58*
X006999296Y002300100D03*
D58*
X006999296Y002699896D03*
D60*
X006199196Y003499996D03*
D60*
X005799400Y003499996D03*
D60*
X005399096Y003499996D03*
D60*
X004999300Y003499742D03*
D60*
X004599504Y003499996D03*
D60*
X004199200Y003499996D03*
D60*
X003799404Y003499996D03*
D62*
X005019112Y001499746D03*
D56*
X006300024Y-03400000D03*
D56*
X004899976Y-03400000D03*
D64*
X011000000Y-02500002D03*
D64*
X011000000Y-04499998D03*
D54*
X006253364Y010500000D03*
D54*
X004746636Y010500000D03*
D54*
X009253364Y012000000D03*
D54*
X007746636Y012000000D03*
D54*
X006953364Y014000000D03*
D54*
X005446636Y014000000D03*
D54*
X002853364Y006500000D03*
D54*
X001346636Y006500000D03*
D54*
X000253364Y014000000D03*
D54*
X-01253364Y014000000D03*
D54*
X003753364Y014000000D03*
D54*
X002246636Y014000000D03*
D56*
X003300024Y005000000D03*
D56*
X001899976Y005000000D03*
D66*
X-06499997Y-03549971D03*
D66*
X-03500003Y-03549971D03*
D99*
G36*
X-04050167Y000089468D02*
X-04050167Y-01764732D01*
X-04051234Y-01809258D01*
X-04054358Y-01853683D01*
X-04059565Y-01897930D01*
X-04066829Y-01941872D01*
X-04076177Y-01985433D01*
X-04087530Y-02028486D01*
X-04100891Y-02070980D01*
X-04116232Y-02112788D01*
X-04133530Y-02153835D01*
X-04152707Y-02194043D01*
X-04173763Y-02233286D01*
X-04196649Y-02271513D01*
X-04221287Y-02308622D01*
X-04247627Y-02344538D01*
X-04275617Y-02379158D01*
X-04305234Y-02412457D01*
X-04336349Y-02444309D01*
X-04368937Y-02474687D01*
X-04402897Y-02503491D01*
X-04438177Y-02530669D01*
X-04474703Y-02556171D01*
X-04512371Y-02579920D01*
X-04551131Y-02601891D01*
X-04590857Y-02622033D01*
X-04670156Y-02640270D01*
X-04670156Y-04337600D01*
X-05330149Y-04337600D01*
X-05330149Y-02640270D01*
X-05409499Y-02622033D01*
X-05449224Y-02601890D01*
X-05487985Y-02579920D01*
X-05525653Y-02556171D01*
X-05562178Y-02530669D01*
X-05597459Y-02503491D01*
X-05631419Y-02474687D01*
X-05664007Y-02444309D01*
X-05695122Y-02412457D01*
X-05724738Y-02379158D01*
X-05752729Y-02344538D01*
X-05779069Y-02308622D01*
X-05803707Y-02271513D01*
X-05826592Y-02233286D01*
X-05847649Y-02194043D01*
X-05866826Y-02153835D01*
X-05884123Y-02112788D01*
X-05899465Y-02070980D01*
X-05912825Y-02028486D01*
X-05924179Y-01985433D01*
X-05933526Y-01941871D01*
X-05940791Y-01897929D01*
X-05945998Y-01853683D01*
X-05949122Y-01809258D01*
X-05950189Y-01764732D01*
X-05950189Y000089468D01*
X-05949122Y000133994D01*
X-05945998Y000178419D01*
X-05940791Y000222666D01*
X-05933526Y000266608D01*
X-05924179Y000310169D01*
X-05912825Y000353222D01*
X-05899465Y000395716D01*
X-05884123Y000437524D01*
X-05866826Y000478571D01*
X-05847649Y000518779D01*
X-05826592Y000558022D01*
X-05803707Y000596249D01*
X-05779069Y000633358D01*
X-05752729Y000669274D01*
X-05724738Y000703894D01*
X-05695122Y000737194D01*
X-05664007Y000769045D01*
X-05631419Y000799424D01*
X-05597459Y000828227D01*
X-05562178Y000855405D01*
X-05525653Y000880907D01*
X-05487985Y000904656D01*
X-05449224Y000926627D01*
X-05409499Y000946769D01*
X-05368859Y000965006D01*
X-05327431Y000981338D01*
X-05285267Y000995689D01*
X-05242468Y001008059D01*
X-05199136Y001018397D01*
X-05155397Y001026703D01*
X-05111277Y001032951D01*
X-05066929Y001037117D01*
X-05022454Y001039200D01*
X-04977902Y001039200D01*
X-04933427Y001037117D01*
X-04889078Y001032951D01*
X-04844958Y001026703D01*
X-04801220Y001018397D01*
X-04757887Y001008059D01*
X-04715088Y000995689D01*
X-04672924Y000981338D01*
X-04631497Y000965006D01*
X-04590857Y000946769D01*
X-04551131Y000926627D01*
X-04512371Y000904656D01*
X-04474703Y000880907D01*
X-04438177Y000855405D01*
X-04402897Y000828227D01*
X-04368937Y000799424D01*
X-04336349Y000769045D01*
X-04305234Y000737194D01*
X-04275617Y000703894D01*
X-04247627Y000669274D01*
X-04221287Y000633358D01*
X-04196649Y000596249D01*
X-04173763Y000558022D01*
X-04152707Y000518779D01*
X-04133530Y000478571D01*
X-04116232Y000437524D01*
X-04100891Y000395716D01*
X-04087530Y000353222D01*
X-04076177Y000310169D01*
X-04066829Y000266608D01*
X-04059565Y000222666D01*
X-04054358Y000178419D01*
X-04051234Y000133994D01*
X-04050167Y000089468D01*
X-04050167Y000089468D01*
G37*
D68*
X-03299978Y003500000D03*
D68*
X-06700022Y003500000D03*
D70*
X000000000Y004500022D03*
D70*
X-00000000Y001099978D03*
D72*
X-07499998Y-07800000D03*
D72*
X-05500002Y-07800000D03*
D72*
X-04500002Y-05800000D03*
D72*
X-06499998Y-05800000D03*
D74*
X-00000027Y-07999973D03*
D76*
X-01501167Y-05190111D03*
X-01501167Y-05190111D02*
X-01501167Y-05810099D01*
X-01501167Y-05810099D03*
D76*
X-01000787Y-05190111D03*
X-01000787Y-05190111D02*
X-01000787Y-05810099D01*
X-01000787Y-05810099D03*
D76*
X-00500407Y-05190111D03*
X-00500407Y-05190111D02*
X-00500407Y-05810099D01*
X-00500407Y-05810099D03*
D76*
X-00000027Y-05190111D03*
X-00000027Y-05190111D02*
X-00000027Y-05810099D01*
X-00000027Y-05810099D03*
D76*
X000500353Y-05190111D03*
X000500353Y-05190111D02*
X000500353Y-05810099D01*
X000500353Y-05810099D03*
D76*
X001000733Y-05190111D03*
X001000733Y-05190111D02*
X001000733Y-05810099D01*
X001000733Y-05810099D03*
D76*
X001501113Y-05190111D03*
X001501113Y-05190111D02*
X001501113Y-05810099D01*
X001501113Y-05810099D03*
D76*
X002190101Y-06498833D03*
X002190101Y-06498833D02*
X002810089Y-06498833D01*
X002810089Y-06498833D03*
D76*
X002190101Y-06999213D03*
X002190101Y-06999213D02*
X002810089Y-06999213D01*
X002810089Y-06999213D03*
D76*
X002190101Y-07499593D03*
X002190101Y-07499593D02*
X002810089Y-07499593D01*
X002810089Y-07499593D03*
D76*
X002190101Y-07999973D03*
X002190101Y-07999973D02*
X002810089Y-07999973D01*
X002810089Y-07999973D03*
D76*
X002190101Y-08500353D03*
X002190101Y-08500353D02*
X002810089Y-08500353D01*
X002810089Y-08500353D03*
D76*
X002190101Y-09000733D03*
X002190101Y-09000733D02*
X002810089Y-09000733D01*
X002810089Y-09000733D03*
D76*
X002190101Y-09501113D03*
X002190101Y-09501113D02*
X002810089Y-09501113D01*
X002810089Y-09501113D03*
D76*
X001501113Y-10190101D03*
X001501113Y-10190101D02*
X001501113Y-10810089D01*
X001501113Y-10810089D03*
D76*
X001000733Y-10190101D03*
X001000733Y-10190101D02*
X001000733Y-10810089D01*
X001000733Y-10810089D03*
D76*
X000500353Y-10190101D03*
X000500353Y-10190101D02*
X000500353Y-10810089D01*
X000500353Y-10810089D03*
D76*
X-00000027Y-10190101D03*
X-00000027Y-10190101D02*
X-00000027Y-10810089D01*
X-00000027Y-10810089D03*
D76*
X-00500407Y-10190101D03*
X-00500407Y-10190101D02*
X-00500407Y-10810089D01*
X-00500407Y-10810089D03*
D76*
X-01000787Y-10190101D03*
X-01000787Y-10190101D02*
X-01000787Y-10810089D01*
X-01000787Y-10810089D03*
D76*
X-01501167Y-10190101D03*
X-01501167Y-10190101D02*
X-01501167Y-10810089D01*
X-01501167Y-10810089D03*
D76*
X-02809889Y-09501113D03*
X-02809889Y-09501113D02*
X-02189901Y-09501113D01*
X-02189901Y-09501113D03*
D76*
X-02809889Y-09000733D03*
X-02809889Y-09000733D02*
X-02189901Y-09000733D01*
X-02189901Y-09000733D03*
D76*
X-02809889Y-08500353D03*
X-02809889Y-08500353D02*
X-02189901Y-08500353D01*
X-02189901Y-08500353D03*
D76*
X-02809889Y-07999973D03*
X-02809889Y-07999973D02*
X-02189901Y-07999973D01*
X-02189901Y-07999973D03*
D76*
X-02809889Y-07499593D03*
X-02809889Y-07499593D02*
X-02189901Y-07499593D01*
X-02189901Y-07499593D03*
D76*
X-02809889Y-06999213D03*
X-02809889Y-06999213D02*
X-02189901Y-06999213D01*
X-02189901Y-06999213D03*
D76*
X-02809889Y-06498833D03*
X-02809889Y-06498833D02*
X-02189901Y-06498833D01*
X-02189901Y-06498833D03*
D56*
X-03999976Y-09600000D03*
D56*
X-05400024Y-09600000D03*
D77*
X-04100000Y-12500024D03*
D77*
X-04100000Y-11099976D03*
D56*
X-01299976Y-12300000D03*
D56*
X-02700024Y-12300000D03*
D56*
X005400024Y-10000000D03*
D56*
X003999976Y-10000000D03*
D72*
X001499998Y-03300000D03*
D72*
X-00499998Y-03300000D03*
D79*
X-12050000Y-08070048D03*
D79*
X-12050000Y-02729952D03*
D81*
X006800000Y-11600002D03*
D81*
X006800000Y-13599998D03*
D83*
X-05800002Y-13700000D03*
D83*
X-07799998Y-13700000D03*
D54*
X006753364Y-05500000D03*
D54*
X005246636Y-05500000D03*
D54*
X006753364Y-07800000D03*
D54*
X005246636Y-07800000D03*
D56*
X012500024Y-07000000D03*
D56*
X011099976Y-07000000D03*
D54*
X000253364Y-00500000D03*
D54*
X-01253364Y-00500000D03*
D54*
X-05246636Y013500000D03*
D54*
X-06753364Y013500000D03*
D85*
X-03000000Y-15500000D03*
D85*
X-01000000Y-15500000D03*
D85*
X001000000Y-15500000D03*
D85*
X003000000Y-15500000D03*
D86*
X005000000Y-15500000D03*
D86*
X006500000Y-15500000D03*
D86*
X008000000Y-15500000D03*
D86*
X009500000Y-15500000D03*
D88*
X004350904Y008449960D03*
D88*
X004350904Y007500000D03*
D88*
X004350904Y006550040D03*
D88*
X006649096Y006550040D03*
D88*
X006649096Y007500000D03*
D88*
X006649096Y008449960D03*
D90*
X-05350016Y015600000D03*
D90*
X-08649984Y015600000D03*
D92*
X003132816Y010100000D03*
D92*
X002267184Y010100000D03*
D94*
X001300000Y011900000D03*
D94*
X002100000Y011900000D03*
M02*