v -1.6 -1.25 -0.05
v -1.6 -0.050883 -0.05
v -1.25 -1.6 -0.05
newmtl 1
Ka 0.6666666666666666 0.6666666666666666 0.6666666666666666
Kd 0.6666666666666666 0.6666666666666666 0.6666666666666666
Ks 0.4666666666666667 0.4666666666666667 0.4666666666666667
d 0.0
endmtl
v -0.020732 -0.050883 -0.05
v -0.020732 -1.6 -0.05
v -0.010976 -0.039297 -0.05
v -0.010976 -0.050273 -0.05
v -0.008537 0.038751 -0.05
v 0.029268 0.038751 -0.05
v 0.029268 0.005825 -0.05
v 0.042683 -0.050273 -0.05
v 0.042683 0.049727 -0.05
v 0.062195 -0.034115 -0.05
v 0.062195 -0.04509 -0.05
v 0.072855 -0.049467 -0.05
v 0.082959 -0.050883 -0.05
v 0.029268 -0.005151 -0.05
v 0.029268 -0.039297 -0.05
v -0.006098 -0.005151 -0.05
v -0.006098 0.005825 -0.05
v 0.111726 -0.046879 -0.05
v 0.145122 -0.050273 -0.05
v 0.102034 -0.050215 -0.05
v 0.095591 -0.050883 -0.05
v 1.6 -0.050883 -0.05
v 0.196341 -0.050273 -0.05
v 1.6 1.6 -0.05
v 0.196341 0.049727 -0.05
v -0.020732 1.6 -0.05
v 0.182927 0.049727 -0.05
v -0.008537 0.049727 -0.05
v 0.09546 0.038865 -0.05
v 0.102945 0.036164 -0.05
v 0.063987 -0.035107 -0.05
v 0.109867 0.031533 -0.05
v 0.115905 0.024867 -0.05
v 0.123171 -0.00134 -0.05
v 0.122158 -0.012166 -0.05
v 0.119441 -0.020767 -0.05
v 0.097189 -0.039471 -0.05
v 0.087862 -0.040517 -0.05
v 0.104476 -0.036788 -0.05
v 0.110613 -0.032652 -0.05
v 0.115306 -0.027701 -0.05
v 0.074588 -0.039044 -0.05
v 0.120028 0.017146 -0.05
v 0.122694 0.00644 -0.05
v 0.116418 0.04142 -0.05
v 0.125447 0.032738 -0.05
v 0.131308 0.023388 -0.05
v 0.11977 -0.041742 -0.05
v 0.127281 -0.033834 -0.05
v 0.145122 -0.039297 -0.05
v 0.132609 -0.024326 -0.05
v 0.182927 -0.039297 -0.05
v 0.135618 -0.013741 -0.05
v 0.136585 -0.002159 -0.05
v 0.135147 0.012058 -0.05
v 0.10692 0.046888 -0.05
v 0.095772 0.050126 -0.05
v 0.085728 0.050946 -0.05
v 0.073757 0.05012 -0.05
v 0.062195 0.046983 -0.05
v 0.062195 0.033568 -0.05
v 0.073459 0.038392 -0.05
v 0.085614 0.039971 -0.05
v 0.086976 -0.051446 -0.05
v 1.6 -1.6 -0.05
v 0.08971 -0.051493 -0.05
v -0.132927 -0.050273 -0.05
v -0.118293 -0.050273 -0.05
v -0.105982 -0.022865 -0.05
v -0.100247 -0.03181 -0.05
v -0.092016 -0.039691 -0.05
v -0.081575 -0.045758 -0.05
v -0.058708 0.049727 -0.05
v -0.073155 0.048183 -0.05
v -0.156098 0.049727 -0.05
v -1.6 1.6 -0.05
v -0.169512 0.049727 -0.05
v -0.208537 -0.050273 -0.05
v -0.193902 -0.050273 -0.05
v -0.183784 -0.022224 -0.05
v -0.142473 -0.022224 -0.05
v -0.030488 0.049727 -0.05
v -0.102916 0.028847 -0.05
v -0.107563 0.020247 -0.05
v -0.070052 -0.049193 -0.05
v -0.057679 -0.050273 -0.05
v -0.030488 -0.050273 -0.05
v -0.084855 0.044074 -0.05
v -0.09574 0.03678 -0.05
v -0.095844 0.036688 -0.05
v -0.110249 0.010394 -0.05
v -0.110976 9.85E-4 -0.05
v -0.109572 -0.012398 -0.05
v -2.5 -1.625 0.0
v -2.225 -1.625 0.0
v -2.5 -2.5 0.0
newmtl 2
Ka 0.2980392156862745 0.2980392156862745 0.2980392156862745
Kd 0.20784313725490197 0.20784313725490197 0.20784313725490197
Ks 0.01568627450980392 0.01568627450980392 0.01568627450980392
d 0.0
endmtl
v -2.192648 -1.620741 0.0
v -2.1625 -1.608253 0.0
v 2.5 2.5 0.0
v 2.5 1.625 0.0
v 2.225 1.625 0.0
v -2.5 2.5 0.0
v -1.625 2.5 0.0
v -1.625 2.225 0.0
v -2.136612 -1.588388 0.0
v -2.116747 -1.5625 0.0
v -1.6 -1.25 0.0
v 2.5 -2.5 0.0
v 1.625 -2.5 0.0
v 1.625 -2.225 0.0
v 2.1 -1.5 0.0
v 2.104259 -1.532352 0.0
v 1.6 -1.6 0.0
v -2.1 -1.0 0.0
v -2.104259 -0.967648 0.0
v -1.6 1.6 0.0
v -2.104259 -1.032352 0.0
v -2.192648 -0.620741 0.0
v -2.192648 -0.879259 0.0
v -2.225 -0.875 0.0
v -2.192648 0.879259 0.0
v -2.192648 0.620741 0.0
v -2.225 0.625 0.0
v 2.192648 1.620741 0.0
v 2.1625 1.608253 0.0
v 1.6 1.6 0.0
v 2.136612 1.588388 0.0
v 2.116747 1.5625 0.0
v 2.104259 1.532352 0.0
v 2.1 1.5 0.0
v 2.136612 0.088388 0.0
v 2.116747 0.0625 0.0
v 2.104259 -1.467648 0.0
v -1.620741 2.192648 0.0
v -1.608253 2.1625 0.0
v -1.588388 2.136612 0.0
v -1.5625 2.116747 0.0
v -0.967648 2.104259 0.0
v -0.9375 2.116747 0.0
v -0.5 2.1 0.0
v -0.911612 2.136612 0.0
v -0.532352 2.104259 0.0
v -0.4375 2.116747 0.0
v -0.411612 2.136612 0.0
v -2.104259 -1.532352 0.0
v -2.1 -1.5 0.0
v -2.104259 -1.467648 0.0
v -2.192648 -1.120741 0.0
v -2.1625 -1.108253 0.0
v -2.1625 -1.391747 0.0
v -2.136612 -1.088388 0.0
v -2.116747 -1.0625 0.0
v -2.136612 -1.411612 0.0
v -2.116747 -1.4375 0.0
v -2.116747 -0.9375 0.0
v -2.136612 -0.911612 0.0
v -2.1625 -0.891747 0.0
v 1.620741 -2.192648 0.0
v 1.608253 -2.1625 0.0
v 1.588388 -2.136612 0.0
v 1.5625 -2.116747 0.0
v 1.088388 -2.136612 0.0
v 1.0625 -2.116747 0.0
v 0.588388 -2.136612 0.0
v 0.5625 -2.116747 0.0
v 2.104259 1.467648 0.0
v 2.116747 1.4375 0.0
v 2.116747 1.0625 0.0
v 2.1625 1.391747 0.0
v 2.192648 1.120741 0.0
v 2.1625 1.108253 0.0
v 2.136612 0.588388 0.0
v 2.116747 0.5625 0.0
v -1.120741 2.192648 0.0
v -1.411612 2.136612 0.0
v -1.391747 2.1625 0.0
v -1.532352 2.104259 0.0
v -1.5 2.1 0.0
v -1.467648 2.104259 0.0
v -1.088388 2.136612 0.0
v -1.0625 2.116747 0.0
v -1.032352 2.104259 0.0
v -1.0 2.1 0.0
v 0.967648 2.104259 0.0
v 1.0 2.1 0.0
v -2.5 -0.875 0.0
v -2.5 -0.625 0.0
v -2.225 -0.625 0.0
v -2.5 0.625 0.0
v -2.5 0.875 0.0
v -2.225 0.875 0.0
v -2.136612 0.911612 0.0
v -2.116747 0.9375 0.0
v -2.1625 0.608253 0.0
v -2.1 1.0 0.0
v -2.104259 1.032352 0.0
v -2.5 1.625 0.0
v -2.225 1.625 0.0
v -2.192648 1.620741 0.0
v 1.120741 -2.192648 0.0
v 1.411612 -2.136612 0.0
v 1.391747 -2.1625 0.0
v 1.532352 -2.104259 0.0
v 1.5 -2.1 0.0
v 1.467648 -2.104259 0.0
v 0.088388 -2.136612 0.0
v 0.0625 -2.116747 0.0
v 2.136612 1.411612 0.0
v 2.136612 1.088388 0.0
v 2.5 -1.625 0.0
v 2.225 -1.625 0.0
v 2.192648 -1.620741 0.0
v -1.375 2.225 0.0
v -1.375 2.5 0.0
v -1.125 2.5 0.0
v -1.108253 2.1625 0.0
v -1.4375 2.116747 0.0
v -0.620741 2.192648 0.0
v -0.608253 2.1625 0.0
v -2.225 -1.375 0.0
v -2.5 -1.375 0.0
v -2.5 -1.125 0.0
v -2.1625 -0.608253 0.0
v -2.136612 -0.588388 0.0
v -2.116747 -0.5625 0.0
v -2.104259 -0.532352 0.0
v -2.1 -0.5 0.0
v -2.104259 -0.467648 0.0
v -2.116747 -0.4375 0.0
v -2.136612 -0.411612 0.0
v -2.1625 -0.391747 0.0
v -2.192648 -0.120741 0.0
v -2.192648 -0.379259 0.0
v -2.225 -0.375 0.0
v -2.192648 0.379259 0.0
v -2.192648 0.120741 0.0
v -2.225 0.125 0.0
v -2.104259 0.967648 0.0
v -2.116747 1.0625 0.0
v -2.136612 1.088388 0.0
v -2.1625 1.108253 0.0
v 1.375 -2.225 0.0
v 1.375 -2.5 0.0
v 1.125 -2.5 0.0
v 1.108253 -2.1625 0.0
v 1.4375 -2.116747 0.0
v 0.620741 -2.192648 0.0
v 0.911612 -2.136612 0.0
v 0.891747 -2.1625 0.0
v -1.467648 -2.104259 0.0
v -1.5 -2.1 0.0
v -1.25 -1.6 0.0
v 2.225 1.375 0.0
v 2.5 1.375 0.0
v 2.5 1.125 0.0
v 2.104259 0.032352 0.0
v 2.1 -0.0 0.0
v 2.104259 -0.032352 0.0
v 2.192648 -0.379259 0.0
v 2.1625 -0.391747 0.0
v 2.1625 -0.891747 0.0
v 2.136612 -0.911612 0.0
v 2.116747 -1.5625 0.0
v 2.136612 -1.588388 0.0
v 2.1625 -1.608253 0.0
v -1.379259 2.192648 0.0
v -1.125 2.225 0.0
v -0.588388 2.136612 0.0
v -0.5625 2.116747 0.0
v -0.467648 2.104259 0.0
v -2.192648 -1.379259 0.0
v -2.225 -1.125 0.0
v -2.136612 0.411612 0.0
v -2.116747 0.4375 0.0
v -2.1625 0.108253 0.0
v -2.104259 0.467648 0.0
v -2.1 0.5 0.0
v -2.104259 0.532352 0.0
v -2.1625 0.891747 0.0
v -2.192648 1.379259 0.0
v -2.1625 1.391747 0.0
v -2.136612 1.411612 0.0
v -2.116747 1.4375 0.0
v -2.104259 1.467648 0.0
v -2.1 1.5 0.0
v -2.104259 1.532352 0.0
v -2.116747 1.5625 0.0
v -2.136612 1.588388 0.0
v -2.1625 1.608253 0.0
v 1.379259 -2.192648 0.0
v 1.125 -2.225 0.0
v 0.875 -2.225 0.0
v 0.875 -2.5 0.0
v 0.625 -2.5 0.0
v 1.032352 -2.104259 0.0
v 1.0 -2.1 0.0
v 0.967648 -2.104259 0.0
v 0.120741 -2.192648 0.0
v 0.411612 -2.136612 0.0
v 0.391747 -2.1625 0.0
v 0.032352 -2.104259 0.0
v -0.0 -2.1 0.0
v -0.467648 -2.104259 0.0
v -0.5 -2.1 0.0
v 2.192648 1.379259 0.0
v 2.225 1.125 0.0
v 2.104259 -0.532352 0.0
v 2.116747 -0.5625 0.0
v 2.192648 -0.879259 0.0
v 2.136612 -0.588388 0.0
v 2.1625 -0.608253 0.0
v 2.136612 -0.411612 0.0
v 2.116747 -0.4375 0.0
v 2.104259 -0.467648 0.0
v 2.116747 -0.9375 0.0
v 2.104259 -0.967648 0.0
v 2.1 -1.0 0.0
v 2.104259 -1.032352 0.0
v 2.116747 -1.0625 0.0
v 2.136612 -1.088388 0.0
v 2.1625 -1.108253 0.0
v -0.391747 2.1625 0.0
v -0.120741 2.192648 0.0
v -0.108253 2.1625 0.0
v -0.088388 2.136612 0.0
v 0.0 2.1 0.0
v -0.032352 2.104259 0.0
v -0.0625 2.116747 0.0
v 0.032352 2.104259 0.0
v 0.0625 2.116747 0.0
v 0.379259 2.192648 0.0
v 0.088388 2.136612 0.0
v 0.108253 2.1625 0.0
v 0.467648 2.104259 0.0
v 0.5 2.1 0.0
v 0.532352 2.104259 0.0
v 0.5625 2.116747 0.0
v 0.588388 2.136612 0.0
v -2.5 -0.375 0.0
v -2.5 -0.125 0.0
v -2.225 -0.125 0.0
v -2.1625 -0.108253 0.0
v -2.136612 -0.088388 0.0
v -2.116747 -0.0625 0.0
v -2.104259 -0.032352 0.0
v -2.1 0.0 0.0
v -2.104259 0.032352 0.0
v -2.116747 0.0625 0.0
v -2.136612 0.088388 0.0
v -2.5 0.125 0.0
v -2.5 0.375 0.0
v -2.225 0.375 0.0
v -2.1625 0.391747 0.0
v -2.116747 0.5625 0.0
v -2.136612 0.588388 0.0
v 0.879259 -2.192648 0.0
v 0.625 -2.225 0.0
v 0.608253 -2.1625 0.0
v 0.9375 -2.116747 0.0
v 0.532352 -2.104259 0.0
v 0.5 -2.1 0.0
v 0.467648 -2.104259 0.0
v -0.032352 -2.104259 0.0
v -0.0625 -2.116747 0.0
v -0.379259 -2.192648 0.0
v -0.088388 -2.136612 0.0
v -0.108253 -2.1625 0.0
v 2.192648 0.620741 0.0
v 2.136612 0.911612 0.0
v 2.1625 0.891747 0.0
v 2.104259 1.032352 0.0
v 2.1 1.0 0.0
v 2.104259 0.967648 0.0
v 2.192648 0.120741 0.0
v 2.136612 0.411612 0.0
v 2.1625 0.391747 0.0
v 2.104259 0.532352 0.0
v 2.1 0.5 0.0
v 2.104259 0.467648 0.0
v 2.116747 -0.0625 0.0
v 2.136612 -0.088388 0.0
v 2.1625 -0.108253 0.0
v 2.1 -0.5 0.0
v -0.875 2.5 0.0
v -0.625 2.5 0.0
v -0.875 2.225 0.0
v -0.625 2.225 0.0
v -0.879259 2.192648 0.0
v -0.891747 2.1625 0.0
v -0.375 2.225 0.0
v -0.375 2.5 0.0
v -0.125 2.5 0.0
v 0.391747 2.1625 0.0
v 0.411612 2.136612 0.0
v 0.4375 2.116747 0.0
v 0.879259 2.192648 0.0
v 0.891747 2.1625 0.0
v 1.467648 2.104259 0.0
v 1.5 2.1 0.0
v 1.532352 2.104259 0.0
v 1.625 2.5 0.0
v 1.625 2.225 0.0
v 1.620741 2.192648 0.0
v -2.225 1.125 0.0
v -2.5 1.125 0.0
v -2.5 1.375 0.0
v 0.108253 -2.1625 0.0
v 0.4375 -2.116747 0.0
v -0.391747 -2.1625 0.0
v -0.411612 -2.136612 0.0
v -0.4375 -2.116747 0.0
v -0.532352 -2.104259 0.0
v -0.5625 -2.116747 0.0
v -0.879259 -2.192648 0.0
v -0.588388 -2.136612 0.0
v -0.608253 -2.1625 0.0
v -1.532352 -2.104259 0.0
v -1.5625 -2.116747 0.0
v -1.588388 -2.136612 0.0
v -1.608253 -2.1625 0.0
v -1.620741 -2.192648 0.0
v -1.625 -2.225 0.0
v -1.625 -2.5 0.0
v 2.1625 0.608253 0.0
v 2.116747 0.9375 0.0
v 2.1625 0.108253 0.0
v 2.116747 0.4375 0.0
v 2.225 -1.125 0.0
v 2.5 -1.125 0.0
v 2.5 -1.375 0.0
v 2.192648 -1.379259 0.0
v 2.1625 -1.391747 0.0
v 2.136612 -1.411612 0.0
v 2.116747 -1.4375 0.0
v -0.379259 2.192648 0.0
v -0.125 2.225 0.0
v 0.125 2.225 0.0
v 0.125 2.5 0.0
v 0.375 2.5 0.0
v 0.911612 2.136612 0.0
v 0.9375 2.116747 0.0
v 1.032352 2.104259 0.0
v 1.0625 2.116747 0.0
v 1.379259 2.192648 0.0
v 1.088388 2.136612 0.0
v 1.108253 2.1625 0.0
v 1.391747 2.1625 0.0
v 1.411612 2.136612 0.0
v 1.4375 2.116747 0.0
v 1.5625 2.116747 0.0
v 1.588388 2.136612 0.0
v 1.608253 2.1625 0.0
v -2.192648 1.120741 0.0
v -2.225 1.375 0.0
v 0.375 -2.225 0.0
v 0.375 -2.5 0.0
v 0.125 -2.5 0.0
v -0.125 -2.225 0.0
v -0.125 -2.5 0.0
v -0.375 -2.5 0.0
v -0.625 -2.225 0.0
v -0.625 -2.5 0.0
v -0.875 -2.5 0.0
v -0.891747 -2.1625 0.0
v -0.911612 -2.136612 0.0
v -0.9375 -2.116747 0.0
v -1.032352 -2.104259 0.0
v -1.0625 -2.116747 0.0
v -1.379259 -2.192648 0.0
v -1.088388 -2.136612 0.0
v -1.108253 -2.1625 0.0
v -0.967648 -2.104259 0.0
v -1.0 -2.1 0.0
v 2.225 -0.625 0.0
v 2.5 -0.625 0.0
v 2.5 -0.875 0.0
v 2.192648 -1.120741 0.0
v 2.225 -1.375 0.0
v 0.120741 2.192648 0.0
v 0.375 2.225 0.0
v 1.125 2.225 0.0
v 1.125 2.5 0.0
v 1.375 2.5 0.0
v 0.379259 -2.192648 0.0
v 0.125 -2.225 0.0
v -0.120741 -2.192648 0.0
v -0.375 -2.225 0.0
v -0.620741 -2.192648 0.0
v -0.875 -2.225 0.0
v -1.125 -2.225 0.0
v -1.125 -2.5 0.0
v -1.375 -2.5 0.0
v -1.391747 -2.1625 0.0
v -1.411612 -2.136612 0.0
v -1.4375 -2.116747 0.0
v 2.225 0.875 0.0
v 2.5 0.875 0.0
v 2.5 0.625 0.0
v 2.225 0.375 0.0
v 2.5 0.375 0.0
v 2.5 0.125 0.0
v 2.225 -0.125 0.0
v 2.5 -0.125 0.0
v 2.5 -0.375 0.0
v 2.192648 -0.620741 0.0
v 2.225 -0.875 0.0
v 0.625 2.5 0.0
v 0.875 2.5 0.0
v 0.625 2.225 0.0
v 0.875 2.225 0.0
v 0.620741 2.192648 0.0
v 0.608253 2.1625 0.0
v 1.120741 2.192648 0.0
v 1.375 2.225 0.0
v -1.120741 -2.192648 0.0
v -1.375 -2.225 0.0
v 2.192648 0.879259 0.0
v 2.225 0.625 0.0
v 2.192648 0.379259 0.0
v 2.225 0.125 0.0
v 2.192648 -0.120741 0.0
v 2.225 -0.375 0.0
v 2.5 -2.5 0.58
v 2.5 -0.125 0.18
v 2.5 0.125 0.18
v 2.5 2.5 0.58
v 2.5 -1.375 0.18
v 2.5 -1.125 0.18
v 2.5 -1.625 0.18
v 2.5 -0.875 0.18
v 2.5 -0.375 0.18
v 2.5 -0.625 0.18
v 2.5 0.875 0.18
v 2.5 1.125 0.18
v 2.5 0.625 0.18
v 2.5 0.375 0.18
v 2.5 1.625 0.18
v 2.5 1.375 0.18
v 0.125 2.5 0.18
v -0.125 2.5 0.18
v -2.5 2.5 0.58
v -0.625 2.5 0.18
v 1.625 2.5 0.18
v 1.375 2.5 0.18
v 1.125 2.5 0.18
v 0.875 2.5 0.18
v 0.375 2.5 0.18
v -0.875 2.5 0.18
v -1.125 2.5 0.18
v 0.625 2.5 0.18
v -0.375 2.5 0.18
v -1.625 2.5 0.18
v -1.375 2.5 0.18
v -2.5 -0.875 0.18
v -2.5 -1.125 0.18
v -2.5 -2.5 0.58
v -2.5 -0.625 0.18
v -2.5 0.125 0.18
v -2.5 -0.125 0.18
v -2.5 1.375 0.18
v -2.5 1.125 0.18
v -2.5 1.625 0.18
v -2.5 0.875 0.18
v -2.5 0.375 0.18
v -2.5 -1.625 0.18
v -2.5 -1.375 0.18
v -2.5 0.625 0.18
v -2.5 -0.375 0.18
v -0.875 -2.5 0.18
v -1.625 -2.5 0.18
v -1.375 -2.5 0.18
v -0.625 -2.5 0.18
v -0.375 -2.5 0.18
v 0.125 -2.5 0.18
v -1.125 -2.5 0.18
v 0.375 -2.5 0.18
v 0.625 -2.5 0.18
v 1.125 -2.5 0.18
v 1.625 -2.5 0.18
v 1.375 -2.5 0.18
v -0.125 -2.5 0.18
v 0.875 -2.5 0.18
v -1.955111 -2.061177 0.58
v -1.95 -2.1 0.58
v -1.955111 -2.138823 0.58
v -1.970096 -2.175 0.58
v -1.993934 -2.206066 0.58
v -2.025 -2.229904 0.58
v -2.061177 -2.244889 0.58
v -2.1 -2.25 0.58
v -2.138823 -2.244889 0.58
v -2.175 -2.229904 0.58
v -2.206066 -2.206066 0.58
v -2.229904 -2.175 0.58
v -2.244889 -2.138823 0.58
v -2.25 -2.1 0.58
v -2.244889 -2.061177 0.58
v -2.229904 -2.025 0.58
v -2.206066 -1.993934 0.58
v -2.175 -1.970096 0.58
v -2.138823 -1.955111 0.58
v -1.970096 -2.025 0.58
v -1.993934 -1.993934 0.58
v -2.1 -1.95 0.58
v -2.061177 -1.955111 0.58
v -2.025 -1.970096 0.58
v 1.625 2.501 0.18
v 1.375 2.501 0.18
v 1.625 2.225 -0.02
v 1.625 2.501 -0.02
v 1.375 2.501 -0.02
v 1.375 2.225 -0.02
v 1.379259 2.192648 -0.02
v 1.391747 2.1625 -0.02
v 1.411612 2.136612 -0.02
v 1.4375 2.116747 -0.02
v 1.467648 2.104259 -0.02
v 1.5 2.1 -0.02
v 1.532352 2.104259 -0.02
v 1.5625 2.116747 -0.02
v 1.588388 2.136612 -0.02
v 1.608253 2.1625 -0.02
v 1.620741 2.192648 -0.02
v 1.125 2.501 0.18
v 0.875 2.501 0.18
v 1.125 2.225 -0.02
v 1.125 2.501 -0.02
v 0.875 2.501 -0.02
v 0.875 2.225 -0.02
v 0.879259 2.192648 -0.02
v 0.891747 2.1625 -0.02
v 0.911612 2.136612 -0.02
v 0.9375 2.116747 -0.02
v 0.967648 2.104259 -0.02
v 1.0 2.1 -0.02
v 1.032352 2.104259 -0.02
v 1.0625 2.116747 -0.02
v 1.088388 2.136612 -0.02
v 1.108253 2.1625 -0.02
v 1.120741 2.192648 -0.02
v 0.625 2.501 0.18
v 0.375 2.501 0.18
v 0.625 2.225 -0.02
v 0.625 2.501 -0.02
v 0.375 2.501 -0.02
v 0.375 2.225 -0.02
v 0.379259 2.192648 -0.02
v 0.391747 2.1625 -0.02
v 0.411612 2.136612 -0.02
v 0.4375 2.116747 -0.02
v 0.467648 2.104259 -0.02
v 0.5 2.1 -0.02
v 0.532352 2.104259 -0.02
v 0.5625 2.116747 -0.02
v 0.588388 2.136612 -0.02
v 0.608253 2.1625 -0.02
v 0.620741 2.192648 -0.02
v 0.125 2.501 0.18
v -0.125 2.501 0.18
v 0.125 2.225 -0.02
v 0.125 2.501 -0.02
v -0.125 2.501 -0.02
v -0.125 2.225 -0.02
v -0.120741 2.192648 -0.02
v -0.108253 2.1625 -0.02
v -0.088388 2.136612 -0.02
v -0.0625 2.116747 -0.02
v -0.032352 2.104259 -0.02
v 0.0 2.1 -0.02
v 0.032352 2.104259 -0.02
v 0.0625 2.116747 -0.02
v 0.088388 2.136612 -0.02
v 0.108253 2.1625 -0.02
v 0.120741 2.192648 -0.02
v -0.375 2.501 0.18
v -0.625 2.501 0.18
v -0.375 2.225 -0.02
v -0.375 2.501 -0.02
v -0.625 2.501 -0.02
v -0.625 2.225 -0.02
v -0.620741 2.192648 -0.02
v -0.608253 2.1625 -0.02
v -0.588388 2.136612 -0.02
v -0.5625 2.116747 -0.02
v -0.532352 2.104259 -0.02
v -0.5 2.1 -0.02
v -0.467648 2.104259 -0.02
v -0.4375 2.116747 -0.02
v -0.411612 2.136612 -0.02
v -0.391747 2.1625 -0.02
v -0.379259 2.192648 -0.02
v -0.875 2.501 0.18
v -1.125 2.501 0.18
v -0.875 2.225 -0.02
v -0.875 2.501 -0.02
v -1.125 2.501 -0.02
v -1.125 2.225 -0.02
v -1.120741 2.192648 -0.02
v -1.108253 2.1625 -0.02
v -1.088388 2.136612 -0.02
v -1.0625 2.116747 -0.02
v -1.032352 2.104259 -0.02
v -1.0 2.1 -0.02
v -0.967648 2.104259 -0.02
v -0.9375 2.116747 -0.02
v -0.911612 2.136612 -0.02
v -0.891747 2.1625 -0.02
v -0.879259 2.192648 -0.02
v -1.375 2.501 0.18
v -1.625 2.501 0.18
v -1.375 2.225 -0.02
v -1.375 2.501 -0.02
v -1.625 2.501 -0.02
v -1.625 2.225 -0.02
v -1.620741 2.192648 -0.02
v -1.608253 2.1625 -0.02
v -1.588388 2.136612 -0.02
v -1.5625 2.116747 -0.02
v -1.532352 2.104259 -0.02
v -1.5 2.1 -0.02
v -1.467648 2.104259 -0.02
v -1.4375 2.116747 -0.02
v -1.411612 2.136612 -0.02
v -1.391747 2.1625 -0.02
v -1.379259 2.192648 -0.02
v 2.501 -1.625 0.18
v 2.501 -1.375 0.18
v 2.225 -1.625 -0.02
v 2.501 -1.625 -0.02
v 2.501 -1.375 -0.02
v 2.225 -1.375 -0.02
v 2.192648 -1.379259 -0.02
v 2.1625 -1.391747 -0.02
v 2.136612 -1.411612 -0.02
v 2.116747 -1.4375 -0.02
v 2.104259 -1.467648 -0.02
v 2.1 -1.5 -0.02
v 2.104259 -1.532352 -0.02
v 2.116747 -1.5625 -0.02
v 2.136612 -1.588388 -0.02
v 2.1625 -1.608253 -0.02
v 2.192648 -1.620741 -0.02
v -1.625 -2.501 0.18
v -1.375 -2.501 0.18
v -1.625 -2.225 -0.02
v -1.625 -2.501 -0.02
v -1.375 -2.501 -0.02
v -1.375 -2.225 -0.02
v -1.379259 -2.192648 -0.02
v -1.391747 -2.1625 -0.02
v -1.411612 -2.136612 -0.02
v -1.4375 -2.116747 -0.02
v -1.467648 -2.104259 -0.02
v -1.5 -2.1 -0.02
v -1.532352 -2.104259 -0.02
v -1.5625 -2.116747 -0.02
v -1.588388 -2.136612 -0.02
v -1.608253 -2.1625 -0.02
v -1.620741 -2.192648 -0.02
v -2.501 1.625 0.18
v -2.501 1.375 0.18
v -2.225 1.625 -0.02
v -2.501 1.625 -0.02
v -2.501 1.375 -0.02
v -2.225 1.375 -0.02
v -2.192648 1.379259 -0.02
v -2.1625 1.391747 -0.02
v -2.136612 1.411612 -0.02
v -2.116747 1.4375 -0.02
v -2.104259 1.467648 -0.02
v -2.1 1.5 -0.02
v -2.104259 1.532352 -0.02
v -2.116747 1.5625 -0.02
v -2.136612 1.588388 -0.02
v -2.1625 1.608253 -0.02
v -2.192648 1.620741 -0.02
v 2.501 -1.125 0.18
v 2.501 -0.875 0.18
v 2.225 -1.125 -0.02
v 2.501 -1.125 -0.02
v 2.501 -0.875 -0.02
v 2.225 -0.875 -0.02
v 2.192648 -0.879259 -0.02
v 2.1625 -0.891747 -0.02
v 2.136612 -0.911612 -0.02
v 2.116747 -0.9375 -0.02
v 2.104259 -0.967648 -0.02
v 2.1 -1.0 -0.02
v 2.104259 -1.032352 -0.02
v 2.116747 -1.0625 -0.02
v 2.136612 -1.088388 -0.02
v 2.1625 -1.108253 -0.02
v 2.192648 -1.120741 -0.02
v 2.501 -0.625 0.18
v 2.501 -0.375 0.18
v 2.225 -0.625 -0.02
v 2.501 -0.625 -0.02
v 2.501 -0.375 -0.02
v 2.225 -0.375 -0.02
v 2.192648 -0.379259 -0.02
v 2.1625 -0.391747 -0.02
v 2.136612 -0.411612 -0.02
v 2.116747 -0.4375 -0.02
v 2.104259 -0.467648 -0.02
v 2.1 -0.5 -0.02
v 2.104259 -0.532352 -0.02
v 2.116747 -0.5625 -0.02
v 2.136612 -0.588388 -0.02
v 2.1625 -0.608253 -0.02
v 2.192648 -0.620741 -0.02
v 2.501 -0.125 0.18
v 2.501 0.125 0.18
v 2.225 -0.125 -0.02
v 2.501 -0.125 -0.02
v 2.501 0.125 -0.02
v 2.225 0.125 -0.02
v 2.192648 0.120741 -0.02
v 2.1625 0.108253 -0.02
v 2.136612 0.088388 -0.02
v 2.116747 0.0625 -0.02
v 2.104259 0.032352 -0.02
v 2.1 -0.0 -0.02
v 2.104259 -0.032352 -0.02
v 2.116747 -0.0625 -0.02
v 2.136612 -0.088388 -0.02
v 2.1625 -0.108253 -0.02
v 2.192648 -0.120741 -0.02
v 2.501 0.375 0.18
v 2.501 0.625 0.18
v 2.225 0.375 -0.02
v 2.501 0.375 -0.02
v 2.501 0.625 -0.02
v 2.225 0.625 -0.02
v 2.192648 0.620741 -0.02
v 2.1625 0.608253 -0.02
v 2.136612 0.588388 -0.02
v 2.116747 0.5625 -0.02
v 2.104259 0.532352 -0.02
v 2.1 0.5 -0.02
v 2.104259 0.467648 -0.02
v 2.116747 0.4375 -0.02
v 2.136612 0.411612 -0.02
v 2.1625 0.391747 -0.02
v 2.192648 0.379259 -0.02
v 2.501 0.875 0.18
v 2.501 1.125 0.18
v 2.225 0.875 -0.02
v 2.501 0.875 -0.02
v 2.501 1.125 -0.02
v 2.225 1.125 -0.02
v 2.192648 1.120741 -0.02
v 2.1625 1.108253 -0.02
v 2.136612 1.088388 -0.02
v 2.116747 1.0625 -0.02
v 2.104259 1.032352 -0.02
v 2.1 1.0 -0.02
v 2.104259 0.967648 -0.02
v 2.116747 0.9375 -0.02
v 2.136612 0.911612 -0.02
v 2.1625 0.891747 -0.02
v 2.192648 0.879259 -0.02
v 2.501 1.375 0.18
v 2.501 1.625 0.18
v 2.225 1.375 -0.02
v 2.501 1.375 -0.02
v 2.501 1.625 -0.02
v 2.225 1.625 -0.02
v 2.192648 1.620741 -0.02
v 2.1625 1.608253 -0.02
v 2.136612 1.588388 -0.02
v 2.116747 1.5625 -0.02
v 2.104259 1.532352 -0.02
v 2.1 1.5 -0.02
v 2.104259 1.467648 -0.02
v 2.116747 1.4375 -0.02
v 2.136612 1.411612 -0.02
v 2.1625 1.391747 -0.02
v 2.192648 1.379259 -0.02
v -1.125 -2.501 0.18
v -0.875 -2.501 0.18
v -1.125 -2.225 -0.02
v -1.125 -2.501 -0.02
v -0.875 -2.501 -0.02
v -0.875 -2.225 -0.02
v -0.879259 -2.192648 -0.02
v -0.891747 -2.1625 -0.02
v -0.911612 -2.136612 -0.02
v -0.9375 -2.116747 -0.02
v -0.967648 -2.104259 -0.02
v -1.0 -2.1 -0.02
v -1.032352 -2.104259 -0.02
v -1.0625 -2.116747 -0.02
v -1.088388 -2.136612 -0.02
v -1.108253 -2.1625 -0.02
v -1.120741 -2.192648 -0.02
v -0.625 -2.501 0.18
v -0.375 -2.501 0.18
v -0.625 -2.225 -0.02
v -0.625 -2.501 -0.02
v -0.375 -2.501 -0.02
v -0.375 -2.225 -0.02
v -0.379259 -2.192648 -0.02
v -0.391747 -2.1625 -0.02
v -0.411612 -2.136612 -0.02
v -0.4375 -2.116747 -0.02
v -0.467648 -2.104259 -0.02
v -0.5 -2.1 -0.02
v -0.532352 -2.104259 -0.02
v -0.5625 -2.116747 -0.02
v -0.588388 -2.136612 -0.02
v -0.608253 -2.1625 -0.02
v -0.620741 -2.192648 -0.02
v -0.125 -2.501 0.18
v 0.125 -2.501 0.18
v -0.125 -2.225 -0.02
v -0.125 -2.501 -0.02
v 0.125 -2.501 -0.02
v 0.125 -2.225 -0.02
v 0.120741 -2.192648 -0.02
v 0.108253 -2.1625 -0.02
v 0.088388 -2.136612 -0.02
v 0.0625 -2.116747 -0.02
v 0.032352 -2.104259 -0.02
v -0.0 -2.1 -0.02
v -0.032352 -2.104259 -0.02
v -0.0625 -2.116747 -0.02
v -0.088388 -2.136612 -0.02
v -0.108253 -2.1625 -0.02
v -0.120741 -2.192648 -0.02
v 0.375 -2.501 0.18
v 0.625 -2.501 0.18
v 0.375 -2.225 -0.02
v 0.375 -2.501 -0.02
v 0.625 -2.501 -0.02
v 0.625 -2.225 -0.02
v 0.620741 -2.192648 -0.02
v 0.608253 -2.1625 -0.02
v 0.588388 -2.136612 -0.02
v 0.5625 -2.116747 -0.02
v 0.532352 -2.104259 -0.02
v 0.5 -2.1 -0.02
v 0.467648 -2.104259 -0.02
v 0.4375 -2.116747 -0.02
v 0.411612 -2.136612 -0.02
v 0.391747 -2.1625 -0.02
v 0.379259 -2.192648 -0.02
v 0.875 -2.501 0.18
v 1.125 -2.501 0.18
v 0.875 -2.225 -0.02
v 0.875 -2.501 -0.02
v 1.125 -2.501 -0.02
v 1.125 -2.225 -0.02
v 1.120741 -2.192648 -0.02
v 1.108253 -2.1625 -0.02
v 1.088388 -2.136612 -0.02
v 1.0625 -2.116747 -0.02
v 1.032352 -2.104259 -0.02
v 1.0 -2.1 -0.02
v 0.967648 -2.104259 -0.02
v 0.9375 -2.116747 -0.02
v 0.911612 -2.136612 -0.02
v 0.891747 -2.1625 -0.02
v 0.879259 -2.192648 -0.02
v 1.375 -2.501 0.18
v 1.625 -2.501 0.18
v 1.375 -2.225 -0.02
v 1.375 -2.501 -0.02
v 1.625 -2.501 -0.02
v 1.625 -2.225 -0.02
v 1.620741 -2.192648 -0.02
v 1.608253 -2.1625 -0.02
v 1.588388 -2.136612 -0.02
v 1.5625 -2.116747 -0.02
v 1.532352 -2.104259 -0.02
v 1.5 -2.1 -0.02
v 1.467648 -2.104259 -0.02
v 1.4375 -2.116747 -0.02
v 1.411612 -2.136612 -0.02
v 1.391747 -2.1625 -0.02
v 1.379259 -2.192648 -0.02
v -2.501 1.125 0.18
v -2.501 0.875 0.18
v -2.225 1.125 -0.02
v -2.501 1.125 -0.02
v -2.501 0.875 -0.02
v -2.225 0.875 -0.02
v -2.192648 0.879259 -0.02
v -2.1625 0.891747 -0.02
v -2.136612 0.911612 -0.02
v -2.116747 0.9375 -0.02
v -2.104259 0.967648 -0.02
v -2.1 1.0 -0.02
v -2.104259 1.032352 -0.02
v -2.116747 1.0625 -0.02
v -2.136612 1.088388 -0.02
v -2.1625 1.108253 -0.02
v -2.192648 1.120741 -0.02
v -2.501 0.625 0.18
v -2.501 0.375 0.18
v -2.225 0.625 -0.02
v -2.501 0.625 -0.02
v -2.501 0.375 -0.02
v -2.225 0.375 -0.02
v -2.192648 0.379259 -0.02
v -2.1625 0.391747 -0.02
v -2.136612 0.411612 -0.02
v -2.116747 0.4375 -0.02
v -2.104259 0.467648 -0.02
v -2.1 0.5 -0.02
v -2.104259 0.532352 -0.02
v -2.116747 0.5625 -0.02
v -2.136612 0.588388 -0.02
v -2.1625 0.608253 -0.02
v -2.192648 0.620741 -0.02
v -2.501 0.125 0.18
v -2.501 -0.125 0.18
v -2.225 0.125 -0.02
v -2.501 0.125 -0.02
v -2.501 -0.125 -0.02
v -2.225 -0.125 -0.02
v -2.192648 -0.120741 -0.02
v -2.1625 -0.108253 -0.02
v -2.136612 -0.088388 -0.02
v -2.116747 -0.0625 -0.02
v -2.104259 -0.032352 -0.02
v -2.1 0.0 -0.02
v -2.104259 0.032352 -0.02
v -2.116747 0.0625 -0.02
v -2.136612 0.088388 -0.02
v -2.1625 0.108253 -0.02
v -2.192648 0.120741 -0.02
v -2.501 -0.375 0.18
v -2.501 -0.625 0.18
v -2.225 -0.375 -0.02
v -2.501 -0.375 -0.02
v -2.501 -0.625 -0.02
v -2.225 -0.625 -0.02
v -2.192648 -0.620741 -0.02
v -2.1625 -0.608253 -0.02
v -2.136612 -0.588388 -0.02
v -2.116747 -0.5625 -0.02
v -2.104259 -0.532352 -0.02
v -2.1 -0.5 -0.02
v -2.104259 -0.467648 -0.02
v -2.116747 -0.4375 -0.02
v -2.136612 -0.411612 -0.02
v -2.1625 -0.391747 -0.02
v -2.192648 -0.379259 -0.02
v -2.501 -0.875 0.18
v -2.501 -1.125 0.18
v -2.225 -0.875 -0.02
v -2.501 -0.875 -0.02
v -2.501 -1.125 -0.02
v -2.225 -1.125 -0.02
v -2.192648 -1.120741 -0.02
v -2.1625 -1.108253 -0.02
v -2.136612 -1.088388 -0.02
v -2.116747 -1.0625 -0.02
v -2.104259 -1.032352 -0.02
v -2.1 -1.0 -0.02
v -2.104259 -0.967648 -0.02
v -2.116747 -0.9375 -0.02
v -2.136612 -0.911612 -0.02
v -2.1625 -0.891747 -0.02
v -2.192648 -0.879259 -0.02
v -2.501 -1.375 0.18
v -2.501 -1.625 0.18
v -2.225 -1.375 -0.02
v -2.501 -1.375 -0.02
v -2.501 -1.625 -0.02
v -2.225 -1.625 -0.02
v -2.192648 -1.620741 -0.02
v -2.1625 -1.608253 -0.02
v -2.136612 -1.588388 -0.02
v -2.116747 -1.5625 -0.02
v -2.104259 -1.532352 -0.02
v -2.1 -1.5 -0.02
v -2.104259 -1.467648 -0.02
v -2.116747 -1.4375 -0.02
v -2.136612 -1.411612 -0.02
v -2.1625 -1.391747 -0.02
v -2.192648 -1.379259 -0.02
v -1.95 -2.1 0.56
v -1.955111 -2.061177 0.56
newmtl 3
Ka 0.4980392156862745 0.4980392156862745 0.4980392156862745
Kd 0.34901960784313724 0.34901960784313724 0.34901960784313724
Ks 0.023529411764705882 0.023529411764705882 0.023529411764705882
d 0.0
endmtl
v -1.970096 -2.025 0.56
v -1.993934 -1.993934 0.56
v -2.025 -1.970096 0.56
v -2.061177 -1.955111 0.56
v -2.1 -1.95 0.56
v -2.138823 -1.955111 0.56
v -2.175 -1.970096 0.56
v -2.206066 -1.993934 0.56
v -2.229904 -2.025 0.56
v -2.244889 -2.061177 0.56
v -2.25 -2.1 0.56
v -2.244889 -2.138823 0.56
v -2.229904 -2.175 0.56
v -2.206066 -2.206066 0.56
v -2.175 -2.229904 0.56
v -2.138823 -2.244889 0.56
v -2.1 -2.25 0.56
v -2.061177 -2.244889 0.56
v -2.025 -2.229904 0.56
v -1.993934 -2.206066 0.56
v -1.970096 -2.175 0.56
v -1.955111 -2.138823 0.56
v -2.1 -2.1 0.56
v -0.169512 0.049727 -0.03
v -0.208537 -0.050273 -0.03
newmtl 4
Ka 1.0 1.0 1.0
Kd 1.0 1.0 1.0
Ks 0.8784313725490196 0.8784313725490196 0.8784313725490196
d 0.0
endmtl
v -0.193902 -0.050273 -0.03
v -0.183784 -0.022224 -0.03
v -0.142473 -0.022224 -0.03
v -0.132927 -0.050273 -0.03
v -0.118293 -0.050273 -0.03
v -0.156098 0.049727 -0.03
v -0.145846 -0.011249 -0.03
v -0.179287 -0.011249 -0.03
v -0.160766 0.03052 -0.03
v -0.161728 0.033988 -0.03
v -0.162367 0.037532 -0.03
v -0.162691 0.037532 -0.03
v -0.163343 0.033999 -0.03
v -0.164234 0.03052 -0.03
v -0.145846 -0.011249 -0.05
v -0.179287 -0.011249 -0.05
v -0.160766 0.03052 -0.05
v -0.161728 0.033988 -0.05
v -0.162367 0.037532 -0.05
v -0.162691 0.037532 -0.05
v -0.163343 0.033999 -0.05
v -0.164234 0.03052 -0.05
v -0.057679 -0.050273 -0.03
v -0.030488 -0.050273 -0.03
v -0.030488 0.049727 -0.03
v -0.058708 0.049727 -0.03
v -0.110976 9.85E-4 -0.03
v -0.110249 0.010394 -0.03
v -0.107563 0.020247 -0.03
v -0.102916 0.028847 -0.03
v -0.095844 0.036688 -0.03
v -0.09574 0.03678 -0.03
v -0.084855 0.044074 -0.03
v -0.073155 0.048183 -0.03
v -0.070052 -0.049193 -0.03
v -0.081575 -0.045758 -0.03
v -0.092016 -0.039691 -0.03
v -0.100247 -0.03181 -0.03
v -0.105982 -0.022865 -0.03
v -0.109572 -0.012398 -0.03
v -0.090903 0.024728 -0.03
v -0.086046 0.029886 -0.03
v -0.078741 0.034605 -0.03
v -0.070487 0.037493 -0.03
v -0.058651 0.038751 -0.03
v -0.043902 0.038751 -0.03
v -0.043902 -0.039297 -0.03
v -0.058098 -0.039297 -0.03
v -0.068648 -0.038315 -0.03
v -0.077064 -0.035689 -0.03
v -0.083883 -0.031639 -0.03
v -0.089492 -0.026099 -0.03
v -0.09371 -0.019205 -0.03
v -0.096643 -0.009805 -0.03
v -0.097561 6.99E-4 -0.03
v -0.096711 0.010651 -0.03
v -0.094377 0.018561 -0.03
v -0.058651 0.038751 -0.05
v -0.043902 0.038751 -0.05
v -0.070487 0.037493 -0.05
v -0.078741 0.034605 -0.05
v -0.086046 0.029886 -0.05
v -0.090903 0.024728 -0.05
v -0.094377 0.018561 -0.05
v -0.096711 0.010651 -0.05
v -0.097561 6.99E-4 -0.05
v -0.096643 -0.009805 -0.05
v -0.09371 -0.019205 -0.05
v -0.089492 -0.026099 -0.05
v -0.083883 -0.031639 -0.05
v -0.077064 -0.035689 -0.05
v -0.068648 -0.038315 -0.05
v -0.058098 -0.039297 -0.05
v -0.043902 -0.039297 -0.05
v -0.010976 -0.039297 -0.03
v -0.010976 -0.050273 -0.03
v 0.042683 -0.050273 -0.03
v 0.042683 0.049727 -0.03
v -0.008537 0.049727 -0.03
v -0.008537 0.038751 -0.03
v 0.029268 0.038751 -0.03
v 0.029268 0.005825 -0.03
v -0.006098 0.005825 -0.03
v -0.006098 -0.005151 -0.03
v 0.029268 -0.005151 -0.03
v 0.029268 -0.039297 -0.03
v 0.062195 -0.034115 -0.03
v 0.062195 -0.04509 -0.03
v 0.072855 -0.049467 -0.03
v 0.08971 -0.051493 -0.03
v 0.086976 -0.051446 -0.03
v 0.102034 -0.050215 -0.03
v 0.111726 -0.046879 -0.03
v 0.11977 -0.041742 -0.03
v 0.127281 -0.033834 -0.03
v 0.132609 -0.024326 -0.03
v 0.135618 -0.013741 -0.03
v 0.136585 -0.002159 -0.03
v 0.085728 0.050946 -0.03
v 0.095772 0.050126 -0.03
v 0.10692 0.046888 -0.03
v 0.116418 0.04142 -0.03
v 0.125447 0.032738 -0.03
v 0.131308 0.023388 -0.03
v 0.135147 0.012058 -0.03
v 0.062195 0.046983 -0.03
v 0.073757 0.05012 -0.03
v 0.062195 0.033568 -0.03
v 0.085614 0.039971 -0.03
v 0.073459 0.038392 -0.03
v 0.123171 -0.00134 -0.03
v 0.122694 0.00644 -0.03
v 0.120028 0.017146 -0.03
v 0.115905 0.024867 -0.03
v 0.109867 0.031533 -0.03
v 0.102945 0.036164 -0.03
v 0.09546 0.038865 -0.03
v 0.087862 -0.040517 -0.03
v 0.097189 -0.039471 -0.03
v 0.104476 -0.036788 -0.03
v 0.110613 -0.032652 -0.03
v 0.115306 -0.027701 -0.03
v 0.119441 -0.020767 -0.03
v 0.122158 -0.012166 -0.03
v 0.063987 -0.035107 -0.03
v 0.074588 -0.039044 -0.03
v 0.145122 -0.039297 -0.03
v 0.145122 -0.050273 -0.03
v 0.196341 -0.050273 -0.03
v 0.196341 0.049727 -0.03
v 0.182927 0.049727 -0.03
v 0.182927 -0.039297 -0.03
usemtl 1
f 1// 2// 3//
f 3// 2// 4//
f 3// 4// 5//
f 6// 7// 4//
f 8// 9// 10//
f 11// 12// 13//
f 13// 14// 11//
f 11// 14// 15//
f 11// 15// 16//
f 17// 18// 19//
f 19// 18// 6//
f 19// 6// 20//
f 21// 22// 23//
f 23// 22// 24//
f 25// 26// 27//
f 27// 26// 28//
f 27// 28// 29//
f 29// 28// 30//
f 10// 20// 8//
f 8// 20// 6//
f 8// 6// 31//
f 31// 6// 29//
f 31// 29// 12//
f 32// 33// 34//
f 34// 33// 35//
f 34// 35// 36//
f 37// 38// 34//
f 34// 38// 39//
f 40// 41// 42//
f 42// 41// 43//
f 39// 44// 34//
f 34// 44// 43//
f 34// 43// 45//
f 45// 43// 41//
f 36// 46// 34//
f 34// 46// 47//
f 34// 47// 37//
f 48// 29// 49//
f 49// 29// 30//
f 49// 30// 50//
f 21// 51// 22//
f 22// 51// 52//
f 22// 52// 53//
f 53// 52// 54//
f 53// 54// 55//
f 54// 56// 55//
f 55// 56// 57//
f 55// 57// 30//
f 30// 57// 58//
f 30// 58// 50//
f 48// 59// 29//
f 29// 59// 60//
f 29// 60// 61//
f 61// 62// 29//
f 29// 62// 63//
f 29// 63// 12//
f 12// 63// 64//
f 12// 64// 13//
f 13// 64// 65//
f 13// 65// 34//
f 34// 65// 66//
f 34// 66// 32//
f 7// 11// 4//
f 4// 11// 16//
f 4// 16// 5//
f 5// 16// 67//
f 5// 67// 68//
f 68// 67// 69//
f 68// 69// 25//
f 25// 69// 24//
f 25// 24// 26//
f 26// 24// 22//
f 70// 71// 4//
f 72// 73// 71//
f 71// 73// 74//
f 71// 74// 75//
f 76// 77// 29//
f 29// 78// 79//
f 79// 78// 80//
f 79// 80// 2//
f 2// 80// 81//
f 2// 81// 4//
f 4// 81// 82//
f 4// 82// 70//
f 70// 82// 83//
f 70// 83// 84//
f 6// 4// 29//
f 29// 4// 85//
f 29// 85// 76//
f 78// 86// 87//
f 75// 88// 71//
f 71// 88// 89//
f 71// 89// 4//
f 4// 89// 90//
f 4// 90// 85//
f 77// 91// 29//
f 29// 91// 92//
f 29// 92// 78//
f 78// 92// 93//
f 78// 93// 86//
f 87// 94// 78//
f 78// 94// 95//
f 78// 95// 71//
f 71// 95// 96//
f 71// 96// 72//
usemtl 2
f 97// 98// 99//
f 99// 98// 100//
f 99// 100// 101//
f 102// 103// 104//
f 105// 106// 107//
f 108// 109// 110//
f 111// 112// 113//
f 114// 115// 116//
f 117// 118// 119//
f 117// 119// 120//
f 121// 122// 123//
f 124// 125// 126//
f 104// 127// 102//
f 102// 127// 128//
f 102// 128// 129//
f 129// 128// 130//
f 130// 131// 129//
f 129// 131// 132//
f 129// 132// 133//
f 134// 135// 129//
f 114// 116// 136//
f 107// 137// 105//
f 105// 137// 138//
f 105// 138// 119//
f 119// 138// 139//
f 119// 139// 140//
f 141// 142// 143//
f 143// 142// 144//
f 143// 144// 145//
f 146// 147// 129//
f 109// 148// 110//
f 110// 148// 149//
f 110// 149// 150//
f 151// 152// 153//
f 153// 152// 154//
f 153// 154// 155//
f 155// 120// 153//
f 153// 120// 119//
f 153// 119// 156//
f 156// 119// 110//
f 156// 110// 157//
f 157// 110// 150//
f 118// 158// 119//
f 119// 158// 159//
f 119// 159// 160//
f 113// 161// 111//
f 111// 161// 162//
f 111// 162// 116//
f 116// 162// 163//
f 116// 163// 164//
f 116// 165// 166//
f 167// 168// 116//
f 133// 169// 129//
f 129// 169// 170//
f 129// 170// 171//
f 172// 173// 174//
f 175// 176// 129//
f 177// 178// 179//
f 140// 180// 119//
f 119// 180// 181//
f 119// 181// 182//
f 183// 184// 119//
f 119// 184// 185//
f 119// 185// 186//
f 187// 188// 129//
f 189// 190// 123//
f 123// 190// 191//
f 123// 191// 121//
f 192// 193// 126//
f 126// 193// 194//
f 126// 194// 124//
f 195// 196// 197//
f 198// 199// 119//
f 200// 105// 201//
f 201// 105// 202//
f 203// 204// 205//
f 164// 206// 116//
f 116// 206// 207//
f 116// 207// 208//
f 209// 210// 116//
f 170// 211// 171//
f 171// 211// 172//
f 171// 172// 212//
f 212// 172// 174//
f 213// 111// 214//
f 214// 111// 215//
f 216// 217// 218//
f 183// 119// 219//
f 219// 119// 182//
f 219// 182// 177//
f 177// 182// 220//
f 177// 220// 178//
f 144// 221// 222//
f 223// 224// 225//
f 122// 121// 160//
f 160// 121// 226//
f 160// 226// 227//
f 227// 228// 160//
f 160// 228// 229//
f 160// 229// 119//
f 119// 229// 230//
f 119// 230// 231//
f 231// 232// 119//
f 119// 232// 233//
f 119// 233// 234//
f 235// 236// 237//
f 238// 239// 240//
f 197// 196// 119//
f 119// 196// 241//
f 119// 241// 198//
f 199// 242// 119//
f 119// 242// 243//
f 119// 243// 244//
f 245// 246// 247//
f 165// 116// 248//
f 248// 116// 208//
f 248// 208// 203//
f 203// 208// 249//
f 203// 249// 204//
f 250// 251// 252//
f 253// 254// 255//
f 256// 257// 258//
f 135// 259// 129//
f 129// 259// 260//
f 129// 260// 261//
f 261// 262// 263//
f 129// 264// 265//
f 115// 266// 116//
f 116// 266// 267//
f 116// 267// 111//
f 111// 267// 268//
f 111// 268// 215//
f 179// 269// 177//
f 177// 269// 216//
f 177// 216// 270//
f 270// 216// 218//
f 222// 271// 144//
f 144// 271// 272//
f 144// 272// 145//
f 186// 141// 119//
f 119// 141// 143//
f 119// 143// 129//
f 129// 143// 273//
f 129// 273// 146//
f 153// 274// 151//
f 151// 274// 223//
f 151// 223// 275//
f 275// 223// 225//
f 276// 277// 278//
f 278// 277// 279//
f 278// 279// 119//
f 119// 279// 280//
f 119// 280// 281//
f 125// 124// 197//
f 197// 124// 282//
f 197// 282// 195//
f 283// 284// 244//
f 244// 284// 285//
f 244// 285// 119//
f 119// 285// 286//
f 286// 287// 119//
f 119// 287// 288//
f 119// 288// 289//
f 289// 290// 119//
f 119// 290// 291//
f 119// 291// 105//
f 105// 291// 292//
f 105// 292// 202//
f 205// 293// 203//
f 203// 293// 245//
f 203// 245// 294//
f 294// 245// 247//
f 295// 296// 297//
f 166// 298// 116//
f 116// 298// 299//
f 116// 299// 300//
f 301// 302// 303//
f 210// 304// 116//
f 116// 304// 305//
f 116// 305// 255//
f 255// 305// 306//
f 255// 306// 307//
f 172// 308// 173//
f 173// 308// 256//
f 173// 256// 309//
f 309// 256// 258//
f 310// 311// 312//
f 312// 311// 313//
f 312// 313// 314//
f 263// 315// 261//
f 261// 315// 316//
f 261// 316// 129//
f 129// 316// 317//
f 265// 318// 129//
f 129// 318// 319//
f 129// 319// 116//
f 116// 319// 320//
f 116// 320// 321//
f 321// 322// 116//
f 116// 322// 323//
f 116// 323// 324//
f 325// 326// 147//
f 147// 326// 327//
f 147// 327// 328//
f 329// 129// 330//
f 330// 129// 147//
f 330// 147// 331//
f 331// 147// 328//
f 332// 333// 334//
f 334// 333// 335//
f 334// 335// 336//
f 329// 337// 129//
f 129// 337// 338//
f 129// 338// 339//
f 339// 340// 129//
f 129// 340// 341//
f 129// 341// 187//
f 342// 343// 237//
f 237// 343// 344//
f 237// 344// 235//
f 236// 235// 234//
f 234// 235// 345//
f 234// 345// 346//
f 346// 347// 234//
f 234// 347// 348//
f 234// 348// 119//
f 119// 348// 349//
f 119// 349// 350//
f 350// 351// 119//
f 119// 351// 352//
f 119// 352// 278//
f 353// 354// 240//
f 240// 354// 355//
f 240// 355// 238//
f 239// 238// 278//
f 278// 238// 356//
f 278// 356// 276//
f 281// 357// 119//
f 119// 357// 358//
f 119// 358// 197//
f 252// 359// 250//
f 250// 359// 295//
f 250// 295// 360//
f 360// 295// 297//
f 167// 116// 361//
f 361// 116// 300//
f 361// 300// 250//
f 250// 300// 362//
f 250// 362// 251//
f 168// 363// 116//
f 116// 363// 364//
f 116// 364// 365//
f 366// 367// 368//
f 368// 367// 369//
f 368// 369// 370//
f 371// 372// 373//
f 171// 374// 129//
f 129// 374// 375//
f 129// 375// 376//
f 377// 378// 379//
f 176// 380// 129//
f 129// 380// 381//
f 129// 381// 382//
f 261// 383// 262//
f 262// 383// 384//
f 262// 384// 385//
f 317// 386// 129//
f 129// 386// 310//
f 129// 310// 264//
f 264// 310// 312//
f 387// 388// 389//
f 389// 388// 390//
f 389// 390// 391//
f 391// 390// 221//
f 391// 221// 392//
f 392// 221// 144//
f 393// 394// 395//
f 334// 396// 332//
f 332// 396// 397//
f 332// 397// 329//
f 329// 397// 398//
f 329// 398// 337//
f 341// 399// 400//
f 401// 402// 129//
f 129// 402// 403//
f 404// 102// 405//
f 405// 102// 406//
f 407// 408// 409//
f 209// 116// 410//
f 410// 116// 365//
f 410// 365// 301//
f 301// 365// 411//
f 301// 411// 302//
f 368// 412// 366//
f 366// 412// 413//
f 366// 413// 305//
f 305// 413// 414//
f 305// 414// 306//
f 415// 416// 417//
f 417// 416// 418//
f 417// 418// 419//
f 254// 420// 255//
f 255// 420// 421//
f 255// 421// 422//
f 108// 110// 101//
f 101// 110// 255//
f 101// 255// 99//
f 99// 255// 422//
f 99// 422// 423//
f 423// 424// 99//
f 99// 424// 425//
f 99// 425// 426//
f 175// 129// 427//
f 427// 129// 376//
f 427// 376// 371//
f 371// 376// 428//
f 371// 428// 372//
f 134// 129// 429//
f 429// 129// 382//
f 429// 382// 377//
f 377// 382// 430//
f 377// 430// 378//
f 431// 432// 433//
f 434// 435// 324//
f 324// 435// 436//
f 324// 436// 116//
f 116// 436// 437//
f 116// 437// 136//
f 325// 438// 326//
f 326// 438// 393//
f 326// 393// 439//
f 439// 393// 395//
f 440// 441// 442//
f 400// 443// 341//
f 341// 443// 444//
f 341// 444// 187//
f 445// 446// 447//
f 447// 446// 448//
f 447// 448// 449//
f 447// 450// 445//
f 445// 450// 451//
f 445// 451// 188//
f 188// 451// 129//
f 129// 451// 452//
f 129// 452// 401//
f 403// 453// 129//
f 129// 453// 454//
f 129// 454// 102//
f 102// 454// 455//
f 102// 455// 406//
f 244// 456// 283//
f 283// 456// 407//
f 283// 407// 457//
f 457// 407// 409//
f 458// 459// 460//
f 461// 462// 463//
f 464// 465// 466//
f 417// 467// 415//
f 415// 467// 468//
f 415// 468// 307//
f 307// 468// 469//
f 307// 469// 255//
f 470// 471// 472//
f 472// 471// 473//
f 472// 473// 474//
f 469// 475// 255//
f 255// 475// 476//
f 255// 476// 470//
f 477// 478// 479//
f 324// 480// 434//
f 434// 480// 431//
f 434// 431// 481//
f 481// 431// 433//
f 336// 482// 334//
f 334// 482// 440//
f 334// 440// 483//
f 483// 440// 442//
f 484// 485// 486//
f 303// 487// 301//
f 301// 487// 458//
f 301// 458// 488//
f 488// 458// 460//
f 370// 489// 368//
f 368// 489// 461//
f 368// 461// 490//
f 490// 461// 463//
f 419// 491// 417//
f 417// 491// 464//
f 417// 464// 492//
f 492// 464// 466//
f 493// 494// 495//
f 472// 496// 470//
f 470// 496// 497//
f 470// 497// 255//
f 255// 497// 498//
f 255// 498// 253//
f 499// 500// 501//
f 502// 503// 504//
f 505// 506// 507//
f 314// 508// 312//
f 312// 508// 477//
f 312// 477// 509//
f 509// 477// 479//
f 510// 511// 512//
f 512// 511// 513//
f 512// 513// 514//
f 514// 513// 399//
f 514// 399// 515//
f 515// 399// 341//
f 449// 516// 447//
f 447// 516// 484//
f 447// 484// 517//
f 517// 484// 486//
f 474// 518// 472//
f 472// 518// 493//
f 472// 493// 519//
f 519// 493// 495//
f 373// 520// 371//
f 371// 520// 499//
f 371// 499// 521//
f 521// 499// 501//
f 379// 522// 377//
f 377// 522// 502//
f 377// 502// 523//
f 523// 502// 504//
f 385// 524// 262//
f 262// 524// 505//
f 262// 505// 525//
f 525// 505// 507//
f 526// 111// 213//
f 527// 528// 529//
f 433// 432// 530//
f 530// 432// 531//
f 213// 532// 526//
f 526// 532// 530//
f 526// 530// 529//
f 529// 530// 531//
f 529// 531// 533//
f 534// 507// 506//
f 506// 527// 534//
f 534// 527// 529//
f 534// 529// 535//
f 535// 529// 533//
f 535// 533// 478//
f 478// 533// 479//
f 536// 537// 529//
f 538// 501// 500//
f 500// 536// 538//
f 538// 536// 529//
f 538// 529// 539//
f 539// 529// 528//
f 539// 528// 503//
f 503// 528// 504//
f 103// 102// 540//
f 540// 102// 529//
f 540// 529// 541//
f 541// 529// 537//
f 541// 537// 257//
f 257// 537// 258//
f 542// 543// 544//
f 545// 388// 387//
f 102// 404// 529//
f 529// 404// 546//
f 529// 546// 547//
f 486// 485// 547//
f 547// 485// 548//
f 547// 548// 529//
f 529// 548// 549//
f 529// 549// 544//
f 550// 442// 441//
f 551// 552// 544//
f 441// 542// 550//
f 550// 542// 544//
f 550// 544// 553//
f 553// 544// 549//
f 553// 549// 510//
f 510// 549// 511//
f 387// 551// 545//
f 545// 551// 544//
f 545// 544// 554//
f 554// 544// 543//
f 554// 543// 394//
f 394// 543// 395//
f 106// 105// 555//
f 555// 105// 544//
f 555// 544// 556//
f 556// 544// 552//
f 556// 552// 217//
f 217// 552// 218//
f 557// 558// 559//
f 560// 190// 189//
f 544// 105// 200//
f 561// 562// 559//
f 409// 408// 563//
f 563// 408// 564//
f 200// 565// 544//
f 544// 565// 563//
f 544// 563// 559//
f 559// 563// 564//
f 559// 564// 566//
f 567// 354// 353//
f 97// 99// 568//
f 568// 99// 559//
f 568// 559// 569//
f 569// 559// 558//
f 569// 558// 224//
f 224// 558// 225//
f 353// 561// 567//
f 567// 561// 559//
f 567// 559// 570//
f 570// 559// 566//
f 570// 566// 192//
f 192// 566// 193//
f 189// 557// 560//
f 560// 557// 559//
f 560// 559// 571//
f 571// 559// 562//
f 571// 562// 342//
f 342// 562// 343//
f 559// 99// 426//
f 572// 466// 465//
f 426// 573// 559//
f 559// 573// 574//
f 559// 574// 526//
f 575// 576// 526//
f 577// 460// 459//
f 465// 575// 572//
f 572// 575// 526//
f 572// 526// 578//
f 578// 526// 574//
f 578// 574// 494//
f 494// 574// 495//
f 579// 580// 526//
f 581// 247// 246//
f 112// 111// 582//
f 582// 111// 526//
f 582// 526// 583//
f 459// 579// 577//
f 577// 579// 526//
f 577// 526// 584//
f 584// 526// 576//
f 584// 576// 462//
f 462// 576// 463//
f 246// 583// 581//
f 581// 583// 526//
f 581// 526// 585//
f 585// 526// 580//
f 585// 580// 296//
f 296// 580// 297//
f 586// 587// 526//
f 587// 588// 526//
f 526// 588// 589//
f 526// 589// 590//
f 590// 591// 526//
f 526// 591// 592//
f 526// 592// 559//
f 592// 593// 559//
f 559// 593// 594//
f 559// 594// 595//
f 595// 596// 559//
f 559// 596// 597//
f 559// 597// 598//
f 598// 599// 559//
f 559// 599// 600//
f 559// 600// 544//
f 544// 600// 601//
f 601// 602// 544//
f 544// 602// 603//
f 544// 603// 604//
f 586// 526// 605//
f 605// 526// 529//
f 605// 529// 606//
f 604// 607// 544//
f 544// 607// 608//
f 544// 608// 529//
f 529// 608// 609//
f 529// 609// 606//
usemtl 1
f 546// 610// 547//
f 547// 610// 611//
f 610// 546// 404//
f 405// 612// 404//
f 404// 612// 613//
f 404// 613// 610//
f 547// 611// 486//
f 486// 611// 614//
f 486// 614// 517//
f 517// 614// 615//
f 517// 615// 616//
f 517// 616// 447//
f 447// 616// 617//
f 447// 617// 450//
f 450// 617// 618//
f 450// 618// 451//
f 451// 618// 619//
f 451// 619// 452//
f 452// 619// 620//
f 452// 620// 401//
f 401// 620// 621//
f 401// 621// 402//
f 402// 621// 622//
f 402// 622// 403//
f 403// 622// 623//
f 403// 623// 453//
f 453// 623// 624//
f 453// 624// 454//
f 454// 624// 625//
f 454// 625// 455//
f 455// 625// 626//
f 455// 626// 406//
f 406// 626// 612//
f 406// 612// 405//
f 611// 610// 614//
f 614// 610// 613//
f 615// 614// 613//
f 613// 612// 615//
f 615// 612// 626//
f 615// 626// 625//
f 622// 621// 615//
f 615// 621// 620//
f 615// 620// 616//
f 625// 624// 615//
f 615// 624// 623//
f 615// 623// 622//
f 616// 620// 617//
f 617// 620// 619//
f 617// 619// 618//
f 548// 627// 549//
f 549// 627// 628//
f 627// 548// 485//
f 484// 629// 485//
f 485// 629// 630//
f 485// 630// 627//
f 549// 628// 511//
f 511// 628// 631//
f 511// 631// 513//
f 513// 631// 632//
f 513// 632// 633//
f 513// 633// 399//
f 399// 633// 634//
f 399// 634// 400//
f 400// 634// 635//
f 400// 635// 443//
f 443// 635// 636//
f 443// 636// 444//
f 444// 636// 637//
f 444// 637// 187//
f 187// 637// 638//
f 187// 638// 188//
f 188// 638// 639//
f 188// 639// 445//
f 445// 639// 640//
f 445// 640// 446//
f 446// 640// 641//
f 446// 641// 448//
f 448// 641// 642//
f 448// 642// 449//
f 449// 642// 643//
f 449// 643// 516//
f 516// 643// 629//
f 516// 629// 484//
f 628// 627// 631//
f 631// 627// 630//
f 632// 631// 630//
f 630// 629// 632//
f 632// 629// 643//
f 632// 643// 642//
f 642// 641// 632//
f 632// 641// 640//
f 632// 640// 639//
f 639// 638// 632//
f 632// 638// 637//
f 632// 637// 636//
f 636// 635// 632//
f 632// 635// 634//
f 632// 634// 633//
f 553// 644// 550//
f 550// 644// 645//
f 644// 553// 510//
f 512// 646// 510//
f 510// 646// 647//
f 510// 647// 644//
f 550// 645// 442//
f 442// 645// 648//
f 442// 648// 483//
f 483// 648// 649//
f 483// 649// 650//
f 483// 650// 334//
f 334// 650// 651//
f 334// 651// 396//
f 396// 651// 652//
f 396// 652// 397//
f 397// 652// 653//
f 397// 653// 398//
f 398// 653// 654//
f 398// 654// 337//
f 337// 654// 655//
f 337// 655// 338//
f 338// 655// 656//
f 338// 656// 339//
f 339// 656// 657//
f 339// 657// 340//
f 340// 657// 658//
f 340// 658// 341//
f 341// 658// 659//
f 341// 659// 515//
f 515// 659// 660//
f 515// 660// 514//
f 514// 660// 646//
f 514// 646// 512//
f 645// 644// 648//
f 648// 644// 647//
f 648// 647// 649//
f 649// 647// 646//
f 649// 646// 650//
f 656// 655// 646//
f 646// 655// 654//
f 646// 654// 653//
f 646// 660// 656//
f 656// 660// 659//
f 656// 659// 657//
f 657// 659// 658//
f 653// 652// 646//
f 646// 652// 651//
f 646// 651// 650//
f 542// 661// 543//
f 543// 661// 662//
f 661// 542// 441//
f 440// 663// 441//
f 441// 663// 664//
f 441// 664// 661//
f 543// 662// 395//
f 395// 662// 665//
f 395// 665// 439//
f 439// 665// 666//
f 439// 666// 667//
f 439// 667// 326//
f 326// 667// 668//
f 326// 668// 327//
f 327// 668// 669//
f 327// 669// 328//
f 328// 669// 670//
f 328// 670// 331//
f 331// 670// 671//
f 331// 671// 330//
f 330// 671// 672//
f 330// 672// 329//
f 329// 672// 673//
f 329// 673// 332//
f 332// 673// 674//
f 332// 674// 333//
f 333// 674// 675//
f 333// 675// 335//
f 335// 675// 676//
f 335// 676// 336//
f 336// 676// 677//
f 336// 677// 482//
f 482// 677// 663//
f 482// 663// 440//
f 662// 661// 665//
f 665// 661// 664//
f 677// 673// 663//
f 663// 673// 672//
f 663// 672// 671//
f 665// 664// 666//
f 666// 664// 663//
f 666// 663// 667//
f 667// 663// 668//
f 671// 670// 663//
f 663// 670// 669//
f 663// 669// 668//
f 677// 676// 673//
f 673// 676// 675//
f 673// 675// 674//
f 554// 678// 545//
f 545// 678// 679//
f 678// 554// 394//
f 393// 680// 394//
f 394// 680// 681//
f 394// 681// 678//
f 545// 679// 388//
f 388// 679// 682//
f 388// 682// 390//
f 390// 682// 683//
f 390// 683// 684//
f 390// 684// 221//
f 221// 684// 685//
f 221// 685// 222//
f 222// 685// 686//
f 222// 686// 271//
f 271// 686// 687//
f 271// 687// 272//
f 272// 687// 688//
f 272// 688// 145//
f 145// 688// 689//
f 145// 689// 143//
f 143// 689// 690//
f 143// 690// 273//
f 273// 690// 691//
f 273// 691// 146//
f 146// 691// 692//
f 146// 692// 147//
f 147// 692// 693//
f 147// 693// 325//
f 325// 693// 694//
f 325// 694// 438//
f 438// 694// 680//
f 438// 680// 393//
f 679// 678// 682//
f 682// 678// 681//
f 688// 680// 689//
f 689// 680// 690//
f 688// 687// 680//
f 680// 687// 686//
f 680// 686// 685//
f 680// 694// 690//
f 690// 694// 693//
f 690// 693// 691//
f 691// 693// 692//
f 682// 681// 683//
f 683// 681// 680//
f 683// 680// 684//
f 684// 680// 685//
f 551// 695// 552//
f 552// 695// 696//
f 695// 551// 387//
f 389// 697// 387//
f 387// 697// 698//
f 387// 698// 695//
f 552// 696// 218//
f 218// 696// 699//
f 218// 699// 270//
f 270// 699// 700//
f 270// 700// 701//
f 270// 701// 177//
f 177// 701// 702//
f 177// 702// 219//
f 219// 702// 703//
f 219// 703// 183//
f 183// 703// 704//
f 183// 704// 184//
f 184// 704// 705//
f 184// 705// 185//
f 185// 705// 706//
f 185// 706// 186//
f 186// 706// 707//
f 186// 707// 141//
f 141// 707// 708//
f 141// 708// 142//
f 142// 708// 709//
f 142// 709// 144//
f 144// 709// 710//
f 144// 710// 392//
f 392// 710// 711//
f 392// 711// 391//
f 391// 711// 697//
f 391// 697// 389//
f 696// 695// 699//
f 699// 695// 698//
f 699// 698// 700//
f 700// 698// 697//
f 700// 697// 701//
f 697// 711// 707//
f 707// 711// 710//
f 707// 710// 708//
f 708// 710// 709//
f 707// 706// 697//
f 697// 706// 705//
f 697// 705// 704//
f 704// 703// 697//
f 697// 703// 702//
f 697// 702// 701//
f 556// 712// 555//
f 555// 712// 713//
f 712// 556// 217//
f 216// 714// 217//
f 217// 714// 715//
f 217// 715// 712//
f 555// 713// 106//
f 106// 713// 716//
f 106// 716// 107//
f 107// 716// 717//
f 107// 717// 718//
f 107// 718// 137//
f 137// 718// 719//
f 137// 719// 138//
f 138// 719// 720//
f 138// 720// 139//
f 139// 720// 721//
f 139// 721// 140//
f 140// 721// 722//
f 140// 722// 180//
f 180// 722// 723//
f 180// 723// 181//
f 181// 723// 724//
f 181// 724// 182//
f 182// 724// 725//
f 182// 725// 220//
f 220// 725// 726//
f 220// 726// 178//
f 178// 726// 727//
f 178// 727// 179//
f 179// 727// 728//
f 179// 728// 269//
f 269// 728// 714//
f 269// 714// 216//
f 713// 712// 716//
f 716// 712// 715//
f 717// 716// 715//
f 715// 714// 717//
f 717// 714// 728//
f 717// 728// 727//
f 724// 723// 717//
f 717// 723// 722//
f 717// 722// 718//
f 727// 726// 717//
f 717// 726// 725//
f 717// 725// 724//
f 718// 722// 719//
f 719// 722// 721//
f 719// 721// 720//
f 532// 729// 530//
f 530// 729// 730//
f 729// 532// 213//
f 214// 731// 213//
f 213// 731// 732//
f 213// 732// 729//
f 530// 730// 433//
f 433// 730// 733//
f 433// 733// 481//
f 481// 733// 734//
f 481// 734// 735//
f 481// 735// 434//
f 434// 735// 736//
f 434// 736// 435//
f 435// 736// 737//
f 435// 737// 436//
f 436// 737// 738//
f 436// 738// 437//
f 437// 738// 739//
f 437// 739// 136//
f 136// 739// 740//
f 136// 740// 114//
f 114// 740// 741//
f 114// 741// 115//
f 115// 741// 742//
f 115// 742// 266//
f 266// 742// 743//
f 266// 743// 267//
f 267// 743// 744//
f 267// 744// 268//
f 268// 744// 745//
f 268// 745// 215//
f 215// 745// 731//
f 215// 731// 214//
f 730// 729// 733//
f 733// 729// 732//
f 734// 733// 732//
f 736// 745// 737//
f 737// 745// 738//
f 732// 731// 734//
f 734// 731// 745//
f 734// 745// 735//
f 735// 745// 736//
f 744// 740// 745//
f 745// 740// 739//
f 745// 739// 738//
f 744// 743// 740//
f 740// 743// 742//
f 740// 742// 741//
f 573// 746// 574//
f 574// 746// 747//
f 746// 573// 426//
f 425// 748// 426//
f 426// 748// 749//
f 426// 749// 746//
f 574// 747// 495//
f 495// 747// 750//
f 495// 750// 519//
f 519// 750// 751//
f 519// 751// 752//
f 519// 752// 472//
f 472// 752// 753//
f 472// 753// 496//
f 496// 753// 754//
f 496// 754// 497//
f 497// 754// 755//
f 497// 755// 498//
f 498// 755// 756//
f 498// 756// 253//
f 253// 756// 757//
f 253// 757// 254//
f 254// 757// 758//
f 254// 758// 420//
f 420// 758// 759//
f 420// 759// 421//
f 421// 759// 760//
f 421// 760// 422//
f 422// 760// 761//
f 422// 761// 423//
f 423// 761// 762//
f 423// 762// 424//
f 424// 762// 748//
f 424// 748// 425//
f 747// 746// 750//
f 750// 746// 749//
f 751// 750// 749//
f 749// 748// 751//
f 751// 748// 762//
f 751// 762// 761//
f 758// 757// 751//
f 751// 757// 756//
f 751// 756// 752//
f 761// 760// 751//
f 751// 760// 759//
f 751// 759// 758//
f 752// 756// 753//
f 753// 756// 755//
f 753// 755// 754//
f 565// 763// 563//
f 563// 763// 764//
f 763// 565// 200//
f 201// 765// 200//
f 200// 765// 766//
f 200// 766// 763//
f 563// 764// 409//
f 409// 764// 767//
f 409// 767// 457//
f 457// 767// 768//
f 457// 768// 769//
f 457// 769// 283//
f 283// 769// 770//
f 283// 770// 284//
f 284// 770// 771//
f 284// 771// 285//
f 285// 771// 772//
f 285// 772// 286//
f 286// 772// 773//
f 286// 773// 287//
f 287// 773// 774//
f 287// 774// 288//
f 288// 774// 775//
f 288// 775// 289//
f 289// 775// 776//
f 289// 776// 290//
f 290// 776// 777//
f 290// 777// 291//
f 291// 777// 778//
f 291// 778// 292//
f 292// 778// 779//
f 292// 779// 202//
f 202// 779// 765//
f 202// 765// 201//
f 764// 763// 767//
f 767// 763// 766//
f 767// 766// 768//
f 768// 766// 765//
f 768// 765// 779//
f 768// 776// 769//
f 769// 776// 770//
f 779// 778// 768//
f 768// 778// 777//
f 768// 777// 776//
f 774// 773// 772//
f 776// 775// 770//
f 770// 775// 774//
f 770// 774// 771//
f 771// 774// 772//
f 531// 780// 533//
f 533// 780// 781//
f 780// 531// 432//
f 431// 782// 432//
f 432// 782// 783//
f 432// 783// 780//
f 533// 781// 479//
f 479// 781// 784//
f 479// 784// 509//
f 509// 784// 785//
f 509// 785// 786//
f 509// 786// 312//
f 312// 786// 787//
f 312// 787// 264//
f 264// 787// 788//
f 264// 788// 265//
f 265// 788// 789//
f 265// 789// 318//
f 318// 789// 790//
f 318// 790// 319//
f 319// 790// 791//
f 319// 791// 320//
f 320// 791// 792//
f 320// 792// 321//
f 321// 792// 793//
f 321// 793// 322//
f 322// 793// 794//
f 322// 794// 323//
f 323// 794// 795//
f 323// 795// 324//
f 324// 795// 796//
f 324// 796// 480//
f 480// 796// 782//
f 480// 782// 431//
f 781// 780// 784//
f 784// 780// 783//
f 785// 784// 783//
f 787// 796// 788//
f 788// 796// 789//
f 783// 782// 785//
f 785// 782// 796//
f 785// 796// 786//
f 786// 796// 787//
f 795// 791// 796//
f 796// 791// 790//
f 796// 790// 789//
f 795// 794// 791//
f 791// 794// 793//
f 791// 793// 792//
f 535// 797// 534//
f 534// 797// 798//
f 797// 535// 478//
f 477// 799// 478//
f 478// 799// 800//
f 478// 800// 797//
f 534// 798// 507//
f 507// 798// 801//
f 507// 801// 525//
f 525// 801// 802//
f 525// 802// 803//
f 525// 803// 262//
f 262// 803// 804//
f 262// 804// 263//
f 263// 804// 805//
f 263// 805// 315//
f 315// 805// 806//
f 315// 806// 316//
f 316// 806// 807//
f 316// 807// 317//
f 317// 807// 808//
f 317// 808// 386//
f 386// 808// 809//
f 386// 809// 310//
f 310// 809// 810//
f 310// 810// 311//
f 311// 810// 811//
f 311// 811// 313//
f 313// 811// 812//
f 313// 812// 314//
f 314// 812// 813//
f 314// 813// 508//
f 508// 813// 799//
f 508// 799// 477//
f 798// 797// 801//
f 801// 797// 800//
f 801// 800// 802//
f 802// 800// 799//
f 802// 799// 803//
f 803// 799// 804//
f 808// 811// 809//
f 809// 811// 810//
f 813// 812// 806//
f 806// 812// 811//
f 806// 811// 807//
f 807// 811// 808//
f 813// 806// 799//
f 799// 806// 805//
f 799// 805// 804//
f 527// 814// 528//
f 528// 814// 815//
f 814// 527// 506//
f 505// 816// 506//
f 506// 816// 817//
f 506// 817// 814//
f 528// 815// 504//
f 504// 815// 818//
f 504// 818// 523//
f 523// 818// 819//
f 523// 819// 820//
f 523// 820// 377//
f 377// 820// 821//
f 377// 821// 429//
f 429// 821// 822//
f 429// 822// 134//
f 134// 822// 823//
f 134// 823// 135//
f 135// 823// 824//
f 135// 824// 259//
f 259// 824// 825//
f 259// 825// 260//
f 260// 825// 826//
f 260// 826// 261//
f 261// 826// 827//
f 261// 827// 383//
f 383// 827// 828//
f 383// 828// 384//
f 384// 828// 829//
f 384// 829// 385//
f 385// 829// 830//
f 385// 830// 524//
f 524// 830// 816//
f 524// 816// 505//
f 815// 814// 818//
f 818// 814// 817//
f 818// 817// 819//
f 819// 817// 816//
f 819// 816// 820//
f 824// 823// 816//
f 824// 816// 825//
f 825// 816// 830//
f 825// 830// 829//
f 823// 822// 816//
f 816// 822// 821//
f 816// 821// 820//
f 829// 828// 825//
f 825// 828// 827//
f 825// 827// 826//
f 539// 831// 538//
f 538// 831// 832//
f 831// 539// 503//
f 502// 833// 503//
f 503// 833// 834//
f 503// 834// 831//
f 538// 832// 501//
f 501// 832// 835//
f 501// 835// 521//
f 521// 835// 836//
f 521// 836// 837//
f 521// 837// 371//
f 371// 837// 838//
f 371// 838// 427//
f 427// 838// 839//
f 427// 839// 175//
f 175// 839// 840//
f 175// 840// 176//
f 176// 840// 841//
f 176// 841// 380//
f 380// 841// 842//
f 380// 842// 381//
f 381// 842// 843//
f 381// 843// 382//
f 382// 843// 844//
f 382// 844// 430//
f 430// 844// 845//
f 430// 845// 378//
f 378// 845// 846//
f 378// 846// 379//
f 379// 846// 847//
f 379// 847// 522//
f 522// 847// 833//
f 522// 833// 502//
f 832// 831// 835//
f 835// 831// 834//
f 841// 840// 833//
f 833// 840// 839//
f 833// 839// 838//
f 835// 834// 836//
f 836// 834// 833//
f 836// 833// 837//
f 837// 833// 838//
f 846// 845// 842//
f 842// 845// 844//
f 842// 844// 843//
f 841// 833// 842//
f 842// 833// 847//
f 842// 847// 846//
f 536// 848// 537//
f 537// 848// 849//
f 848// 536// 500//
f 499// 850// 500//
f 500// 850// 851//
f 500// 851// 848//
f 537// 849// 258//
f 258// 849// 852//
f 258// 852// 309//
f 309// 852// 853//
f 309// 853// 854//
f 309// 854// 173//
f 173// 854// 855//
f 173// 855// 174//
f 174// 855// 856//
f 174// 856// 212//
f 212// 856// 857//
f 212// 857// 171//
f 171// 857// 858//
f 171// 858// 374//
f 374// 858// 859//
f 374// 859// 375//
f 375// 859// 860//
f 375// 860// 376//
f 376// 860// 861//
f 376// 861// 428//
f 428// 861// 862//
f 428// 862// 372//
f 372// 862// 863//
f 372// 863// 373//
f 373// 863// 864//
f 373// 864// 520//
f 520// 864// 850//
f 520// 850// 499//
f 849// 848// 852//
f 852// 848// 851//
f 864// 857// 850//
f 850// 857// 856//
f 850// 856// 855//
f 852// 851// 853//
f 853// 851// 850//
f 853// 850// 854//
f 854// 850// 855//
f 859// 862// 860//
f 860// 862// 861//
f 864// 863// 857//
f 857// 863// 862//
f 857// 862// 858//
f 858// 862// 859//
f 541// 865// 540//
f 540// 865// 866//
f 865// 541// 257//
f 256// 867// 257//
f 257// 867// 868//
f 257// 868// 865//
f 540// 866// 103//
f 103// 866// 869//
f 103// 869// 104//
f 104// 869// 870//
f 104// 870// 871//
f 104// 871// 127//
f 127// 871// 872//
f 127// 872// 128//
f 128// 872// 873//
f 128// 873// 130//
f 130// 873// 874//
f 130// 874// 131//
f 131// 874// 875//
f 131// 875// 132//
f 132// 875// 876//
f 132// 876// 133//
f 133// 876// 877//
f 133// 877// 169//
f 169// 877// 878//
f 169// 878// 170//
f 170// 878// 879//
f 170// 879// 211//
f 211// 879// 880//
f 211// 880// 172//
f 172// 880// 881//
f 172// 881// 308//
f 308// 881// 867//
f 308// 867// 256//
f 866// 865// 869//
f 869// 865// 868//
f 870// 869// 868//
f 872// 881// 873//
f 873// 881// 874//
f 868// 867// 870//
f 870// 867// 881//
f 870// 881// 871//
f 871// 881// 872//
f 880// 876// 881//
f 881// 876// 875//
f 881// 875// 874//
f 880// 879// 876//
f 876// 879// 878//
f 876// 878// 877//
f 578// 882// 572//
f 572// 882// 883//
f 882// 578// 494//
f 493// 884// 494//
f 494// 884// 885//
f 494// 885// 882//
f 572// 883// 466//
f 466// 883// 886//
f 466// 886// 492//
f 492// 886// 887//
f 492// 887// 888//
f 492// 888// 417//
f 417// 888// 889//
f 417// 889// 467//
f 467// 889// 890//
f 467// 890// 468//
f 468// 890// 891//
f 468// 891// 469//
f 469// 891// 892//
f 469// 892// 475//
f 475// 892// 893//
f 475// 893// 476//
f 476// 893// 894//
f 476// 894// 470//
f 470// 894// 895//
f 470// 895// 471//
f 471// 895// 896//
f 471// 896// 473//
f 473// 896// 897//
f 473// 897// 474//
f 474// 897// 898//
f 474// 898// 518//
f 518// 898// 884//
f 518// 884// 493//
f 883// 882// 886//
f 886// 882// 885//
f 887// 886// 885//
f 885// 884// 887//
f 887// 884// 898//
f 887// 898// 897//
f 897// 896// 887//
f 887// 896// 895//
f 887// 895// 894//
f 894// 893// 887//
f 887// 893// 892//
f 887// 892// 891//
f 891// 890// 887//
f 887// 890// 889//
f 887// 889// 888//
f 575// 899// 576//
f 576// 899// 900//
f 899// 575// 465//
f 464// 901// 465//
f 465// 901// 902//
f 465// 902// 899//
f 576// 900// 463//
f 463// 900// 903//
f 463// 903// 490//
f 490// 903// 904//
f 490// 904// 905//
f 490// 905// 368//
f 368// 905// 906//
f 368// 906// 412//
f 412// 906// 907//
f 412// 907// 413//
f 413// 907// 908//
f 413// 908// 414//
f 414// 908// 909//
f 414// 909// 306//
f 306// 909// 910//
f 306// 910// 307//
f 307// 910// 911//
f 307// 911// 415//
f 415// 911// 912//
f 415// 912// 416//
f 416// 912// 913//
f 416// 913// 418//
f 418// 913// 914//
f 418// 914// 419//
f 419// 914// 915//
f 419// 915// 491//
f 491// 915// 901//
f 491// 901// 464//
f 900// 899// 903//
f 903// 899// 902//
f 904// 903// 902//
f 902// 901// 904//
f 904// 901// 915//
f 904// 915// 914//
f 914// 913// 904//
f 904// 913// 912//
f 904// 912// 911//
f 906// 909// 907//
f 907// 909// 908//
f 911// 910// 904//
f 904// 910// 909//
f 904// 909// 905//
f 905// 909// 906//
f 584// 916// 577//
f 577// 916// 917//
f 916// 584// 462//
f 461// 918// 462//
f 462// 918// 919//
f 462// 919// 916//
f 577// 917// 460//
f 460// 917// 920//
f 460// 920// 488//
f 488// 920// 921//
f 488// 921// 922//
f 488// 922// 301//
f 301// 922// 923//
f 301// 923// 410//
f 410// 923// 924//
f 410// 924// 209//
f 209// 924// 925//
f 209// 925// 210//
f 210// 925// 926//
f 210// 926// 304//
f 304// 926// 927//
f 304// 927// 305//
f 305// 927// 928//
f 305// 928// 366//
f 366// 928// 929//
f 366// 929// 367//
f 367// 929// 930//
f 367// 930// 369//
f 369// 930// 931//
f 369// 931// 370//
f 370// 931// 932//
f 370// 932// 489//
f 489// 932// 918//
f 489// 918// 461//
f 917// 916// 920//
f 920// 916// 919//
f 921// 920// 919//
f 919// 918// 921//
f 921// 918// 932//
f 921// 932// 931//
f 931// 930// 921//
f 921// 930// 929//
f 921// 929// 928//
f 923// 926// 924//
f 924// 926// 925//
f 928// 927// 921//
f 921// 927// 926//
f 921// 926// 922//
f 922// 926// 923//
f 579// 933// 580//
f 580// 933// 934//
f 933// 579// 459//
f 458// 935// 459//
f 459// 935// 936//
f 459// 936// 933//
f 580// 934// 297//
f 297// 934// 937//
f 297// 937// 360//
f 360// 937// 938//
f 360// 938// 939//
f 360// 939// 250//
f 250// 939// 940//
f 250// 940// 361//
f 361// 940// 941//
f 361// 941// 167//
f 167// 941// 942//
f 167// 942// 168//
f 168// 942// 943//
f 168// 943// 363//
f 363// 943// 944//
f 363// 944// 364//
f 364// 944// 945//
f 364// 945// 365//
f 365// 945// 946//
f 365// 946// 411//
f 411// 946// 947//
f 411// 947// 302//
f 302// 947// 948//
f 302// 948// 303//
f 303// 948// 949//
f 303// 949// 487//
f 487// 949// 935//
f 487// 935// 458//
f 934// 933// 937//
f 937// 933// 936//
f 943// 942// 935//
f 935// 942// 941//
f 935// 941// 940//
f 949// 945// 935//
f 935// 945// 944//
f 935// 944// 943//
f 949// 948// 945//
f 945// 948// 947//
f 945// 947// 946//
f 937// 936// 938//
f 938// 936// 935//
f 938// 935// 939//
f 939// 935// 940//
f 585// 950// 581//
f 581// 950// 951//
f 950// 585// 296//
f 295// 952// 296//
f 296// 952// 953//
f 296// 953// 950//
f 581// 951// 247//
f 247// 951// 954//
f 247// 954// 294//
f 294// 954// 955//
f 294// 955// 956//
f 294// 956// 203//
f 203// 956// 957//
f 203// 957// 248//
f 248// 957// 958//
f 248// 958// 165//
f 165// 958// 959//
f 165// 959// 166//
f 166// 959// 960//
f 166// 960// 298//
f 298// 960// 961//
f 298// 961// 299//
f 299// 961// 962//
f 299// 962// 300//
f 300// 962// 963//
f 300// 963// 362//
f 362// 963// 964//
f 362// 964// 251//
f 251// 964// 965//
f 251// 965// 252//
f 252// 965// 966//
f 252// 966// 359//
f 359// 966// 952//
f 359// 952// 295//
f 951// 950// 954//
f 954// 950// 953//
f 955// 954// 953//
f 953// 952// 955//
f 955// 952// 966//
f 955// 966// 965//
f 962// 961// 955//
f 955// 961// 960//
f 955// 960// 956//
f 965// 964// 955//
f 955// 964// 963//
f 955// 963// 962//
f 956// 960// 957//
f 957// 960// 959//
f 957// 959// 958//
f 583// 967// 582//
f 582// 967// 968//
f 967// 583// 246//
f 245// 969// 246//
f 246// 969// 970//
f 246// 970// 967//
f 582// 968// 112//
f 112// 968// 971//
f 112// 971// 113//
f 113// 971// 972//
f 113// 972// 973//
f 113// 973// 161//
f 161// 973// 974//
f 161// 974// 162//
f 162// 974// 975//
f 162// 975// 163//
f 163// 975// 976//
f 163// 976// 164//
f 164// 976// 977//
f 164// 977// 206//
f 206// 977// 978//
f 206// 978// 207//
f 207// 978// 979//
f 207// 979// 208//
f 208// 979// 980//
f 208// 980// 249//
f 249// 980// 981//
f 249// 981// 204//
f 204// 981// 982//
f 204// 982// 205//
f 205// 982// 983//
f 205// 983// 293//
f 293// 983// 969//
f 293// 969// 245//
f 968// 967// 971//
f 971// 967// 970//
f 972// 971// 970//
f 970// 969// 972//
f 972// 969// 983//
f 972// 983// 982//
f 979// 978// 972//
f 972// 978// 977//
f 972// 977// 973//
f 982// 981// 972//
f 972// 981// 980//
f 972// 980// 979//
f 973// 977// 974//
f 974// 977// 976//
f 974// 976// 975//
f 564// 984// 566//
f 566// 984// 985//
f 984// 564// 408//
f 407// 986// 408//
f 408// 986// 987//
f 408// 987// 984//
f 566// 985// 193//
f 193// 985// 988//
f 193// 988// 194//
f 194// 988// 989//
f 194// 989// 990//
f 194// 990// 124//
f 124// 990// 991//
f 124// 991// 282//
f 282// 991// 992//
f 282// 992// 195//
f 195// 992// 993//
f 195// 993// 196//
f 196// 993// 994//
f 196// 994// 241//
f 241// 994// 995//
f 241// 995// 198//
f 198// 995// 996//
f 198// 996// 199//
f 199// 996// 997//
f 199// 997// 242//
f 242// 997// 998//
f 242// 998// 243//
f 243// 998// 999//
f 243// 999// 244//
f 244// 999// 1000//
f 244// 1000// 456//
f 456// 1000// 986//
f 456// 986// 407//
f 985// 984// 988//
f 988// 984// 987//
f 988// 987// 989//
f 989// 987// 986//
f 989// 986// 990//
f 995// 994// 993//
f 999// 998// 991//
f 991// 998// 997//
f 991// 997// 992//
f 990// 986// 991//
f 991// 986// 1000//
f 991// 1000// 999//
f 992// 997// 993//
f 993// 997// 996//
f 993// 996// 995//
f 570// 1001// 567//
f 567// 1001// 1002//
f 1001// 570// 192//
f 126// 1003// 192//
f 192// 1003// 1004//
f 192// 1004// 1001//
f 567// 1002// 354//
f 354// 1002// 1005//
f 354// 1005// 355//
f 355// 1005// 1006//
f 355// 1006// 1007//
f 355// 1007// 238//
f 238// 1007// 1008//
f 238// 1008// 356//
f 356// 1008// 1009//
f 356// 1009// 276//
f 276// 1009// 1010//
f 276// 1010// 277//
f 277// 1010// 1011//
f 277// 1011// 279//
f 279// 1011// 1012//
f 279// 1012// 280//
f 280// 1012// 1013//
f 280// 1013// 281//
f 281// 1013// 1014//
f 281// 1014// 357//
f 357// 1014// 1015//
f 357// 1015// 358//
f 358// 1015// 1016//
f 358// 1016// 197//
f 197// 1016// 1017//
f 197// 1017// 125//
f 125// 1017// 1003//
f 125// 1003// 126//
f 1002// 1001// 1005//
f 1005// 1001// 1004//
f 1009// 1008// 1003//
f 1005// 1004// 1006//
f 1006// 1004// 1003//
f 1006// 1003// 1007//
f 1007// 1003// 1008//
f 1012// 1003// 1013//
f 1013// 1003// 1014//
f 1017// 1016// 1003//
f 1003// 1016// 1015//
f 1003// 1015// 1014//
f 1012// 1011// 1003//
f 1003// 1011// 1010//
f 1003// 1010// 1009//
f 561// 1018// 562//
f 562// 1018// 1019//
f 1018// 561// 353//
f 240// 1020// 353//
f 353// 1020// 1021//
f 353// 1021// 1018//
f 562// 1019// 343//
f 343// 1019// 1022//
f 343// 1022// 344//
f 344// 1022// 1023//
f 344// 1023// 1024//
f 344// 1024// 235//
f 235// 1024// 1025//
f 235// 1025// 345//
f 345// 1025// 1026//
f 345// 1026// 346//
f 346// 1026// 1027//
f 346// 1027// 347//
f 347// 1027// 1028//
f 347// 1028// 348//
f 348// 1028// 1029//
f 348// 1029// 349//
f 349// 1029// 1030//
f 349// 1030// 350//
f 350// 1030// 1031//
f 350// 1031// 351//
f 351// 1031// 1032//
f 351// 1032// 352//
f 352// 1032// 1033//
f 352// 1033// 278//
f 278// 1033// 1034//
f 278// 1034// 239//
f 239// 1034// 1020//
f 239// 1020// 240//
f 1019// 1018// 1022//
f 1022// 1018// 1021//
f 1023// 1022// 1021//
f 1021// 1020// 1023//
f 1023// 1020// 1034//
f 1023// 1034// 1033//
f 1025// 1024// 1031//
f 1031// 1024// 1023//
f 1031// 1023// 1032//
f 1032// 1023// 1033//
f 1029// 1028// 1027//
f 1031// 1030// 1025//
f 1025// 1030// 1029//
f 1025// 1029// 1026//
f 1026// 1029// 1027//
f 571// 1035// 560//
f 560// 1035// 1036//
f 1035// 571// 342//
f 237// 1037// 342//
f 342// 1037// 1038//
f 342// 1038// 1035//
f 560// 1036// 190//
f 190// 1036// 1039//
f 190// 1039// 191//
f 191// 1039// 1040//
f 191// 1040// 1041//
f 191// 1041// 121//
f 121// 1041// 1042//
f 121// 1042// 226//
f 226// 1042// 1043//
f 226// 1043// 227//
f 227// 1043// 1044//
f 227// 1044// 228//
f 228// 1044// 1045//
f 228// 1045// 229//
f 229// 1045// 1046//
f 229// 1046// 230//
f 230// 1046// 1047//
f 230// 1047// 231//
f 231// 1047// 1048//
f 231// 1048// 232//
f 232// 1048// 1049//
f 232// 1049// 233//
f 233// 1049// 1050//
f 233// 1050// 234//
f 234// 1050// 1051//
f 234// 1051// 236//
f 236// 1051// 1037//
f 236// 1037// 237//
f 1036// 1035// 1039//
f 1039// 1035// 1038//
f 1039// 1038// 1040//
f 1040// 1038// 1037//
f 1040// 1037// 1041//
f 1046// 1045// 1044//
f 1041// 1037// 1042//
f 1042// 1037// 1051//
f 1042// 1051// 1050//
f 1050// 1049// 1042//
f 1042// 1049// 1048//
f 1042// 1048// 1043//
f 1043// 1048// 1044//
f 1044// 1048// 1047//
f 1044// 1047// 1046//
f 557// 1052// 558//
f 558// 1052// 1053//
f 1052// 557// 189//
f 123// 1054// 189//
f 189// 1054// 1055//
f 189// 1055// 1052//
f 558// 1053// 225//
f 225// 1053// 1056//
f 225// 1056// 275//
f 275// 1056// 1057//
f 275// 1057// 1058//
f 275// 1058// 151//
f 151// 1058// 1059//
f 151// 1059// 152//
f 152// 1059// 1060//
f 152// 1060// 154//
f 154// 1060// 1061//
f 154// 1061// 155//
f 155// 1061// 1062//
f 155// 1062// 120//
f 120// 1062// 1063//
f 120// 1063// 117//
f 117// 1063// 1064//
f 117// 1064// 118//
f 118// 1064// 1065//
f 118// 1065// 158//
f 158// 1065// 1066//
f 158// 1066// 159//
f 159// 1066// 1067//
f 159// 1067// 160//
f 160// 1067// 1068//
f 160// 1068// 122//
f 122// 1068// 1054//
f 122// 1054// 123//
f 1053// 1052// 1056//
f 1056// 1052// 1055//
f 1056// 1055// 1057//
f 1057// 1055// 1054//
f 1057// 1054// 1058//
f 1054// 1065// 1064//
f 1064// 1063// 1054//
f 1054// 1063// 1062//
f 1054// 1062// 1061//
f 1061// 1060// 1054//
f 1054// 1060// 1059//
f 1054// 1059// 1058//
f 1068// 1067// 1054//
f 1054// 1067// 1066//
f 1054// 1066// 1065//
f 569// 1069// 568//
f 568// 1069// 1070//
f 1069// 569// 224//
f 223// 1071// 224//
f 224// 1071// 1072//
f 224// 1072// 1069//
f 568// 1070// 97//
f 97// 1070// 1073//
f 97// 1073// 98//
f 98// 1073// 1074//
f 98// 1074// 1075//
f 98// 1075// 100//
f 100// 1075// 1076//
f 100// 1076// 101//
f 101// 1076// 1077//
f 101// 1077// 108//
f 108// 1077// 1078//
f 108// 1078// 109//
f 109// 1078// 1079//
f 109// 1079// 148//
f 148// 1079// 1080//
f 148// 1080// 149//
f 149// 1080// 1081//
f 149// 1081// 150//
f 150// 1081// 1082//
f 150// 1082// 157//
f 157// 1082// 1083//
f 157// 1083// 156//
f 156// 1083// 1084//
f 156// 1084// 153//
f 153// 1084// 1085//
f 153// 1085// 274//
f 274// 1085// 1071//
f 274// 1071// 223//
f 1070// 1069// 1073//
f 1073// 1069// 1072//
f 1073// 1072// 1074//
f 1074// 1072// 1071//
f 1074// 1071// 1085//
f 1074// 1082// 1075//
f 1075// 1082// 1076//
f 1085// 1084// 1074//
f 1074// 1084// 1083//
f 1074// 1083// 1082//
f 1080// 1079// 1078//
f 1082// 1081// 1076//
f 1076// 1081// 1080//
f 1076// 1080// 1077//
f 1077// 1080// 1078//
f 1// 110// 2//
f 2// 110// 119//
f 2// 119// 79//
f 79// 119// 29//
f 29// 119// 129//
f 29// 129// 27//
f 27// 129// 25//
f 25// 129// 116//
f 25// 116// 68//
f 68// 116// 5//
f 5// 116// 255//
f 5// 255// 3//
f 1// 3// 110//
f 110// 3// 255//
usemtl 3
f 1086// 587// 1087//
f 1087// 587// 586//
f 1087// 586// 1088//
f 1088// 586// 605//
f 1088// 605// 1089//
f 1089// 605// 606//
f 1089// 606// 1090//
f 1090// 606// 609//
f 1090// 609// 1091//
f 1091// 609// 608//
f 1091// 608// 1092//
f 1092// 608// 607//
f 1092// 607// 1093//
f 1093// 607// 604//
f 1093// 604// 1094//
f 1094// 604// 603//
f 1094// 603// 1095//
f 1095// 603// 602//
f 1095// 602// 1096//
f 1096// 602// 601//
f 1096// 601// 1097//
f 1097// 601// 600//
f 1097// 600// 1098//
f 1098// 600// 599//
f 1098// 599// 1099//
f 1099// 599// 598//
f 1099// 598// 1100//
f 1100// 598// 597//
f 1100// 597// 1101//
f 1101// 597// 596//
f 1101// 596// 1102//
f 1102// 596// 595//
f 1102// 595// 1103//
f 1103// 595// 594//
f 1103// 594// 1104//
f 1104// 594// 593//
f 1104// 593// 1105//
f 1105// 593// 592//
f 1105// 592// 1106//
f 1106// 592// 591//
f 1106// 591// 1107//
f 1107// 591// 590//
f 1107// 590// 1108//
f 1108// 590// 589//
f 1108// 589// 1109//
f 1109// 589// 588//
f 1109// 588// 1086//
f 1086// 588// 587//
f 1108// 1109// 1110//
f 1110// 1109// 1086//
f 1110// 1086// 1087//
f 1105// 1106// 1110//
f 1110// 1106// 1107//
f 1110// 1107// 1108//
f 1102// 1103// 1110//
f 1110// 1103// 1104//
f 1110// 1104// 1105//
f 1099// 1100// 1110//
f 1110// 1100// 1101//
f 1110// 1101// 1102//
f 1096// 1097// 1110//
f 1110// 1097// 1098//
f 1110// 1098// 1099//
f 1093// 1094// 1110//
f 1110// 1094// 1095//
f 1110// 1095// 1096//
f 1090// 1091// 1110//
f 1110// 1091// 1092//
f 1110// 1092// 1093//
f 1087// 1088// 1110//
f 1110// 1088// 1089//
f 1110// 1089// 1090//
usemtl 4
f 1111// 1112// 80//
f 80// 1112// 81//
f 1112// 1113// 81//
f 81// 1113// 82//
f 1113// 1114// 82//
f 82// 1114// 83//
f 1114// 1115// 83//
f 83// 1115// 84//
f 1115// 1116// 84//
f 84// 1116// 70//
f 1116// 1117// 70//
f 70// 1117// 71//
f 1117// 1118// 71//
f 71// 1118// 78//
f 1118// 1111// 78//
f 78// 1111// 80//
f 1119// 1115// 1120//
f 1120// 1115// 1114//
f 1121// 1118// 1119//
f 1119// 1118// 1117//
f 1119// 1117// 1115//
f 1115// 1117// 1116//
f 1121// 1122// 1118//
f 1118// 1122// 1123//
f 1118// 1123// 1111//
f 1111// 1123// 1124//
f 1111// 1124// 1125//
f 1125// 1126// 1111//
f 1111// 1126// 1120//
f 1111// 1120// 1112//
f 1112// 1120// 1114//
f 1112// 1114// 1113//
f 1119// 1120// 1127//
f 1127// 1120// 1128//
f 1121// 1119// 1129//
f 1129// 1119// 1127//
f 1121// 1129// 1130//
f 1121// 1130// 1122//
f 1122// 1130// 1131//
f 1122// 1131// 1123//
f 1124// 1123// 1132//
f 1132// 1123// 1131//
f 1124// 1132// 1133//
f 1124// 1133// 1125//
f 1125// 1133// 1134//
f 1125// 1134// 1126//
f 1120// 1126// 1128//
f 1128// 1126// 1134//
f 1135// 1136// 89//
f 89// 1136// 90//
f 1136// 1137// 90//
f 90// 1137// 85//
f 1137// 1138// 85//
f 85// 1138// 76//
f 1139// 95// 94//
f 1139// 94// 1140//
f 1140// 94// 87//
f 1140// 87// 1141//
f 1141// 87// 86//
f 1141// 86// 1142//
f 1142// 86// 93//
f 1142// 93// 1143//
f 1143// 93// 92//
f 1143// 92// 1144//
f 1144// 92// 91//
f 1144// 91// 1145//
f 1145// 91// 77//
f 1145// 77// 1146//
f 1146// 77// 76//
f 1146// 76// 1138//
f 1135// 89// 88//
f 1135// 88// 1147//
f 1147// 88// 75//
f 1147// 75// 1148//
f 1148// 75// 74//
f 1148// 74// 1149//
f 1149// 74// 73//
f 1149// 73// 1150//
f 1150// 73// 72//
f 1150// 72// 1151//
f 1151// 72// 96//
f 1151// 96// 1152//
f 1152// 96// 95//
f 1152// 95// 1139//
f 1141// 1142// 1153//
f 1153// 1142// 1143//
f 1153// 1143// 1154//
f 1154// 1143// 1144//
f 1154// 1144// 1155//
f 1155// 1144// 1145//
f 1155// 1145// 1156//
f 1156// 1145// 1146//
f 1156// 1146// 1157//
f 1157// 1146// 1138//
f 1157// 1138// 1158//
f 1158// 1138// 1137//
f 1158// 1137// 1159//
f 1159// 1137// 1136//
f 1159// 1136// 1160//
f 1160// 1136// 1135//
f 1160// 1135// 1161//
f 1161// 1135// 1147//
f 1161// 1147// 1162//
f 1162// 1147// 1148//
f 1162// 1148// 1163//
f 1163// 1148// 1149//
f 1163// 1149// 1164//
f 1164// 1149// 1150//
f 1164// 1150// 1165//
f 1165// 1150// 1151//
f 1165// 1151// 1166//
f 1166// 1151// 1152//
f 1166// 1152// 1167//
f 1167// 1152// 1139//
f 1167// 1139// 1168//
f 1168// 1139// 1140//
f 1168// 1140// 1169//
f 1169// 1140// 1141//
f 1169// 1141// 1153//
f 1157// 1158// 1170//
f 1170// 1158// 1171//
f 1157// 1170// 1172//
f 1157// 1172// 1156//
f 1156// 1172// 1173//
f 1156// 1173// 1155//
f 1155// 1173// 1174//
f 1155// 1174// 1154//
f 1154// 1174// 1175//
f 1154// 1175// 1153//
f 1153// 1175// 1176//
f 1153// 1176// 1169//
f 1169// 1176// 1177//
f 1169// 1177// 1168//
f 1168// 1177// 1178//
f 1168// 1178// 1167//
f 1167// 1178// 1179//
f 1167// 1179// 1166//
f 1166// 1179// 1180//
f 1166// 1180// 1165//
f 1165// 1180// 1181//
f 1165// 1181// 1164//
f 1164// 1181// 1182//
f 1164// 1182// 1163//
f 1163// 1182// 1183//
f 1163// 1183// 1162//
f 1162// 1183// 1184//
f 1162// 1184// 1161//
f 1161// 1184// 1185//
f 1161// 1185// 1160//
f 1159// 1160// 1186//
f 1186// 1160// 1185//
f 1158// 1159// 1171//
f 1171// 1159// 1186//
f 1187// 1188// 6//
f 6// 1188// 7//
f 1188// 1189// 7//
f 7// 1189// 11//
f 1189// 1190// 11//
f 11// 1190// 12//
f 1190// 1191// 12//
f 12// 1191// 31//
f 1191// 1192// 31//
f 31// 1192// 8//
f 1192// 1193// 8//
f 8// 1193// 9//
f 1193// 1194// 9//
f 9// 1194// 10//
f 1194// 1195// 10//
f 10// 1195// 20//
f 1195// 1196// 20//
f 20// 1196// 19//
f 1196// 1197// 19//
f 19// 1197// 17//
f 1197// 1198// 17//
f 17// 1198// 18//
f 1198// 1187// 18//
f 18// 1187// 6//
f 1189// 1188// 1187//
f 1187// 1198// 1189//
f 1189// 1198// 1197//
f 1189// 1197// 1190//
f 1192// 1191// 1193//
f 1193// 1191// 1190//
f 1193// 1190// 1194//
f 1194// 1190// 1197//
f 1194// 1197// 1195//
f 1195// 1197// 1196//
f 1199// 1200// 13//
f 13// 1200// 14//
f 14// 1200// 1201//
f 1202// 69// 67//
f 1202// 67// 1203//
f 1203// 67// 16//
f 1203// 16// 1201//
f 1201// 16// 15//
f 1201// 15// 14//
f 69// 1202// 24//
f 24// 1202// 1204//
f 24// 1204// 23//
f 23// 1204// 1205//
f 23// 1205// 21//
f 21// 1205// 1206//
f 21// 1206// 51//
f 51// 1206// 1207//
f 51// 1207// 52//
f 52// 1207// 1208//
f 52// 1208// 54//
f 54// 1208// 1209//
f 54// 1209// 56//
f 56// 1209// 1210//
f 56// 1210// 57//
f 1211// 61// 60//
f 1211// 60// 1212//
f 1212// 60// 59//
f 1212// 59// 1213//
f 1213// 59// 48//
f 1213// 48// 1214//
f 1214// 48// 49//
f 1214// 49// 1215//
f 1215// 49// 50//
f 1215// 50// 1216//
f 1216// 50// 58//
f 1216// 58// 1217//
f 1217// 58// 57//
f 1217// 57// 1210//
f 1218// 63// 62//
f 1218// 62// 1219//
f 1219// 62// 61//
f 1219// 61// 1211//
f 1218// 1220// 63//
f 63// 1220// 64//
f 1221// 66// 65//
f 1221// 65// 1222//
f 1222// 65// 64//
f 1222// 64// 1220//
f 1223// 37// 47//
f 1223// 47// 1224//
f 1224// 47// 46//
f 1224// 46// 1225//
f 1225// 46// 36//
f 1225// 36// 1226//
f 1226// 36// 35//
f 1226// 35// 1227//
f 1227// 35// 33//
f 1227// 33// 1228//
f 1228// 33// 32//
f 1228// 32// 1229//
f 1229// 32// 66//
f 1229// 66// 1221//
f 1230// 41// 40//
f 1230// 40// 1231//
f 1231// 40// 42//
f 1231// 42// 1232//
f 1232// 42// 43//
f 1232// 43// 1233//
f 1233// 43// 44//
f 1233// 44// 1234//
f 1234// 44// 39//
f 1234// 39// 1235//
f 1235// 39// 38//
f 1235// 38// 1236//
f 1236// 38// 37//
f 1236// 37// 1223//
f 1199// 13// 34//
f 1199// 34// 1237//
f 1237// 34// 45//
f 1237// 45// 1238//
f 1238// 45// 41//
f 1238// 41// 1230//
f 1231// 1202// 1230//
f 1230// 1202// 1203//
f 1230// 1203// 1238//
f 1238// 1203// 1201//
f 1238// 1201// 1237//
f 1237// 1201// 1200//
f 1237// 1200// 1199//
f 1220// 1218// 1222//
f 1222// 1218// 1219//
f 1222// 1219// 1221//
f 1221// 1219// 1211//
f 1221// 1211// 1229//
f 1229// 1211// 1212//
f 1229// 1212// 1228//
f 1228// 1212// 1213//
f 1228// 1213// 1227//
f 1227// 1213// 1214//
f 1227// 1214// 1226//
f 1226// 1214// 1215//
f 1226// 1215// 1225//
f 1225// 1215// 1216//
f 1225// 1216// 1224//
f 1224// 1216// 1217//
f 1224// 1217// 1223//
f 1223// 1217// 1210//
f 1223// 1210// 1236//
f 1236// 1210// 1209//
f 1236// 1209// 1235//
f 1235// 1209// 1208//
f 1235// 1208// 1234//
f 1234// 1208// 1207//
f 1234// 1207// 1233//
f 1233// 1207// 1206//
f 1233// 1206// 1232//
f 1232// 1206// 1205//
f 1232// 1205// 1231//
f 1231// 1205// 1204//
f 1231// 1204// 1202//
f 1239// 1240// 53//
f 53// 1240// 22//
f 1240// 1241// 22//
f 22// 1241// 26//
f 1241// 1242// 26//
f 26// 1242// 28//
f 1242// 1243// 28//
f 28// 1243// 30//
f 1243// 1244// 30//
f 30// 1244// 55//
f 1244// 1239// 55//
f 55// 1239// 53//
f 1243// 1242// 1244//
f 1244// 1242// 1241//
f 1244// 1241// 1239//
f 1239// 1241// 1240//
usemtl 1
f 1127// 1128// 1129//
f 1129// 1128// 1134//
f 1129// 1134// 1130//
f 1130// 1134// 1133//
f 1130// 1133// 1131//
f 1131// 1133// 1132//
f 1171// 1186// 1170//
f 1170// 1186// 1185//
f 1170// 1185// 1184//
f 1178// 1177// 1170//
f 1170// 1177// 1176//
f 1170// 1176// 1172//
f 1184// 1183// 1170//
f 1170// 1183// 1182//
f 1170// 1182// 1181//
f 1181// 1180// 1170//
f 1170// 1180// 1179//
f 1170// 1179// 1178//
f 1175// 1174// 1176//
f 1176// 1174// 1173//
f 1176// 1173// 1172//
